%TF.GenerationSoftware,KiCad,Pcbnew,8.0.4*%
%TF.CreationDate,2024-08-12T16:22:58+08:00*%
%TF.ProjectId,UINIO-MCU-HC32F460KETA,55494e49-4f2d-44d4-9355-2d4843333246,Version 1.0.0*%
%TF.SameCoordinates,PX71f45d0PY4ce7800*%
%TF.FileFunction,Copper,L2,Bot*%
%TF.FilePolarity,Positive*%
%FSLAX46Y46*%
G04 Gerber Fmt 4.6, Leading zero omitted, Abs format (unit mm)*
G04 Created by KiCad (PCBNEW 8.0.4) date 2024-08-12 16:22:58*
%MOMM*%
%LPD*%
G01*
G04 APERTURE LIST*
%TA.AperFunction,ComponentPad*%
%ADD10R,1.700000X1.700000*%
%TD*%
%TA.AperFunction,ComponentPad*%
%ADD11O,1.700000X1.700000*%
%TD*%
%TA.AperFunction,ComponentPad*%
%ADD12O,2.100000X1.000000*%
%TD*%
%TA.AperFunction,ComponentPad*%
%ADD13O,1.900000X1.000000*%
%TD*%
%TA.AperFunction,ViaPad*%
%ADD14C,0.500000*%
%TD*%
%TA.AperFunction,ViaPad*%
%ADD15C,0.700000*%
%TD*%
%TA.AperFunction,ViaPad*%
%ADD16C,0.600000*%
%TD*%
%TA.AperFunction,ViaPad*%
%ADD17C,0.900000*%
%TD*%
%TA.AperFunction,Conductor*%
%ADD18C,0.300000*%
%TD*%
%TA.AperFunction,Conductor*%
%ADD19C,0.500000*%
%TD*%
%TA.AperFunction,Conductor*%
%ADD20C,0.200000*%
%TD*%
G04 APERTURE END LIST*
D10*
%TO.P,J4,1,Pin_1*%
%TO.N,/PB11{slash}MD*%
X22080000Y-33010000D03*
D11*
%TO.P,J4,2,Pin_2*%
%TO.N,GND*%
X19540000Y-33010000D03*
%TD*%
D10*
%TO.P,J5,1,Pin_1*%
%TO.N,GND*%
X-3650000Y-12560000D03*
D11*
%TO.P,J5,2,Pin_2*%
%TO.N,VCC_5V*%
X-3650000Y-10020000D03*
%TO.P,J5,3,Pin_3*%
%TO.N,GND*%
X-3650000Y-7480000D03*
%TO.P,J5,4,Pin_4*%
%TO.N,VCC_5V*%
X-3650000Y-4940000D03*
%TD*%
D12*
%TO.P,USB1,13,GND*%
%TO.N,GND*%
X789000Y-17135000D03*
%TO.P,USB1,14,GND*%
X789000Y-25785000D03*
D13*
%TO.P,USB1,15,GND*%
X-3411000Y-17135000D03*
%TO.P,USB1,16,GND*%
X-3411000Y-25785000D03*
%TD*%
D10*
%TO.P,J3,1,Pin_1*%
%TO.N,/PA8*%
X2490000Y-1360000D03*
D11*
%TO.P,J3,2,Pin_2*%
%TO.N,/PC9*%
X5030000Y-1360000D03*
%TO.P,J3,3,Pin_3*%
%TO.N,/PC8*%
X7570000Y-1360000D03*
%TO.P,J3,4,Pin_4*%
%TO.N,/PC7*%
X10110000Y-1360000D03*
%TO.P,J3,5,Pin_5*%
%TO.N,/PC6*%
X12650000Y-1360000D03*
%TO.P,J3,6,Pin_6*%
%TO.N,/PB15*%
X15190000Y-1360000D03*
%TO.P,J3,7,Pin_7*%
%TO.N,/PB14*%
X17730000Y-1360000D03*
%TO.P,J3,8,Pin_8*%
%TO.N,/PB13*%
X20270000Y-1360000D03*
%TO.P,J3,9,Pin_9*%
%TO.N,/PB12*%
X22810000Y-1360000D03*
%TO.P,J3,10,Pin_10*%
%TO.N,VCC_3.3V*%
X25350000Y-1360000D03*
%TO.P,J3,11,Pin_11*%
%TO.N,GND*%
X27890000Y-1360000D03*
%TO.P,J3,12,Pin_12*%
%TO.N,/PB10*%
X30430000Y-1360000D03*
%TO.P,J3,13,Pin_13*%
%TO.N,/PB2*%
X32970000Y-1360000D03*
%TO.P,J3,14,Pin_14*%
%TO.N,/PB1*%
X35510000Y-1360000D03*
%TO.P,J3,15,Pin_15*%
%TO.N,/PB0*%
X38050000Y-1360000D03*
%TO.P,J3,16,Pin_16*%
%TO.N,/PC5*%
X40590000Y-1360000D03*
%TO.P,J3,17,Pin_17*%
%TO.N,/PC4*%
X43130000Y-1360000D03*
%TO.P,J3,18,Pin_18*%
%TO.N,/PA7*%
X45670000Y-1360000D03*
%TO.P,J3,19,Pin_19*%
%TO.N,/PA6*%
X48210000Y-1360000D03*
%TO.P,J3,20,Pin_20*%
%TO.N,/PA5*%
X50750000Y-1360000D03*
%TO.P,J3,21,Pin_21*%
%TO.N,/PA4*%
X53290000Y-1360000D03*
%TO.P,J3,22,Pin_22*%
%TO.N,/AVCC*%
X55830000Y-1360000D03*
%TO.P,J3,23,Pin_23*%
%TO.N,/AVSS*%
X58370000Y-1360000D03*
%TO.P,J3,24,Pin_24*%
%TO.N,/PA3*%
X60910000Y-1360000D03*
%TD*%
D10*
%TO.P,J1,1,Pin_1*%
%TO.N,VCC_3.3V*%
X67030000Y-37960000D03*
D11*
%TO.P,J1,2,Pin_2*%
%TO.N,GND*%
X67030000Y-35420000D03*
%TO.P,J1,3,Pin_3*%
%TO.N,/PH2*%
X67030000Y-32880000D03*
%TO.P,J1,4,Pin_4*%
%TO.N,/PC13*%
X67030000Y-30340000D03*
%TO.P,J1,5,Pin_5*%
%TO.N,/NRST*%
X67030000Y-27800000D03*
%TO.P,J1,6,Pin_6*%
%TO.N,/PC0*%
X67030000Y-25260000D03*
%TO.P,J1,7,Pin_7*%
%TO.N,/PC1*%
X67030000Y-22720000D03*
%TO.P,J1,8,Pin_8*%
%TO.N,/PC2*%
X67030000Y-20180000D03*
%TO.P,J1,9,Pin_9*%
%TO.N,/PC3*%
X67030000Y-17640000D03*
%TO.P,J1,10,Pin_10*%
%TO.N,/AVSS{slash}VREFL*%
X67030000Y-15100000D03*
%TO.P,J1,11,Pin_11*%
%TO.N,/AVCC{slash}VREFH*%
X67030000Y-12560000D03*
%TO.P,J1,12,Pin_12*%
%TO.N,/PA0*%
X67030000Y-10020000D03*
%TO.P,J1,13,Pin_13*%
%TO.N,/PA1*%
X67030000Y-7480000D03*
%TO.P,J1,14,Pin_14*%
%TO.N,/PA2*%
X67030000Y-4940000D03*
%TD*%
D10*
%TO.P,J6,1,Pin_1*%
%TO.N,GND*%
X-3650000Y-37960000D03*
D11*
%TO.P,J6,2,Pin_2*%
%TO.N,/PA14{slash}JTCK_SWCLK*%
X-3650000Y-35420000D03*
%TO.P,J6,3,Pin_3*%
%TO.N,/PA13{slash}JTMS_SWDIO*%
X-3650000Y-32880000D03*
%TO.P,J6,4,Pin_4*%
%TO.N,VCC_3.3V*%
X-3650000Y-30340000D03*
%TD*%
D10*
%TO.P,J2,1,Pin_1*%
%TO.N,/PA9*%
X2490000Y-41560000D03*
D11*
%TO.P,J2,2,Pin_2*%
%TO.N,/PA10*%
X5030000Y-41560000D03*
%TO.P,J2,3,Pin_3*%
%TO.N,/PA11*%
X7570000Y-41560000D03*
%TO.P,J2,4,Pin_4*%
%TO.N,/PA12*%
X10110000Y-41560000D03*
%TO.P,J2,5,Pin_5*%
%TO.N,/PA13{slash}JTMS_SWDIO*%
X12650000Y-41560000D03*
%TO.P,J2,6,Pin_6*%
%TO.N,GND*%
X15190000Y-41560000D03*
%TO.P,J2,7,Pin_7*%
%TO.N,VCC_3.3V*%
X17730000Y-41560000D03*
%TO.P,J2,8,Pin_8*%
%TO.N,/PA14{slash}JTCK_SWCLK*%
X20270000Y-41560000D03*
%TO.P,J2,9,Pin_9*%
%TO.N,/PA15*%
X22810000Y-41560000D03*
%TO.P,J2,10,Pin_10*%
%TO.N,/PC10*%
X25350000Y-41560000D03*
%TO.P,J2,11,Pin_11*%
%TO.N,/PC11*%
X27890000Y-41560000D03*
%TO.P,J2,12,Pin_12*%
%TO.N,/PC12*%
X30430000Y-41560000D03*
%TO.P,J2,13,Pin_13*%
%TO.N,/PD2*%
X32970000Y-41560000D03*
%TO.P,J2,14,Pin_14*%
%TO.N,/PB3*%
X35510000Y-41560000D03*
%TO.P,J2,15,Pin_15*%
%TO.N,/PB4*%
X38050000Y-41560000D03*
%TO.P,J2,16,Pin_16*%
%TO.N,/PB5*%
X40590000Y-41560000D03*
%TO.P,J2,17,Pin_17*%
%TO.N,/PB6*%
X43130000Y-41560000D03*
%TO.P,J2,18,Pin_18*%
%TO.N,/PB7*%
X45670000Y-41560000D03*
%TO.P,J2,19,Pin_19*%
%TO.N,/PB11{slash}MD*%
X48210000Y-41560000D03*
%TO.P,J2,20,Pin_20*%
%TO.N,/PB8*%
X50750000Y-41560000D03*
%TO.P,J2,21,Pin_21*%
%TO.N,/PB9*%
X53290000Y-41560000D03*
%TO.P,J2,22,Pin_22*%
%TO.N,GND*%
X55830000Y-41560000D03*
%TO.P,J2,23,Pin_23*%
%TO.N,VCC_3.3V*%
X58370000Y-41560000D03*
%TO.P,J2,24,Pin_24*%
%TO.N,GND*%
X60910000Y-41560000D03*
%TD*%
D14*
%TO.N,GND*%
X36750000Y-5830000D03*
D15*
X30230000Y-20460000D03*
D14*
X44230000Y-21460000D03*
X2950000Y-34180000D03*
X39000000Y-14750000D03*
X48230000Y-33460000D03*
D15*
X19230000Y-7460000D03*
D14*
X46230000Y-21460000D03*
X40250000Y-12750000D03*
X45000000Y-13500000D03*
X52230000Y-29460000D03*
X43750000Y-10000000D03*
X52230000Y-31460000D03*
D15*
X22230000Y-7460000D03*
X8692500Y-24750000D03*
X33230000Y-23460000D03*
D14*
X53206394Y-21424592D03*
X60000000Y-6040000D03*
X47000000Y-16500000D03*
X45230000Y-27460000D03*
D15*
X43910000Y-6250000D03*
X42910000Y-6250000D03*
D14*
X48000000Y-10500000D03*
X44230000Y-20460000D03*
D15*
X10055000Y-24750000D03*
X53442500Y-15630000D03*
D14*
X50230000Y-27460000D03*
D15*
X30230000Y-23460000D03*
D14*
X52230000Y-23460000D03*
X51230000Y-27460000D03*
X64000000Y-6040000D03*
X39000000Y-13750000D03*
X45250000Y-8500000D03*
X50230000Y-33460000D03*
X51230000Y-33460000D03*
X53250000Y-10750000D03*
D15*
X44910000Y-6250000D03*
X29230000Y-21460000D03*
D14*
X53250000Y-9750000D03*
D15*
X34230000Y-21460000D03*
D14*
X47230000Y-20460000D03*
X48000000Y-16500000D03*
D15*
X7330000Y-24750000D03*
D14*
X44500000Y-9250000D03*
X45230000Y-24460000D03*
X53250000Y-11750000D03*
D15*
X20230000Y-7460000D03*
X34230000Y-22460000D03*
D14*
X47230000Y-21460000D03*
X44000000Y-16500000D03*
D15*
X34230000Y-20460000D03*
D14*
X37750000Y-13750000D03*
D15*
X51590000Y-15630000D03*
D14*
X53230000Y-33460000D03*
D15*
X32230000Y-21460000D03*
X29230000Y-23460000D03*
D14*
X36500000Y-13250000D03*
D15*
X18230000Y-7460000D03*
D14*
X35960000Y-6620000D03*
D15*
X39910000Y-6250000D03*
D14*
X43230000Y-21460000D03*
X49230000Y-27460000D03*
X53230000Y-23460000D03*
D15*
X32230000Y-23460000D03*
D14*
X44230000Y-25460000D03*
X63020000Y-6040000D03*
X46230000Y-25460000D03*
X44230000Y-24460000D03*
X42250000Y-11500000D03*
D15*
X31230000Y-21460000D03*
D14*
X44230000Y-26460000D03*
X53250000Y-8750000D03*
X53230000Y-30460000D03*
D15*
X29230000Y-22460000D03*
X30230000Y-21460000D03*
X31230000Y-22460000D03*
D14*
X52230000Y-25460000D03*
D15*
X33230000Y-19460000D03*
D14*
X37750000Y-12750000D03*
X53230000Y-26460000D03*
X45230000Y-25460000D03*
X53230000Y-31460000D03*
D15*
X59000000Y-15630000D03*
D14*
X46230000Y-20460000D03*
X37750000Y-14750000D03*
D15*
X32230000Y-22460000D03*
D14*
X52230000Y-28460000D03*
X52250000Y-12750000D03*
D15*
X38910000Y-6250000D03*
X41910000Y-6250000D03*
X11417500Y-24750000D03*
D14*
X42230000Y-24460000D03*
X45230000Y-21460000D03*
D15*
X34230000Y-23460000D03*
D14*
X22900000Y-15890000D03*
X45000000Y-16500000D03*
D15*
X55295000Y-15630000D03*
D14*
X52230000Y-22460000D03*
X52230000Y-32460000D03*
D15*
X31230000Y-23460000D03*
D14*
X46500000Y-12000000D03*
X53218197Y-27514701D03*
X47230000Y-24460000D03*
D16*
X31690000Y-39700000D03*
D14*
X46230000Y-24460000D03*
D15*
X40910000Y-6250000D03*
X57147500Y-15630000D03*
X9210000Y-29560000D03*
D14*
X41250000Y-12250000D03*
D15*
X33230000Y-22460000D03*
D14*
X52250000Y-11750000D03*
D15*
X30230000Y-19460000D03*
D14*
X46230000Y-26460000D03*
X52230000Y-27460000D03*
D15*
X10610000Y-29560000D03*
X12780000Y-24750000D03*
X33230000Y-21460000D03*
D14*
X45230000Y-20460000D03*
D15*
X32230000Y-20460000D03*
D14*
X52250000Y-10750000D03*
X52230000Y-30460000D03*
X47230000Y-27460000D03*
X45750000Y-12750000D03*
X52230000Y-26460000D03*
X46230000Y-27460000D03*
X0Y-8780000D03*
X53230000Y-28460000D03*
X53230000Y-22460000D03*
X53250000Y-12750000D03*
D15*
X31230000Y-20460000D03*
D14*
X52230000Y-33460000D03*
X52250000Y-13750000D03*
D15*
X32230000Y-19460000D03*
D14*
X43000000Y-10750000D03*
X48230000Y-27460000D03*
X47230000Y-26460000D03*
D15*
X34230000Y-19460000D03*
D14*
X47000000Y-13500000D03*
D15*
X21230000Y-7460000D03*
D14*
X43230000Y-20460000D03*
X52230000Y-21460000D03*
X9250000Y-36500000D03*
X52250000Y-9750000D03*
X40250000Y-13750000D03*
D15*
X30230000Y-22460000D03*
D14*
X52230000Y-24460000D03*
X53230000Y-20460000D03*
X47250000Y-11250000D03*
X42230000Y-21460000D03*
X61000000Y-6040000D03*
X47230000Y-25460000D03*
X53230000Y-32460000D03*
D15*
X7810000Y-29560000D03*
D14*
X46000000Y-13500000D03*
X9250000Y-33500000D03*
X49230000Y-33460000D03*
D15*
X31230000Y-19460000D03*
D14*
X53250000Y-13750000D03*
D15*
X29230000Y-20460000D03*
D14*
X52250000Y-8750000D03*
X53230000Y-29460000D03*
X39000000Y-12750000D03*
X14000000Y-36500000D03*
D15*
X23000000Y-25230000D03*
D14*
X53230000Y-25460000D03*
X62000000Y-6040000D03*
X53230000Y-24460000D03*
X43230000Y-25460000D03*
D15*
X33230000Y-20460000D03*
D14*
X43230000Y-24460000D03*
X46000000Y-16500000D03*
X45230000Y-26460000D03*
X47000000Y-6750000D03*
D15*
X29230000Y-19460000D03*
D14*
X52230000Y-20460000D03*
D17*
%TO.N,VCC_5V*%
X2660000Y-19060000D03*
X5080000Y-26280000D03*
D14*
%TO.N,/NRST*%
X42175000Y-20425000D03*
D16*
X20580000Y-11610000D03*
D14*
%TO.N,/PA13{slash}JTMS_SWDIO*%
X2950000Y-32880000D03*
D16*
%TO.N,/PA14{slash}JTCK_SWCLK*%
X8360000Y-34240000D03*
D15*
%TO.N,VCC_3.3V*%
X6920000Y-32880000D03*
D17*
X26620000Y-10400000D03*
X13890000Y-17030000D03*
D15*
X6920000Y-35420000D03*
X50452500Y-9170000D03*
X35450000Y-35790000D03*
X22890000Y-14120000D03*
X27940000Y-14110000D03*
X40050000Y-7600000D03*
D17*
X15380000Y-26280000D03*
D15*
X25940000Y-26280000D03*
%TD*%
D18*
%TO.N,GND*%
X64630000Y-7620000D02*
X64630000Y-12700000D01*
D19*
%TO.N,VCC_5V*%
X2660000Y-19060000D02*
X2660000Y-23860000D01*
X2660000Y-23860000D02*
X5080000Y-26280000D01*
D20*
%TO.N,/PB11{slash}MD*%
X22080000Y-33010000D02*
X27710000Y-38640000D01*
X27710000Y-38640000D02*
X45290000Y-38640000D01*
X45290000Y-38640000D02*
X48210000Y-41560000D01*
%TO.N,/NRST*%
X42175000Y-20425000D02*
X33360000Y-11610000D01*
X33360000Y-11610000D02*
X20580000Y-11610000D01*
D18*
%TO.N,/PA13{slash}JTMS_SWDIO*%
X2950000Y-32880000D02*
X2950000Y-32890000D01*
X11090000Y-40010000D02*
X12640000Y-41560000D01*
X10070000Y-40010000D02*
X11090000Y-40010000D01*
X2950000Y-32890000D02*
X10070000Y-40010000D01*
%TO.N,/PA14{slash}JTCK_SWCLK*%
X12950000Y-34240000D02*
X20270000Y-41560000D01*
X8360000Y-34240000D02*
X12950000Y-34240000D01*
D19*
%TO.N,VCC_3.3V*%
X58370000Y-37960000D02*
X67030000Y-37960000D01*
X40050000Y-7600000D02*
X29420000Y-7600000D01*
D18*
X27940000Y-14110000D02*
X27930000Y-14120000D01*
D19*
X6920000Y-35420000D02*
X11590000Y-35420000D01*
X50450000Y-9170000D02*
X48880000Y-7600000D01*
X8270000Y-26280000D02*
X4210000Y-30340000D01*
X15380000Y-26280000D02*
X15380000Y-26290000D01*
X4210000Y-30340000D02*
X-3650000Y-30340000D01*
X11590000Y-35420000D02*
X17730000Y-41560000D01*
X6920000Y-32880000D02*
X6920000Y-35420000D01*
D18*
X27930000Y-14120000D02*
X22890000Y-14120000D01*
D19*
X25020000Y-17030000D02*
X13890000Y-17030000D01*
X29420000Y-7600000D02*
X26620000Y-10400000D01*
X15380000Y-26290000D02*
X8790000Y-32880000D01*
X15380000Y-26280000D02*
X25940000Y-26280000D01*
X27940000Y-14110000D02*
X25020000Y-17030000D01*
X8790000Y-32880000D02*
X6920000Y-32880000D01*
X15380000Y-26280000D02*
X8270000Y-26280000D01*
X48880000Y-7600000D02*
X40050000Y-7600000D01*
X58370000Y-41560000D02*
X58370000Y-37960000D01*
X37620000Y-37960000D02*
X58370000Y-37960000D01*
X35450000Y-35790000D02*
X37620000Y-37960000D01*
X50452500Y-9170000D02*
X50450000Y-9170000D01*
X35450000Y-35790000D02*
X25940000Y-26280000D01*
%TD*%
%TA.AperFunction,Conductor*%
%TO.N,GND*%
G36*
X13345810Y-27050185D02*
G01*
X13391565Y-27102989D01*
X13401509Y-27172147D01*
X13372484Y-27235703D01*
X13366452Y-27242180D01*
X10732297Y-29876335D01*
X8515451Y-32093181D01*
X8454128Y-32126666D01*
X8427770Y-32129500D01*
X7699731Y-32129500D01*
X7682194Y-32128254D01*
X7681449Y-32128147D01*
X7681444Y-32128146D01*
X7339759Y-32079333D01*
X7051386Y-32038136D01*
X7043145Y-32036673D01*
X7009394Y-32029500D01*
X7009391Y-32029500D01*
X6993008Y-32029500D01*
X6979756Y-32028790D01*
X6978765Y-32028683D01*
X6969780Y-32027717D01*
X6968184Y-32027602D01*
X6968168Y-32027601D01*
X6873035Y-32029126D01*
X6867360Y-32029500D01*
X6830609Y-32029500D01*
X6799954Y-32036015D01*
X6655733Y-32066670D01*
X6655728Y-32066672D01*
X6492408Y-32139387D01*
X6347768Y-32244475D01*
X6228140Y-32377336D01*
X6138750Y-32532164D01*
X6138747Y-32532170D01*
X6083504Y-32702192D01*
X6083503Y-32702194D01*
X6064815Y-32880001D01*
X6070816Y-32937107D01*
X6071495Y-32950170D01*
X6071482Y-32964799D01*
X6071483Y-32964807D01*
X6079655Y-33022015D01*
X6080221Y-33026586D01*
X6083502Y-33057805D01*
X6084854Y-33064163D01*
X6084686Y-33064198D01*
X6087274Y-33075348D01*
X6168146Y-33641444D01*
X6168153Y-33641490D01*
X6168254Y-33642194D01*
X6169500Y-33659731D01*
X6169500Y-34640268D01*
X6168254Y-34657805D01*
X6168147Y-34658551D01*
X6168146Y-34658556D01*
X6137013Y-34876488D01*
X6108045Y-34940069D01*
X6049301Y-34977897D01*
X5979431Y-34977960D01*
X5926578Y-34946632D01*
X3821776Y-32841830D01*
X3805080Y-32821092D01*
X3764109Y-32757211D01*
X3764107Y-32757209D01*
X3667381Y-32606393D01*
X3611741Y-32519638D01*
X3607188Y-32512666D01*
X3607184Y-32512661D01*
X3604341Y-32508952D01*
X3604519Y-32508815D01*
X3596093Y-32497622D01*
X3540477Y-32409110D01*
X3420890Y-32289523D01*
X3420884Y-32289518D01*
X3277697Y-32199547D01*
X3277694Y-32199545D01*
X3118056Y-32143685D01*
X2950003Y-32124751D01*
X2949997Y-32124751D01*
X2781943Y-32143685D01*
X2622305Y-32199545D01*
X2622302Y-32199547D01*
X2479115Y-32289518D01*
X2479109Y-32289523D01*
X2359523Y-32409109D01*
X2359518Y-32409115D01*
X2269547Y-32552302D01*
X2269545Y-32552305D01*
X2213685Y-32711943D01*
X2194751Y-32879997D01*
X2194751Y-32880002D01*
X2213685Y-33048056D01*
X2269545Y-33207694D01*
X2269547Y-33207697D01*
X2359518Y-33350884D01*
X2359523Y-33350890D01*
X2479111Y-33470478D01*
X2479114Y-33470480D01*
X2519622Y-33495933D01*
X2523775Y-33498659D01*
X2872390Y-33737738D01*
X2880135Y-33743049D01*
X2897685Y-33757631D01*
X9382874Y-40242820D01*
X9416359Y-40304143D01*
X9411375Y-40373835D01*
X9369503Y-40429768D01*
X9366317Y-40432076D01*
X9238594Y-40521508D01*
X9071505Y-40688597D01*
X8941575Y-40874158D01*
X8886998Y-40917783D01*
X8817500Y-40924977D01*
X8755145Y-40893454D01*
X8738425Y-40874158D01*
X8608494Y-40688597D01*
X8441402Y-40521506D01*
X8441395Y-40521501D01*
X8247834Y-40385967D01*
X8247830Y-40385965D01*
X8183825Y-40356119D01*
X8033663Y-40286097D01*
X8033659Y-40286096D01*
X8033655Y-40286094D01*
X7805413Y-40224938D01*
X7805403Y-40224936D01*
X7570001Y-40204341D01*
X7569999Y-40204341D01*
X7334596Y-40224936D01*
X7334586Y-40224938D01*
X7106344Y-40286094D01*
X7106335Y-40286098D01*
X6892171Y-40385964D01*
X6892169Y-40385965D01*
X6698597Y-40521505D01*
X6531505Y-40688597D01*
X6401575Y-40874158D01*
X6346998Y-40917783D01*
X6277500Y-40924977D01*
X6215145Y-40893454D01*
X6198425Y-40874158D01*
X6068494Y-40688597D01*
X5901402Y-40521506D01*
X5901395Y-40521501D01*
X5707834Y-40385967D01*
X5707830Y-40385965D01*
X5643825Y-40356119D01*
X5493663Y-40286097D01*
X5493659Y-40286096D01*
X5493655Y-40286094D01*
X5265413Y-40224938D01*
X5265403Y-40224936D01*
X5030001Y-40204341D01*
X5029999Y-40204341D01*
X4794596Y-40224936D01*
X4794586Y-40224938D01*
X4566344Y-40286094D01*
X4566335Y-40286098D01*
X4352171Y-40385964D01*
X4352169Y-40385965D01*
X4158600Y-40521503D01*
X4036673Y-40643430D01*
X3975350Y-40676914D01*
X3905658Y-40671930D01*
X3849725Y-40630058D01*
X3832810Y-40599081D01*
X3783797Y-40467671D01*
X3783793Y-40467664D01*
X3697547Y-40352455D01*
X3697544Y-40352452D01*
X3582335Y-40266206D01*
X3582328Y-40266202D01*
X3447482Y-40215908D01*
X3447483Y-40215908D01*
X3387883Y-40209501D01*
X3387881Y-40209500D01*
X3387873Y-40209500D01*
X3387864Y-40209500D01*
X1592129Y-40209500D01*
X1592123Y-40209501D01*
X1532516Y-40215908D01*
X1397671Y-40266202D01*
X1397664Y-40266206D01*
X1282455Y-40352452D01*
X1282452Y-40352455D01*
X1196206Y-40467664D01*
X1196202Y-40467671D01*
X1145908Y-40602517D01*
X1139501Y-40662116D01*
X1139500Y-40662135D01*
X1139500Y-42457870D01*
X1139501Y-42457876D01*
X1146738Y-42525196D01*
X1145342Y-42525345D01*
X1142050Y-42586756D01*
X1101182Y-42643427D01*
X1036163Y-42669007D01*
X1025114Y-42669500D01*
X2706Y-42669500D01*
X-2703Y-42669382D01*
X-408540Y-42651663D01*
X-419315Y-42650720D01*
X-815999Y-42598495D01*
X-819371Y-42598051D01*
X-830023Y-42596173D01*
X-1150183Y-42525196D01*
X-1223978Y-42508836D01*
X-1234421Y-42506038D01*
X-1619267Y-42384696D01*
X-1629430Y-42380997D01*
X-2002227Y-42226579D01*
X-2012031Y-42222007D01*
X-2369943Y-42035690D01*
X-2379311Y-42030282D01*
X-2719639Y-41813469D01*
X-2728500Y-41807264D01*
X-3048628Y-41561621D01*
X-3056915Y-41554667D01*
X-3354413Y-41282061D01*
X-3362062Y-41274412D01*
X-3634668Y-40976914D01*
X-3641622Y-40968627D01*
X-3887265Y-40648499D01*
X-3893470Y-40639638D01*
X-3916357Y-40603713D01*
X-2230500Y-40603713D01*
X-2230500Y-40816286D01*
X-2205592Y-40973552D01*
X-2197246Y-41026243D01*
X-2153818Y-41159901D01*
X-2131556Y-41228414D01*
X-2035049Y-41417820D01*
X-1910110Y-41589786D01*
X-1759787Y-41740109D01*
X-1587821Y-41865048D01*
X-1587819Y-41865049D01*
X-1587816Y-41865051D01*
X-1398412Y-41961557D01*
X-1196243Y-42027246D01*
X-986287Y-42060500D01*
X-986286Y-42060500D01*
X-773714Y-42060500D01*
X-773713Y-42060500D01*
X-563757Y-42027246D01*
X-361588Y-41961557D01*
X-172184Y-41865051D01*
X-69318Y-41790315D01*
X-214Y-41740109D01*
X-212Y-41740106D01*
X-208Y-41740104D01*
X150104Y-41589792D01*
X150106Y-41589788D01*
X150109Y-41589786D01*
X275048Y-41417820D01*
X275047Y-41417820D01*
X275051Y-41417816D01*
X371557Y-41228412D01*
X437246Y-41026243D01*
X470500Y-40816287D01*
X470500Y-40603713D01*
X437246Y-40393757D01*
X371557Y-40191588D01*
X275051Y-40002184D01*
X275049Y-40002181D01*
X275048Y-40002179D01*
X150109Y-39830213D01*
X-214Y-39679890D01*
X-172180Y-39554951D01*
X-361586Y-39458444D01*
X-361587Y-39458443D01*
X-361588Y-39458443D01*
X-563757Y-39392754D01*
X-563759Y-39392753D01*
X-563760Y-39392753D01*
X-725043Y-39367208D01*
X-773713Y-39359500D01*
X-986287Y-39359500D01*
X-1034958Y-39367208D01*
X-1196240Y-39392753D01*
X-1398415Y-39458444D01*
X-1587821Y-39554951D01*
X-1759787Y-39679890D01*
X-1910110Y-39830213D01*
X-2035049Y-40002179D01*
X-2131556Y-40191585D01*
X-2131557Y-40191587D01*
X-2131557Y-40191588D01*
X-2135701Y-40204341D01*
X-2197247Y-40393760D01*
X-2230500Y-40603713D01*
X-3916357Y-40603713D01*
X-4054801Y-40386400D01*
X-4110284Y-40299309D01*
X-4115691Y-40289942D01*
X-4117692Y-40286098D01*
X-4302011Y-39932024D01*
X-4306580Y-39922226D01*
X-4311979Y-39909191D01*
X-4461004Y-39549414D01*
X-4464698Y-39539262D01*
X-4486130Y-39471286D01*
X-4487515Y-39401430D01*
X-4450913Y-39341915D01*
X-4387945Y-39311636D01*
X-4367869Y-39310000D01*
X-3900000Y-39310000D01*
X-3900000Y-38393012D01*
X-3842993Y-38425925D01*
X-3715826Y-38460000D01*
X-3584174Y-38460000D01*
X-3457007Y-38425925D01*
X-3400000Y-38393012D01*
X-3400000Y-39310000D01*
X-2752172Y-39310000D01*
X-2752156Y-39309999D01*
X-2692628Y-39303598D01*
X-2692621Y-39303596D01*
X-2557914Y-39253354D01*
X-2557907Y-39253350D01*
X-2442813Y-39167190D01*
X-2442810Y-39167187D01*
X-2356650Y-39052093D01*
X-2356646Y-39052086D01*
X-2306404Y-38917379D01*
X-2306402Y-38917372D01*
X-2300001Y-38857844D01*
X-2300000Y-38857827D01*
X-2300000Y-38210000D01*
X-3216988Y-38210000D01*
X-3184075Y-38152993D01*
X-3150000Y-38025826D01*
X-3150000Y-37894174D01*
X-3184075Y-37767007D01*
X-3216988Y-37710000D01*
X-2300000Y-37710000D01*
X-2300000Y-37062172D01*
X-2300001Y-37062155D01*
X-2306402Y-37002627D01*
X-2306404Y-37002620D01*
X-2356646Y-36867913D01*
X-2356650Y-36867906D01*
X-2442810Y-36752812D01*
X-2442813Y-36752809D01*
X-2557907Y-36666649D01*
X-2557912Y-36666646D01*
X-2689472Y-36617577D01*
X-2745405Y-36575705D01*
X-2769822Y-36510241D01*
X-2754970Y-36441968D01*
X-2733825Y-36413720D01*
X-2611505Y-36291401D01*
X-2475965Y-36097830D01*
X-2376097Y-35883663D01*
X-2314937Y-35655408D01*
X-2294341Y-35420000D01*
X-2314937Y-35184592D01*
X-2361374Y-35011285D01*
X-2376095Y-34956344D01*
X-2376096Y-34956343D01*
X-2376097Y-34956337D01*
X-2475965Y-34742171D01*
X-2491854Y-34719478D01*
X-2611506Y-34548597D01*
X-2778598Y-34381506D01*
X-2778604Y-34381501D01*
X-2964158Y-34251575D01*
X-3007783Y-34196998D01*
X-3014977Y-34127500D01*
X-2983454Y-34065145D01*
X-2964158Y-34048425D01*
X-2866092Y-33979758D01*
X-2778599Y-33918495D01*
X-2611505Y-33751401D01*
X-2475965Y-33557830D01*
X-2376097Y-33343663D01*
X-2314937Y-33115408D01*
X-2294341Y-32880000D01*
X-2314937Y-32644592D01*
X-2376097Y-32416337D01*
X-2475965Y-32202171D01*
X-2477803Y-32199545D01*
X-2611506Y-32008597D01*
X-2778598Y-31841506D01*
X-2778604Y-31841501D01*
X-2943284Y-31726191D01*
X-2986909Y-31671614D01*
X-2994103Y-31602116D01*
X-2962580Y-31539761D01*
X-2917154Y-31509067D01*
X-1863920Y-31098951D01*
X-1818927Y-31090500D01*
X4283920Y-31090500D01*
X4381462Y-31071096D01*
X4428913Y-31061658D01*
X4565495Y-31005084D01*
X4614729Y-30972186D01*
X4688416Y-30922952D01*
X8544549Y-27066819D01*
X8605872Y-27033334D01*
X8632230Y-27030500D01*
X13278771Y-27030500D01*
X13345810Y-27050185D01*
G37*
%TD.AperFunction*%
%TA.AperFunction,Conductor*%
G36*
X65190160Y-38730185D02*
G01*
X65194622Y-38733190D01*
X65878624Y-39216016D01*
X65878651Y-39216035D01*
X65880466Y-39217316D01*
X65889381Y-39223466D01*
X65900563Y-39228872D01*
X65920900Y-39241242D01*
X65937669Y-39253796D01*
X65995415Y-39275333D01*
X66006040Y-39279872D01*
X66018914Y-39286097D01*
X66025654Y-39288238D01*
X66031847Y-39289775D01*
X66045298Y-39293938D01*
X66072517Y-39304091D01*
X66132127Y-39310500D01*
X67757711Y-39310499D01*
X67824750Y-39330184D01*
X67870505Y-39382987D01*
X67880449Y-39452146D01*
X67875972Y-39471786D01*
X67854698Y-39539260D01*
X67850998Y-39549426D01*
X67696579Y-39922226D01*
X67692007Y-39932030D01*
X67505690Y-40289942D01*
X67500282Y-40299310D01*
X67283469Y-40639638D01*
X67277264Y-40648499D01*
X67031621Y-40968627D01*
X67024667Y-40976914D01*
X66752061Y-41274412D01*
X66744412Y-41282061D01*
X66446914Y-41554667D01*
X66438627Y-41561621D01*
X66118499Y-41807264D01*
X66109638Y-41813469D01*
X65769310Y-42030282D01*
X65759942Y-42035690D01*
X65402030Y-42222007D01*
X65392226Y-42226579D01*
X65019429Y-42380997D01*
X65009264Y-42384697D01*
X64624424Y-42506037D01*
X64613974Y-42508837D01*
X64220022Y-42596173D01*
X64209370Y-42598051D01*
X63809316Y-42650720D01*
X63798539Y-42651663D01*
X63392703Y-42669382D01*
X63387294Y-42669500D01*
X62009050Y-42669500D01*
X61942011Y-42649815D01*
X61896256Y-42597011D01*
X61886312Y-42527853D01*
X61915337Y-42464297D01*
X61921369Y-42457819D01*
X61948105Y-42431082D01*
X62083600Y-42237578D01*
X62183429Y-42023492D01*
X62183432Y-42023486D01*
X62240636Y-41810000D01*
X61343012Y-41810000D01*
X61375925Y-41752993D01*
X61410000Y-41625826D01*
X61410000Y-41494174D01*
X61375925Y-41367007D01*
X61343012Y-41310000D01*
X62240636Y-41310000D01*
X62240635Y-41309999D01*
X62183432Y-41096513D01*
X62183429Y-41096507D01*
X62083600Y-40882422D01*
X62083599Y-40882420D01*
X61948113Y-40688926D01*
X61948108Y-40688920D01*
X61862901Y-40603713D01*
X62929500Y-40603713D01*
X62929500Y-40816286D01*
X62954408Y-40973552D01*
X62962754Y-41026243D01*
X63006182Y-41159901D01*
X63028444Y-41228414D01*
X63124951Y-41417820D01*
X63249890Y-41589786D01*
X63400213Y-41740109D01*
X63572179Y-41865048D01*
X63572181Y-41865049D01*
X63572184Y-41865051D01*
X63761588Y-41961557D01*
X63963757Y-42027246D01*
X64173713Y-42060500D01*
X64173714Y-42060500D01*
X64386286Y-42060500D01*
X64386287Y-42060500D01*
X64596243Y-42027246D01*
X64798412Y-41961557D01*
X64987816Y-41865051D01*
X65090682Y-41790315D01*
X65159786Y-41740109D01*
X65159788Y-41740106D01*
X65159792Y-41740104D01*
X65310104Y-41589792D01*
X65310106Y-41589788D01*
X65310109Y-41589786D01*
X65435048Y-41417820D01*
X65435047Y-41417820D01*
X65435051Y-41417816D01*
X65531557Y-41228412D01*
X65597246Y-41026243D01*
X65630500Y-40816287D01*
X65630500Y-40603713D01*
X65597246Y-40393757D01*
X65531557Y-40191588D01*
X65435051Y-40002184D01*
X65435049Y-40002181D01*
X65435048Y-40002179D01*
X65310109Y-39830213D01*
X65159786Y-39679890D01*
X64987820Y-39554951D01*
X64798414Y-39458444D01*
X64798413Y-39458443D01*
X64798412Y-39458443D01*
X64596243Y-39392754D01*
X64596241Y-39392753D01*
X64596240Y-39392753D01*
X64434957Y-39367208D01*
X64386287Y-39359500D01*
X64173713Y-39359500D01*
X64125042Y-39367208D01*
X63963760Y-39392753D01*
X63761585Y-39458444D01*
X63572179Y-39554951D01*
X63400213Y-39679890D01*
X63249890Y-39830213D01*
X63124951Y-40002179D01*
X63028444Y-40191585D01*
X63028443Y-40191587D01*
X63028443Y-40191588D01*
X63024299Y-40204341D01*
X62962753Y-40393760D01*
X62929500Y-40603713D01*
X61862901Y-40603713D01*
X61781082Y-40521894D01*
X61587578Y-40386399D01*
X61373492Y-40286570D01*
X61373486Y-40286567D01*
X61160000Y-40229364D01*
X61160000Y-41126988D01*
X61102993Y-41094075D01*
X60975826Y-41060000D01*
X60844174Y-41060000D01*
X60717007Y-41094075D01*
X60660000Y-41126988D01*
X60660000Y-40229364D01*
X60659999Y-40229364D01*
X60446513Y-40286567D01*
X60446507Y-40286570D01*
X60232422Y-40386399D01*
X60232420Y-40386400D01*
X60038926Y-40521886D01*
X60038920Y-40521891D01*
X59871891Y-40688920D01*
X59871890Y-40688922D01*
X59756409Y-40853845D01*
X59701832Y-40897470D01*
X59632333Y-40904662D01*
X59569979Y-40873140D01*
X59539285Y-40827714D01*
X59534835Y-40816287D01*
X59155483Y-39842055D01*
X59128951Y-39773917D01*
X59120500Y-39728924D01*
X59120500Y-38834500D01*
X59140185Y-38767461D01*
X59192989Y-38721706D01*
X59244500Y-38710500D01*
X65123121Y-38710500D01*
X65190160Y-38730185D01*
G37*
%TD.AperFunction*%
%TA.AperFunction,Conductor*%
G36*
X57562539Y-38730185D02*
G01*
X57608294Y-38782989D01*
X57619500Y-38834500D01*
X57619500Y-39728922D01*
X57611049Y-39773915D01*
X57200713Y-40827713D01*
X57158045Y-40883041D01*
X57092237Y-40906518D01*
X57024184Y-40890690D01*
X56983589Y-40853843D01*
X56868113Y-40688926D01*
X56868108Y-40688920D01*
X56701082Y-40521894D01*
X56507578Y-40386399D01*
X56293492Y-40286570D01*
X56293486Y-40286567D01*
X56080000Y-40229364D01*
X56080000Y-41126988D01*
X56022993Y-41094075D01*
X55895826Y-41060000D01*
X55764174Y-41060000D01*
X55637007Y-41094075D01*
X55580000Y-41126988D01*
X55580000Y-40229364D01*
X55579999Y-40229364D01*
X55366513Y-40286567D01*
X55366507Y-40286570D01*
X55152422Y-40386399D01*
X55152420Y-40386400D01*
X54958926Y-40521886D01*
X54958920Y-40521891D01*
X54791891Y-40688920D01*
X54791890Y-40688922D01*
X54661880Y-40874595D01*
X54607303Y-40918219D01*
X54537804Y-40925412D01*
X54475450Y-40893890D01*
X54458730Y-40874594D01*
X54328494Y-40688597D01*
X54161402Y-40521506D01*
X54161395Y-40521501D01*
X53967834Y-40385967D01*
X53967830Y-40385965D01*
X53903825Y-40356119D01*
X53753663Y-40286097D01*
X53753659Y-40286096D01*
X53753655Y-40286094D01*
X53525413Y-40224938D01*
X53525403Y-40224936D01*
X53290001Y-40204341D01*
X53289999Y-40204341D01*
X53054596Y-40224936D01*
X53054586Y-40224938D01*
X52826344Y-40286094D01*
X52826335Y-40286098D01*
X52612171Y-40385964D01*
X52612169Y-40385965D01*
X52418597Y-40521505D01*
X52251505Y-40688597D01*
X52121575Y-40874158D01*
X52066998Y-40917783D01*
X51997500Y-40924977D01*
X51935145Y-40893454D01*
X51918425Y-40874158D01*
X51788494Y-40688597D01*
X51621402Y-40521506D01*
X51621395Y-40521501D01*
X51427834Y-40385967D01*
X51427830Y-40385965D01*
X51363825Y-40356119D01*
X51213663Y-40286097D01*
X51213659Y-40286096D01*
X51213655Y-40286094D01*
X50985413Y-40224938D01*
X50985403Y-40224936D01*
X50750001Y-40204341D01*
X50749999Y-40204341D01*
X50514596Y-40224936D01*
X50514586Y-40224938D01*
X50286344Y-40286094D01*
X50286335Y-40286098D01*
X50072171Y-40385964D01*
X50072169Y-40385965D01*
X49878597Y-40521505D01*
X49711505Y-40688597D01*
X49581575Y-40874158D01*
X49526998Y-40917783D01*
X49457500Y-40924977D01*
X49395145Y-40893454D01*
X49378425Y-40874158D01*
X49248494Y-40688597D01*
X49081402Y-40521506D01*
X49081395Y-40521501D01*
X48887834Y-40385967D01*
X48887830Y-40385965D01*
X48673665Y-40286097D01*
X48649460Y-40279611D01*
X48642205Y-40277427D01*
X47368973Y-39851319D01*
X47320645Y-39821410D01*
X46421416Y-38922181D01*
X46387931Y-38860858D01*
X46392915Y-38791166D01*
X46434787Y-38735233D01*
X46500251Y-38710816D01*
X46509097Y-38710500D01*
X57495500Y-38710500D01*
X57562539Y-38730185D01*
G37*
%TD.AperFunction*%
%TA.AperFunction,Conductor*%
G36*
X11294809Y-36190185D02*
G01*
X11315451Y-36206819D01*
X13568632Y-38460000D01*
X15115509Y-40006876D01*
X15148994Y-40068199D01*
X15144010Y-40137891D01*
X15102138Y-40193824D01*
X15038637Y-40218085D01*
X14954682Y-40225430D01*
X14954673Y-40225432D01*
X14726516Y-40286566D01*
X14726507Y-40286570D01*
X14512422Y-40386399D01*
X14512420Y-40386400D01*
X14318926Y-40521886D01*
X14318920Y-40521891D01*
X14151891Y-40688920D01*
X14151890Y-40688922D01*
X14021880Y-40874595D01*
X13967303Y-40918219D01*
X13897804Y-40925412D01*
X13835450Y-40893890D01*
X13818730Y-40874594D01*
X13688494Y-40688597D01*
X13521402Y-40521506D01*
X13521395Y-40521501D01*
X13327831Y-40385965D01*
X13327829Y-40385964D01*
X13157594Y-40306582D01*
X13151568Y-40303570D01*
X13136115Y-40295314D01*
X13129205Y-40292809D01*
X13119071Y-40288618D01*
X13116459Y-40287401D01*
X13113666Y-40286098D01*
X13113656Y-40286095D01*
X13107450Y-40284432D01*
X13097275Y-40281230D01*
X11842778Y-39826314D01*
X11797369Y-39797423D01*
X11504674Y-39504727D01*
X11504673Y-39504726D01*
X11504669Y-39504723D01*
X11398127Y-39433535D01*
X11364096Y-39419439D01*
X11279744Y-39384499D01*
X11279738Y-39384497D01*
X11154071Y-39359500D01*
X11154069Y-39359500D01*
X10390808Y-39359500D01*
X10323769Y-39339815D01*
X10303127Y-39323181D01*
X7393367Y-36413421D01*
X7359882Y-36352098D01*
X7364866Y-36282406D01*
X7406738Y-36226473D01*
X7463508Y-36202987D01*
X7681443Y-36171855D01*
X7681466Y-36171851D01*
X7682203Y-36171746D01*
X7699738Y-36170500D01*
X11227770Y-36170500D01*
X11294809Y-36190185D01*
G37*
%TD.AperFunction*%
%TA.AperFunction,Conductor*%
G36*
X25177799Y-27031746D02*
G01*
X25178552Y-27031853D01*
X25178557Y-27031855D01*
X25571981Y-27088057D01*
X25628845Y-27111611D01*
X25947391Y-27350521D01*
X25960672Y-27362040D01*
X34367961Y-35769329D01*
X34379480Y-35782610D01*
X34379935Y-35783217D01*
X34379937Y-35783220D01*
X34455270Y-35883664D01*
X34740699Y-36264236D01*
X34748885Y-36276635D01*
X34758136Y-36292657D01*
X34758142Y-36292666D01*
X34777652Y-36314335D01*
X34784700Y-36322904D01*
X34790042Y-36330026D01*
X34812113Y-36357414D01*
X34813176Y-36358643D01*
X34844339Y-36388827D01*
X34850180Y-36394885D01*
X34877770Y-36425526D01*
X34898334Y-36440467D01*
X34906733Y-36447143D01*
X34909965Y-36449949D01*
X34909973Y-36449957D01*
X34909981Y-36449963D01*
X35457395Y-36860524D01*
X35470676Y-36872043D01*
X36426452Y-37827819D01*
X36459937Y-37889142D01*
X36454953Y-37958834D01*
X36413081Y-38014767D01*
X36347617Y-38039184D01*
X36338771Y-38039500D01*
X28010097Y-38039500D01*
X27943058Y-38019815D01*
X27922416Y-38003181D01*
X24057498Y-34138263D01*
X24029566Y-34095411D01*
X24017948Y-34065449D01*
X23613352Y-33022015D01*
X23438886Y-32572075D01*
X23430499Y-32527246D01*
X23430499Y-32112129D01*
X23430498Y-32112123D01*
X23430270Y-32110005D01*
X23424091Y-32052517D01*
X23423002Y-32049598D01*
X23373797Y-31917671D01*
X23373793Y-31917664D01*
X23287547Y-31802455D01*
X23287544Y-31802452D01*
X23172335Y-31716206D01*
X23172328Y-31716202D01*
X23037482Y-31665908D01*
X23037483Y-31665908D01*
X22977883Y-31659501D01*
X22977881Y-31659500D01*
X22977873Y-31659500D01*
X22977864Y-31659500D01*
X21182129Y-31659500D01*
X21182123Y-31659501D01*
X21122516Y-31665908D01*
X20987671Y-31716202D01*
X20987664Y-31716206D01*
X20872455Y-31802452D01*
X20872452Y-31802455D01*
X20786206Y-31917664D01*
X20786202Y-31917671D01*
X20736997Y-32049598D01*
X20695126Y-32105532D01*
X20629661Y-32129949D01*
X20561388Y-32115097D01*
X20533134Y-32093946D01*
X20411082Y-31971894D01*
X20217578Y-31836399D01*
X20003492Y-31736570D01*
X20003486Y-31736567D01*
X19790000Y-31679364D01*
X19790000Y-32576988D01*
X19732993Y-32544075D01*
X19605826Y-32510000D01*
X19474174Y-32510000D01*
X19347007Y-32544075D01*
X19290000Y-32576988D01*
X19290000Y-31679364D01*
X19289999Y-31679364D01*
X19076513Y-31736567D01*
X19076507Y-31736570D01*
X18862422Y-31836399D01*
X18862420Y-31836400D01*
X18668926Y-31971886D01*
X18668920Y-31971891D01*
X18501891Y-32138920D01*
X18501886Y-32138926D01*
X18366400Y-32332420D01*
X18366399Y-32332422D01*
X18266570Y-32546507D01*
X18266567Y-32546513D01*
X18209364Y-32759999D01*
X18209364Y-32760000D01*
X19106988Y-32760000D01*
X19074075Y-32817007D01*
X19040000Y-32944174D01*
X19040000Y-33075826D01*
X19074075Y-33202993D01*
X19106988Y-33260000D01*
X18209364Y-33260000D01*
X18266567Y-33473486D01*
X18266570Y-33473492D01*
X18366399Y-33687578D01*
X18501894Y-33881082D01*
X18668917Y-34048105D01*
X18862421Y-34183600D01*
X19076507Y-34283429D01*
X19076516Y-34283433D01*
X19290000Y-34340634D01*
X19290000Y-33443012D01*
X19347007Y-33475925D01*
X19474174Y-33510000D01*
X19605826Y-33510000D01*
X19732993Y-33475925D01*
X19790000Y-33443012D01*
X19790000Y-34340633D01*
X20003483Y-34283433D01*
X20003492Y-34283429D01*
X20217578Y-34183600D01*
X20411078Y-34048108D01*
X20533133Y-33926053D01*
X20594456Y-33892568D01*
X20664148Y-33897552D01*
X20720082Y-33939423D01*
X20736997Y-33970401D01*
X20786202Y-34102328D01*
X20786206Y-34102335D01*
X20872452Y-34217544D01*
X20872455Y-34217547D01*
X20987664Y-34303793D01*
X20987671Y-34303797D01*
X21004949Y-34310241D01*
X21122517Y-34354091D01*
X21182127Y-34360500D01*
X21597248Y-34360499D01*
X21642077Y-34368886D01*
X21760134Y-34414663D01*
X23165412Y-34959567D01*
X23208263Y-34987498D01*
X27225139Y-39004374D01*
X27225149Y-39004385D01*
X27229479Y-39008715D01*
X27229480Y-39008716D01*
X27341284Y-39120520D01*
X27341286Y-39120521D01*
X27341290Y-39120524D01*
X27478209Y-39199573D01*
X27478216Y-39199577D01*
X27590019Y-39229534D01*
X27630942Y-39240500D01*
X27630943Y-39240500D01*
X44989903Y-39240500D01*
X45056942Y-39260185D01*
X45077584Y-39276819D01*
X45796333Y-39995568D01*
X45829818Y-40056891D01*
X45824834Y-40126583D01*
X45782962Y-40182516D01*
X45717498Y-40206933D01*
X45697844Y-40206777D01*
X45670001Y-40204341D01*
X45669999Y-40204341D01*
X45434596Y-40224936D01*
X45434586Y-40224938D01*
X45206344Y-40286094D01*
X45206335Y-40286098D01*
X44992171Y-40385964D01*
X44992169Y-40385965D01*
X44798597Y-40521505D01*
X44631505Y-40688597D01*
X44501575Y-40874158D01*
X44446998Y-40917783D01*
X44377500Y-40924977D01*
X44315145Y-40893454D01*
X44298425Y-40874158D01*
X44168494Y-40688597D01*
X44001402Y-40521506D01*
X44001395Y-40521501D01*
X43807834Y-40385967D01*
X43807830Y-40385965D01*
X43743825Y-40356119D01*
X43593663Y-40286097D01*
X43593659Y-40286096D01*
X43593655Y-40286094D01*
X43365413Y-40224938D01*
X43365403Y-40224936D01*
X43130001Y-40204341D01*
X43129999Y-40204341D01*
X42894596Y-40224936D01*
X42894586Y-40224938D01*
X42666344Y-40286094D01*
X42666335Y-40286098D01*
X42452171Y-40385964D01*
X42452169Y-40385965D01*
X42258597Y-40521505D01*
X42091505Y-40688597D01*
X41961575Y-40874158D01*
X41906998Y-40917783D01*
X41837500Y-40924977D01*
X41775145Y-40893454D01*
X41758425Y-40874158D01*
X41628494Y-40688597D01*
X41461402Y-40521506D01*
X41461395Y-40521501D01*
X41267834Y-40385967D01*
X41267830Y-40385965D01*
X41203825Y-40356119D01*
X41053663Y-40286097D01*
X41053659Y-40286096D01*
X41053655Y-40286094D01*
X40825413Y-40224938D01*
X40825403Y-40224936D01*
X40590001Y-40204341D01*
X40589999Y-40204341D01*
X40354596Y-40224936D01*
X40354586Y-40224938D01*
X40126344Y-40286094D01*
X40126335Y-40286098D01*
X39912171Y-40385964D01*
X39912169Y-40385965D01*
X39718597Y-40521505D01*
X39551505Y-40688597D01*
X39421575Y-40874158D01*
X39366998Y-40917783D01*
X39297500Y-40924977D01*
X39235145Y-40893454D01*
X39218425Y-40874158D01*
X39088494Y-40688597D01*
X38921402Y-40521506D01*
X38921395Y-40521501D01*
X38727834Y-40385967D01*
X38727830Y-40385965D01*
X38663825Y-40356119D01*
X38513663Y-40286097D01*
X38513659Y-40286096D01*
X38513655Y-40286094D01*
X38285413Y-40224938D01*
X38285403Y-40224936D01*
X38050001Y-40204341D01*
X38049999Y-40204341D01*
X37814596Y-40224936D01*
X37814586Y-40224938D01*
X37586344Y-40286094D01*
X37586335Y-40286098D01*
X37372171Y-40385964D01*
X37372169Y-40385965D01*
X37178597Y-40521505D01*
X37011505Y-40688597D01*
X36881575Y-40874158D01*
X36826998Y-40917783D01*
X36757500Y-40924977D01*
X36695145Y-40893454D01*
X36678425Y-40874158D01*
X36548494Y-40688597D01*
X36381402Y-40521506D01*
X36381395Y-40521501D01*
X36187834Y-40385967D01*
X36187830Y-40385965D01*
X36123825Y-40356119D01*
X35973663Y-40286097D01*
X35973659Y-40286096D01*
X35973655Y-40286094D01*
X35745413Y-40224938D01*
X35745403Y-40224936D01*
X35510001Y-40204341D01*
X35509999Y-40204341D01*
X35274596Y-40224936D01*
X35274586Y-40224938D01*
X35046344Y-40286094D01*
X35046335Y-40286098D01*
X34832171Y-40385964D01*
X34832169Y-40385965D01*
X34638597Y-40521505D01*
X34471505Y-40688597D01*
X34341575Y-40874158D01*
X34286998Y-40917783D01*
X34217500Y-40924977D01*
X34155145Y-40893454D01*
X34138425Y-40874158D01*
X34008494Y-40688597D01*
X33841402Y-40521506D01*
X33841395Y-40521501D01*
X33647834Y-40385967D01*
X33647830Y-40385965D01*
X33583825Y-40356119D01*
X33433663Y-40286097D01*
X33433659Y-40286096D01*
X33433655Y-40286094D01*
X33205413Y-40224938D01*
X33205403Y-40224936D01*
X32970001Y-40204341D01*
X32969999Y-40204341D01*
X32734596Y-40224936D01*
X32734586Y-40224938D01*
X32506344Y-40286094D01*
X32506335Y-40286098D01*
X32292171Y-40385964D01*
X32292169Y-40385965D01*
X32098597Y-40521505D01*
X31931505Y-40688597D01*
X31801575Y-40874158D01*
X31746998Y-40917783D01*
X31677500Y-40924977D01*
X31615145Y-40893454D01*
X31598425Y-40874158D01*
X31468494Y-40688597D01*
X31301402Y-40521506D01*
X31301395Y-40521501D01*
X31107834Y-40385967D01*
X31107830Y-40385965D01*
X31043825Y-40356119D01*
X30893663Y-40286097D01*
X30893659Y-40286096D01*
X30893655Y-40286094D01*
X30665413Y-40224938D01*
X30665403Y-40224936D01*
X30430001Y-40204341D01*
X30429999Y-40204341D01*
X30194596Y-40224936D01*
X30194586Y-40224938D01*
X29966344Y-40286094D01*
X29966335Y-40286098D01*
X29752171Y-40385964D01*
X29752169Y-40385965D01*
X29558597Y-40521505D01*
X29391505Y-40688597D01*
X29261575Y-40874158D01*
X29206998Y-40917783D01*
X29137500Y-40924977D01*
X29075145Y-40893454D01*
X29058425Y-40874158D01*
X28928494Y-40688597D01*
X28761402Y-40521506D01*
X28761395Y-40521501D01*
X28567834Y-40385967D01*
X28567830Y-40385965D01*
X28503825Y-40356119D01*
X28353663Y-40286097D01*
X28353659Y-40286096D01*
X28353655Y-40286094D01*
X28125413Y-40224938D01*
X28125403Y-40224936D01*
X27890001Y-40204341D01*
X27889999Y-40204341D01*
X27654596Y-40224936D01*
X27654586Y-40224938D01*
X27426344Y-40286094D01*
X27426335Y-40286098D01*
X27212171Y-40385964D01*
X27212169Y-40385965D01*
X27018597Y-40521505D01*
X26851505Y-40688597D01*
X26721575Y-40874158D01*
X26666998Y-40917783D01*
X26597500Y-40924977D01*
X26535145Y-40893454D01*
X26518425Y-40874158D01*
X26388494Y-40688597D01*
X26221402Y-40521506D01*
X26221395Y-40521501D01*
X26027834Y-40385967D01*
X26027830Y-40385965D01*
X25963825Y-40356119D01*
X25813663Y-40286097D01*
X25813659Y-40286096D01*
X25813655Y-40286094D01*
X25585413Y-40224938D01*
X25585403Y-40224936D01*
X25350001Y-40204341D01*
X25349999Y-40204341D01*
X25114596Y-40224936D01*
X25114586Y-40224938D01*
X24886344Y-40286094D01*
X24886335Y-40286098D01*
X24672171Y-40385964D01*
X24672169Y-40385965D01*
X24478597Y-40521505D01*
X24311505Y-40688597D01*
X24181575Y-40874158D01*
X24126998Y-40917783D01*
X24057500Y-40924977D01*
X23995145Y-40893454D01*
X23978425Y-40874158D01*
X23848494Y-40688597D01*
X23681402Y-40521506D01*
X23681395Y-40521501D01*
X23487834Y-40385967D01*
X23487830Y-40385965D01*
X23423825Y-40356119D01*
X23273663Y-40286097D01*
X23273659Y-40286096D01*
X23273655Y-40286094D01*
X23045413Y-40224938D01*
X23045403Y-40224936D01*
X22810001Y-40204341D01*
X22809999Y-40204341D01*
X22574596Y-40224936D01*
X22574586Y-40224938D01*
X22346344Y-40286094D01*
X22346335Y-40286098D01*
X22132171Y-40385964D01*
X22132169Y-40385965D01*
X21938597Y-40521505D01*
X21771505Y-40688597D01*
X21641575Y-40874158D01*
X21586998Y-40917783D01*
X21517500Y-40924977D01*
X21455145Y-40893454D01*
X21438425Y-40874158D01*
X21308494Y-40688597D01*
X21141402Y-40521506D01*
X21141395Y-40521501D01*
X20947834Y-40385967D01*
X20947830Y-40385965D01*
X20782558Y-40308897D01*
X20776027Y-40305614D01*
X20765566Y-40299963D01*
X20758386Y-40296084D01*
X20758385Y-40296083D01*
X20758382Y-40296082D01*
X20747604Y-40292117D01*
X20738015Y-40288126D01*
X20733666Y-40286098D01*
X20733663Y-40286097D01*
X20730159Y-40285157D01*
X20719461Y-40281763D01*
X20679050Y-40266897D01*
X20679043Y-40266895D01*
X19467231Y-39821109D01*
X19422361Y-39792415D01*
X13364674Y-33734727D01*
X13364673Y-33734726D01*
X13294110Y-33687578D01*
X13258127Y-33663535D01*
X13258125Y-33663534D01*
X13139745Y-33614499D01*
X13138874Y-33614326D01*
X13135344Y-33613623D01*
X13135340Y-33613621D01*
X13135340Y-33613623D01*
X13014071Y-33589500D01*
X13014069Y-33589500D01*
X9441230Y-33589500D01*
X9374191Y-33569815D01*
X9328436Y-33517011D01*
X9318492Y-33447853D01*
X9347517Y-33384297D01*
X9353549Y-33377819D01*
X10322259Y-32409109D01*
X15216048Y-27515317D01*
X15236769Y-27498633D01*
X15732434Y-27180695D01*
X15771845Y-27164167D01*
X16345190Y-27033595D01*
X16372724Y-27030500D01*
X25160263Y-27030500D01*
X25177799Y-27031746D01*
G37*
%TD.AperFunction*%
%TA.AperFunction,Conductor*%
G36*
X12696231Y-34910185D02*
G01*
X12716873Y-34926819D01*
X17512297Y-39722243D01*
X17545782Y-39783566D01*
X17540798Y-39853258D01*
X17498926Y-39909191D01*
X17433462Y-39933608D01*
X17374726Y-39923445D01*
X17003706Y-39760388D01*
X16965915Y-39734548D01*
X12333549Y-35102181D01*
X12300064Y-35040858D01*
X12305048Y-34971166D01*
X12346920Y-34915233D01*
X12412384Y-34890816D01*
X12421230Y-34890500D01*
X12629192Y-34890500D01*
X12696231Y-34910185D01*
G37*
%TD.AperFunction*%
%TA.AperFunction,Conductor*%
G36*
X1092153Y-270185D02*
G01*
X1137908Y-322989D01*
X1147852Y-392147D01*
X1145939Y-402234D01*
X1139501Y-462116D01*
X1139500Y-462135D01*
X1139500Y-2257870D01*
X1139501Y-2257876D01*
X1145908Y-2317483D01*
X1196202Y-2452328D01*
X1196206Y-2452335D01*
X1282452Y-2567544D01*
X1282455Y-2567547D01*
X1397664Y-2653793D01*
X1397671Y-2653797D01*
X1532517Y-2704091D01*
X1532516Y-2704091D01*
X1539444Y-2704835D01*
X1592127Y-2710500D01*
X3387872Y-2710499D01*
X3447483Y-2704091D01*
X3582331Y-2653796D01*
X3697546Y-2567546D01*
X3783796Y-2452331D01*
X3832810Y-2320916D01*
X3874681Y-2264984D01*
X3940145Y-2240566D01*
X4008418Y-2255417D01*
X4036673Y-2276569D01*
X4158599Y-2398495D01*
X4255384Y-2466265D01*
X4352165Y-2534032D01*
X4352167Y-2534033D01*
X4352170Y-2534035D01*
X4566337Y-2633903D01*
X4794592Y-2695063D01*
X4971034Y-2710500D01*
X5029999Y-2715659D01*
X5030000Y-2715659D01*
X5030001Y-2715659D01*
X5088966Y-2710500D01*
X5265408Y-2695063D01*
X5493663Y-2633903D01*
X5707830Y-2534035D01*
X5901401Y-2398495D01*
X6068495Y-2231401D01*
X6198425Y-2045842D01*
X6253002Y-2002217D01*
X6322500Y-1995023D01*
X6384855Y-2026546D01*
X6401575Y-2045842D01*
X6531500Y-2231395D01*
X6531505Y-2231401D01*
X6698599Y-2398495D01*
X6795384Y-2466265D01*
X6892165Y-2534032D01*
X6892167Y-2534033D01*
X6892170Y-2534035D01*
X7106337Y-2633903D01*
X7334592Y-2695063D01*
X7511034Y-2710500D01*
X7569999Y-2715659D01*
X7570000Y-2715659D01*
X7570001Y-2715659D01*
X7628966Y-2710500D01*
X7805408Y-2695063D01*
X8033663Y-2633903D01*
X8247830Y-2534035D01*
X8441401Y-2398495D01*
X8608495Y-2231401D01*
X8738425Y-2045842D01*
X8793002Y-2002217D01*
X8862500Y-1995023D01*
X8924855Y-2026546D01*
X8941575Y-2045842D01*
X9071500Y-2231395D01*
X9071505Y-2231401D01*
X9238599Y-2398495D01*
X9335384Y-2466265D01*
X9432165Y-2534032D01*
X9432167Y-2534033D01*
X9432170Y-2534035D01*
X9646337Y-2633903D01*
X9874592Y-2695063D01*
X10051034Y-2710500D01*
X10109999Y-2715659D01*
X10110000Y-2715659D01*
X10110001Y-2715659D01*
X10168966Y-2710500D01*
X10345408Y-2695063D01*
X10573663Y-2633903D01*
X10787830Y-2534035D01*
X10981401Y-2398495D01*
X11148495Y-2231401D01*
X11278425Y-2045842D01*
X11333002Y-2002217D01*
X11402500Y-1995023D01*
X11464855Y-2026546D01*
X11481575Y-2045842D01*
X11611500Y-2231395D01*
X11611505Y-2231401D01*
X11778599Y-2398495D01*
X11875384Y-2466265D01*
X11972165Y-2534032D01*
X11972167Y-2534033D01*
X11972170Y-2534035D01*
X12186337Y-2633903D01*
X12414592Y-2695063D01*
X12591034Y-2710500D01*
X12649999Y-2715659D01*
X12650000Y-2715659D01*
X12650001Y-2715659D01*
X12708966Y-2710500D01*
X12885408Y-2695063D01*
X13113663Y-2633903D01*
X13327830Y-2534035D01*
X13521401Y-2398495D01*
X13688495Y-2231401D01*
X13818425Y-2045842D01*
X13873002Y-2002217D01*
X13942500Y-1995023D01*
X14004855Y-2026546D01*
X14021575Y-2045842D01*
X14151500Y-2231395D01*
X14151505Y-2231401D01*
X14318599Y-2398495D01*
X14415384Y-2466265D01*
X14512165Y-2534032D01*
X14512167Y-2534033D01*
X14512170Y-2534035D01*
X14726337Y-2633903D01*
X14954592Y-2695063D01*
X15131034Y-2710500D01*
X15189999Y-2715659D01*
X15190000Y-2715659D01*
X15190001Y-2715659D01*
X15248966Y-2710500D01*
X15425408Y-2695063D01*
X15653663Y-2633903D01*
X15867830Y-2534035D01*
X16061401Y-2398495D01*
X16228495Y-2231401D01*
X16358425Y-2045842D01*
X16413002Y-2002217D01*
X16482500Y-1995023D01*
X16544855Y-2026546D01*
X16561575Y-2045842D01*
X16691500Y-2231395D01*
X16691505Y-2231401D01*
X16858599Y-2398495D01*
X16955384Y-2466265D01*
X17052165Y-2534032D01*
X17052167Y-2534033D01*
X17052170Y-2534035D01*
X17266337Y-2633903D01*
X17494592Y-2695063D01*
X17671034Y-2710500D01*
X17729999Y-2715659D01*
X17730000Y-2715659D01*
X17730001Y-2715659D01*
X17788966Y-2710500D01*
X17965408Y-2695063D01*
X18193663Y-2633903D01*
X18407830Y-2534035D01*
X18601401Y-2398495D01*
X18768495Y-2231401D01*
X18898425Y-2045842D01*
X18953002Y-2002217D01*
X19022500Y-1995023D01*
X19084855Y-2026546D01*
X19101575Y-2045842D01*
X19231500Y-2231395D01*
X19231505Y-2231401D01*
X19398599Y-2398495D01*
X19495384Y-2466265D01*
X19592165Y-2534032D01*
X19592167Y-2534033D01*
X19592170Y-2534035D01*
X19806337Y-2633903D01*
X20034592Y-2695063D01*
X20211034Y-2710500D01*
X20269999Y-2715659D01*
X20270000Y-2715659D01*
X20270001Y-2715659D01*
X20328966Y-2710500D01*
X20505408Y-2695063D01*
X20733663Y-2633903D01*
X20947830Y-2534035D01*
X21141401Y-2398495D01*
X21308495Y-2231401D01*
X21438425Y-2045842D01*
X21493002Y-2002217D01*
X21562500Y-1995023D01*
X21624855Y-2026546D01*
X21641575Y-2045842D01*
X21771500Y-2231395D01*
X21771505Y-2231401D01*
X21938599Y-2398495D01*
X22035384Y-2466265D01*
X22132165Y-2534032D01*
X22132167Y-2534033D01*
X22132170Y-2534035D01*
X22346337Y-2633903D01*
X22574592Y-2695063D01*
X22751034Y-2710500D01*
X22809999Y-2715659D01*
X22810000Y-2715659D01*
X22810001Y-2715659D01*
X22868966Y-2710500D01*
X23045408Y-2695063D01*
X23273663Y-2633903D01*
X23487830Y-2534035D01*
X23681401Y-2398495D01*
X23848495Y-2231401D01*
X23978425Y-2045842D01*
X24033002Y-2002217D01*
X24102500Y-1995023D01*
X24164855Y-2026546D01*
X24181575Y-2045842D01*
X24311500Y-2231395D01*
X24311505Y-2231401D01*
X24478599Y-2398495D01*
X24575384Y-2466265D01*
X24672165Y-2534032D01*
X24672167Y-2534033D01*
X24672170Y-2534035D01*
X24886337Y-2633903D01*
X25114592Y-2695063D01*
X25291034Y-2710500D01*
X25349999Y-2715659D01*
X25350000Y-2715659D01*
X25350001Y-2715659D01*
X25408966Y-2710500D01*
X25585408Y-2695063D01*
X25813663Y-2633903D01*
X26027830Y-2534035D01*
X26221401Y-2398495D01*
X26388495Y-2231401D01*
X26518730Y-2045405D01*
X26573307Y-2001781D01*
X26642805Y-1994587D01*
X26705160Y-2026110D01*
X26721879Y-2045405D01*
X26851890Y-2231078D01*
X27018917Y-2398105D01*
X27212421Y-2533600D01*
X27426507Y-2633429D01*
X27426516Y-2633433D01*
X27640000Y-2690634D01*
X27640000Y-1793012D01*
X27697007Y-1825925D01*
X27824174Y-1860000D01*
X27955826Y-1860000D01*
X28082993Y-1825925D01*
X28140000Y-1793012D01*
X28140000Y-2690633D01*
X28353483Y-2633433D01*
X28353492Y-2633429D01*
X28567578Y-2533600D01*
X28761082Y-2398105D01*
X28928105Y-2231082D01*
X29058119Y-2045405D01*
X29112696Y-2001781D01*
X29182195Y-1994588D01*
X29244549Y-2026110D01*
X29261269Y-2045405D01*
X29391505Y-2231401D01*
X29558599Y-2398495D01*
X29655384Y-2466265D01*
X29752165Y-2534032D01*
X29752167Y-2534033D01*
X29752170Y-2534035D01*
X29966337Y-2633903D01*
X30194592Y-2695063D01*
X30371034Y-2710500D01*
X30429999Y-2715659D01*
X30430000Y-2715659D01*
X30430001Y-2715659D01*
X30488966Y-2710500D01*
X30665408Y-2695063D01*
X30893663Y-2633903D01*
X31107830Y-2534035D01*
X31301401Y-2398495D01*
X31468495Y-2231401D01*
X31598425Y-2045842D01*
X31653002Y-2002217D01*
X31722500Y-1995023D01*
X31784855Y-2026546D01*
X31801575Y-2045842D01*
X31931500Y-2231395D01*
X31931505Y-2231401D01*
X32098599Y-2398495D01*
X32195384Y-2466265D01*
X32292165Y-2534032D01*
X32292167Y-2534033D01*
X32292170Y-2534035D01*
X32506337Y-2633903D01*
X32734592Y-2695063D01*
X32911034Y-2710500D01*
X32969999Y-2715659D01*
X32970000Y-2715659D01*
X32970001Y-2715659D01*
X33028966Y-2710500D01*
X33205408Y-2695063D01*
X33433663Y-2633903D01*
X33647830Y-2534035D01*
X33841401Y-2398495D01*
X34008495Y-2231401D01*
X34138425Y-2045842D01*
X34193002Y-2002217D01*
X34262500Y-1995023D01*
X34324855Y-2026546D01*
X34341575Y-2045842D01*
X34471500Y-2231395D01*
X34471505Y-2231401D01*
X34638599Y-2398495D01*
X34735384Y-2466265D01*
X34832165Y-2534032D01*
X34832167Y-2534033D01*
X34832170Y-2534035D01*
X35046337Y-2633903D01*
X35274592Y-2695063D01*
X35451034Y-2710500D01*
X35509999Y-2715659D01*
X35510000Y-2715659D01*
X35510001Y-2715659D01*
X35568966Y-2710500D01*
X35745408Y-2695063D01*
X35973663Y-2633903D01*
X36187830Y-2534035D01*
X36381401Y-2398495D01*
X36548495Y-2231401D01*
X36678425Y-2045842D01*
X36733002Y-2002217D01*
X36802500Y-1995023D01*
X36864855Y-2026546D01*
X36881575Y-2045842D01*
X37011500Y-2231395D01*
X37011505Y-2231401D01*
X37178599Y-2398495D01*
X37275384Y-2466265D01*
X37372165Y-2534032D01*
X37372167Y-2534033D01*
X37372170Y-2534035D01*
X37586337Y-2633903D01*
X37814592Y-2695063D01*
X37991034Y-2710500D01*
X38049999Y-2715659D01*
X38050000Y-2715659D01*
X38050001Y-2715659D01*
X38108966Y-2710500D01*
X38285408Y-2695063D01*
X38513663Y-2633903D01*
X38727830Y-2534035D01*
X38921401Y-2398495D01*
X39088495Y-2231401D01*
X39218425Y-2045842D01*
X39273002Y-2002217D01*
X39342500Y-1995023D01*
X39404855Y-2026546D01*
X39421575Y-2045842D01*
X39551500Y-2231395D01*
X39551505Y-2231401D01*
X39718599Y-2398495D01*
X39815384Y-2466265D01*
X39912165Y-2534032D01*
X39912167Y-2534033D01*
X39912170Y-2534035D01*
X40126337Y-2633903D01*
X40354592Y-2695063D01*
X40531034Y-2710500D01*
X40589999Y-2715659D01*
X40590000Y-2715659D01*
X40590001Y-2715659D01*
X40648966Y-2710500D01*
X40825408Y-2695063D01*
X41053663Y-2633903D01*
X41267830Y-2534035D01*
X41461401Y-2398495D01*
X41628495Y-2231401D01*
X41758425Y-2045842D01*
X41813002Y-2002217D01*
X41882500Y-1995023D01*
X41944855Y-2026546D01*
X41961575Y-2045842D01*
X42091500Y-2231395D01*
X42091505Y-2231401D01*
X42258599Y-2398495D01*
X42355384Y-2466265D01*
X42452165Y-2534032D01*
X42452167Y-2534033D01*
X42452170Y-2534035D01*
X42666337Y-2633903D01*
X42894592Y-2695063D01*
X43071034Y-2710500D01*
X43129999Y-2715659D01*
X43130000Y-2715659D01*
X43130001Y-2715659D01*
X43188966Y-2710500D01*
X43365408Y-2695063D01*
X43593663Y-2633903D01*
X43807830Y-2534035D01*
X44001401Y-2398495D01*
X44168495Y-2231401D01*
X44298425Y-2045842D01*
X44353002Y-2002217D01*
X44422500Y-1995023D01*
X44484855Y-2026546D01*
X44501575Y-2045842D01*
X44631500Y-2231395D01*
X44631505Y-2231401D01*
X44798599Y-2398495D01*
X44895384Y-2466265D01*
X44992165Y-2534032D01*
X44992167Y-2534033D01*
X44992170Y-2534035D01*
X45206337Y-2633903D01*
X45434592Y-2695063D01*
X45611034Y-2710500D01*
X45669999Y-2715659D01*
X45670000Y-2715659D01*
X45670001Y-2715659D01*
X45728966Y-2710500D01*
X45905408Y-2695063D01*
X46133663Y-2633903D01*
X46347830Y-2534035D01*
X46541401Y-2398495D01*
X46708495Y-2231401D01*
X46838425Y-2045842D01*
X46893002Y-2002217D01*
X46962500Y-1995023D01*
X47024855Y-2026546D01*
X47041575Y-2045842D01*
X47171500Y-2231395D01*
X47171505Y-2231401D01*
X47338599Y-2398495D01*
X47435384Y-2466265D01*
X47532165Y-2534032D01*
X47532167Y-2534033D01*
X47532170Y-2534035D01*
X47746337Y-2633903D01*
X47974592Y-2695063D01*
X48151034Y-2710500D01*
X48209999Y-2715659D01*
X48210000Y-2715659D01*
X48210001Y-2715659D01*
X48268966Y-2710500D01*
X48445408Y-2695063D01*
X48673663Y-2633903D01*
X48887830Y-2534035D01*
X49081401Y-2398495D01*
X49248495Y-2231401D01*
X49378425Y-2045842D01*
X49433002Y-2002217D01*
X49502500Y-1995023D01*
X49564855Y-2026546D01*
X49581575Y-2045842D01*
X49711500Y-2231395D01*
X49711505Y-2231401D01*
X49878599Y-2398495D01*
X49975384Y-2466265D01*
X50072165Y-2534032D01*
X50072167Y-2534033D01*
X50072170Y-2534035D01*
X50286337Y-2633903D01*
X50514592Y-2695063D01*
X50691034Y-2710500D01*
X50749999Y-2715659D01*
X50750000Y-2715659D01*
X50750001Y-2715659D01*
X50808966Y-2710500D01*
X50985408Y-2695063D01*
X51213663Y-2633903D01*
X51427830Y-2534035D01*
X51621401Y-2398495D01*
X51788495Y-2231401D01*
X51918425Y-2045842D01*
X51973002Y-2002217D01*
X52042500Y-1995023D01*
X52104855Y-2026546D01*
X52121575Y-2045842D01*
X52251500Y-2231395D01*
X52251505Y-2231401D01*
X52418599Y-2398495D01*
X52515384Y-2466265D01*
X52612165Y-2534032D01*
X52612167Y-2534033D01*
X52612170Y-2534035D01*
X52826337Y-2633903D01*
X53054592Y-2695063D01*
X53231034Y-2710500D01*
X53289999Y-2715659D01*
X53290000Y-2715659D01*
X53290001Y-2715659D01*
X53348966Y-2710500D01*
X53525408Y-2695063D01*
X53753663Y-2633903D01*
X53967830Y-2534035D01*
X54161401Y-2398495D01*
X54328495Y-2231401D01*
X54458425Y-2045842D01*
X54513002Y-2002217D01*
X54582500Y-1995023D01*
X54644855Y-2026546D01*
X54661575Y-2045842D01*
X54791500Y-2231395D01*
X54791505Y-2231401D01*
X54958599Y-2398495D01*
X55055384Y-2466265D01*
X55152165Y-2534032D01*
X55152167Y-2534033D01*
X55152170Y-2534035D01*
X55366337Y-2633903D01*
X55594592Y-2695063D01*
X55771034Y-2710500D01*
X55829999Y-2715659D01*
X55830000Y-2715659D01*
X55830001Y-2715659D01*
X55888966Y-2710500D01*
X56065408Y-2695063D01*
X56293663Y-2633903D01*
X56507830Y-2534035D01*
X56701401Y-2398495D01*
X56868495Y-2231401D01*
X56998425Y-2045842D01*
X57053002Y-2002217D01*
X57122500Y-1995023D01*
X57184855Y-2026546D01*
X57201575Y-2045842D01*
X57331500Y-2231395D01*
X57331505Y-2231401D01*
X57498599Y-2398495D01*
X57595384Y-2466265D01*
X57692165Y-2534032D01*
X57692167Y-2534033D01*
X57692170Y-2534035D01*
X57906337Y-2633903D01*
X58134592Y-2695063D01*
X58311034Y-2710500D01*
X58369999Y-2715659D01*
X58370000Y-2715659D01*
X58370001Y-2715659D01*
X58428966Y-2710500D01*
X58605408Y-2695063D01*
X58833663Y-2633903D01*
X59047830Y-2534035D01*
X59241401Y-2398495D01*
X59408495Y-2231401D01*
X59538425Y-2045842D01*
X59593002Y-2002217D01*
X59662500Y-1995023D01*
X59724855Y-2026546D01*
X59741575Y-2045842D01*
X59871500Y-2231395D01*
X59871505Y-2231401D01*
X60038599Y-2398495D01*
X60135384Y-2466265D01*
X60232165Y-2534032D01*
X60232167Y-2534033D01*
X60232170Y-2534035D01*
X60446337Y-2633903D01*
X60674592Y-2695063D01*
X60851034Y-2710500D01*
X60909999Y-2715659D01*
X60910000Y-2715659D01*
X60910001Y-2715659D01*
X60968966Y-2710500D01*
X61145408Y-2695063D01*
X61373663Y-2633903D01*
X61587830Y-2534035D01*
X61781401Y-2398495D01*
X61948495Y-2231401D01*
X62037903Y-2103713D01*
X62929500Y-2103713D01*
X62929500Y-2316287D01*
X62962754Y-2526243D01*
X63024299Y-2715659D01*
X63028444Y-2728414D01*
X63124951Y-2917820D01*
X63249890Y-3089786D01*
X63400213Y-3240109D01*
X63572179Y-3365048D01*
X63572181Y-3365049D01*
X63572184Y-3365051D01*
X63761588Y-3461557D01*
X63963757Y-3527246D01*
X64173713Y-3560500D01*
X64173714Y-3560500D01*
X64386286Y-3560500D01*
X64386287Y-3560500D01*
X64596243Y-3527246D01*
X64798412Y-3461557D01*
X64987816Y-3365051D01*
X65009789Y-3349086D01*
X65159786Y-3240109D01*
X65159788Y-3240106D01*
X65159792Y-3240104D01*
X65310104Y-3089792D01*
X65310106Y-3089788D01*
X65310109Y-3089786D01*
X65435048Y-2917820D01*
X65435047Y-2917820D01*
X65435051Y-2917816D01*
X65531557Y-2728412D01*
X65597246Y-2526243D01*
X65630500Y-2316287D01*
X65630500Y-2103713D01*
X65597246Y-1893757D01*
X65531557Y-1691588D01*
X65435051Y-1502184D01*
X65435049Y-1502181D01*
X65435048Y-1502179D01*
X65310109Y-1330213D01*
X65159786Y-1179890D01*
X64987820Y-1054951D01*
X64798414Y-958444D01*
X64798413Y-958443D01*
X64798412Y-958443D01*
X64596243Y-892754D01*
X64596241Y-892753D01*
X64596240Y-892753D01*
X64434957Y-867208D01*
X64386287Y-859500D01*
X64173713Y-859500D01*
X64125042Y-867208D01*
X63963760Y-892753D01*
X63761585Y-958444D01*
X63572179Y-1054951D01*
X63400213Y-1179890D01*
X63249890Y-1330213D01*
X63124951Y-1502179D01*
X63028444Y-1691585D01*
X62962753Y-1893760D01*
X62945188Y-2004664D01*
X62929500Y-2103713D01*
X62037903Y-2103713D01*
X62084035Y-2037830D01*
X62183903Y-1823663D01*
X62245063Y-1595408D01*
X62265659Y-1360000D01*
X62263052Y-1330208D01*
X62250128Y-1182489D01*
X62245063Y-1124592D01*
X62183903Y-896337D01*
X62084035Y-682171D01*
X62078731Y-674595D01*
X61948494Y-488597D01*
X61922078Y-462181D01*
X61888593Y-400858D01*
X61893577Y-331166D01*
X61935449Y-275233D01*
X62000913Y-250816D01*
X62009759Y-250500D01*
X63345830Y-250500D01*
X63387294Y-250500D01*
X63392702Y-250618D01*
X63405967Y-251197D01*
X63798558Y-268337D01*
X63809293Y-269277D01*
X64209386Y-321950D01*
X64220010Y-323823D01*
X64613993Y-411167D01*
X64624405Y-413956D01*
X65009279Y-535307D01*
X65019414Y-538996D01*
X65392232Y-693423D01*
X65402024Y-697989D01*
X65454703Y-725412D01*
X65759942Y-884309D01*
X65769309Y-889716D01*
X65774075Y-892753D01*
X66109638Y-1106530D01*
X66118499Y-1112735D01*
X66438627Y-1358378D01*
X66446914Y-1365332D01*
X66744412Y-1637938D01*
X66752061Y-1645587D01*
X67024667Y-1943085D01*
X67031621Y-1951372D01*
X67277264Y-2271500D01*
X67283469Y-2280361D01*
X67500282Y-2620689D01*
X67505690Y-2630057D01*
X67692007Y-2987969D01*
X67696579Y-2997773D01*
X67850997Y-3370570D01*
X67854697Y-3380736D01*
X67942338Y-3658699D01*
X67943724Y-3728555D01*
X67907122Y-3788070D01*
X67844155Y-3818350D01*
X67774812Y-3809780D01*
X67752956Y-3797563D01*
X67707830Y-3765965D01*
X67707831Y-3765965D01*
X67707829Y-3765964D01*
X67600746Y-3716031D01*
X67493663Y-3666097D01*
X67493659Y-3666096D01*
X67493655Y-3666094D01*
X67265413Y-3604938D01*
X67265403Y-3604936D01*
X67030001Y-3584341D01*
X67029999Y-3584341D01*
X66794596Y-3604936D01*
X66794586Y-3604938D01*
X66566344Y-3666094D01*
X66566335Y-3666098D01*
X66352171Y-3765964D01*
X66352169Y-3765965D01*
X66158597Y-3901505D01*
X65991505Y-4068597D01*
X65855965Y-4262169D01*
X65855964Y-4262171D01*
X65756098Y-4476335D01*
X65756094Y-4476344D01*
X65694938Y-4704586D01*
X65694936Y-4704596D01*
X65674341Y-4939999D01*
X65674341Y-4940000D01*
X65694936Y-5175403D01*
X65694938Y-5175413D01*
X65756094Y-5403655D01*
X65756096Y-5403659D01*
X65756097Y-5403663D01*
X65855965Y-5617830D01*
X65855967Y-5617834D01*
X65991501Y-5811395D01*
X65991506Y-5811402D01*
X66158597Y-5978493D01*
X66158603Y-5978498D01*
X66344158Y-6108425D01*
X66387783Y-6163002D01*
X66394977Y-6232500D01*
X66363454Y-6294855D01*
X66344158Y-6311575D01*
X66158597Y-6441505D01*
X65991505Y-6608597D01*
X65855965Y-6802169D01*
X65855964Y-6802171D01*
X65756098Y-7016335D01*
X65756094Y-7016344D01*
X65694938Y-7244586D01*
X65694936Y-7244596D01*
X65674341Y-7479999D01*
X65674341Y-7480000D01*
X65694936Y-7715403D01*
X65694938Y-7715413D01*
X65756094Y-7943655D01*
X65756096Y-7943659D01*
X65756097Y-7943663D01*
X65827277Y-8096308D01*
X65855965Y-8157830D01*
X65855967Y-8157834D01*
X65991501Y-8351395D01*
X65991506Y-8351402D01*
X66158597Y-8518493D01*
X66158603Y-8518498D01*
X66344158Y-8648425D01*
X66387783Y-8703002D01*
X66394977Y-8772500D01*
X66363454Y-8834855D01*
X66344158Y-8851575D01*
X66158597Y-8981505D01*
X65991505Y-9148597D01*
X65855965Y-9342169D01*
X65855964Y-9342171D01*
X65756098Y-9556335D01*
X65756094Y-9556344D01*
X65694938Y-9784586D01*
X65694936Y-9784596D01*
X65674341Y-10019999D01*
X65674341Y-10020000D01*
X65694936Y-10255403D01*
X65694938Y-10255413D01*
X65756094Y-10483655D01*
X65756096Y-10483659D01*
X65756097Y-10483663D01*
X65803972Y-10586331D01*
X65855965Y-10697830D01*
X65855967Y-10697834D01*
X65941144Y-10819478D01*
X65991501Y-10891396D01*
X65991506Y-10891402D01*
X66158597Y-11058493D01*
X66158603Y-11058498D01*
X66344158Y-11188425D01*
X66387783Y-11243002D01*
X66394977Y-11312500D01*
X66363454Y-11374855D01*
X66344158Y-11391575D01*
X66158597Y-11521505D01*
X65991505Y-11688597D01*
X65855965Y-11882169D01*
X65855964Y-11882171D01*
X65756098Y-12096335D01*
X65756094Y-12096344D01*
X65694938Y-12324586D01*
X65694936Y-12324596D01*
X65674341Y-12559999D01*
X65674341Y-12560000D01*
X65694936Y-12795403D01*
X65694938Y-12795413D01*
X65756094Y-13023655D01*
X65756096Y-13023659D01*
X65756097Y-13023663D01*
X65855965Y-13237830D01*
X65855967Y-13237834D01*
X65991501Y-13431395D01*
X65991506Y-13431402D01*
X66158597Y-13598493D01*
X66158603Y-13598498D01*
X66344158Y-13728425D01*
X66387783Y-13783002D01*
X66394977Y-13852500D01*
X66363454Y-13914855D01*
X66344158Y-13931575D01*
X66158597Y-14061505D01*
X65991505Y-14228597D01*
X65855965Y-14422169D01*
X65855964Y-14422171D01*
X65756098Y-14636335D01*
X65756094Y-14636344D01*
X65694938Y-14864586D01*
X65694936Y-14864596D01*
X65674341Y-15099999D01*
X65674341Y-15100000D01*
X65694936Y-15335403D01*
X65694938Y-15335413D01*
X65756094Y-15563655D01*
X65756096Y-15563659D01*
X65756097Y-15563663D01*
X65855965Y-15777830D01*
X65855967Y-15777834D01*
X65991501Y-15971395D01*
X65991506Y-15971402D01*
X66158597Y-16138493D01*
X66158603Y-16138498D01*
X66344158Y-16268425D01*
X66387783Y-16323002D01*
X66394977Y-16392500D01*
X66363454Y-16454855D01*
X66344158Y-16471575D01*
X66158597Y-16601505D01*
X65991505Y-16768597D01*
X65855965Y-16962169D01*
X65855964Y-16962171D01*
X65793790Y-17095504D01*
X65756956Y-17174496D01*
X65756098Y-17176335D01*
X65756094Y-17176344D01*
X65694938Y-17404586D01*
X65694936Y-17404596D01*
X65674341Y-17639999D01*
X65674341Y-17640000D01*
X65694936Y-17875403D01*
X65694938Y-17875413D01*
X65756094Y-18103655D01*
X65756096Y-18103659D01*
X65756097Y-18103663D01*
X65794992Y-18187073D01*
X65855965Y-18317830D01*
X65855967Y-18317834D01*
X65991501Y-18511395D01*
X65991506Y-18511402D01*
X66158597Y-18678493D01*
X66158603Y-18678498D01*
X66344158Y-18808425D01*
X66387783Y-18863002D01*
X66394977Y-18932500D01*
X66363454Y-18994855D01*
X66344158Y-19011575D01*
X66158597Y-19141505D01*
X65991505Y-19308597D01*
X65855965Y-19502169D01*
X65855964Y-19502171D01*
X65756098Y-19716335D01*
X65756094Y-19716344D01*
X65694938Y-19944586D01*
X65694936Y-19944596D01*
X65674341Y-20179999D01*
X65674341Y-20180000D01*
X65694936Y-20415403D01*
X65694938Y-20415413D01*
X65756094Y-20643655D01*
X65756096Y-20643659D01*
X65756097Y-20643663D01*
X65817128Y-20774544D01*
X65855965Y-20857830D01*
X65855967Y-20857834D01*
X65991501Y-21051395D01*
X65991506Y-21051402D01*
X66158597Y-21218493D01*
X66158603Y-21218498D01*
X66344158Y-21348425D01*
X66387783Y-21403002D01*
X66394977Y-21472500D01*
X66363454Y-21534855D01*
X66344158Y-21551575D01*
X66158597Y-21681505D01*
X65991505Y-21848597D01*
X65855965Y-22042169D01*
X65855964Y-22042171D01*
X65756098Y-22256335D01*
X65756094Y-22256344D01*
X65694938Y-22484586D01*
X65694936Y-22484596D01*
X65674341Y-22719999D01*
X65674341Y-22720000D01*
X65694936Y-22955403D01*
X65694938Y-22955413D01*
X65756094Y-23183655D01*
X65756096Y-23183659D01*
X65756097Y-23183663D01*
X65855965Y-23397830D01*
X65855967Y-23397834D01*
X65991501Y-23591395D01*
X65991506Y-23591402D01*
X66158597Y-23758493D01*
X66158603Y-23758498D01*
X66344158Y-23888425D01*
X66387783Y-23943002D01*
X66394977Y-24012500D01*
X66363454Y-24074855D01*
X66344158Y-24091575D01*
X66158597Y-24221505D01*
X65991505Y-24388597D01*
X65855965Y-24582169D01*
X65855964Y-24582171D01*
X65756098Y-24796335D01*
X65756094Y-24796344D01*
X65694938Y-25024586D01*
X65694936Y-25024596D01*
X65674341Y-25259999D01*
X65674341Y-25260000D01*
X65694936Y-25495403D01*
X65694938Y-25495413D01*
X65756094Y-25723655D01*
X65756096Y-25723659D01*
X65756097Y-25723663D01*
X65838696Y-25900796D01*
X65855965Y-25937830D01*
X65855967Y-25937834D01*
X65991501Y-26131395D01*
X65991506Y-26131402D01*
X66158597Y-26298493D01*
X66158603Y-26298498D01*
X66344158Y-26428425D01*
X66387783Y-26483002D01*
X66394977Y-26552500D01*
X66363454Y-26614855D01*
X66344158Y-26631575D01*
X66158597Y-26761505D01*
X65991505Y-26928597D01*
X65855965Y-27122169D01*
X65855964Y-27122171D01*
X65756098Y-27336335D01*
X65756094Y-27336344D01*
X65694938Y-27564586D01*
X65694936Y-27564596D01*
X65674341Y-27799999D01*
X65674341Y-27800000D01*
X65694936Y-28035403D01*
X65694938Y-28035413D01*
X65756094Y-28263655D01*
X65756096Y-28263659D01*
X65756097Y-28263663D01*
X65855965Y-28477830D01*
X65855967Y-28477834D01*
X65991501Y-28671395D01*
X65991506Y-28671402D01*
X66158597Y-28838493D01*
X66158603Y-28838498D01*
X66344158Y-28968425D01*
X66387783Y-29023002D01*
X66394977Y-29092500D01*
X66363454Y-29154855D01*
X66344158Y-29171575D01*
X66158597Y-29301505D01*
X65991505Y-29468597D01*
X65855965Y-29662169D01*
X65855964Y-29662171D01*
X65756098Y-29876335D01*
X65756094Y-29876344D01*
X65694938Y-30104586D01*
X65694936Y-30104596D01*
X65674341Y-30339999D01*
X65674341Y-30340000D01*
X65694936Y-30575403D01*
X65694938Y-30575413D01*
X65756094Y-30803655D01*
X65756096Y-30803659D01*
X65756097Y-30803663D01*
X65834681Y-30972186D01*
X65855965Y-31017830D01*
X65855967Y-31017834D01*
X65991501Y-31211395D01*
X65991506Y-31211402D01*
X66158597Y-31378493D01*
X66158603Y-31378498D01*
X66344158Y-31508425D01*
X66387783Y-31563002D01*
X66394977Y-31632500D01*
X66363454Y-31694855D01*
X66344158Y-31711575D01*
X66158597Y-31841505D01*
X65991505Y-32008597D01*
X65855965Y-32202169D01*
X65855964Y-32202171D01*
X65762401Y-32402816D01*
X65759468Y-32409109D01*
X65756098Y-32416335D01*
X65756094Y-32416344D01*
X65694938Y-32644586D01*
X65694936Y-32644596D01*
X65674341Y-32879999D01*
X65674341Y-32880000D01*
X65694936Y-33115403D01*
X65694938Y-33115413D01*
X65756094Y-33343655D01*
X65756096Y-33343659D01*
X65756097Y-33343663D01*
X65834681Y-33512186D01*
X65855965Y-33557830D01*
X65855967Y-33557834D01*
X65964281Y-33712521D01*
X65991505Y-33751401D01*
X66158599Y-33918495D01*
X66343705Y-34048108D01*
X66344594Y-34048730D01*
X66388219Y-34103307D01*
X66395413Y-34172805D01*
X66363890Y-34235160D01*
X66344595Y-34251880D01*
X66158922Y-34381890D01*
X66158920Y-34381891D01*
X65991891Y-34548920D01*
X65991886Y-34548926D01*
X65856400Y-34742420D01*
X65856399Y-34742422D01*
X65756570Y-34956507D01*
X65756567Y-34956513D01*
X65699364Y-35169999D01*
X65699364Y-35170000D01*
X66596988Y-35170000D01*
X66564075Y-35227007D01*
X66530000Y-35354174D01*
X66530000Y-35485826D01*
X66564075Y-35612993D01*
X66596988Y-35670000D01*
X65699364Y-35670000D01*
X65756567Y-35883486D01*
X65756570Y-35883492D01*
X65856399Y-36097578D01*
X65991894Y-36291082D01*
X66113946Y-36413134D01*
X66147431Y-36474457D01*
X66142447Y-36544149D01*
X66100575Y-36600082D01*
X66069595Y-36616998D01*
X66040441Y-36627871D01*
X66030841Y-36631012D01*
X66008603Y-36637297D01*
X66008597Y-36637300D01*
X65997114Y-36643160D01*
X65984091Y-36648889D01*
X65937665Y-36666205D01*
X65915557Y-36682756D01*
X65897614Y-36693937D01*
X65880442Y-36702700D01*
X65194630Y-37186804D01*
X65128509Y-37209383D01*
X65123121Y-37209500D01*
X37982229Y-37209500D01*
X37915190Y-37189815D01*
X37894548Y-37173181D01*
X36532040Y-35810672D01*
X36520521Y-35797391D01*
X36159300Y-35315763D01*
X36151113Y-35303363D01*
X36145707Y-35294000D01*
X36141859Y-35287335D01*
X36122340Y-35265657D01*
X36115291Y-35257086D01*
X36109950Y-35249964D01*
X36088028Y-35222750D01*
X36088025Y-35222747D01*
X36088019Y-35222739D01*
X36086956Y-35221509D01*
X36055769Y-35191293D01*
X36049916Y-35185222D01*
X36022228Y-35154472D01*
X36001672Y-35139537D01*
X35993274Y-35132862D01*
X35990021Y-35130038D01*
X35442608Y-34719478D01*
X35429327Y-34707959D01*
X27022039Y-26300671D01*
X27010520Y-26287390D01*
X26649300Y-25805763D01*
X26641113Y-25793363D01*
X26638800Y-25789358D01*
X26631859Y-25777335D01*
X26612340Y-25755657D01*
X26605291Y-25747086D01*
X26599950Y-25739964D01*
X26578028Y-25712750D01*
X26578025Y-25712747D01*
X26578019Y-25712739D01*
X26576956Y-25711509D01*
X26545769Y-25681293D01*
X26539917Y-25675222D01*
X26512232Y-25644476D01*
X26512231Y-25644475D01*
X26512230Y-25644474D01*
X26367593Y-25539388D01*
X26204267Y-25466671D01*
X26204265Y-25466670D01*
X26063142Y-25436674D01*
X26029391Y-25429500D01*
X25850609Y-25429500D01*
X25850605Y-25429500D01*
X25816847Y-25436674D01*
X25808608Y-25438137D01*
X25177800Y-25528254D01*
X25160263Y-25529500D01*
X16372729Y-25529500D01*
X16345194Y-25526404D01*
X15674064Y-25373562D01*
X15663374Y-25371249D01*
X15663373Y-25371248D01*
X15658720Y-25370242D01*
X15658740Y-25370148D01*
X15645298Y-25367206D01*
X15566331Y-25343253D01*
X15380000Y-25324901D01*
X15193668Y-25343253D01*
X15109322Y-25368838D01*
X15090254Y-25372466D01*
X15090319Y-25372888D01*
X15085932Y-25373562D01*
X14414805Y-25526404D01*
X14387270Y-25529500D01*
X8196080Y-25529500D01*
X8051092Y-25558340D01*
X8051082Y-25558343D01*
X7914511Y-25614912D01*
X7914499Y-25614919D01*
X7870735Y-25644162D01*
X7870733Y-25644163D01*
X7791589Y-25697043D01*
X7791584Y-25697047D01*
X3935451Y-29553181D01*
X3874128Y-29586666D01*
X3847770Y-29589500D01*
X-1818924Y-29589500D01*
X-1863917Y-29581049D01*
X-3130630Y-29087807D01*
X-3130632Y-29087806D01*
X-3156504Y-29079136D01*
X-3169506Y-29073945D01*
X-3186331Y-29066099D01*
X-3186345Y-29066094D01*
X-3414587Y-29004938D01*
X-3414597Y-29004936D01*
X-3649999Y-28984341D01*
X-3650001Y-28984341D01*
X-3885404Y-29004936D01*
X-3885414Y-29004938D01*
X-4113656Y-29066094D01*
X-4113665Y-29066098D01*
X-4327829Y-29165964D01*
X-4327831Y-29165965D01*
X-4521403Y-29301505D01*
X-4537819Y-29317922D01*
X-4599142Y-29351407D01*
X-4668834Y-29346423D01*
X-4724767Y-29304551D01*
X-4749184Y-29239087D01*
X-4749500Y-29230241D01*
X-4749500Y-26610077D01*
X-4729815Y-26543038D01*
X-4677011Y-26497283D01*
X-4607853Y-26487339D01*
X-4544297Y-26516364D01*
X-4537819Y-26522396D01*
X-4498467Y-26561748D01*
X-4498463Y-26561751D01*
X-4334685Y-26671185D01*
X-4334672Y-26671192D01*
X-4152694Y-26746569D01*
X-4152682Y-26746572D01*
X-3959496Y-26784999D01*
X-3959492Y-26785000D01*
X-3661000Y-26785000D01*
X-3661000Y-26085000D01*
X-3161000Y-26085000D01*
X-3161000Y-26785000D01*
X-2862508Y-26785000D01*
X-2862505Y-26784999D01*
X-2669319Y-26746572D01*
X-2669307Y-26746569D01*
X-2487329Y-26671192D01*
X-2487316Y-26671185D01*
X-2323538Y-26561751D01*
X-2323534Y-26561748D01*
X-2184252Y-26422466D01*
X-2184249Y-26422462D01*
X-2074815Y-26258684D01*
X-2074808Y-26258671D01*
X-1999431Y-26076692D01*
X-1999431Y-26076690D01*
X-1991138Y-26035000D01*
X-2794012Y-26035000D01*
X-2776795Y-26025060D01*
X-2720940Y-25969205D01*
X-2681444Y-25900796D01*
X-2661000Y-25824496D01*
X-2661000Y-25745504D01*
X-2681444Y-25669204D01*
X-2720940Y-25600795D01*
X-2776795Y-25544940D01*
X-2794012Y-25535000D01*
X-1991138Y-25535000D01*
X-730862Y-25535000D01*
X22012Y-25535000D01*
X4795Y-25544940D01*
X-51060Y-25600795D01*
X-90556Y-25669204D01*
X-111000Y-25745504D01*
X-111000Y-25824496D01*
X-90556Y-25900796D01*
X-51060Y-25969205D01*
X4795Y-26025060D01*
X22012Y-26035000D01*
X-730862Y-26035000D01*
X-722570Y-26076690D01*
X-722570Y-26076692D01*
X-647193Y-26258671D01*
X-647186Y-26258684D01*
X-537752Y-26422462D01*
X-537749Y-26422466D01*
X-398467Y-26561748D01*
X-398463Y-26561751D01*
X-234685Y-26671185D01*
X-234672Y-26671192D01*
X-52694Y-26746569D01*
X-52682Y-26746572D01*
X140504Y-26784999D01*
X140508Y-26785000D01*
X539000Y-26785000D01*
X539000Y-26085000D01*
X1039000Y-26085000D01*
X1039000Y-26785000D01*
X1437492Y-26785000D01*
X1437495Y-26784999D01*
X1630681Y-26746572D01*
X1630693Y-26746569D01*
X1812671Y-26671192D01*
X1812684Y-26671185D01*
X1976462Y-26561751D01*
X1976466Y-26561748D01*
X2115748Y-26422466D01*
X2115751Y-26422462D01*
X2225185Y-26258684D01*
X2225192Y-26258671D01*
X2300569Y-26076692D01*
X2300569Y-26076690D01*
X2308862Y-26035000D01*
X1555988Y-26035000D01*
X1573205Y-26025060D01*
X1629060Y-25969205D01*
X1668556Y-25900796D01*
X1689000Y-25824496D01*
X1689000Y-25745504D01*
X1668556Y-25669204D01*
X1629060Y-25600795D01*
X1573205Y-25544940D01*
X1555988Y-25535000D01*
X2308862Y-25535000D01*
X2300569Y-25493309D01*
X2300569Y-25493307D01*
X2225192Y-25311328D01*
X2225185Y-25311315D01*
X2115751Y-25147537D01*
X2115748Y-25147533D01*
X1976466Y-25008251D01*
X1976462Y-25008248D01*
X1812684Y-24898814D01*
X1812671Y-24898807D01*
X1630693Y-24823430D01*
X1630681Y-24823427D01*
X1437495Y-24785000D01*
X917158Y-24785000D01*
X850119Y-24765315D01*
X804364Y-24712511D01*
X794420Y-24643353D01*
X809771Y-24599000D01*
X825279Y-24572138D01*
X825281Y-24572135D01*
X864500Y-24425766D01*
X864500Y-24274234D01*
X825281Y-24127865D01*
X749515Y-23996635D01*
X642365Y-23889485D01*
X576750Y-23851602D01*
X511136Y-23813719D01*
X437950Y-23794109D01*
X364766Y-23774500D01*
X213234Y-23774500D01*
X66863Y-23813719D01*
X-64365Y-23889485D01*
X-64368Y-23889487D01*
X-171513Y-23996632D01*
X-171515Y-23996635D01*
X-247281Y-24127863D01*
X-286500Y-24274234D01*
X-286500Y-24425765D01*
X-247281Y-24572136D01*
X-171513Y-24703368D01*
X-171324Y-24703614D01*
X-171230Y-24703858D01*
X-167451Y-24710403D01*
X-168472Y-24710992D01*
X-146130Y-24768783D01*
X-160168Y-24837228D01*
X-208982Y-24887217D01*
X-222243Y-24893659D01*
X-234671Y-24898807D01*
X-234685Y-24898814D01*
X-398463Y-25008248D01*
X-398467Y-25008251D01*
X-537749Y-25147533D01*
X-537752Y-25147537D01*
X-647186Y-25311315D01*
X-647193Y-25311328D01*
X-722570Y-25493307D01*
X-722570Y-25493309D01*
X-730862Y-25535000D01*
X-1991138Y-25535000D01*
X-1999431Y-25493309D01*
X-1999431Y-25493307D01*
X-2074808Y-25311328D01*
X-2074815Y-25311315D01*
X-2184249Y-25147537D01*
X-2184252Y-25147533D01*
X-2323534Y-25008251D01*
X-2323538Y-25008248D01*
X-2487316Y-24898814D01*
X-2487329Y-24898807D01*
X-2669307Y-24823430D01*
X-2669319Y-24823427D01*
X-2862505Y-24785000D01*
X-3161000Y-24785000D01*
X-3161000Y-25485000D01*
X-3661000Y-25485000D01*
X-3661000Y-24785000D01*
X-3959496Y-24785000D01*
X-4152682Y-24823427D01*
X-4152694Y-24823430D01*
X-4334672Y-24898807D01*
X-4334685Y-24898814D01*
X-4498463Y-25008248D01*
X-4498467Y-25008251D01*
X-4537819Y-25047604D01*
X-4599142Y-25081089D01*
X-4668834Y-25076105D01*
X-4724767Y-25034233D01*
X-4749184Y-24968769D01*
X-4749500Y-24959923D01*
X-4749500Y-17960077D01*
X-4729815Y-17893038D01*
X-4677011Y-17847283D01*
X-4607853Y-17837339D01*
X-4544297Y-17866364D01*
X-4537819Y-17872396D01*
X-4498467Y-17911748D01*
X-4498463Y-17911751D01*
X-4334685Y-18021185D01*
X-4334672Y-18021192D01*
X-4152694Y-18096569D01*
X-4152682Y-18096572D01*
X-3959496Y-18134999D01*
X-3959492Y-18135000D01*
X-3661000Y-18135000D01*
X-3661000Y-17435000D01*
X-3161000Y-17435000D01*
X-3161000Y-18135000D01*
X-2862508Y-18135000D01*
X-2862505Y-18134999D01*
X-2669319Y-18096572D01*
X-2669307Y-18096569D01*
X-2487329Y-18021192D01*
X-2487316Y-18021185D01*
X-2323538Y-17911751D01*
X-2323534Y-17911748D01*
X-2184252Y-17772466D01*
X-2184249Y-17772462D01*
X-2074815Y-17608684D01*
X-2074808Y-17608671D01*
X-1999431Y-17426692D01*
X-1999431Y-17426690D01*
X-1991138Y-17385000D01*
X-2794012Y-17385000D01*
X-2776795Y-17375060D01*
X-2720940Y-17319205D01*
X-2681444Y-17250796D01*
X-2661000Y-17174496D01*
X-2661000Y-17095504D01*
X-2681444Y-17019204D01*
X-2720940Y-16950795D01*
X-2776795Y-16894940D01*
X-2794012Y-16885000D01*
X-1991138Y-16885000D01*
X-730862Y-16885000D01*
X22012Y-16885000D01*
X4795Y-16894940D01*
X-51060Y-16950795D01*
X-90556Y-17019204D01*
X-111000Y-17095504D01*
X-111000Y-17174496D01*
X-90556Y-17250796D01*
X-51060Y-17319205D01*
X4795Y-17375060D01*
X22012Y-17385000D01*
X-730862Y-17385000D01*
X-722570Y-17426690D01*
X-722570Y-17426692D01*
X-647193Y-17608671D01*
X-647186Y-17608684D01*
X-537752Y-17772462D01*
X-537749Y-17772466D01*
X-398467Y-17911748D01*
X-398463Y-17911751D01*
X-234685Y-18021185D01*
X-234678Y-18021189D01*
X-222249Y-18026337D01*
X-167845Y-18070178D01*
X-145779Y-18136471D01*
X-163057Y-18204171D01*
X-171319Y-18216378D01*
X-171510Y-18216625D01*
X-247281Y-18347863D01*
X-286500Y-18494234D01*
X-286500Y-18645766D01*
X-273443Y-18694497D01*
X-247281Y-18792136D01*
X-237876Y-18808425D01*
X-171515Y-18923365D01*
X-64365Y-19030515D01*
X66865Y-19106281D01*
X213234Y-19145500D01*
X213236Y-19145500D01*
X364764Y-19145500D01*
X364766Y-19145500D01*
X511135Y-19106281D01*
X591296Y-19060000D01*
X1704901Y-19060000D01*
X1718004Y-19193035D01*
X1723253Y-19246331D01*
X1748838Y-19330677D01*
X1752465Y-19349743D01*
X1752887Y-19349679D01*
X1753560Y-19354055D01*
X1753561Y-19354063D01*
X1753562Y-19354064D01*
X1906403Y-20025192D01*
X1906404Y-20025194D01*
X1909500Y-20052726D01*
X1909500Y-23933918D01*
X1909500Y-23933920D01*
X1909499Y-23933920D01*
X1938340Y-24078907D01*
X1938343Y-24078917D01*
X1994911Y-24215487D01*
X1994915Y-24215493D01*
X1994916Y-24215495D01*
X1998930Y-24221502D01*
X1998931Y-24221505D01*
X1998932Y-24221505D01*
X2077051Y-24338420D01*
X2077052Y-24338421D01*
X3847353Y-26108721D01*
X3864634Y-26130380D01*
X4231094Y-26712977D01*
X4239652Y-26726261D01*
X4239567Y-26726315D01*
X4246973Y-26737866D01*
X4259607Y-26761501D01*
X4285862Y-26810623D01*
X4285864Y-26810626D01*
X4404642Y-26955357D01*
X4549373Y-27074135D01*
X4549376Y-27074137D01*
X4714497Y-27162395D01*
X4714499Y-27162396D01*
X4893666Y-27216746D01*
X4893668Y-27216747D01*
X4910374Y-27218392D01*
X5080000Y-27235099D01*
X5266331Y-27216747D01*
X5445501Y-27162396D01*
X5610625Y-27074136D01*
X5755357Y-26955357D01*
X5874136Y-26810625D01*
X5962396Y-26645501D01*
X6016747Y-26466331D01*
X6035099Y-26280000D01*
X6018392Y-26110374D01*
X6016747Y-26093668D01*
X6016746Y-26093666D01*
X6011596Y-26076690D01*
X5962396Y-25914499D01*
X5897648Y-25793363D01*
X5874137Y-25749376D01*
X5874135Y-25749373D01*
X5755357Y-25604642D01*
X5610626Y-25485864D01*
X5610619Y-25485860D01*
X5532890Y-25444313D01*
X5516836Y-25433390D01*
X5516583Y-25433736D01*
X5513018Y-25431121D01*
X5513013Y-25431117D01*
X5513007Y-25431113D01*
X5513004Y-25431111D01*
X4930380Y-25064634D01*
X4908721Y-25047353D01*
X3446819Y-23585451D01*
X3413334Y-23524128D01*
X3410500Y-23497770D01*
X3410500Y-20052726D01*
X3413596Y-20025192D01*
X3566422Y-19354129D01*
X3566422Y-19354126D01*
X3566437Y-19354063D01*
X3568750Y-19343374D01*
X3568750Y-19343371D01*
X3569759Y-19338710D01*
X3569854Y-19338730D01*
X3572792Y-19325295D01*
X3596747Y-19246331D01*
X3615099Y-19060000D01*
X3596747Y-18873669D01*
X3542396Y-18694499D01*
X3516348Y-18645766D01*
X3454137Y-18529376D01*
X3454135Y-18529373D01*
X3335357Y-18384642D01*
X3190626Y-18265864D01*
X3190623Y-18265862D01*
X3025502Y-18177604D01*
X2846333Y-18123253D01*
X2846331Y-18123252D01*
X2660000Y-18104901D01*
X2473668Y-18123252D01*
X2473666Y-18123253D01*
X2294497Y-18177604D01*
X2129376Y-18265862D01*
X2129373Y-18265864D01*
X1984642Y-18384642D01*
X1865864Y-18529373D01*
X1865862Y-18529376D01*
X1777604Y-18694497D01*
X1723253Y-18873666D01*
X1723252Y-18873668D01*
X1711317Y-18994855D01*
X1704901Y-19060000D01*
X591296Y-19060000D01*
X642365Y-19030515D01*
X749515Y-18923365D01*
X825281Y-18792135D01*
X864500Y-18645766D01*
X864500Y-18494234D01*
X825281Y-18347865D01*
X825279Y-18347861D01*
X809771Y-18321000D01*
X793298Y-18253100D01*
X816150Y-18187073D01*
X871072Y-18143882D01*
X917158Y-18135000D01*
X1437492Y-18135000D01*
X1437495Y-18134999D01*
X1630681Y-18096572D01*
X1630693Y-18096569D01*
X1812671Y-18021192D01*
X1812684Y-18021185D01*
X1976462Y-17911751D01*
X1976466Y-17911748D01*
X2115748Y-17772466D01*
X2115751Y-17772462D01*
X2225185Y-17608684D01*
X2225192Y-17608671D01*
X2300569Y-17426692D01*
X2300569Y-17426690D01*
X2308862Y-17385000D01*
X1555988Y-17385000D01*
X1573205Y-17375060D01*
X1629060Y-17319205D01*
X1668556Y-17250796D01*
X1689000Y-17174496D01*
X1689000Y-17095504D01*
X1671449Y-17030000D01*
X12934901Y-17030000D01*
X12953252Y-17216331D01*
X12953253Y-17216333D01*
X13007604Y-17395502D01*
X13095862Y-17560623D01*
X13095864Y-17560626D01*
X13214642Y-17705357D01*
X13359373Y-17824135D01*
X13359376Y-17824137D01*
X13455308Y-17875413D01*
X13524499Y-17912396D01*
X13703666Y-17966746D01*
X13703668Y-17966747D01*
X13720374Y-17968392D01*
X13890000Y-17985099D01*
X14076331Y-17966747D01*
X14160673Y-17941160D01*
X14179738Y-17937540D01*
X14179673Y-17937112D01*
X14184050Y-17936438D01*
X14184064Y-17936437D01*
X14855190Y-17783595D01*
X14882725Y-17780500D01*
X25093920Y-17780500D01*
X25191462Y-17761096D01*
X25238913Y-17751658D01*
X25375495Y-17695084D01*
X25424729Y-17662186D01*
X25498416Y-17612952D01*
X27919334Y-15192032D01*
X27932608Y-15180520D01*
X27933215Y-15180064D01*
X27933220Y-15180062D01*
X28480026Y-14769957D01*
X28490646Y-14761397D01*
X28495551Y-14757642D01*
X28512230Y-14745526D01*
X28541530Y-14712983D01*
X28544563Y-14709736D01*
X28570642Y-14682813D01*
X28575003Y-14677123D01*
X28575257Y-14677318D01*
X28582569Y-14667405D01*
X28631859Y-14612665D01*
X28721250Y-14457835D01*
X28776497Y-14287803D01*
X28795185Y-14110000D01*
X28776497Y-13932197D01*
X28735980Y-13807500D01*
X28721252Y-13762170D01*
X28721249Y-13762164D01*
X28631859Y-13607335D01*
X28574450Y-13543576D01*
X28512235Y-13474478D01*
X28512232Y-13474476D01*
X28512231Y-13474475D01*
X28512230Y-13474474D01*
X28367593Y-13369388D01*
X28204267Y-13296671D01*
X28204265Y-13296670D01*
X28076437Y-13269500D01*
X28029391Y-13259500D01*
X27850609Y-13259500D01*
X27803563Y-13269500D01*
X27675732Y-13296671D01*
X27675723Y-13296674D01*
X27666662Y-13300708D01*
X27643711Y-13307688D01*
X27643831Y-13308172D01*
X27639533Y-13309236D01*
X27165196Y-13463426D01*
X27126863Y-13469500D01*
X23700557Y-13469500D01*
X23664246Y-13464064D01*
X23182120Y-13316411D01*
X23175524Y-13314598D01*
X23157957Y-13308314D01*
X23154265Y-13306670D01*
X23026594Y-13279533D01*
X22979391Y-13269500D01*
X22800609Y-13269500D01*
X22769954Y-13276015D01*
X22625733Y-13306670D01*
X22625728Y-13306672D01*
X22462408Y-13379387D01*
X22317768Y-13484475D01*
X22198140Y-13617336D01*
X22108750Y-13772164D01*
X22108747Y-13772170D01*
X22053504Y-13942192D01*
X22053503Y-13942194D01*
X22034815Y-14120000D01*
X22053503Y-14297805D01*
X22053504Y-14297807D01*
X22108747Y-14467829D01*
X22108750Y-14467835D01*
X22198141Y-14622665D01*
X22210458Y-14636344D01*
X22317764Y-14755521D01*
X22317767Y-14755523D01*
X22317770Y-14755526D01*
X22462407Y-14860612D01*
X22625733Y-14933329D01*
X22800609Y-14970500D01*
X22800610Y-14970500D01*
X22979389Y-14970500D01*
X22979391Y-14970500D01*
X23154267Y-14933329D01*
X23158794Y-14931313D01*
X23177882Y-14924938D01*
X23177868Y-14924891D01*
X23179777Y-14924306D01*
X23181494Y-14923733D01*
X23182091Y-14923594D01*
X23182104Y-14923593D01*
X23664243Y-14775935D01*
X23700554Y-14770500D01*
X25918771Y-14770500D01*
X25985810Y-14790185D01*
X26031565Y-14842989D01*
X26041509Y-14912147D01*
X26012484Y-14975703D01*
X26006453Y-14982178D01*
X25210802Y-15777830D01*
X24745451Y-16243181D01*
X24684128Y-16276666D01*
X24657770Y-16279500D01*
X14882729Y-16279500D01*
X14855194Y-16276404D01*
X14844792Y-16274035D01*
X14184064Y-16123562D01*
X14173374Y-16121249D01*
X14173373Y-16121248D01*
X14168720Y-16120242D01*
X14168740Y-16120148D01*
X14155298Y-16117206D01*
X14076331Y-16093253D01*
X14076321Y-16093252D01*
X13890000Y-16074901D01*
X13889999Y-16074901D01*
X13703668Y-16093252D01*
X13703666Y-16093253D01*
X13524497Y-16147604D01*
X13359376Y-16235862D01*
X13359373Y-16235864D01*
X13214642Y-16354642D01*
X13095864Y-16499373D01*
X13095862Y-16499376D01*
X13007604Y-16664497D01*
X12953253Y-16843666D01*
X12953252Y-16843668D01*
X12934901Y-17030000D01*
X1671449Y-17030000D01*
X1668556Y-17019204D01*
X1629060Y-16950795D01*
X1573205Y-16894940D01*
X1555988Y-16885000D01*
X2308862Y-16885000D01*
X2300569Y-16843309D01*
X2300569Y-16843307D01*
X2225192Y-16661328D01*
X2225185Y-16661315D01*
X2115751Y-16497537D01*
X2115748Y-16497533D01*
X1976466Y-16358251D01*
X1976462Y-16358248D01*
X1812684Y-16248814D01*
X1812671Y-16248807D01*
X1630693Y-16173430D01*
X1630681Y-16173427D01*
X1437495Y-16135000D01*
X1039000Y-16135000D01*
X1039000Y-16835000D01*
X539000Y-16835000D01*
X539000Y-16135000D01*
X140504Y-16135000D01*
X-52682Y-16173427D01*
X-52694Y-16173430D01*
X-234672Y-16248807D01*
X-234685Y-16248814D01*
X-398463Y-16358248D01*
X-398467Y-16358251D01*
X-537749Y-16497533D01*
X-537752Y-16497537D01*
X-647186Y-16661315D01*
X-647193Y-16661328D01*
X-722570Y-16843307D01*
X-722570Y-16843309D01*
X-730862Y-16885000D01*
X-1991138Y-16885000D01*
X-1999431Y-16843309D01*
X-1999431Y-16843307D01*
X-2074808Y-16661328D01*
X-2074815Y-16661315D01*
X-2184249Y-16497537D01*
X-2184252Y-16497533D01*
X-2323534Y-16358251D01*
X-2323538Y-16358248D01*
X-2487316Y-16248814D01*
X-2487329Y-16248807D01*
X-2669307Y-16173430D01*
X-2669319Y-16173427D01*
X-2862505Y-16135000D01*
X-3161000Y-16135000D01*
X-3161000Y-16835000D01*
X-3661000Y-16835000D01*
X-3661000Y-16135000D01*
X-3959496Y-16135000D01*
X-4152682Y-16173427D01*
X-4152694Y-16173430D01*
X-4334672Y-16248807D01*
X-4334685Y-16248814D01*
X-4498463Y-16358248D01*
X-4498467Y-16358251D01*
X-4537819Y-16397604D01*
X-4599142Y-16431089D01*
X-4668834Y-16426105D01*
X-4724767Y-16384233D01*
X-4749184Y-16318769D01*
X-4749500Y-16309923D01*
X-4749500Y-14026363D01*
X-4729815Y-13959324D01*
X-4677011Y-13913569D01*
X-4612242Y-13903074D01*
X-4547840Y-13909999D01*
X-4547828Y-13910000D01*
X-3900000Y-13910000D01*
X-3900000Y-12993012D01*
X-3842993Y-13025925D01*
X-3715826Y-13060000D01*
X-3584174Y-13060000D01*
X-3457007Y-13025925D01*
X-3400000Y-12993012D01*
X-3400000Y-13910000D01*
X-2752172Y-13910000D01*
X-2752156Y-13909999D01*
X-2692628Y-13903598D01*
X-2692621Y-13903596D01*
X-2557914Y-13853354D01*
X-2557907Y-13853350D01*
X-2442813Y-13767190D01*
X-2442810Y-13767187D01*
X-2356650Y-13652093D01*
X-2356646Y-13652086D01*
X-2306404Y-13517379D01*
X-2306402Y-13517372D01*
X-2300001Y-13457844D01*
X-2300000Y-13457827D01*
X-2300000Y-12810000D01*
X-3216988Y-12810000D01*
X-3184075Y-12752993D01*
X-3150000Y-12625826D01*
X-3150000Y-12494174D01*
X-3184075Y-12367007D01*
X-3216988Y-12310000D01*
X-2300000Y-12310000D01*
X-2300000Y-11662172D01*
X-2300001Y-11662155D01*
X-2305610Y-11609996D01*
X19774435Y-11609996D01*
X19774435Y-11610003D01*
X19794630Y-11789249D01*
X19794631Y-11789254D01*
X19854211Y-11959523D01*
X19938756Y-12094075D01*
X19950184Y-12112262D01*
X20077738Y-12239816D01*
X20168080Y-12296582D01*
X20212648Y-12324586D01*
X20230478Y-12335789D01*
X20319694Y-12367007D01*
X20400745Y-12395368D01*
X20400750Y-12395369D01*
X20579996Y-12415565D01*
X20580000Y-12415565D01*
X20580004Y-12415565D01*
X20759249Y-12395369D01*
X20759250Y-12395368D01*
X20759255Y-12395368D01*
X20838251Y-12367725D01*
X20853651Y-12363431D01*
X20878687Y-12358166D01*
X21262495Y-12218022D01*
X21305026Y-12210500D01*
X33059903Y-12210500D01*
X33126942Y-12230185D01*
X33147583Y-12246818D01*
X37248264Y-16347500D01*
X41315617Y-20414853D01*
X41338370Y-20446139D01*
X41488938Y-20740984D01*
X41488947Y-20741000D01*
X41489863Y-20742794D01*
X41489616Y-20742919D01*
X41491241Y-20746548D01*
X41491521Y-20746414D01*
X41494541Y-20752686D01*
X41499874Y-20761173D01*
X41503403Y-20767156D01*
X41504957Y-20769968D01*
X41508001Y-20774487D01*
X41507915Y-20774544D01*
X41510885Y-20778696D01*
X41584523Y-20895890D01*
X41704109Y-21015476D01*
X41704115Y-21015481D01*
X41847302Y-21105452D01*
X41847305Y-21105454D01*
X41847309Y-21105455D01*
X41847310Y-21105456D01*
X41919913Y-21130860D01*
X42006943Y-21161314D01*
X42174997Y-21180249D01*
X42175000Y-21180249D01*
X42175003Y-21180249D01*
X42343056Y-21161314D01*
X42350835Y-21158592D01*
X42502690Y-21105456D01*
X42502692Y-21105454D01*
X42502694Y-21105454D01*
X42502697Y-21105452D01*
X42645884Y-21015481D01*
X42645885Y-21015480D01*
X42645890Y-21015477D01*
X42765477Y-20895890D01*
X42765481Y-20895884D01*
X42855452Y-20752697D01*
X42855454Y-20752694D01*
X42855454Y-20752692D01*
X42855456Y-20752690D01*
X42911313Y-20593059D01*
X42911313Y-20593058D01*
X42911314Y-20593056D01*
X42930249Y-20425002D01*
X42930249Y-20424997D01*
X42911314Y-20256943D01*
X42855454Y-20097305D01*
X42855452Y-20097302D01*
X42765481Y-19954115D01*
X42765476Y-19954109D01*
X42645890Y-19834523D01*
X42502690Y-19744544D01*
X42502686Y-19744542D01*
X42496412Y-19741521D01*
X42496452Y-19741436D01*
X42492877Y-19739905D01*
X42490985Y-19738939D01*
X42490984Y-19738938D01*
X42196140Y-19588371D01*
X42164854Y-19565618D01*
X33847590Y-11248355D01*
X33847588Y-11248352D01*
X33728717Y-11129481D01*
X33728709Y-11129475D01*
X33617179Y-11065084D01*
X33617178Y-11065083D01*
X33599329Y-11054778D01*
X33591785Y-11050423D01*
X33439057Y-11009499D01*
X33280943Y-11009499D01*
X33273347Y-11009499D01*
X33273331Y-11009500D01*
X27582358Y-11009500D01*
X27515319Y-10989815D01*
X27469564Y-10937011D01*
X27459620Y-10867853D01*
X27477396Y-10819478D01*
X27741251Y-10400000D01*
X27835364Y-10250378D01*
X27852638Y-10228728D01*
X29694549Y-8386819D01*
X29755872Y-8353334D01*
X29782230Y-8350500D01*
X39270262Y-8350500D01*
X39287798Y-8351746D01*
X39288553Y-8351853D01*
X39288557Y-8351855D01*
X39918628Y-8441863D01*
X39926837Y-8443321D01*
X39960609Y-8450500D01*
X39976960Y-8450500D01*
X39990233Y-8451212D01*
X40000005Y-8452265D01*
X40001627Y-8452383D01*
X40001640Y-8452382D01*
X40001644Y-8452383D01*
X40096929Y-8450875D01*
X40102632Y-8450500D01*
X40139388Y-8450500D01*
X40139391Y-8450500D01*
X40173167Y-8443320D01*
X40181367Y-8441864D01*
X40811443Y-8351855D01*
X40811473Y-8351850D01*
X40812202Y-8351746D01*
X40829738Y-8350500D01*
X48517770Y-8350500D01*
X48584809Y-8370185D01*
X48605451Y-8386819D01*
X49369563Y-9150931D01*
X49380902Y-9163973D01*
X49382201Y-9165696D01*
X49615294Y-9474932D01*
X49743968Y-9645641D01*
X49752331Y-9658274D01*
X49760637Y-9672659D01*
X49760643Y-9672667D01*
X49779731Y-9693867D01*
X49786596Y-9702193D01*
X49793268Y-9711044D01*
X49815061Y-9737983D01*
X49816107Y-9739189D01*
X49841338Y-9763593D01*
X49847371Y-9769429D01*
X49853312Y-9775586D01*
X49880270Y-9805526D01*
X50024907Y-9910612D01*
X50188233Y-9983329D01*
X50363109Y-10020500D01*
X50363110Y-10020500D01*
X50541889Y-10020500D01*
X50541891Y-10020500D01*
X50716767Y-9983329D01*
X50880093Y-9910612D01*
X51024730Y-9805526D01*
X51144359Y-9672665D01*
X51233750Y-9517835D01*
X51288997Y-9347803D01*
X51307685Y-9170000D01*
X51288997Y-8992197D01*
X51241483Y-8845965D01*
X51233752Y-8822170D01*
X51233749Y-8822164D01*
X51144359Y-8667335D01*
X51024730Y-8534474D01*
X51003005Y-8518689D01*
X50995033Y-8511880D01*
X50994788Y-8512164D01*
X50991450Y-8509281D01*
X50991447Y-8509278D01*
X50991442Y-8509274D01*
X50991436Y-8509269D01*
X50444230Y-8101037D01*
X50430696Y-8089329D01*
X49358421Y-7017052D01*
X49358414Y-7017046D01*
X49279831Y-6964539D01*
X49279732Y-6964474D01*
X49235495Y-6934916D01*
X49235494Y-6934915D01*
X49235492Y-6934914D01*
X49098917Y-6878343D01*
X49098907Y-6878340D01*
X48953920Y-6849500D01*
X48953918Y-6849500D01*
X40829731Y-6849500D01*
X40812194Y-6848254D01*
X40811449Y-6848147D01*
X40811444Y-6848146D01*
X40469759Y-6799333D01*
X40181386Y-6758136D01*
X40173145Y-6756673D01*
X40139394Y-6749500D01*
X40139391Y-6749500D01*
X40123008Y-6749500D01*
X40109756Y-6748790D01*
X40108765Y-6748683D01*
X40099780Y-6747717D01*
X40098184Y-6747602D01*
X40098168Y-6747601D01*
X40003035Y-6749126D01*
X39997360Y-6749500D01*
X39960605Y-6749500D01*
X39926847Y-6756674D01*
X39918608Y-6758137D01*
X39287800Y-6848254D01*
X39270263Y-6849500D01*
X29346080Y-6849500D01*
X29201092Y-6878340D01*
X29201082Y-6878343D01*
X29064508Y-6934914D01*
X29064505Y-6934915D01*
X29064505Y-6934916D01*
X29020268Y-6964474D01*
X29020267Y-6964473D01*
X28941585Y-7017046D01*
X28941578Y-7017052D01*
X26791283Y-9167347D01*
X26769625Y-9184628D01*
X26186926Y-9551153D01*
X26173689Y-9559683D01*
X26173634Y-9559598D01*
X26162098Y-9566992D01*
X26089376Y-9605862D01*
X26089373Y-9605864D01*
X25944642Y-9724642D01*
X25825864Y-9869373D01*
X25825862Y-9869376D01*
X25737604Y-10034497D01*
X25683253Y-10213666D01*
X25683252Y-10213668D01*
X25664901Y-10400000D01*
X25683252Y-10586331D01*
X25683253Y-10586333D01*
X25717076Y-10697830D01*
X25737604Y-10765501D01*
X25769210Y-10824632D01*
X25770501Y-10827047D01*
X25784742Y-10895450D01*
X25759742Y-10960694D01*
X25703436Y-11002064D01*
X25661142Y-11009500D01*
X21305027Y-11009500D01*
X21262496Y-11001978D01*
X20878687Y-10861834D01*
X20867104Y-10858150D01*
X20838111Y-10848927D01*
X20838104Y-10848926D01*
X20838095Y-10848924D01*
X20836718Y-10848754D01*
X20810992Y-10842735D01*
X20759252Y-10824631D01*
X20580004Y-10804435D01*
X20579996Y-10804435D01*
X20400750Y-10824630D01*
X20400745Y-10824631D01*
X20230476Y-10884211D01*
X20077737Y-10980184D01*
X19950184Y-11107737D01*
X19854211Y-11260476D01*
X19794631Y-11430745D01*
X19794630Y-11430750D01*
X19774435Y-11609996D01*
X-2305610Y-11609996D01*
X-2306402Y-11602627D01*
X-2306404Y-11602620D01*
X-2356646Y-11467913D01*
X-2356650Y-11467906D01*
X-2442810Y-11352812D01*
X-2442813Y-11352809D01*
X-2557907Y-11266649D01*
X-2557912Y-11266646D01*
X-2689472Y-11217577D01*
X-2745405Y-11175705D01*
X-2769822Y-11110241D01*
X-2754970Y-11041968D01*
X-2733825Y-11013720D01*
X-2611505Y-10891401D01*
X-2475965Y-10697830D01*
X-2376097Y-10483663D01*
X-2314937Y-10255408D01*
X-2294341Y-10020000D01*
X-2314937Y-9784592D01*
X-2375223Y-9559598D01*
X-2376095Y-9556344D01*
X-2376096Y-9556343D01*
X-2376097Y-9556337D01*
X-2475965Y-9342171D01*
X-2598377Y-9167347D01*
X-2611506Y-9148597D01*
X-2778598Y-8981506D01*
X-2778599Y-8981505D01*
X-2964595Y-8851269D01*
X-3008219Y-8796692D01*
X-3015412Y-8727193D01*
X-2983890Y-8664839D01*
X-2964595Y-8648119D01*
X-2778918Y-8518105D01*
X-2611895Y-8351082D01*
X-2476400Y-8157578D01*
X-2376571Y-7943492D01*
X-2376568Y-7943486D01*
X-2319364Y-7730000D01*
X-3216988Y-7730000D01*
X-3184075Y-7672993D01*
X-3150000Y-7545826D01*
X-3150000Y-7414174D01*
X-3184075Y-7287007D01*
X-3216988Y-7230000D01*
X-2319364Y-7230000D01*
X-2319365Y-7229999D01*
X-2376568Y-7016513D01*
X-2376571Y-7016507D01*
X-2476400Y-6802422D01*
X-2476401Y-6802420D01*
X-2611887Y-6608926D01*
X-2611892Y-6608920D01*
X-2778922Y-6441890D01*
X-2964595Y-6311879D01*
X-3008220Y-6257302D01*
X-3015412Y-6187804D01*
X-2983890Y-6125449D01*
X-2964594Y-6108730D01*
X-2964158Y-6108425D01*
X-2778599Y-5978495D01*
X-2611505Y-5811401D01*
X-2475965Y-5617830D01*
X-2376097Y-5403663D01*
X-2314937Y-5175408D01*
X-2294341Y-4940000D01*
X-2314937Y-4704592D01*
X-2376097Y-4476337D01*
X-2475965Y-4262171D01*
X-2611505Y-4068599D01*
X-2611506Y-4068597D01*
X-2778598Y-3901506D01*
X-2778605Y-3901501D01*
X-2972166Y-3765967D01*
X-2972170Y-3765965D01*
X-3052396Y-3728555D01*
X-3186337Y-3666097D01*
X-3186341Y-3666096D01*
X-3186345Y-3666094D01*
X-3414587Y-3604938D01*
X-3414597Y-3604936D01*
X-3649999Y-3584341D01*
X-3650001Y-3584341D01*
X-3885404Y-3604936D01*
X-3885414Y-3604938D01*
X-4113656Y-3666094D01*
X-4113665Y-3666098D01*
X-4327826Y-3765963D01*
X-4360122Y-3788577D01*
X-4426329Y-3810904D01*
X-4494096Y-3793892D01*
X-4541908Y-3742944D01*
X-4554586Y-3674234D01*
X-4549506Y-3649714D01*
X-4535388Y-3604937D01*
X-4464693Y-3380720D01*
X-4461007Y-3370592D01*
X-4306574Y-2997758D01*
X-4302016Y-2987984D01*
X-4115685Y-2630045D01*
X-4110290Y-2620700D01*
X-3893463Y-2280350D01*
X-3887273Y-2271511D01*
X-3758517Y-2103713D01*
X-2230500Y-2103713D01*
X-2230500Y-2316287D01*
X-2197246Y-2526243D01*
X-2135701Y-2715659D01*
X-2131556Y-2728414D01*
X-2035049Y-2917820D01*
X-1910110Y-3089786D01*
X-1759787Y-3240109D01*
X-1587821Y-3365048D01*
X-1587819Y-3365049D01*
X-1587816Y-3365051D01*
X-1398412Y-3461557D01*
X-1196243Y-3527246D01*
X-986287Y-3560500D01*
X-986286Y-3560500D01*
X-773714Y-3560500D01*
X-773713Y-3560500D01*
X-563757Y-3527246D01*
X-361588Y-3461557D01*
X-172184Y-3365051D01*
X-150211Y-3349086D01*
X-214Y-3240109D01*
X-212Y-3240106D01*
X-208Y-3240104D01*
X150104Y-3089792D01*
X150106Y-3089788D01*
X150109Y-3089786D01*
X275048Y-2917820D01*
X275047Y-2917820D01*
X275051Y-2917816D01*
X371557Y-2728412D01*
X437246Y-2526243D01*
X470500Y-2316287D01*
X470500Y-2103713D01*
X437246Y-1893757D01*
X371557Y-1691588D01*
X275051Y-1502184D01*
X275049Y-1502181D01*
X275048Y-1502179D01*
X150109Y-1330213D01*
X-214Y-1179890D01*
X-172180Y-1054951D01*
X-361586Y-958444D01*
X-361587Y-958443D01*
X-361588Y-958443D01*
X-563757Y-892754D01*
X-563759Y-892753D01*
X-563760Y-892753D01*
X-725043Y-867208D01*
X-773713Y-859500D01*
X-986287Y-859500D01*
X-1034958Y-867208D01*
X-1196240Y-892753D01*
X-1398415Y-958444D01*
X-1587821Y-1054951D01*
X-1759787Y-1179890D01*
X-1910110Y-1330213D01*
X-2035049Y-1502179D01*
X-2131556Y-1691585D01*
X-2197247Y-1893760D01*
X-2214812Y-2004664D01*
X-2230500Y-2103713D01*
X-3758517Y-2103713D01*
X-3641615Y-1951363D01*
X-3634677Y-1943094D01*
X-3362051Y-1645575D01*
X-3354425Y-1637949D01*
X-3056906Y-1365323D01*
X-3048637Y-1358385D01*
X-2728489Y-1112727D01*
X-2719650Y-1106537D01*
X-2379300Y-889710D01*
X-2369955Y-884315D01*
X-2012016Y-697984D01*
X-2002242Y-693426D01*
X-1629408Y-538993D01*
X-1619287Y-535309D01*
X-1234400Y-413955D01*
X-1224000Y-411168D01*
X-830007Y-323823D01*
X-819391Y-321951D01*
X-419292Y-269276D01*
X-408561Y-268337D01*
X-15364Y-251170D01*
X-2702Y-250618D01*
X2706Y-250500D01*
X44170Y-250500D01*
X1025114Y-250500D01*
X1092153Y-270185D01*
G37*
%TD.AperFunction*%
%TD*%
%TA.AperFunction,Conductor*%
%TO.N,VCC_5V*%
G36*
X3066649Y-19228418D02*
G01*
X3072968Y-19234763D01*
X3073557Y-19241816D01*
X2912073Y-19950898D01*
X2906895Y-19958204D01*
X2900665Y-19960000D01*
X2419335Y-19960000D01*
X2411062Y-19956573D01*
X2407927Y-19950898D01*
X2246442Y-19241816D01*
X2247946Y-19232988D01*
X2253349Y-19228418D01*
X2655501Y-19060873D01*
X2664452Y-19060855D01*
X3066649Y-19228418D01*
G37*
%TD.AperFunction*%
%TD*%
%TA.AperFunction,Conductor*%
%TO.N,VCC_5V*%
G36*
X4628282Y-25471798D02*
G01*
X5243866Y-25859007D01*
X5249044Y-25866313D01*
X5248455Y-25873366D01*
X5082563Y-26276199D01*
X5076244Y-26282544D01*
X5076199Y-26282563D01*
X4673366Y-26448455D01*
X4664411Y-26448436D01*
X4659007Y-26443866D01*
X4271798Y-25828282D01*
X4270294Y-25819454D01*
X4273427Y-25813781D01*
X4613780Y-25473428D01*
X4622052Y-25470002D01*
X4628282Y-25471798D01*
G37*
%TD.AperFunction*%
%TD*%
%TA.AperFunction,Conductor*%
%TO.N,/PB11{slash}MD*%
G36*
X22927902Y-32662492D02*
G01*
X22934228Y-32668830D01*
X22934323Y-32669067D01*
X23598994Y-34383219D01*
X23598790Y-34392172D01*
X23596358Y-34395722D01*
X23465722Y-34526358D01*
X23457449Y-34529785D01*
X23453220Y-34528994D01*
X21739068Y-33864323D01*
X21732593Y-33858137D01*
X21732389Y-33849184D01*
X21732484Y-33848947D01*
X22077438Y-33013782D01*
X22083761Y-33007447D01*
X22918947Y-32662483D01*
X22927902Y-32662492D01*
G37*
%TD.AperFunction*%
%TD*%
%TA.AperFunction,Conductor*%
%TO.N,/PB11{slash}MD*%
G36*
X47085490Y-40289504D02*
G01*
X48523396Y-40770724D01*
X48530154Y-40776599D01*
X48530778Y-40785532D01*
X48530497Y-40786285D01*
X48212562Y-41556214D01*
X48206237Y-41562553D01*
X48206214Y-41562562D01*
X47436285Y-41880497D01*
X47427330Y-41880488D01*
X47421005Y-41874149D01*
X47420724Y-41873396D01*
X47316695Y-41562553D01*
X46939505Y-40435492D01*
X46940129Y-40426562D01*
X46942324Y-40423512D01*
X47073510Y-40292326D01*
X47081782Y-40288900D01*
X47085490Y-40289504D01*
G37*
%TD.AperFunction*%
%TD*%
%TA.AperFunction,Conductor*%
%TO.N,/NRST*%
G36*
X41899732Y-20004604D02*
G01*
X42261084Y-20189134D01*
X42266893Y-20195948D01*
X42266588Y-20203991D01*
X42177564Y-20421176D01*
X42171255Y-20427531D01*
X42171176Y-20427564D01*
X41953991Y-20516588D01*
X41945036Y-20516555D01*
X41939134Y-20511084D01*
X41754604Y-20149733D01*
X41753894Y-20140808D01*
X41756750Y-20136142D01*
X41886141Y-20006751D01*
X41894413Y-20003325D01*
X41899732Y-20004604D01*
G37*
%TD.AperFunction*%
%TD*%
%TA.AperFunction,Conductor*%
%TO.N,/NRST*%
G36*
X21172313Y-11507193D02*
G01*
X21178909Y-11513249D01*
X21180000Y-11518183D01*
X21180000Y-11701816D01*
X21176573Y-11710089D01*
X21172313Y-11712806D01*
X20705305Y-11883330D01*
X20696358Y-11882949D01*
X20690496Y-11876851D01*
X20580883Y-11614509D01*
X20580857Y-11605556D01*
X20580862Y-11605542D01*
X20690496Y-11343147D01*
X20696848Y-11336836D01*
X20705302Y-11336669D01*
X21172313Y-11507193D01*
G37*
%TD.AperFunction*%
%TD*%
%TA.AperFunction,Conductor*%
%TO.N,/PA13{slash}JTMS_SWDIO*%
G36*
X11556974Y-40260384D02*
G01*
X12963790Y-40770535D01*
X12970399Y-40776577D01*
X12970800Y-40785523D01*
X12970615Y-40786000D01*
X12652562Y-41556214D01*
X12646237Y-41562553D01*
X12646214Y-41562562D01*
X11875904Y-41880654D01*
X11866949Y-41880645D01*
X11860624Y-41874306D01*
X11860483Y-41873948D01*
X11340469Y-40477020D01*
X11340794Y-40468072D01*
X11343158Y-40464669D01*
X11544717Y-40263110D01*
X11552989Y-40259684D01*
X11556974Y-40260384D01*
G37*
%TD.AperFunction*%
%TD*%
%TA.AperFunction,Conductor*%
%TO.N,/PA13{slash}JTMS_SWDIO*%
G36*
X3180902Y-32788060D02*
G01*
X3186234Y-32792537D01*
X3241875Y-32879293D01*
X3355705Y-33056777D01*
X3398539Y-33123563D01*
X3400120Y-33132377D01*
X3396963Y-33138152D01*
X3198365Y-33336750D01*
X3190092Y-33340177D01*
X3183475Y-33338126D01*
X2784789Y-33064709D01*
X2779904Y-33057204D01*
X2781757Y-33048443D01*
X2783096Y-33046824D01*
X2947624Y-32880975D01*
X2951485Y-32878394D01*
X3171948Y-32788027D01*
X3180902Y-32788060D01*
G37*
%TD.AperFunction*%
%TD*%
%TA.AperFunction,Conductor*%
%TO.N,/PA14{slash}JTCK_SWCLK*%
G36*
X19181001Y-40254434D02*
G01*
X20501286Y-40740124D01*
X20583861Y-40770501D01*
X20590443Y-40776574D01*
X20590803Y-40785521D01*
X20590636Y-40785948D01*
X20272562Y-41556214D01*
X20266237Y-41562553D01*
X20266214Y-41562562D01*
X19495948Y-41880636D01*
X19486993Y-41880627D01*
X19480668Y-41874288D01*
X19480501Y-41873861D01*
X19363649Y-41556214D01*
X18964435Y-40471004D01*
X18964795Y-40462059D01*
X18967140Y-40458697D01*
X19168695Y-40257142D01*
X19176967Y-40253716D01*
X19181001Y-40254434D01*
G37*
%TD.AperFunction*%
%TD*%
%TA.AperFunction,Conductor*%
%TO.N,/PA14{slash}JTCK_SWCLK*%
G36*
X8951267Y-34087711D02*
G01*
X8958400Y-34093123D01*
X8960000Y-34099028D01*
X8960000Y-34380971D01*
X8956573Y-34389244D01*
X8951266Y-34392289D01*
X8484645Y-34514584D01*
X8475774Y-34513366D01*
X8470883Y-34507777D01*
X8459902Y-34481497D01*
X8360883Y-34244509D01*
X8360857Y-34235556D01*
X8360862Y-34235542D01*
X8470883Y-33972221D01*
X8477235Y-33965910D01*
X8484645Y-33965415D01*
X8951267Y-34087711D01*
G37*
%TD.AperFunction*%
%TD*%
%TA.AperFunction,Conductor*%
%TO.N,VCC_3.3V*%
G36*
X66186968Y-37116960D02*
G01*
X67022712Y-37951722D01*
X67026144Y-37959993D01*
X67022722Y-37968268D01*
X67022712Y-37968278D01*
X66186968Y-38803039D01*
X66178693Y-38806461D01*
X66171953Y-38804320D01*
X66170138Y-38803039D01*
X65334953Y-38213496D01*
X65330170Y-38205925D01*
X65330000Y-38203937D01*
X65330000Y-37716062D01*
X65333427Y-37707789D01*
X65334947Y-37706507D01*
X66171955Y-37115678D01*
X66180688Y-37113708D01*
X66186968Y-37116960D01*
G37*
%TD.AperFunction*%
%TD*%
%TA.AperFunction,Conductor*%
%TO.N,VCC_3.3V*%
G36*
X40045358Y-7254124D02*
G01*
X40049920Y-7261829D01*
X40050038Y-7263451D01*
X40051000Y-7600000D01*
X40051000Y-7600066D01*
X40050038Y-7936548D01*
X40046587Y-7944812D01*
X40038305Y-7948215D01*
X40036683Y-7948097D01*
X39360045Y-7851435D01*
X39352340Y-7846873D01*
X39350000Y-7839853D01*
X39350000Y-7360147D01*
X39353427Y-7351874D01*
X39360045Y-7348565D01*
X40036684Y-7251902D01*
X40045358Y-7254124D01*
G37*
%TD.AperFunction*%
%TD*%
%TA.AperFunction,Conductor*%
%TO.N,VCC_3.3V*%
G36*
X6933311Y-35071901D02*
G01*
X7609955Y-35168565D01*
X7617660Y-35173127D01*
X7620000Y-35180147D01*
X7620000Y-35659853D01*
X7616573Y-35668126D01*
X7609955Y-35671435D01*
X6933316Y-35768097D01*
X6924641Y-35765875D01*
X6920079Y-35758170D01*
X6919961Y-35756556D01*
X6919000Y-35420000D01*
X6919961Y-35083449D01*
X6923412Y-35075187D01*
X6931694Y-35071784D01*
X6933311Y-35071901D01*
G37*
%TD.AperFunction*%
%TD*%
%TA.AperFunction,Conductor*%
%TO.N,VCC_3.3V*%
G36*
X50141412Y-8505798D02*
G01*
X50689177Y-8914448D01*
X50693759Y-8922142D01*
X50691559Y-8930822D01*
X50690478Y-8932075D01*
X50453255Y-9170659D01*
X50453207Y-9170707D01*
X50214528Y-9408025D01*
X50206246Y-9411428D01*
X50197982Y-9407977D01*
X50196936Y-9406771D01*
X50018962Y-9170659D01*
X49785869Y-8861423D01*
X49783627Y-8852755D01*
X49786939Y-8846110D01*
X50126146Y-8506903D01*
X50134418Y-8503477D01*
X50141412Y-8505798D01*
G37*
%TD.AperFunction*%
%TD*%
%TA.AperFunction,Conductor*%
%TO.N,VCC_3.3V*%
G36*
X-1957455Y-30087097D02*
G01*
X-1950989Y-30093293D01*
X-1950000Y-30098000D01*
X-1950000Y-30581999D01*
X-1953427Y-30590272D01*
X-1957455Y-30592902D01*
X-3314059Y-31121146D01*
X-3323011Y-31120954D01*
X-3329109Y-31114732D01*
X-3649135Y-30344489D01*
X-3649144Y-30335534D01*
X-3649135Y-30335511D01*
X-3550452Y-30098000D01*
X-3329109Y-29565266D01*
X-3322770Y-29558942D01*
X-3314059Y-29558853D01*
X-1957455Y-30087097D01*
G37*
%TD.AperFunction*%
%TD*%
%TA.AperFunction,Conductor*%
%TO.N,VCC_3.3V*%
G36*
X16712016Y-40184359D02*
G01*
X16717565Y-40186798D01*
X18044807Y-40770099D01*
X18051003Y-40776565D01*
X18050914Y-40785276D01*
X17732562Y-41556214D01*
X17726237Y-41562553D01*
X17726214Y-41562562D01*
X16955276Y-41880914D01*
X16946321Y-41880905D01*
X16940099Y-41874807D01*
X16354360Y-40542018D01*
X16354168Y-40533066D01*
X16356796Y-40529040D01*
X16699039Y-40186797D01*
X16707311Y-40183371D01*
X16712016Y-40184359D01*
G37*
%TD.AperFunction*%
%TD*%
%TA.AperFunction,Conductor*%
%TO.N,VCC_3.3V*%
G36*
X7256549Y-32879961D02*
G01*
X7264812Y-32883412D01*
X7268215Y-32891694D01*
X7268097Y-32893316D01*
X7171435Y-33569955D01*
X7166873Y-33577660D01*
X7159853Y-33580000D01*
X6680147Y-33580000D01*
X6671874Y-33576573D01*
X6668565Y-33569955D01*
X6571902Y-32893316D01*
X6574124Y-32884641D01*
X6581829Y-32880079D01*
X6583442Y-32879961D01*
X6920000Y-32879000D01*
X7256549Y-32879961D01*
G37*
%TD.AperFunction*%
%TD*%
%TA.AperFunction,Conductor*%
%TO.N,VCC_3.3V*%
G36*
X7168126Y-34723427D02*
G01*
X7171435Y-34730045D01*
X7268097Y-35406683D01*
X7265875Y-35415358D01*
X7258170Y-35419920D01*
X7256548Y-35420038D01*
X6920033Y-35420999D01*
X6919967Y-35420999D01*
X6583451Y-35420038D01*
X6575187Y-35416587D01*
X6571784Y-35408305D01*
X6571902Y-35406683D01*
X6668565Y-34730045D01*
X6673127Y-34722340D01*
X6680147Y-34720000D01*
X7159853Y-34720000D01*
X7168126Y-34723427D01*
G37*
%TD.AperFunction*%
%TD*%
%TA.AperFunction,Conductor*%
%TO.N,VCC_3.3V*%
G36*
X23581726Y-13967466D02*
G01*
X23588633Y-13973165D01*
X23590000Y-13978653D01*
X23590000Y-14261346D01*
X23586573Y-14269619D01*
X23581726Y-14272533D01*
X23034079Y-14440252D01*
X23025165Y-14439398D01*
X23019855Y-14433571D01*
X22890880Y-14124506D01*
X22890857Y-14115551D01*
X22890880Y-14115494D01*
X22951596Y-13970000D01*
X23019855Y-13806427D01*
X23026204Y-13800113D01*
X23034077Y-13799747D01*
X23581726Y-13967466D01*
G37*
%TD.AperFunction*%
%TD*%
%TA.AperFunction,Conductor*%
%TO.N,VCC_3.3V*%
G36*
X27804727Y-13790679D02*
G01*
X27810215Y-13796598D01*
X27939119Y-14105494D01*
X27939142Y-14114449D01*
X27939119Y-14114506D01*
X27810082Y-14423720D01*
X27803733Y-14430035D01*
X27796029Y-14430452D01*
X27250434Y-14272445D01*
X27243441Y-14266852D01*
X27241989Y-14261207D01*
X27241989Y-13978499D01*
X27245416Y-13970226D01*
X27250070Y-13967373D01*
X27795801Y-13789977D01*
X27804727Y-13790679D01*
G37*
%TD.AperFunction*%
%TD*%
%TA.AperFunction,Conductor*%
%TO.N,VCC_3.3V*%
G36*
X14780898Y-16777927D02*
G01*
X14788204Y-16783105D01*
X14790000Y-16789335D01*
X14790000Y-17270664D01*
X14786573Y-17278937D01*
X14780898Y-17282072D01*
X14071816Y-17443557D01*
X14062988Y-17442053D01*
X14058418Y-17436649D01*
X13989265Y-17270664D01*
X13890873Y-17034498D01*
X13890855Y-17025547D01*
X14058418Y-16623349D01*
X14064763Y-16617031D01*
X14071816Y-16616442D01*
X14780898Y-16777927D01*
G37*
%TD.AperFunction*%
%TD*%
%TA.AperFunction,Conductor*%
%TO.N,VCC_3.3V*%
G36*
X27086220Y-9593429D02*
G01*
X27426570Y-9933779D01*
X27429997Y-9942052D01*
X27428201Y-9948282D01*
X27040992Y-10563866D01*
X27033686Y-10569044D01*
X27026633Y-10568455D01*
X26623800Y-10402563D01*
X26617455Y-10396244D01*
X26451544Y-9993364D01*
X26451563Y-9984411D01*
X26456132Y-9979007D01*
X27071717Y-9591797D01*
X27080545Y-9590294D01*
X27086220Y-9593429D01*
G37*
%TD.AperFunction*%
%TD*%
%TA.AperFunction,Conductor*%
%TO.N,VCC_3.3V*%
G36*
X14973454Y-26111580D02*
G01*
X15376199Y-26277436D01*
X15382544Y-26283755D01*
X15382563Y-26283800D01*
X15548489Y-26686716D01*
X15548470Y-26695671D01*
X15543987Y-26701019D01*
X14934305Y-27092091D01*
X14925491Y-27093673D01*
X14919715Y-27090516D01*
X14579358Y-26750159D01*
X14575931Y-26741886D01*
X14577667Y-26735755D01*
X14959037Y-26116265D01*
X14966292Y-26111018D01*
X14973454Y-26111580D01*
G37*
%TD.AperFunction*%
%TD*%
%TA.AperFunction,Conductor*%
%TO.N,VCC_3.3V*%
G36*
X16270898Y-26027927D02*
G01*
X16278204Y-26033105D01*
X16280000Y-26039335D01*
X16280000Y-26520664D01*
X16276573Y-26528937D01*
X16270898Y-26532072D01*
X15561816Y-26693557D01*
X15552988Y-26692053D01*
X15548418Y-26686649D01*
X15479265Y-26520664D01*
X15380873Y-26284498D01*
X15380855Y-26275547D01*
X15548418Y-25873349D01*
X15554763Y-25867031D01*
X15561816Y-25866442D01*
X16270898Y-26027927D01*
G37*
%TD.AperFunction*%
%TD*%
%TA.AperFunction,Conductor*%
%TO.N,VCC_3.3V*%
G36*
X25935358Y-25934124D02*
G01*
X25939920Y-25941829D01*
X25940038Y-25943451D01*
X25941000Y-26280000D01*
X25941000Y-26280066D01*
X25940038Y-26616548D01*
X25936587Y-26624812D01*
X25928305Y-26628215D01*
X25926683Y-26628097D01*
X25250045Y-26531435D01*
X25242340Y-26526873D01*
X25240000Y-26519853D01*
X25240000Y-26040147D01*
X25243427Y-26031874D01*
X25250045Y-26028565D01*
X25926684Y-25931902D01*
X25935358Y-25934124D01*
G37*
%TD.AperFunction*%
%TD*%
%TA.AperFunction,Conductor*%
%TO.N,VCC_3.3V*%
G36*
X27700822Y-13870933D02*
G01*
X27702045Y-13871991D01*
X27940707Y-14109293D01*
X28178003Y-14347949D01*
X28181406Y-14356230D01*
X28177955Y-14364494D01*
X28176726Y-14365557D01*
X27629920Y-14775662D01*
X27621245Y-14777884D01*
X27614627Y-14774575D01*
X27275424Y-14435372D01*
X27271997Y-14427099D01*
X27274336Y-14420080D01*
X27684443Y-13873271D01*
X27692147Y-13868711D01*
X27700822Y-13870933D01*
G37*
%TD.AperFunction*%
%TD*%
%TA.AperFunction,Conductor*%
%TO.N,VCC_3.3V*%
G36*
X6933311Y-32531901D02*
G01*
X7609955Y-32628565D01*
X7617660Y-32633127D01*
X7620000Y-32640147D01*
X7620000Y-33119853D01*
X7616573Y-33128126D01*
X7609955Y-33131435D01*
X6933316Y-33228097D01*
X6924641Y-33225875D01*
X6920079Y-33218170D01*
X6919961Y-33216556D01*
X6919000Y-32880000D01*
X6919961Y-32543449D01*
X6923412Y-32535187D01*
X6931694Y-32531784D01*
X6933311Y-32531901D01*
G37*
%TD.AperFunction*%
%TD*%
%TA.AperFunction,Conductor*%
%TO.N,VCC_3.3V*%
G36*
X15207011Y-25867946D02*
G01*
X15211581Y-25873350D01*
X15379125Y-26275500D01*
X15379144Y-26284455D01*
X15379125Y-26284500D01*
X15211581Y-26686649D01*
X15205236Y-26692968D01*
X15198183Y-26693557D01*
X14489102Y-26532072D01*
X14481796Y-26526894D01*
X14480000Y-26520664D01*
X14480000Y-26039335D01*
X14483427Y-26031062D01*
X14489101Y-26027927D01*
X15198183Y-25866442D01*
X15207011Y-25867946D01*
G37*
%TD.AperFunction*%
%TD*%
%TA.AperFunction,Conductor*%
%TO.N,VCC_3.3V*%
G36*
X40063311Y-7251901D02*
G01*
X40739955Y-7348565D01*
X40747660Y-7353127D01*
X40750000Y-7360147D01*
X40750000Y-7839853D01*
X40746573Y-7848126D01*
X40739955Y-7851435D01*
X40063316Y-7948097D01*
X40054641Y-7945875D01*
X40050079Y-7938170D01*
X40049961Y-7936556D01*
X40049000Y-7600000D01*
X40049961Y-7263449D01*
X40053412Y-7255187D01*
X40061694Y-7251784D01*
X40063311Y-7251901D01*
G37*
%TD.AperFunction*%
%TD*%
%TA.AperFunction,Conductor*%
%TO.N,VCC_3.3V*%
G36*
X58620273Y-39863427D02*
G01*
X58622903Y-39867455D01*
X59151146Y-41224058D01*
X59150954Y-41233010D01*
X59144732Y-41239108D01*
X58374489Y-41559134D01*
X58365534Y-41559143D01*
X58365511Y-41559134D01*
X57595267Y-41239108D01*
X57588942Y-41232769D01*
X57588853Y-41224058D01*
X58117097Y-39867455D01*
X58123293Y-39860989D01*
X58128000Y-39860000D01*
X58612000Y-39860000D01*
X58620273Y-39863427D01*
G37*
%TD.AperFunction*%
%TD*%
%TA.AperFunction,Conductor*%
%TO.N,VCC_3.3V*%
G36*
X35704494Y-35552043D02*
G01*
X35705557Y-35553273D01*
X36115662Y-36100079D01*
X36117884Y-36108754D01*
X36114575Y-36115372D01*
X35775372Y-36454575D01*
X35767099Y-36458002D01*
X35760079Y-36455662D01*
X35213273Y-36045557D01*
X35208711Y-36037852D01*
X35210933Y-36029177D01*
X35211978Y-36027967D01*
X35449293Y-35789293D01*
X35687951Y-35551994D01*
X35696230Y-35548593D01*
X35704494Y-35552043D01*
G37*
%TD.AperFunction*%
%TD*%
%TA.AperFunction,Conductor*%
%TO.N,VCC_3.3V*%
G36*
X26194494Y-26042043D02*
G01*
X26195557Y-26043273D01*
X26605662Y-26590079D01*
X26607884Y-26598754D01*
X26604575Y-26605372D01*
X26265372Y-26944575D01*
X26257099Y-26948002D01*
X26250079Y-26945662D01*
X25703273Y-26535557D01*
X25698711Y-26527852D01*
X25700933Y-26519177D01*
X25701978Y-26517967D01*
X25939293Y-26279293D01*
X26177951Y-26041994D01*
X26186230Y-26038593D01*
X26194494Y-26042043D01*
G37*
%TD.AperFunction*%
%TD*%
%TA.AperFunction,Conductor*%
%TO.N,VCC_3.3V*%
G36*
X35139920Y-35124337D02*
G01*
X35686726Y-35534442D01*
X35691288Y-35542147D01*
X35689066Y-35550822D01*
X35688003Y-35552051D01*
X35450755Y-35790659D01*
X35450707Y-35790707D01*
X35212051Y-36028003D01*
X35203769Y-36031406D01*
X35195505Y-36027955D01*
X35194442Y-36026726D01*
X34784337Y-35479920D01*
X34782115Y-35471245D01*
X34785423Y-35464629D01*
X35124628Y-35125423D01*
X35132900Y-35121997D01*
X35139920Y-35124337D01*
G37*
%TD.AperFunction*%
%TD*%
M02*
