%TF.GenerationSoftware,KiCad,Pcbnew,8.0.4*%
%TF.CreationDate,2024-08-12T16:22:58+08:00*%
%TF.ProjectId,UINIO-MCU-HC32F460KETA,55494e49-4f2d-44d4-9355-2d4843333246,Version 1.0.0*%
%TF.SameCoordinates,PX71f45d0PY4ce7800*%
%TF.FileFunction,Paste,Top*%
%TF.FilePolarity,Positive*%
%FSLAX46Y46*%
G04 Gerber Fmt 4.6, Leading zero omitted, Abs format (unit mm)*
G04 Created by KiCad (PCBNEW 8.0.4) date 2024-08-12 16:22:58*
%MOMM*%
%LPD*%
G01*
G04 APERTURE LIST*
G04 Aperture macros list*
%AMRoundRect*
0 Rectangle with rounded corners*
0 $1 Rounding radius*
0 $2 $3 $4 $5 $6 $7 $8 $9 X,Y pos of 4 corners*
0 Add a 4 corners polygon primitive as box body*
4,1,4,$2,$3,$4,$5,$6,$7,$8,$9,$2,$3,0*
0 Add four circle primitives for the rounded corners*
1,1,$1+$1,$2,$3*
1,1,$1+$1,$4,$5*
1,1,$1+$1,$6,$7*
1,1,$1+$1,$8,$9*
0 Add four rect primitives between the rounded corners*
20,1,$1+$1,$2,$3,$4,$5,0*
20,1,$1+$1,$4,$5,$6,$7,0*
20,1,$1+$1,$6,$7,$8,$9,0*
20,1,$1+$1,$8,$9,$2,$3,0*%
G04 Aperture macros list end*
%ADD10C,0.120000*%
%ADD11RoundRect,0.218750X0.218750X0.256250X-0.218750X0.256250X-0.218750X-0.256250X0.218750X-0.256250X0*%
%ADD12RoundRect,0.200000X0.200000X0.275000X-0.200000X0.275000X-0.200000X-0.275000X0.200000X-0.275000X0*%
%ADD13RoundRect,0.225000X0.250000X-0.225000X0.250000X0.225000X-0.250000X0.225000X-0.250000X-0.225000X0*%
%ADD14R,1.157000X0.490000*%
%ADD15R,1.175000X0.490000*%
%ADD16RoundRect,0.218750X-0.256250X0.218750X-0.256250X-0.218750X0.256250X-0.218750X0.256250X0.218750X0*%
%ADD17RoundRect,0.225000X-0.225000X-0.250000X0.225000X-0.250000X0.225000X0.250000X-0.225000X0.250000X0*%
%ADD18R,1.800000X1.000000*%
%ADD19RoundRect,0.225000X-0.250000X0.225000X-0.250000X-0.225000X0.250000X-0.225000X0.250000X0.225000X0*%
%ADD20R,1.150000X0.600000*%
%ADD21R,1.150000X0.300000*%
%ADD22RoundRect,0.200000X-0.200000X-0.275000X0.200000X-0.275000X0.200000X0.275000X-0.200000X0.275000X0*%
%ADD23RoundRect,0.225000X0.225000X0.250000X-0.225000X0.250000X-0.225000X-0.250000X0.225000X-0.250000X0*%
%ADD24R,1.200000X0.650000*%
%ADD25O,2.000000X0.300000*%
%ADD26O,0.300000X2.000000*%
%ADD27R,1.200000X1.400000*%
G04 APERTURE END LIST*
D10*
%TO.C,USB1*%
X2126000Y-18560000D02*
X976000Y-18560000D01*
X976000Y-17960000D01*
X2126000Y-17960000D01*
X2126000Y-18560000D01*
G36*
X2126000Y-18560000D02*
G01*
X976000Y-18560000D01*
X976000Y-17960000D01*
X2126000Y-17960000D01*
X2126000Y-18560000D01*
G37*
X2126000Y-19360000D02*
X976000Y-19360000D01*
X976000Y-18760000D01*
X2126000Y-18760000D01*
X2126000Y-19360000D01*
G36*
X2126000Y-19360000D02*
G01*
X976000Y-19360000D01*
X976000Y-18760000D01*
X2126000Y-18760000D01*
X2126000Y-19360000D01*
G37*
X2126000Y-19860000D02*
X976000Y-19860000D01*
X976000Y-19560000D01*
X2126000Y-19560000D01*
X2126000Y-19860000D01*
G36*
X2126000Y-19860000D02*
G01*
X976000Y-19860000D01*
X976000Y-19560000D01*
X2126000Y-19560000D01*
X2126000Y-19860000D01*
G37*
X2126000Y-20360000D02*
X976000Y-20360000D01*
X976000Y-20060000D01*
X2126000Y-20060000D01*
X2126000Y-20360000D01*
G36*
X2126000Y-20360000D02*
G01*
X976000Y-20360000D01*
X976000Y-20060000D01*
X2126000Y-20060000D01*
X2126000Y-20360000D01*
G37*
X2126000Y-20860000D02*
X976000Y-20860000D01*
X976000Y-20560000D01*
X2126000Y-20560000D01*
X2126000Y-20860000D01*
G36*
X2126000Y-20860000D02*
G01*
X976000Y-20860000D01*
X976000Y-20560000D01*
X2126000Y-20560000D01*
X2126000Y-20860000D01*
G37*
X2126000Y-21360000D02*
X976000Y-21360000D01*
X976000Y-21060000D01*
X2126000Y-21060000D01*
X2126000Y-21360000D01*
G36*
X2126000Y-21360000D02*
G01*
X976000Y-21360000D01*
X976000Y-21060000D01*
X2126000Y-21060000D01*
X2126000Y-21360000D01*
G37*
X2126000Y-21860000D02*
X976000Y-21860000D01*
X976000Y-21560000D01*
X2126000Y-21560000D01*
X2126000Y-21860000D01*
G36*
X2126000Y-21860000D02*
G01*
X976000Y-21860000D01*
X976000Y-21560000D01*
X2126000Y-21560000D01*
X2126000Y-21860000D01*
G37*
X2126000Y-22360000D02*
X976000Y-22360000D01*
X976000Y-22060000D01*
X2126000Y-22060000D01*
X2126000Y-22360000D01*
G36*
X2126000Y-22360000D02*
G01*
X976000Y-22360000D01*
X976000Y-22060000D01*
X2126000Y-22060000D01*
X2126000Y-22360000D01*
G37*
X2126000Y-22860000D02*
X976000Y-22860000D01*
X976000Y-22560000D01*
X2126000Y-22560000D01*
X2126000Y-22860000D01*
G36*
X2126000Y-22860000D02*
G01*
X976000Y-22860000D01*
X976000Y-22560000D01*
X2126000Y-22560000D01*
X2126000Y-22860000D01*
G37*
X2126000Y-23360000D02*
X976000Y-23360000D01*
X976000Y-23060000D01*
X2126000Y-23060000D01*
X2126000Y-23360000D01*
G36*
X2126000Y-23360000D02*
G01*
X976000Y-23360000D01*
X976000Y-23060000D01*
X2126000Y-23060000D01*
X2126000Y-23360000D01*
G37*
X2126000Y-24160000D02*
X976000Y-24160000D01*
X976000Y-23560000D01*
X2126000Y-23560000D01*
X2126000Y-24160000D01*
G36*
X2126000Y-24160000D02*
G01*
X976000Y-24160000D01*
X976000Y-23560000D01*
X2126000Y-23560000D01*
X2126000Y-24160000D01*
G37*
X2126000Y-24960000D02*
X976000Y-24960000D01*
X976000Y-24360000D01*
X2126000Y-24360000D01*
X2126000Y-24960000D01*
G36*
X2126000Y-24960000D02*
G01*
X976000Y-24960000D01*
X976000Y-24360000D01*
X2126000Y-24360000D01*
X2126000Y-24960000D01*
G37*
X-2864000Y-16645000D02*
X-2770000Y-16673000D01*
X-2684000Y-16719000D01*
X-2608000Y-16781000D01*
X-2546000Y-16857000D01*
X-2499000Y-16944000D01*
X-2471000Y-17037000D01*
X-2461000Y-17135000D01*
X-2471000Y-17233000D01*
X-2499000Y-17326000D01*
X-2546000Y-17413000D01*
X-2608000Y-17489000D01*
X-2684000Y-17551000D01*
X-2770000Y-17597000D01*
X-2864000Y-17625000D01*
X-2961000Y-17635000D01*
X-3861000Y-17635000D01*
X-3959000Y-17625000D01*
X-4053000Y-17597000D01*
X-4139000Y-17551000D01*
X-4215000Y-17489000D01*
X-4277000Y-17413000D01*
X-4323000Y-17326000D01*
X-4352000Y-17233000D01*
X-4361000Y-17135000D01*
X-4352000Y-17037000D01*
X-4323000Y-16944000D01*
X-4277000Y-16857000D01*
X-4215000Y-16781000D01*
X-4139000Y-16719000D01*
X-4053000Y-16673000D01*
X-3959000Y-16645000D01*
X-3861000Y-16635000D01*
X-2961000Y-16635000D01*
X-2864000Y-16645000D01*
G36*
X-2864000Y-16645000D02*
G01*
X-2770000Y-16673000D01*
X-2684000Y-16719000D01*
X-2608000Y-16781000D01*
X-2546000Y-16857000D01*
X-2499000Y-16944000D01*
X-2471000Y-17037000D01*
X-2461000Y-17135000D01*
X-2471000Y-17233000D01*
X-2499000Y-17326000D01*
X-2546000Y-17413000D01*
X-2608000Y-17489000D01*
X-2684000Y-17551000D01*
X-2770000Y-17597000D01*
X-2864000Y-17625000D01*
X-2961000Y-17635000D01*
X-3861000Y-17635000D01*
X-3959000Y-17625000D01*
X-4053000Y-17597000D01*
X-4139000Y-17551000D01*
X-4215000Y-17489000D01*
X-4277000Y-17413000D01*
X-4323000Y-17326000D01*
X-4352000Y-17233000D01*
X-4361000Y-17135000D01*
X-4352000Y-17037000D01*
X-4323000Y-16944000D01*
X-4277000Y-16857000D01*
X-4215000Y-16781000D01*
X-4139000Y-16719000D01*
X-4053000Y-16673000D01*
X-3959000Y-16645000D01*
X-3861000Y-16635000D01*
X-2961000Y-16635000D01*
X-2864000Y-16645000D01*
G37*
X-2864000Y-25295000D02*
X-2770000Y-25323000D01*
X-2684000Y-25369000D01*
X-2608000Y-25431000D01*
X-2546000Y-25507000D01*
X-2499000Y-25594000D01*
X-2471000Y-25687000D01*
X-2461000Y-25785000D01*
X-2471000Y-25883000D01*
X-2499000Y-25976000D01*
X-2546000Y-26063000D01*
X-2608000Y-26139000D01*
X-2684000Y-26201000D01*
X-2770000Y-26247000D01*
X-2864000Y-26275000D01*
X-2961000Y-26285000D01*
X-3861000Y-26285000D01*
X-3959000Y-26275000D01*
X-4053000Y-26247000D01*
X-4139000Y-26201000D01*
X-4215000Y-26139000D01*
X-4277000Y-26063000D01*
X-4323000Y-25976000D01*
X-4352000Y-25883000D01*
X-4361000Y-25785000D01*
X-4352000Y-25687000D01*
X-4323000Y-25594000D01*
X-4277000Y-25507000D01*
X-4215000Y-25431000D01*
X-4139000Y-25369000D01*
X-4053000Y-25323000D01*
X-3959000Y-25295000D01*
X-3861000Y-25285000D01*
X-2961000Y-25285000D01*
X-2864000Y-25295000D01*
G36*
X-2864000Y-25295000D02*
G01*
X-2770000Y-25323000D01*
X-2684000Y-25369000D01*
X-2608000Y-25431000D01*
X-2546000Y-25507000D01*
X-2499000Y-25594000D01*
X-2471000Y-25687000D01*
X-2461000Y-25785000D01*
X-2471000Y-25883000D01*
X-2499000Y-25976000D01*
X-2546000Y-26063000D01*
X-2608000Y-26139000D01*
X-2684000Y-26201000D01*
X-2770000Y-26247000D01*
X-2864000Y-26275000D01*
X-2961000Y-26285000D01*
X-3861000Y-26285000D01*
X-3959000Y-26275000D01*
X-4053000Y-26247000D01*
X-4139000Y-26201000D01*
X-4215000Y-26139000D01*
X-4277000Y-26063000D01*
X-4323000Y-25976000D01*
X-4352000Y-25883000D01*
X-4361000Y-25785000D01*
X-4352000Y-25687000D01*
X-4323000Y-25594000D01*
X-4277000Y-25507000D01*
X-4215000Y-25431000D01*
X-4139000Y-25369000D01*
X-4053000Y-25323000D01*
X-3959000Y-25295000D01*
X-3861000Y-25285000D01*
X-2961000Y-25285000D01*
X-2864000Y-25295000D01*
G37*
X1436000Y-16645000D02*
X1530000Y-16673000D01*
X1616000Y-16719000D01*
X1692000Y-16781000D01*
X1754000Y-16857000D01*
X1801000Y-16944000D01*
X1829000Y-17037000D01*
X1839000Y-17135000D01*
X1829000Y-17233000D01*
X1801000Y-17326000D01*
X1754000Y-17413000D01*
X1692000Y-17489000D01*
X1616000Y-17551000D01*
X1530000Y-17597000D01*
X1436000Y-17625000D01*
X1339000Y-17635000D01*
X239000Y-17635000D01*
X141000Y-17625000D01*
X47000Y-17597000D01*
X-39000Y-17551000D01*
X-115000Y-17489000D01*
X-177000Y-17413000D01*
X-223000Y-17326000D01*
X-252000Y-17233000D01*
X-261000Y-17135000D01*
X-252000Y-17037000D01*
X-223000Y-16944000D01*
X-177000Y-16857000D01*
X-115000Y-16781000D01*
X-39000Y-16719000D01*
X47000Y-16673000D01*
X141000Y-16645000D01*
X239000Y-16635000D01*
X1339000Y-16635000D01*
X1436000Y-16645000D01*
G36*
X1436000Y-16645000D02*
G01*
X1530000Y-16673000D01*
X1616000Y-16719000D01*
X1692000Y-16781000D01*
X1754000Y-16857000D01*
X1801000Y-16944000D01*
X1829000Y-17037000D01*
X1839000Y-17135000D01*
X1829000Y-17233000D01*
X1801000Y-17326000D01*
X1754000Y-17413000D01*
X1692000Y-17489000D01*
X1616000Y-17551000D01*
X1530000Y-17597000D01*
X1436000Y-17625000D01*
X1339000Y-17635000D01*
X239000Y-17635000D01*
X141000Y-17625000D01*
X47000Y-17597000D01*
X-39000Y-17551000D01*
X-115000Y-17489000D01*
X-177000Y-17413000D01*
X-223000Y-17326000D01*
X-252000Y-17233000D01*
X-261000Y-17135000D01*
X-252000Y-17037000D01*
X-223000Y-16944000D01*
X-177000Y-16857000D01*
X-115000Y-16781000D01*
X-39000Y-16719000D01*
X47000Y-16673000D01*
X141000Y-16645000D01*
X239000Y-16635000D01*
X1339000Y-16635000D01*
X1436000Y-16645000D01*
G37*
X1436000Y-25295000D02*
X1530000Y-25323000D01*
X1616000Y-25369000D01*
X1692000Y-25431000D01*
X1754000Y-25507000D01*
X1801000Y-25594000D01*
X1829000Y-25687000D01*
X1839000Y-25785000D01*
X1829000Y-25883000D01*
X1801000Y-25976000D01*
X1754000Y-26063000D01*
X1692000Y-26139000D01*
X1616000Y-26201000D01*
X1530000Y-26247000D01*
X1436000Y-26275000D01*
X1339000Y-26285000D01*
X239000Y-26285000D01*
X141000Y-26275000D01*
X47000Y-26247000D01*
X-39000Y-26201000D01*
X-115000Y-26139000D01*
X-177000Y-26063000D01*
X-223000Y-25976000D01*
X-252000Y-25883000D01*
X-261000Y-25785000D01*
X-252000Y-25687000D01*
X-223000Y-25594000D01*
X-177000Y-25507000D01*
X-115000Y-25431000D01*
X-39000Y-25369000D01*
X47000Y-25323000D01*
X141000Y-25295000D01*
X239000Y-25285000D01*
X1339000Y-25285000D01*
X1436000Y-25295000D01*
G36*
X1436000Y-25295000D02*
G01*
X1530000Y-25323000D01*
X1616000Y-25369000D01*
X1692000Y-25431000D01*
X1754000Y-25507000D01*
X1801000Y-25594000D01*
X1829000Y-25687000D01*
X1839000Y-25785000D01*
X1829000Y-25883000D01*
X1801000Y-25976000D01*
X1754000Y-26063000D01*
X1692000Y-26139000D01*
X1616000Y-26201000D01*
X1530000Y-26247000D01*
X1436000Y-26275000D01*
X1339000Y-26285000D01*
X239000Y-26285000D01*
X141000Y-26275000D01*
X47000Y-26247000D01*
X-39000Y-26201000D01*
X-115000Y-26139000D01*
X-177000Y-26063000D01*
X-223000Y-25976000D01*
X-252000Y-25883000D01*
X-261000Y-25785000D01*
X-252000Y-25687000D01*
X-223000Y-25594000D01*
X-177000Y-25507000D01*
X-115000Y-25431000D01*
X-39000Y-25369000D01*
X47000Y-25323000D01*
X141000Y-25295000D01*
X239000Y-25285000D01*
X1339000Y-25285000D01*
X1436000Y-25295000D01*
G37*
%TD*%
D11*
%TO.C,L3*%
X50465000Y-15630000D03*
X48890000Y-15630000D03*
%TD*%
D12*
%TO.C,R4*%
X20600000Y-28670000D03*
X18950000Y-28670000D03*
%TD*%
D13*
%TO.C,C2*%
X40060000Y-10445000D03*
X40060000Y-8895000D03*
%TD*%
D14*
%TO.C,U1*%
X10091500Y-26110000D03*
X10091500Y-27060000D03*
X10091500Y-28010000D03*
D15*
X12399500Y-28010000D03*
X12399500Y-26110000D03*
%TD*%
D13*
%TO.C,C1*%
X38330000Y-10445000D03*
X38330000Y-8895000D03*
%TD*%
%TO.C,C17*%
X25920000Y-30550000D03*
X25920000Y-29000000D03*
%TD*%
D11*
%TO.C,L4*%
X50465000Y-13900000D03*
X48890000Y-13900000D03*
%TD*%
D13*
%TO.C,C4*%
X8610000Y-27830000D03*
X8610000Y-26280000D03*
%TD*%
D16*
%TO.C,L2*%
X36600000Y-8882500D03*
X36600000Y-10457500D03*
%TD*%
D12*
%TO.C,R5*%
X20580000Y-14330000D03*
X18930000Y-14330000D03*
%TD*%
D17*
%TO.C,C9*%
X19000000Y-30480000D03*
X20550000Y-30480000D03*
%TD*%
D18*
%TO.C,Y1*%
X50007500Y-29080002D03*
X50007500Y-31580000D03*
%TD*%
D19*
%TO.C,C8*%
X27940000Y-8880000D03*
X27940000Y-10430000D03*
%TD*%
D20*
%TO.C,USB1*%
X1551000Y-18260000D03*
X1551000Y-19060000D03*
D21*
X1551000Y-20210000D03*
X1551000Y-21210000D03*
X1551000Y-21710000D03*
X1551000Y-22710000D03*
D20*
X1551000Y-24660000D03*
X1551000Y-23860000D03*
D21*
X1551000Y-23210000D03*
X1551000Y-22210000D03*
X1551000Y-20710000D03*
X1551000Y-19710000D03*
%TD*%
D22*
%TO.C,R7*%
X3815000Y-32880000D03*
X5465000Y-32880000D03*
%TD*%
D13*
%TO.C,C7*%
X13890000Y-27830000D03*
X13890000Y-26280000D03*
%TD*%
D23*
%TO.C,C19*%
X37000000Y-33210000D03*
X35450000Y-33210000D03*
%TD*%
D12*
%TO.C,R6*%
X5465000Y-35420000D03*
X3815000Y-35420000D03*
%TD*%
D19*
%TO.C,C12*%
X29920000Y-8880000D03*
X29920000Y-10430000D03*
%TD*%
D24*
%TO.C,SW1*%
X22880000Y-12670000D03*
X18580000Y-12670000D03*
X22880000Y-10520000D03*
X18580000Y-10520000D03*
%TD*%
D23*
%TO.C,C11*%
X5415000Y-10020000D03*
X3865000Y-10020000D03*
%TD*%
%TO.C,C6*%
X36990000Y-31600000D03*
X35440000Y-31600000D03*
%TD*%
D11*
%TO.C,D1*%
X12062500Y-17250000D03*
X10487500Y-17250000D03*
%TD*%
D22*
%TO.C,R1*%
X10470000Y-20200000D03*
X12120000Y-20200000D03*
%TD*%
D23*
%TO.C,C18*%
X50450000Y-26050000D03*
X48900000Y-26050000D03*
%TD*%
D16*
%TO.C,L1*%
X41790000Y-8882500D03*
X41790000Y-10457500D03*
%TD*%
D17*
%TO.C,C14*%
X48900000Y-20390000D03*
X50450000Y-20390000D03*
%TD*%
%TO.C,C13*%
X18980000Y-8860000D03*
X20530000Y-8860000D03*
%TD*%
D22*
%TO.C,R3*%
X10470000Y-15260000D03*
X12120000Y-15260000D03*
%TD*%
D17*
%TO.C,C3*%
X48902500Y-10440000D03*
X50452500Y-10440000D03*
%TD*%
D22*
%TO.C,R2*%
X10470000Y-23210000D03*
X12120000Y-23210000D03*
%TD*%
D23*
%TO.C,C10*%
X5415000Y-7480000D03*
X3865000Y-7480000D03*
%TD*%
D17*
%TO.C,C5*%
X48902500Y-12170000D03*
X50452500Y-12170000D03*
%TD*%
%TO.C,C16*%
X46600000Y-29060000D03*
X48150000Y-29060000D03*
%TD*%
D25*
%TO.C,U2*%
X37440000Y-25210000D03*
X37440000Y-24710000D03*
X37440000Y-24210000D03*
X37440000Y-23710000D03*
X37440000Y-23210000D03*
X37440000Y-22710000D03*
X37440000Y-22210000D03*
X37440000Y-21710000D03*
X37440000Y-21210000D03*
X37440000Y-20710000D03*
X37440000Y-20210000D03*
X37440000Y-19710000D03*
X37440000Y-19210000D03*
X37440000Y-18710000D03*
X37440000Y-18210000D03*
X37440000Y-17710000D03*
D26*
X35440000Y-15710000D03*
X34940000Y-15710000D03*
X34440000Y-15710000D03*
X33940000Y-15710000D03*
X33440000Y-15710000D03*
X32940000Y-15710000D03*
X32440000Y-15710000D03*
X31940000Y-15710000D03*
X31440000Y-15710000D03*
X30940000Y-15710000D03*
X30440000Y-15710000D03*
X29940000Y-15710000D03*
X29440000Y-15710000D03*
X28940000Y-15710000D03*
X28440000Y-15710000D03*
X27940000Y-15710000D03*
D25*
X25940000Y-17710000D03*
X25940000Y-18210000D03*
X25940000Y-18710000D03*
X25940000Y-19210000D03*
X25940000Y-19710000D03*
X25940000Y-20210000D03*
X25940000Y-20710000D03*
X25940000Y-21210000D03*
X25940000Y-21710000D03*
X25940000Y-22210000D03*
X25940000Y-22710000D03*
X25940000Y-23210000D03*
X25940000Y-23710000D03*
X25940000Y-24210000D03*
X25940000Y-24710000D03*
X25940000Y-25210000D03*
D26*
X27940000Y-27210000D03*
X28440000Y-27210000D03*
X28940000Y-27210000D03*
X29440000Y-27210000D03*
X29940000Y-27210000D03*
X30440000Y-27210000D03*
X30940000Y-27210000D03*
X31440000Y-27210000D03*
X31940000Y-27210000D03*
X32440000Y-27210000D03*
X32940000Y-27210000D03*
X33440000Y-27210000D03*
X33940000Y-27210000D03*
X34440000Y-27210000D03*
X34940000Y-27210000D03*
X35440000Y-27210000D03*
%TD*%
D17*
%TO.C,C15*%
X46600000Y-31600002D03*
X48150000Y-31600002D03*
%TD*%
D27*
%TO.C,Y2*%
X48605000Y-22120000D03*
X48605000Y-24320000D03*
X50305000Y-24320000D03*
X50305000Y-22120000D03*
%TD*%
M02*
