%TF.GenerationSoftware,KiCad,Pcbnew,8.0.4*%
%TF.CreationDate,2024-08-23T17:26:40+08:00*%
%TF.ProjectId,UINIO-MCU-HC32F460PETB,55494e49-4f2d-44d4-9355-2d4843333246,Version 1.0.0*%
%TF.SameCoordinates,PX71f45d0PY4ce7800*%
%TF.FileFunction,Copper,L2,Bot*%
%TF.FilePolarity,Positive*%
%FSLAX46Y46*%
G04 Gerber Fmt 4.6, Leading zero omitted, Abs format (unit mm)*
G04 Created by KiCad (PCBNEW 8.0.4) date 2024-08-23 17:26:40*
%MOMM*%
%LPD*%
G01*
G04 APERTURE LIST*
%TA.AperFunction,ComponentPad*%
%ADD10O,1.700000X1.700000*%
%TD*%
%TA.AperFunction,ComponentPad*%
%ADD11R,1.700000X1.700000*%
%TD*%
%TA.AperFunction,ComponentPad*%
%ADD12O,2.100000X1.000000*%
%TD*%
%TA.AperFunction,ComponentPad*%
%ADD13O,1.900000X1.000000*%
%TD*%
%TA.AperFunction,ViaPad*%
%ADD14C,0.700000*%
%TD*%
%TA.AperFunction,ViaPad*%
%ADD15C,0.500000*%
%TD*%
%TA.AperFunction,Conductor*%
%ADD16C,0.500000*%
%TD*%
%TA.AperFunction,Conductor*%
%ADD17C,0.200000*%
%TD*%
%TA.AperFunction,Conductor*%
%ADD18C,0.300000*%
%TD*%
G04 APERTURE END LIST*
D10*
%TO.P,J7,4,Pin_4*%
%TO.N,/PA13{slash}JTMS_SWDIO*%
X5840000Y-37370000D03*
%TO.P,J7,3,Pin_3*%
%TO.N,/PA14{slash}JTCK_SWCLK*%
X8380000Y-37370000D03*
%TO.P,J7,2,Pin_2*%
%TO.N,GND*%
X10920000Y-37370000D03*
D11*
%TO.P,J7,1,Pin_1*%
%TO.N,VCC_3.3V*%
X13460000Y-37370000D03*
%TD*%
%TO.P,J4,1,Pin_1*%
%TO.N,/PB11{slash}MD*%
X32320000Y-37370000D03*
D10*
%TO.P,J4,2,Pin_2*%
%TO.N,GND*%
X29780000Y-37370000D03*
%TO.P,J4,3,Pin_3*%
X27240000Y-37370000D03*
%TD*%
D11*
%TO.P,J8,1,Pin_1*%
%TO.N,VCC_3.3V*%
X-10920000Y-34900000D03*
D10*
%TO.P,J8,2,Pin_2*%
X-10920000Y-32360000D03*
%TO.P,J8,3,Pin_3*%
X-10920000Y-29820000D03*
%TO.P,J8,4,Pin_4*%
X-10920000Y-27280000D03*
%TD*%
D11*
%TO.P,J5,1,Pin_1*%
%TO.N,Net-(J5-Pin_1)*%
X-10920000Y-5990000D03*
D10*
%TO.P,J5,2,Pin_2*%
X-10920000Y-8530000D03*
%TO.P,J5,3,Pin_3*%
X-10920000Y-11070000D03*
%TO.P,J5,4,Pin_4*%
X-10920000Y-13610000D03*
%TD*%
D12*
%TO.P,USB1,13,GND*%
%TO.N,GND*%
X-9190000Y-16120000D03*
%TO.P,USB1,14,GND*%
X-9190000Y-24770000D03*
D13*
%TO.P,USB1,15,GND*%
X-13390000Y-16120000D03*
%TO.P,USB1,16,GND*%
X-13390000Y-24770000D03*
%TD*%
D11*
%TO.P,J9,1,Pin_1*%
%TO.N,GND*%
X-13580000Y-34900000D03*
D10*
%TO.P,J9,2,Pin_2*%
X-13580000Y-32360000D03*
%TO.P,J9,3,Pin_3*%
X-13580000Y-29820000D03*
%TO.P,J9,4,Pin_4*%
X-13580000Y-27280000D03*
%TD*%
D11*
%TO.P,J3,1,Pin_1*%
%TO.N,/PD15*%
X-9970000Y4730000D03*
D10*
%TO.P,J3,2,Pin_2*%
%TO.N,/PD14*%
X-7430000Y4730000D03*
%TO.P,J3,3,Pin_3*%
%TO.N,/PD13*%
X-4890000Y4730000D03*
%TO.P,J3,4,Pin_4*%
%TO.N,/PD12*%
X-2350000Y4730000D03*
%TO.P,J3,5,Pin_5*%
%TO.N,/PD11*%
X190000Y4730000D03*
%TO.P,J3,6,Pin_6*%
%TO.N,/PD10*%
X2730000Y4730000D03*
%TO.P,J3,7,Pin_7*%
%TO.N,/PD9*%
X5270000Y4730000D03*
%TO.P,J3,8,Pin_8*%
%TO.N,/PD8*%
X7810000Y4730000D03*
%TO.P,J3,9,Pin_9*%
%TO.N,/PB15*%
X10350000Y4730000D03*
%TO.P,J3,10,Pin_10*%
%TO.N,/PB14*%
X12890000Y4730000D03*
%TO.P,J3,11,Pin_11*%
%TO.N,/PB13*%
X15430000Y4730000D03*
%TO.P,J3,12,Pin_12*%
%TO.N,/PB12*%
X17970000Y4730000D03*
%TO.P,J3,13,Pin_13*%
%TO.N,/PB10*%
X20510000Y4730000D03*
%TO.P,J3,14,Pin_14*%
%TO.N,/PE15*%
X23050000Y4730000D03*
%TO.P,J3,15,Pin_15*%
%TO.N,/PE14*%
X25590000Y4730000D03*
%TO.P,J3,16,Pin_16*%
%TO.N,/PE13*%
X28130000Y4730000D03*
%TO.P,J3,17,Pin_17*%
%TO.N,/PE12*%
X30670000Y4730000D03*
%TO.P,J3,18,Pin_18*%
%TO.N,/PE11*%
X33210000Y4730000D03*
%TO.P,J3,19,Pin_19*%
%TO.N,/PE10*%
X35750000Y4730000D03*
%TO.P,J3,20,Pin_20*%
%TO.N,/PE9*%
X38290000Y4730000D03*
%TO.P,J3,21,Pin_21*%
%TO.N,/PE8*%
X40830000Y4730000D03*
%TO.P,J3,22,Pin_22*%
%TO.N,/PE7*%
X43370000Y4730000D03*
%TO.P,J3,23,Pin_23*%
%TO.N,/PB2*%
X45910000Y4730000D03*
%TO.P,J3,24,Pin_24*%
%TO.N,/PB1*%
X48450000Y4730000D03*
%TO.P,J3,25,Pin_25*%
%TO.N,/PB0*%
X50990000Y4730000D03*
%TO.P,J3,26,Pin_26*%
%TO.N,/PC5*%
X53530000Y4730000D03*
%TO.P,J3,27,Pin_27*%
%TO.N,/PC4*%
X56070000Y4730000D03*
%TO.P,J3,28,Pin_28*%
%TO.N,/PA7*%
X58610000Y4730000D03*
%TO.P,J3,29,Pin_29*%
%TO.N,/PA6*%
X61150000Y4730000D03*
%TO.P,J3,30,Pin_30*%
%TO.N,/PA5*%
X63690000Y4730000D03*
%TO.P,J3,31,Pin_31*%
%TO.N,/PA4*%
X66230000Y4730000D03*
%TO.P,J3,32,Pin_32*%
%TO.N,/AVCC*%
X68770000Y4730000D03*
%TO.P,J3,33,Pin_33*%
%TO.N,/AVSS*%
X71310000Y4730000D03*
%TO.P,J3,34,Pin_34*%
%TO.N,/PA3*%
X73850000Y4730000D03*
%TD*%
D11*
%TO.P,J1,1,Pin_1*%
%TO.N,/PA2*%
X77430000Y1130000D03*
D10*
%TO.P,J1,2,Pin_2*%
%TO.N,/PA1*%
X77430000Y-1410000D03*
%TO.P,J1,3,Pin_3*%
%TO.N,/PA0*%
X77430000Y-3950000D03*
%TO.P,J1,4,Pin_4*%
%TO.N,/AVCC*%
X77430000Y-6490000D03*
%TO.P,J1,5,Pin_5*%
%TO.N,/VREFH*%
X77430000Y-9030000D03*
%TO.P,J1,6,Pin_6*%
%TO.N,/AVSS{slash}VREFL*%
X77430000Y-11570000D03*
%TO.P,J1,7,Pin_7*%
%TO.N,/PC3*%
X77430000Y-14110000D03*
%TO.P,J1,8,Pin_8*%
%TO.N,/PC2*%
X77430000Y-16650000D03*
%TO.P,J1,9,Pin_9*%
%TO.N,/PC1*%
X77430000Y-19190000D03*
%TO.P,J1,10,Pin_10*%
%TO.N,/PC0*%
X77430000Y-21730000D03*
%TO.P,J1,11,Pin_11*%
%TO.N,/NRST*%
X77430000Y-24270000D03*
%TO.P,J1,12,Pin_12*%
%TO.N,/PC13*%
X77430000Y-26810000D03*
%TO.P,J1,13,Pin_13*%
%TO.N,/PH2*%
X77430000Y-29350000D03*
%TO.P,J1,14,Pin_14*%
%TO.N,/PE6*%
X77430000Y-31890000D03*
%TO.P,J1,15,Pin_15*%
%TO.N,/PE5*%
X77430000Y-34430000D03*
%TO.P,J1,16,Pin_16*%
%TO.N,/PE4*%
X77430000Y-36970000D03*
%TO.P,J1,17,Pin_17*%
%TO.N,/PE3*%
X77430000Y-39510000D03*
%TO.P,J1,18,Pin_18*%
%TO.N,/PE2*%
X77430000Y-42050000D03*
%TD*%
D11*
%TO.P,J6,1,Pin_1*%
%TO.N,GND*%
X-13580000Y-5990000D03*
D10*
%TO.P,J6,2,Pin_2*%
X-13580000Y-8530000D03*
%TO.P,J6,3,Pin_3*%
X-13580000Y-11070000D03*
%TO.P,J6,4,Pin_4*%
X-13580000Y-13610000D03*
%TD*%
D11*
%TO.P,J2,1,Pin_1*%
%TO.N,/PC6*%
X-9970000Y-45620000D03*
D10*
%TO.P,J2,2,Pin_2*%
%TO.N,/PC7*%
X-7430000Y-45620000D03*
%TO.P,J2,3,Pin_3*%
%TO.N,/PC8*%
X-4890000Y-45620000D03*
%TO.P,J2,4,Pin_4*%
%TO.N,/PC9*%
X-2350000Y-45620000D03*
%TO.P,J2,5,Pin_5*%
%TO.N,/PA8*%
X190000Y-45620000D03*
%TO.P,J2,6,Pin_6*%
%TO.N,/PA9*%
X2730000Y-45620000D03*
%TO.P,J2,7,Pin_7*%
%TO.N,/PA10*%
X5270000Y-45620000D03*
%TO.P,J2,8,Pin_8*%
%TO.N,/PA11*%
X7810000Y-45620000D03*
%TO.P,J2,9,Pin_9*%
%TO.N,/PA12*%
X10350000Y-45620000D03*
%TO.P,J2,10,Pin_10*%
%TO.N,/PA13{slash}JTMS_SWDIO*%
X12890000Y-45620000D03*
%TO.P,J2,11,Pin_11*%
%TO.N,/PA14{slash}JTCK_SWCLK*%
X15430000Y-45620000D03*
%TO.P,J2,12,Pin_12*%
%TO.N,/PA15*%
X17970000Y-45620000D03*
%TO.P,J2,13,Pin_13*%
%TO.N,/PC10*%
X20510000Y-45620000D03*
%TO.P,J2,14,Pin_14*%
%TO.N,/PC11*%
X23050000Y-45620000D03*
%TO.P,J2,15,Pin_15*%
%TO.N,/PC12*%
X25590000Y-45620000D03*
%TO.P,J2,16,Pin_16*%
%TO.N,/PD0*%
X28130000Y-45620000D03*
%TO.P,J2,17,Pin_17*%
%TO.N,/PD1*%
X30670000Y-45620000D03*
%TO.P,J2,18,Pin_18*%
%TO.N,/PD2*%
X33210000Y-45620000D03*
%TO.P,J2,19,Pin_19*%
%TO.N,/PD3*%
X35750000Y-45620000D03*
%TO.P,J2,20,Pin_20*%
%TO.N,/PD4*%
X38290000Y-45620000D03*
%TO.P,J2,21,Pin_21*%
%TO.N,/PD5*%
X40830000Y-45620000D03*
%TO.P,J2,22,Pin_22*%
%TO.N,/PD6*%
X43370000Y-45620000D03*
%TO.P,J2,23,Pin_23*%
%TO.N,/PD7*%
X45910000Y-45620000D03*
%TO.P,J2,24,Pin_24*%
%TO.N,/PB3*%
X48450000Y-45620000D03*
%TO.P,J2,25,Pin_25*%
%TO.N,/PB4*%
X50990000Y-45620000D03*
%TO.P,J2,26,Pin_26*%
%TO.N,/PB5*%
X53530000Y-45620000D03*
%TO.P,J2,27,Pin_27*%
%TO.N,/PB6*%
X56070000Y-45620000D03*
%TO.P,J2,28,Pin_28*%
%TO.N,/PB7*%
X58610000Y-45620000D03*
%TO.P,J2,29,Pin_29*%
%TO.N,/PB8*%
X61150000Y-45620000D03*
%TO.P,J2,30,Pin_30*%
%TO.N,/PB9*%
X63690000Y-45620000D03*
%TO.P,J2,31,Pin_31*%
%TO.N,/PE0*%
X66230000Y-45620000D03*
%TO.P,J2,32,Pin_32*%
%TO.N,/PE1*%
X68770000Y-45620000D03*
%TO.P,J2,33,Pin_33*%
%TO.N,VCC_3.3V*%
X71310000Y-45620000D03*
%TO.P,J2,34,Pin_34*%
%TO.N,GND*%
X73850000Y-45620000D03*
%TD*%
D14*
%TO.N,VCC_3.3V*%
X-4360000Y-31620000D03*
%TO.N,GND*%
X-170000Y-4500000D03*
X-3370000Y-4500000D03*
X-5410000Y-4500000D03*
D15*
%TO.N,/PA14{slash}JTCK_SWCLK*%
X8410000Y-31750000D03*
%TO.N,GND*%
X11580000Y-43030000D03*
D14*
X37030000Y-16390000D03*
D15*
X22750000Y-26750000D03*
X55372000Y-36576000D03*
X41013000Y-7874000D03*
X56900000Y-11250000D03*
X43750000Y-35000000D03*
D14*
X36030000Y-18390000D03*
D15*
X44500000Y-35750000D03*
D14*
X35030000Y-16390000D03*
D15*
X19750000Y-26750000D03*
X55000000Y-17000000D03*
D14*
X37030000Y-17390000D03*
D15*
X57900000Y-13300000D03*
X52197000Y-24638000D03*
X55970000Y-8810000D03*
X51308000Y-18796000D03*
X52000000Y-18000000D03*
D14*
X37030000Y-21390000D03*
D15*
X39970000Y2570000D03*
D14*
X34030000Y-23390000D03*
X15950000Y-11790000D03*
X33030000Y-17390000D03*
X32030000Y-18390000D03*
X33030000Y-16390000D03*
X33030000Y-19390000D03*
X35030000Y-23390000D03*
X-7700000Y-4500000D03*
D15*
X51308000Y-19812000D03*
X37520000Y2570000D03*
X44220000Y-2910000D03*
D14*
X36030000Y-16390000D03*
D15*
X74980000Y-330000D03*
X36980000Y-43460000D03*
D14*
X15950000Y-12740000D03*
D15*
X52324000Y-30226000D03*
X44970000Y-1410000D03*
X44220000Y-1410000D03*
X46000000Y-37250000D03*
X62310000Y-2360000D03*
X19177000Y-4826000D03*
X59900000Y-11250000D03*
X45720000Y-2160000D03*
X53340000Y-36576000D03*
X57900000Y-11250000D03*
D14*
X33030000Y-22390000D03*
D15*
X51054000Y-34290000D03*
X45250000Y-36500000D03*
X43470000Y-1410000D03*
D14*
X34030000Y-16390000D03*
X985000Y-4500000D03*
X39030000Y-19390000D03*
D15*
X59900000Y-13300000D03*
D14*
X32030000Y-21390000D03*
D15*
X-3470000Y-43040000D03*
X56000000Y-24000000D03*
X56896000Y-17018000D03*
D14*
X39030000Y-18390000D03*
D15*
X6390000Y-43040000D03*
X64960000Y70000D03*
D14*
X39030000Y-23390000D03*
D15*
X45720000Y-1410000D03*
X56000000Y-22000000D03*
D14*
X33030000Y-20390000D03*
X37030000Y-19390000D03*
X31030000Y-18390000D03*
X31030000Y-22390000D03*
X33030000Y-21390000D03*
D15*
X44970000Y-2160000D03*
X-900000Y-43040000D03*
D14*
X34030000Y-20390000D03*
X35030000Y-21390000D03*
X35030000Y-22390000D03*
D15*
X53086000Y-29464000D03*
D14*
X36030000Y-21390000D03*
D15*
X56896000Y-22018000D03*
D14*
X39030000Y-20390000D03*
X34030000Y-22390000D03*
D15*
X26870000Y2120000D03*
X1750000Y-43040000D03*
D14*
X39030000Y-17390000D03*
X36030000Y-22390000D03*
D15*
X55900000Y-11250000D03*
X50292000Y-33528000D03*
D14*
X31030000Y-20390000D03*
D15*
X50292000Y-32004000D03*
D14*
X36030000Y-19390000D03*
X32030000Y-24390000D03*
D15*
X44970000Y-2910000D03*
X56000000Y-23000000D03*
D14*
X38030000Y-20390000D03*
D15*
X26940000Y-43090000D03*
X56000000Y-18000000D03*
X56896000Y-21018000D03*
X53848000Y-30226000D03*
X70330000Y2376863D03*
X34690000Y2570000D03*
D14*
X38030000Y-22390000D03*
X35030000Y-17390000D03*
D15*
X56720000Y-7310000D03*
X56134000Y-35814000D03*
X4020000Y-43040000D03*
X55000000Y-25000000D03*
X55900000Y-13300000D03*
X57658000Y-34290000D03*
D14*
X34030000Y-18390000D03*
D15*
X56000000Y-20000000D03*
D14*
X32030000Y-22390000D03*
D15*
X23750000Y-26750000D03*
D14*
X36030000Y-24390000D03*
D15*
X58900000Y-11250000D03*
D14*
X38030000Y-17390000D03*
X32030000Y-23390000D03*
D15*
X74830000Y-17880000D03*
X44825000Y-13675000D03*
X56896000Y-25018000D03*
X71920000Y-35760000D03*
D14*
X38030000Y-21390000D03*
X36030000Y-23390000D03*
X32030000Y-20390000D03*
X31030000Y-17390000D03*
X37030000Y-22390000D03*
D15*
X56896000Y-19018000D03*
D14*
X38030000Y-19390000D03*
D15*
X43910000Y-7730000D03*
D14*
X39030000Y-21390000D03*
D15*
X47500000Y-38750000D03*
X-5980000Y-43040000D03*
X55970000Y-7310000D03*
X54000000Y-25000000D03*
D14*
X31030000Y-24390000D03*
D15*
X43470000Y-2910000D03*
X56900000Y-13300000D03*
X19177000Y-6731000D03*
D14*
X53030000Y-6920000D03*
D15*
X56000000Y-21000000D03*
X57470000Y-7310000D03*
X57470000Y-8060000D03*
D14*
X34030000Y-19390000D03*
X31030000Y-19390000D03*
D15*
X20750000Y-26750000D03*
D14*
X35030000Y-18390000D03*
X37030000Y-24390000D03*
X39030000Y-22390000D03*
D15*
X57470000Y-8810000D03*
D14*
X31030000Y-21390000D03*
D15*
X54610000Y-30988000D03*
X56896000Y-33528000D03*
X25230000Y-43990000D03*
D14*
X32030000Y-19390000D03*
X35030000Y-20390000D03*
D15*
X51308000Y-24000000D03*
X41775000Y-7874000D03*
X19177000Y-6096000D03*
D14*
X31030000Y-23390000D03*
D15*
X71920000Y-40240000D03*
D14*
X32030000Y-17390000D03*
X36030000Y-20390000D03*
X37030000Y-23390000D03*
X39030000Y-24390000D03*
D15*
X51816000Y-35052000D03*
X56000000Y-19000000D03*
X51308000Y-23000000D03*
X56000000Y-17000000D03*
D14*
X39030000Y-16390000D03*
D15*
X39460000Y-43460000D03*
X53000000Y-17000000D03*
X51308000Y-22000000D03*
X43470000Y-2160000D03*
X56720000Y-9560000D03*
X74830000Y-20310000D03*
X58900000Y-13300000D03*
X56896000Y-18018000D03*
X50292000Y-19812000D03*
D14*
X33030000Y-24390000D03*
D15*
X40251000Y-7874000D03*
D14*
X51990000Y-6910000D03*
X38030000Y-18390000D03*
X-8800000Y-4500000D03*
X33030000Y-18390000D03*
D15*
X53000000Y-25000000D03*
X74980000Y-4520000D03*
X42030000Y-43460000D03*
D14*
X37030000Y-20390000D03*
X32030000Y-16390000D03*
D15*
X21750000Y-43100000D03*
X55970000Y-8060000D03*
X21750000Y-26750000D03*
X56720000Y-8810000D03*
X44220000Y-2160000D03*
X56896000Y-23018000D03*
D14*
X38030000Y-16390000D03*
D15*
X46750000Y-38000000D03*
X56134000Y-32512000D03*
D14*
X51990000Y-7940000D03*
D15*
X56000000Y-25000000D03*
D14*
X35030000Y-19390000D03*
D15*
X52578000Y-35814000D03*
X56896000Y-20018000D03*
X49530000Y-32766000D03*
X56896000Y-24018000D03*
X44825000Y-11100000D03*
X50276000Y-22000000D03*
X65414972Y2376863D03*
X54000000Y-17000000D03*
X23440000Y-43990000D03*
X49276000Y-22000000D03*
X74830000Y-15550000D03*
D14*
X37030000Y-18390000D03*
X31030000Y-16390000D03*
D15*
X55372000Y-31750000D03*
X57470000Y-9560000D03*
D14*
X38030000Y-23390000D03*
D15*
X50276000Y-23000000D03*
X55970000Y-9560000D03*
X43475000Y-30300000D03*
X19177000Y-5461000D03*
X31760000Y2120000D03*
X56720000Y-8060000D03*
D14*
X35030000Y-24390000D03*
X33030000Y-23390000D03*
X34030000Y-24390000D03*
D15*
X45720000Y-2910000D03*
X56896000Y-35052000D03*
D14*
X34030000Y-17390000D03*
X34030000Y-21390000D03*
X38030000Y-24390000D03*
X36030000Y-17390000D03*
%TO.N,VCC_5V*%
X-5730000Y-18050000D03*
X-5730000Y-17050000D03*
X-7480000Y-18050000D03*
X-7480000Y-22850000D03*
X-6605000Y-18050000D03*
X-6605000Y-17070000D03*
X-5730000Y-22850000D03*
X-6605000Y-22850000D03*
X-6605000Y-23730000D03*
X-5730000Y-23730000D03*
D15*
%TO.N,/PB11{slash}MD*%
X38000000Y-26940000D03*
X32340000Y-34850000D03*
%TO.N,/NRST*%
X20450000Y-6910000D03*
X41440000Y-19950000D03*
D14*
%TO.N,VCC_3.3V*%
X51454500Y-25634500D03*
X9910000Y-14950000D03*
X29000000Y-7967500D03*
D15*
X41730000Y-32150000D03*
X53025000Y-12920000D03*
D14*
X9910000Y-16160000D03*
X41250000Y-3700000D03*
X15630000Y-26770000D03*
D15*
X55560000Y-6070000D03*
D14*
X9910000Y-17370000D03*
X31050000Y-31920000D03*
X11310000Y-17370000D03*
X19304000Y-16160000D03*
X11310000Y-16160000D03*
X11310000Y-14950000D03*
%TD*%
D16*
%TO.N,VCC_3.3V*%
X-4340000Y-31620000D02*
X-4360000Y-31620000D01*
X-4340000Y-31620000D02*
X9910000Y-17370000D01*
D17*
%TO.N,/PA14{slash}JTCK_SWCLK*%
X8380000Y-34670000D02*
X8380000Y-37370000D01*
X8410000Y-31750000D02*
X8410000Y-34640000D01*
X8410000Y-34640000D02*
X8380000Y-34670000D01*
D16*
%TO.N,VCC_3.3V*%
X20790000Y-31920000D02*
X31050000Y-31920000D01*
X15630000Y-26770000D02*
X15640000Y-26770000D01*
X11310000Y-22450000D02*
X11310000Y-17370000D01*
X15630000Y-26770000D02*
X11310000Y-22450000D01*
X13460000Y-28940000D02*
X13460000Y-37370000D01*
X15640000Y-26770000D02*
X20790000Y-31920000D01*
X15630000Y-26770000D02*
X13460000Y-28940000D01*
D17*
%TO.N,/PB11{slash}MD*%
X32340000Y-32600000D02*
X32340000Y-34850000D01*
X32320000Y-34870000D02*
X32320000Y-37370000D01*
X38000000Y-26940000D02*
X32340000Y-32600000D01*
X32340000Y-34850000D02*
X32320000Y-34870000D01*
%TO.N,/NRST*%
X31270000Y-6910000D02*
X41440000Y-17080000D01*
X41440000Y-17080000D02*
X41440000Y-19950000D01*
X20450000Y-6910000D02*
X31270000Y-6910000D01*
D16*
%TO.N,VCC_3.3V*%
X41730000Y-25870000D02*
X41730000Y-25527000D01*
X51454500Y-25634500D02*
X51464500Y-25634500D01*
D18*
X51454500Y-25634500D02*
X51690000Y-25870000D01*
D16*
X51464500Y-25634500D02*
X71310000Y-45480000D01*
X41730000Y-32150000D02*
X41730000Y-27230000D01*
X51474000Y-25654000D02*
X41946000Y-25654000D01*
X53025000Y-12925000D02*
X41730000Y-24220000D01*
D18*
X17860000Y-3700000D02*
X11310000Y-10250000D01*
D16*
X41730000Y-25527000D02*
X41603000Y-25654000D01*
D18*
X20807500Y-16160000D02*
X29000000Y-7967500D01*
X53190000Y-3700000D02*
X55560000Y-6070000D01*
D16*
X41946000Y-25654000D02*
X41730000Y-25870000D01*
D18*
X41730000Y-27230000D02*
X41730000Y-25620000D01*
D16*
X41603000Y-25654000D02*
X37316000Y-25654000D01*
X37316000Y-25654000D02*
X31050000Y-31920000D01*
D18*
X11310000Y-10250000D02*
X11310000Y-14950000D01*
X41250000Y-3700000D02*
X53190000Y-3700000D01*
X19304000Y-16160000D02*
X20807500Y-16160000D01*
D16*
X41730000Y-24220000D02*
X41730000Y-27230000D01*
D18*
X41730000Y-25620000D02*
X41730000Y-25870000D01*
D16*
X53025000Y-12920000D02*
X53025000Y-12925000D01*
D18*
X19304000Y-16160000D02*
X11310000Y-16160000D01*
X17860000Y-3700000D02*
X41250000Y-3700000D01*
D16*
X51690000Y-25870000D02*
X51474000Y-25654000D01*
%TD*%
%TA.AperFunction,Conductor*%
%TO.N,VCC_3.3V*%
G36*
X11863039Y-13259685D02*
G01*
X11908794Y-13312489D01*
X11920000Y-13364000D01*
X11920000Y-17836000D01*
X11900315Y-17903039D01*
X11847511Y-17948794D01*
X11796000Y-17960000D01*
X9434000Y-17960000D01*
X9366961Y-17940315D01*
X9321206Y-17887511D01*
X9310000Y-17836000D01*
X9310000Y-13364000D01*
X9329685Y-13296961D01*
X9382489Y-13251206D01*
X9434000Y-13240000D01*
X11796000Y-13240000D01*
X11863039Y-13259685D01*
G37*
%TD.AperFunction*%
%TD*%
%TA.AperFunction,Conductor*%
%TO.N,GND*%
G36*
X-8097361Y5819815D02*
G01*
X-8051606Y5767011D01*
X-8041662Y5697853D01*
X-8070687Y5634297D01*
X-8091999Y5616144D01*
X-8091465Y5615437D01*
X-8096042Y5611981D01*
X-8246763Y5474582D01*
X-8369673Y5311822D01*
X-8460578Y5129261D01*
X-8460583Y5129248D01*
X-8516398Y4933083D01*
X-8535215Y4730001D01*
X-8535215Y4730000D01*
X-8516398Y4526918D01*
X-8460583Y4330753D01*
X-8460578Y4330740D01*
X-8369673Y4148179D01*
X-8246763Y3985419D01*
X-8096042Y3848020D01*
X-8096040Y3848018D01*
X-8048366Y3818500D01*
X-7922637Y3740652D01*
X-7732456Y3666976D01*
X-7531976Y3629500D01*
X-7531974Y3629500D01*
X-7328026Y3629500D01*
X-7328024Y3629500D01*
X-7127544Y3666976D01*
X-6937363Y3740652D01*
X-6763959Y3848019D01*
X-6613236Y3985421D01*
X-6490327Y4148179D01*
X-6399418Y4330750D01*
X-6343603Y4526917D01*
X-6324785Y4730000D01*
X-6343603Y4933083D01*
X-6399418Y5129250D01*
X-6436235Y5203188D01*
X-6443728Y5218236D01*
X-6490327Y5311821D01*
X-6613236Y5474579D01*
X-6613238Y5474582D01*
X-6763959Y5611981D01*
X-6768535Y5615437D01*
X-6767232Y5617164D01*
X-6807509Y5662093D01*
X-6818618Y5731074D01*
X-6790670Y5795110D01*
X-6732537Y5833871D01*
X-6695600Y5839500D01*
X-5624400Y5839500D01*
X-5557361Y5819815D01*
X-5511606Y5767011D01*
X-5501662Y5697853D01*
X-5530687Y5634297D01*
X-5551999Y5616144D01*
X-5551465Y5615437D01*
X-5556042Y5611981D01*
X-5706763Y5474582D01*
X-5829673Y5311822D01*
X-5920578Y5129261D01*
X-5920583Y5129248D01*
X-5976398Y4933083D01*
X-5995215Y4730001D01*
X-5995215Y4730000D01*
X-5976398Y4526918D01*
X-5920583Y4330753D01*
X-5920578Y4330740D01*
X-5829673Y4148179D01*
X-5706763Y3985419D01*
X-5556042Y3848020D01*
X-5556040Y3848018D01*
X-5508366Y3818500D01*
X-5382637Y3740652D01*
X-5192456Y3666976D01*
X-4991976Y3629500D01*
X-4991974Y3629500D01*
X-4788026Y3629500D01*
X-4788024Y3629500D01*
X-4587544Y3666976D01*
X-4397363Y3740652D01*
X-4223959Y3848019D01*
X-4073236Y3985421D01*
X-3950327Y4148179D01*
X-3859418Y4330750D01*
X-3803603Y4526917D01*
X-3784785Y4730000D01*
X-3803603Y4933083D01*
X-3859418Y5129250D01*
X-3896235Y5203188D01*
X-3903728Y5218236D01*
X-3950327Y5311821D01*
X-4073236Y5474579D01*
X-4073238Y5474582D01*
X-4223959Y5611981D01*
X-4228535Y5615437D01*
X-4227232Y5617164D01*
X-4267509Y5662093D01*
X-4278618Y5731074D01*
X-4250670Y5795110D01*
X-4192537Y5833871D01*
X-4155600Y5839500D01*
X-3084400Y5839500D01*
X-3017361Y5819815D01*
X-2971606Y5767011D01*
X-2961662Y5697853D01*
X-2990687Y5634297D01*
X-3011999Y5616144D01*
X-3011465Y5615437D01*
X-3016042Y5611981D01*
X-3166763Y5474582D01*
X-3289673Y5311822D01*
X-3380578Y5129261D01*
X-3380583Y5129248D01*
X-3436398Y4933083D01*
X-3455215Y4730001D01*
X-3455215Y4730000D01*
X-3436398Y4526918D01*
X-3380583Y4330753D01*
X-3380578Y4330740D01*
X-3289673Y4148179D01*
X-3166763Y3985419D01*
X-3016042Y3848020D01*
X-3016040Y3848018D01*
X-2968366Y3818500D01*
X-2842637Y3740652D01*
X-2652456Y3666976D01*
X-2451976Y3629500D01*
X-2451974Y3629500D01*
X-2248026Y3629500D01*
X-2248024Y3629500D01*
X-2047544Y3666976D01*
X-1857363Y3740652D01*
X-1683959Y3848019D01*
X-1533236Y3985421D01*
X-1410327Y4148179D01*
X-1319418Y4330750D01*
X-1263603Y4526917D01*
X-1244785Y4730000D01*
X-1263603Y4933083D01*
X-1319418Y5129250D01*
X-1356235Y5203188D01*
X-1363728Y5218236D01*
X-1410327Y5311821D01*
X-1533236Y5474579D01*
X-1533238Y5474582D01*
X-1683959Y5611981D01*
X-1688535Y5615437D01*
X-1687232Y5617164D01*
X-1727509Y5662093D01*
X-1738618Y5731074D01*
X-1710670Y5795110D01*
X-1652537Y5833871D01*
X-1615600Y5839500D01*
X-544400Y5839500D01*
X-477361Y5819815D01*
X-431606Y5767011D01*
X-421662Y5697853D01*
X-450687Y5634297D01*
X-471999Y5616144D01*
X-471465Y5615437D01*
X-476042Y5611981D01*
X-626763Y5474582D01*
X-749673Y5311822D01*
X-840578Y5129261D01*
X-840583Y5129248D01*
X-896398Y4933083D01*
X-915215Y4730001D01*
X-915215Y4730000D01*
X-896398Y4526918D01*
X-840583Y4330753D01*
X-840578Y4330740D01*
X-749673Y4148179D01*
X-626763Y3985419D01*
X-476042Y3848020D01*
X-476040Y3848018D01*
X-428366Y3818500D01*
X-302637Y3740652D01*
X-112456Y3666976D01*
X88024Y3629500D01*
X88026Y3629500D01*
X291974Y3629500D01*
X291976Y3629500D01*
X492456Y3666976D01*
X682637Y3740652D01*
X856041Y3848019D01*
X1006764Y3985421D01*
X1129673Y4148179D01*
X1220582Y4330750D01*
X1276397Y4526917D01*
X1295215Y4730000D01*
X1276397Y4933083D01*
X1220582Y5129250D01*
X1183765Y5203188D01*
X1176272Y5218236D01*
X1129673Y5311821D01*
X1006764Y5474579D01*
X1006762Y5474582D01*
X856041Y5611981D01*
X851465Y5615437D01*
X852768Y5617164D01*
X812491Y5662093D01*
X801382Y5731074D01*
X829330Y5795110D01*
X887463Y5833871D01*
X924400Y5839500D01*
X1995600Y5839500D01*
X2062639Y5819815D01*
X2108394Y5767011D01*
X2118338Y5697853D01*
X2089313Y5634297D01*
X2068001Y5616144D01*
X2068535Y5615437D01*
X2063958Y5611981D01*
X1913237Y5474582D01*
X1790327Y5311822D01*
X1699422Y5129261D01*
X1699417Y5129248D01*
X1643602Y4933083D01*
X1624785Y4730001D01*
X1624785Y4730000D01*
X1643602Y4526918D01*
X1699417Y4330753D01*
X1699422Y4330740D01*
X1790327Y4148179D01*
X1913237Y3985419D01*
X2063958Y3848020D01*
X2063960Y3848018D01*
X2111634Y3818500D01*
X2237363Y3740652D01*
X2427544Y3666976D01*
X2628024Y3629500D01*
X2628026Y3629500D01*
X2831974Y3629500D01*
X2831976Y3629500D01*
X3032456Y3666976D01*
X3222637Y3740652D01*
X3396041Y3848019D01*
X3546764Y3985421D01*
X3669673Y4148179D01*
X3760582Y4330750D01*
X3816397Y4526917D01*
X3835215Y4730000D01*
X3816397Y4933083D01*
X3760582Y5129250D01*
X3723765Y5203188D01*
X3716272Y5218236D01*
X3669673Y5311821D01*
X3546764Y5474579D01*
X3546762Y5474582D01*
X3396041Y5611981D01*
X3391465Y5615437D01*
X3392768Y5617164D01*
X3352491Y5662093D01*
X3341382Y5731074D01*
X3369330Y5795110D01*
X3427463Y5833871D01*
X3464400Y5839500D01*
X4535600Y5839500D01*
X4602639Y5819815D01*
X4648394Y5767011D01*
X4658338Y5697853D01*
X4629313Y5634297D01*
X4608001Y5616144D01*
X4608535Y5615437D01*
X4603958Y5611981D01*
X4453237Y5474582D01*
X4330327Y5311822D01*
X4239422Y5129261D01*
X4239417Y5129248D01*
X4183602Y4933083D01*
X4164785Y4730001D01*
X4164785Y4730000D01*
X4183602Y4526918D01*
X4239417Y4330753D01*
X4239422Y4330740D01*
X4330327Y4148179D01*
X4453237Y3985419D01*
X4603958Y3848020D01*
X4603960Y3848018D01*
X4651634Y3818500D01*
X4777363Y3740652D01*
X4967544Y3666976D01*
X5168024Y3629500D01*
X5168026Y3629500D01*
X5371974Y3629500D01*
X5371976Y3629500D01*
X5572456Y3666976D01*
X5762637Y3740652D01*
X5936041Y3848019D01*
X6086764Y3985421D01*
X6209673Y4148179D01*
X6300582Y4330750D01*
X6356397Y4526917D01*
X6375215Y4730000D01*
X6356397Y4933083D01*
X6300582Y5129250D01*
X6263765Y5203188D01*
X6256272Y5218236D01*
X6209673Y5311821D01*
X6086764Y5474579D01*
X6086762Y5474582D01*
X5936041Y5611981D01*
X5931465Y5615437D01*
X5932768Y5617164D01*
X5892491Y5662093D01*
X5881382Y5731074D01*
X5909330Y5795110D01*
X5967463Y5833871D01*
X6004400Y5839500D01*
X7075600Y5839500D01*
X7142639Y5819815D01*
X7188394Y5767011D01*
X7198338Y5697853D01*
X7169313Y5634297D01*
X7148001Y5616144D01*
X7148535Y5615437D01*
X7143958Y5611981D01*
X6993237Y5474582D01*
X6870327Y5311822D01*
X6779422Y5129261D01*
X6779417Y5129248D01*
X6723602Y4933083D01*
X6704785Y4730001D01*
X6704785Y4730000D01*
X6723602Y4526918D01*
X6779417Y4330753D01*
X6779422Y4330740D01*
X6870327Y4148179D01*
X6993237Y3985419D01*
X7143958Y3848020D01*
X7143960Y3848018D01*
X7191634Y3818500D01*
X7317363Y3740652D01*
X7507544Y3666976D01*
X7708024Y3629500D01*
X7708026Y3629500D01*
X7911974Y3629500D01*
X7911976Y3629500D01*
X8112456Y3666976D01*
X8302637Y3740652D01*
X8476041Y3848019D01*
X8626764Y3985421D01*
X8749673Y4148179D01*
X8840582Y4330750D01*
X8896397Y4526917D01*
X8915215Y4730000D01*
X8896397Y4933083D01*
X8840582Y5129250D01*
X8803765Y5203188D01*
X8796272Y5218236D01*
X8749673Y5311821D01*
X8626764Y5474579D01*
X8626762Y5474582D01*
X8476041Y5611981D01*
X8471465Y5615437D01*
X8472768Y5617164D01*
X8432491Y5662093D01*
X8421382Y5731074D01*
X8449330Y5795110D01*
X8507463Y5833871D01*
X8544400Y5839500D01*
X9615600Y5839500D01*
X9682639Y5819815D01*
X9728394Y5767011D01*
X9738338Y5697853D01*
X9709313Y5634297D01*
X9688001Y5616144D01*
X9688535Y5615437D01*
X9683958Y5611981D01*
X9533237Y5474582D01*
X9410327Y5311822D01*
X9319422Y5129261D01*
X9319417Y5129248D01*
X9263602Y4933083D01*
X9244785Y4730001D01*
X9244785Y4730000D01*
X9263602Y4526918D01*
X9319417Y4330753D01*
X9319422Y4330740D01*
X9410327Y4148179D01*
X9533237Y3985419D01*
X9683958Y3848020D01*
X9683960Y3848018D01*
X9731634Y3818500D01*
X9857363Y3740652D01*
X10047544Y3666976D01*
X10248024Y3629500D01*
X10248026Y3629500D01*
X10451974Y3629500D01*
X10451976Y3629500D01*
X10652456Y3666976D01*
X10842637Y3740652D01*
X11016041Y3848019D01*
X11166764Y3985421D01*
X11289673Y4148179D01*
X11380582Y4330750D01*
X11436397Y4526917D01*
X11455215Y4730000D01*
X11436397Y4933083D01*
X11380582Y5129250D01*
X11343765Y5203188D01*
X11336272Y5218236D01*
X11289673Y5311821D01*
X11166764Y5474579D01*
X11166762Y5474582D01*
X11016041Y5611981D01*
X11011465Y5615437D01*
X11012768Y5617164D01*
X10972491Y5662093D01*
X10961382Y5731074D01*
X10989330Y5795110D01*
X11047463Y5833871D01*
X11084400Y5839500D01*
X12155600Y5839500D01*
X12222639Y5819815D01*
X12268394Y5767011D01*
X12278338Y5697853D01*
X12249313Y5634297D01*
X12228001Y5616144D01*
X12228535Y5615437D01*
X12223958Y5611981D01*
X12073237Y5474582D01*
X11950327Y5311822D01*
X11859422Y5129261D01*
X11859417Y5129248D01*
X11803602Y4933083D01*
X11784785Y4730001D01*
X11784785Y4730000D01*
X11803602Y4526918D01*
X11859417Y4330753D01*
X11859422Y4330740D01*
X11950327Y4148179D01*
X12073237Y3985419D01*
X12223958Y3848020D01*
X12223960Y3848018D01*
X12271634Y3818500D01*
X12397363Y3740652D01*
X12587544Y3666976D01*
X12788024Y3629500D01*
X12788026Y3629500D01*
X12991974Y3629500D01*
X12991976Y3629500D01*
X13192456Y3666976D01*
X13382637Y3740652D01*
X13556041Y3848019D01*
X13706764Y3985421D01*
X13829673Y4148179D01*
X13920582Y4330750D01*
X13976397Y4526917D01*
X13995215Y4730000D01*
X13976397Y4933083D01*
X13920582Y5129250D01*
X13883765Y5203188D01*
X13876272Y5218236D01*
X13829673Y5311821D01*
X13706764Y5474579D01*
X13706762Y5474582D01*
X13556041Y5611981D01*
X13551465Y5615437D01*
X13552768Y5617164D01*
X13512491Y5662093D01*
X13501382Y5731074D01*
X13529330Y5795110D01*
X13587463Y5833871D01*
X13624400Y5839500D01*
X14695600Y5839500D01*
X14762639Y5819815D01*
X14808394Y5767011D01*
X14818338Y5697853D01*
X14789313Y5634297D01*
X14768001Y5616144D01*
X14768535Y5615437D01*
X14763958Y5611981D01*
X14613237Y5474582D01*
X14490327Y5311822D01*
X14399422Y5129261D01*
X14399417Y5129248D01*
X14343602Y4933083D01*
X14324785Y4730001D01*
X14324785Y4730000D01*
X14343602Y4526918D01*
X14399417Y4330753D01*
X14399422Y4330740D01*
X14490327Y4148179D01*
X14613237Y3985419D01*
X14763958Y3848020D01*
X14763960Y3848018D01*
X14811634Y3818500D01*
X14937363Y3740652D01*
X15127544Y3666976D01*
X15328024Y3629500D01*
X15328026Y3629500D01*
X15531974Y3629500D01*
X15531976Y3629500D01*
X15732456Y3666976D01*
X15922637Y3740652D01*
X16096041Y3848019D01*
X16246764Y3985421D01*
X16369673Y4148179D01*
X16460582Y4330750D01*
X16516397Y4526917D01*
X16535215Y4730000D01*
X16516397Y4933083D01*
X16460582Y5129250D01*
X16423765Y5203188D01*
X16416272Y5218236D01*
X16369673Y5311821D01*
X16246764Y5474579D01*
X16246762Y5474582D01*
X16096041Y5611981D01*
X16091465Y5615437D01*
X16092768Y5617164D01*
X16052491Y5662093D01*
X16041382Y5731074D01*
X16069330Y5795110D01*
X16127463Y5833871D01*
X16164400Y5839500D01*
X17235600Y5839500D01*
X17302639Y5819815D01*
X17348394Y5767011D01*
X17358338Y5697853D01*
X17329313Y5634297D01*
X17308001Y5616144D01*
X17308535Y5615437D01*
X17303958Y5611981D01*
X17153237Y5474582D01*
X17030327Y5311822D01*
X16939422Y5129261D01*
X16939417Y5129248D01*
X16883602Y4933083D01*
X16864785Y4730001D01*
X16864785Y4730000D01*
X16883602Y4526918D01*
X16939417Y4330753D01*
X16939422Y4330740D01*
X17030327Y4148179D01*
X17153237Y3985419D01*
X17303958Y3848020D01*
X17303960Y3848018D01*
X17351634Y3818500D01*
X17477363Y3740652D01*
X17667544Y3666976D01*
X17868024Y3629500D01*
X17868026Y3629500D01*
X18071974Y3629500D01*
X18071976Y3629500D01*
X18272456Y3666976D01*
X18462637Y3740652D01*
X18636041Y3848019D01*
X18786764Y3985421D01*
X18909673Y4148179D01*
X19000582Y4330750D01*
X19056397Y4526917D01*
X19075215Y4730000D01*
X19056397Y4933083D01*
X19000582Y5129250D01*
X18963765Y5203188D01*
X18956272Y5218236D01*
X18909673Y5311821D01*
X18786764Y5474579D01*
X18786762Y5474582D01*
X18636041Y5611981D01*
X18631465Y5615437D01*
X18632768Y5617164D01*
X18592491Y5662093D01*
X18581382Y5731074D01*
X18609330Y5795110D01*
X18667463Y5833871D01*
X18704400Y5839500D01*
X19775600Y5839500D01*
X19842639Y5819815D01*
X19888394Y5767011D01*
X19898338Y5697853D01*
X19869313Y5634297D01*
X19848001Y5616144D01*
X19848535Y5615437D01*
X19843958Y5611981D01*
X19693237Y5474582D01*
X19570327Y5311822D01*
X19479422Y5129261D01*
X19479417Y5129248D01*
X19423602Y4933083D01*
X19404785Y4730001D01*
X19404785Y4730000D01*
X19423602Y4526918D01*
X19479417Y4330753D01*
X19479422Y4330740D01*
X19570327Y4148179D01*
X19693237Y3985419D01*
X19843958Y3848020D01*
X19843960Y3848018D01*
X19891634Y3818500D01*
X20017363Y3740652D01*
X20207544Y3666976D01*
X20408024Y3629500D01*
X20408026Y3629500D01*
X20611974Y3629500D01*
X20611976Y3629500D01*
X20812456Y3666976D01*
X21002637Y3740652D01*
X21176041Y3848019D01*
X21326764Y3985421D01*
X21449673Y4148179D01*
X21540582Y4330750D01*
X21596397Y4526917D01*
X21615215Y4730000D01*
X21596397Y4933083D01*
X21540582Y5129250D01*
X21503765Y5203188D01*
X21496272Y5218236D01*
X21449673Y5311821D01*
X21326764Y5474579D01*
X21326762Y5474582D01*
X21176041Y5611981D01*
X21171465Y5615437D01*
X21172768Y5617164D01*
X21132491Y5662093D01*
X21121382Y5731074D01*
X21149330Y5795110D01*
X21207463Y5833871D01*
X21244400Y5839500D01*
X22315600Y5839500D01*
X22382639Y5819815D01*
X22428394Y5767011D01*
X22438338Y5697853D01*
X22409313Y5634297D01*
X22388001Y5616144D01*
X22388535Y5615437D01*
X22383958Y5611981D01*
X22233237Y5474582D01*
X22110327Y5311822D01*
X22019422Y5129261D01*
X22019417Y5129248D01*
X21963602Y4933083D01*
X21944785Y4730001D01*
X21944785Y4730000D01*
X21963602Y4526918D01*
X22019417Y4330753D01*
X22019422Y4330740D01*
X22110327Y4148179D01*
X22233237Y3985419D01*
X22383958Y3848020D01*
X22383960Y3848018D01*
X22431634Y3818500D01*
X22557363Y3740652D01*
X22747544Y3666976D01*
X22948024Y3629500D01*
X22948026Y3629500D01*
X23151974Y3629500D01*
X23151976Y3629500D01*
X23352456Y3666976D01*
X23542637Y3740652D01*
X23716041Y3848019D01*
X23866764Y3985421D01*
X23989673Y4148179D01*
X24080582Y4330750D01*
X24136397Y4526917D01*
X24155215Y4730000D01*
X24136397Y4933083D01*
X24080582Y5129250D01*
X24043765Y5203188D01*
X24036272Y5218236D01*
X23989673Y5311821D01*
X23866764Y5474579D01*
X23866762Y5474582D01*
X23716041Y5611981D01*
X23711465Y5615437D01*
X23712768Y5617164D01*
X23672491Y5662093D01*
X23661382Y5731074D01*
X23689330Y5795110D01*
X23747463Y5833871D01*
X23784400Y5839500D01*
X24855600Y5839500D01*
X24922639Y5819815D01*
X24968394Y5767011D01*
X24978338Y5697853D01*
X24949313Y5634297D01*
X24928001Y5616144D01*
X24928535Y5615437D01*
X24923958Y5611981D01*
X24773237Y5474582D01*
X24650327Y5311822D01*
X24559422Y5129261D01*
X24559417Y5129248D01*
X24503602Y4933083D01*
X24484785Y4730001D01*
X24484785Y4730000D01*
X24503602Y4526918D01*
X24559417Y4330753D01*
X24559422Y4330740D01*
X24650327Y4148179D01*
X24773237Y3985419D01*
X24923958Y3848020D01*
X24923960Y3848018D01*
X24971634Y3818500D01*
X25097363Y3740652D01*
X25287544Y3666976D01*
X25488024Y3629500D01*
X25488026Y3629500D01*
X25691974Y3629500D01*
X25691976Y3629500D01*
X25892456Y3666976D01*
X26082637Y3740652D01*
X26256041Y3848019D01*
X26406764Y3985421D01*
X26529673Y4148179D01*
X26620582Y4330750D01*
X26676397Y4526917D01*
X26695215Y4730000D01*
X26676397Y4933083D01*
X26620582Y5129250D01*
X26583765Y5203188D01*
X26576272Y5218236D01*
X26529673Y5311821D01*
X26406764Y5474579D01*
X26406762Y5474582D01*
X26256041Y5611981D01*
X26251465Y5615437D01*
X26252768Y5617164D01*
X26212491Y5662093D01*
X26201382Y5731074D01*
X26229330Y5795110D01*
X26287463Y5833871D01*
X26324400Y5839500D01*
X27395600Y5839500D01*
X27462639Y5819815D01*
X27508394Y5767011D01*
X27518338Y5697853D01*
X27489313Y5634297D01*
X27468001Y5616144D01*
X27468535Y5615437D01*
X27463958Y5611981D01*
X27313237Y5474582D01*
X27190327Y5311822D01*
X27099422Y5129261D01*
X27099417Y5129248D01*
X27043602Y4933083D01*
X27024785Y4730001D01*
X27024785Y4730000D01*
X27043602Y4526918D01*
X27099417Y4330753D01*
X27099422Y4330740D01*
X27190327Y4148179D01*
X27313237Y3985419D01*
X27463958Y3848020D01*
X27463960Y3848018D01*
X27511634Y3818500D01*
X27637363Y3740652D01*
X27827544Y3666976D01*
X28028024Y3629500D01*
X28028026Y3629500D01*
X28231974Y3629500D01*
X28231976Y3629500D01*
X28432456Y3666976D01*
X28622637Y3740652D01*
X28796041Y3848019D01*
X28946764Y3985421D01*
X29069673Y4148179D01*
X29160582Y4330750D01*
X29216397Y4526917D01*
X29235215Y4730000D01*
X29216397Y4933083D01*
X29160582Y5129250D01*
X29123765Y5203188D01*
X29116272Y5218236D01*
X29069673Y5311821D01*
X28946764Y5474579D01*
X28946762Y5474582D01*
X28796041Y5611981D01*
X28791465Y5615437D01*
X28792768Y5617164D01*
X28752491Y5662093D01*
X28741382Y5731074D01*
X28769330Y5795110D01*
X28827463Y5833871D01*
X28864400Y5839500D01*
X29935600Y5839500D01*
X30002639Y5819815D01*
X30048394Y5767011D01*
X30058338Y5697853D01*
X30029313Y5634297D01*
X30008001Y5616144D01*
X30008535Y5615437D01*
X30003958Y5611981D01*
X29853237Y5474582D01*
X29730327Y5311822D01*
X29639422Y5129261D01*
X29639417Y5129248D01*
X29583602Y4933083D01*
X29564785Y4730001D01*
X29564785Y4730000D01*
X29583602Y4526918D01*
X29639417Y4330753D01*
X29639422Y4330740D01*
X29730327Y4148179D01*
X29853237Y3985419D01*
X30003958Y3848020D01*
X30003960Y3848018D01*
X30051634Y3818500D01*
X30177363Y3740652D01*
X30367544Y3666976D01*
X30568024Y3629500D01*
X30568026Y3629500D01*
X30771974Y3629500D01*
X30771976Y3629500D01*
X30972456Y3666976D01*
X31162637Y3740652D01*
X31336041Y3848019D01*
X31486764Y3985421D01*
X31609673Y4148179D01*
X31700582Y4330750D01*
X31756397Y4526917D01*
X31775215Y4730000D01*
X31756397Y4933083D01*
X31700582Y5129250D01*
X31663765Y5203188D01*
X31656272Y5218236D01*
X31609673Y5311821D01*
X31486764Y5474579D01*
X31486762Y5474582D01*
X31336041Y5611981D01*
X31331465Y5615437D01*
X31332768Y5617164D01*
X31292491Y5662093D01*
X31281382Y5731074D01*
X31309330Y5795110D01*
X31367463Y5833871D01*
X31404400Y5839500D01*
X32475600Y5839500D01*
X32542639Y5819815D01*
X32588394Y5767011D01*
X32598338Y5697853D01*
X32569313Y5634297D01*
X32548001Y5616144D01*
X32548535Y5615437D01*
X32543958Y5611981D01*
X32393237Y5474582D01*
X32270327Y5311822D01*
X32179422Y5129261D01*
X32179417Y5129248D01*
X32123602Y4933083D01*
X32104785Y4730001D01*
X32104785Y4730000D01*
X32123602Y4526918D01*
X32179417Y4330753D01*
X32179422Y4330740D01*
X32270327Y4148179D01*
X32393237Y3985419D01*
X32543958Y3848020D01*
X32543960Y3848018D01*
X32591634Y3818500D01*
X32717363Y3740652D01*
X32907544Y3666976D01*
X33108024Y3629500D01*
X33108026Y3629500D01*
X33311974Y3629500D01*
X33311976Y3629500D01*
X33512456Y3666976D01*
X33702637Y3740652D01*
X33876041Y3848019D01*
X34026764Y3985421D01*
X34149673Y4148179D01*
X34240582Y4330750D01*
X34296397Y4526917D01*
X34315215Y4730000D01*
X34296397Y4933083D01*
X34240582Y5129250D01*
X34203765Y5203188D01*
X34196272Y5218236D01*
X34149673Y5311821D01*
X34026764Y5474579D01*
X34026762Y5474582D01*
X33876041Y5611981D01*
X33871465Y5615437D01*
X33872768Y5617164D01*
X33832491Y5662093D01*
X33821382Y5731074D01*
X33849330Y5795110D01*
X33907463Y5833871D01*
X33944400Y5839500D01*
X35015600Y5839500D01*
X35082639Y5819815D01*
X35128394Y5767011D01*
X35138338Y5697853D01*
X35109313Y5634297D01*
X35088001Y5616144D01*
X35088535Y5615437D01*
X35083958Y5611981D01*
X34933237Y5474582D01*
X34810327Y5311822D01*
X34719422Y5129261D01*
X34719417Y5129248D01*
X34663602Y4933083D01*
X34644785Y4730001D01*
X34644785Y4730000D01*
X34663602Y4526918D01*
X34719417Y4330753D01*
X34719422Y4330740D01*
X34810327Y4148179D01*
X34933237Y3985419D01*
X35083958Y3848020D01*
X35083960Y3848018D01*
X35131634Y3818500D01*
X35257363Y3740652D01*
X35447544Y3666976D01*
X35648024Y3629500D01*
X35648026Y3629500D01*
X35851974Y3629500D01*
X35851976Y3629500D01*
X36052456Y3666976D01*
X36242637Y3740652D01*
X36416041Y3848019D01*
X36566764Y3985421D01*
X36689673Y4148179D01*
X36780582Y4330750D01*
X36836397Y4526917D01*
X36855215Y4730000D01*
X36836397Y4933083D01*
X36780582Y5129250D01*
X36743765Y5203188D01*
X36736272Y5218236D01*
X36689673Y5311821D01*
X36566764Y5474579D01*
X36566762Y5474582D01*
X36416041Y5611981D01*
X36411465Y5615437D01*
X36412768Y5617164D01*
X36372491Y5662093D01*
X36361382Y5731074D01*
X36389330Y5795110D01*
X36447463Y5833871D01*
X36484400Y5839500D01*
X37555600Y5839500D01*
X37622639Y5819815D01*
X37668394Y5767011D01*
X37678338Y5697853D01*
X37649313Y5634297D01*
X37628001Y5616144D01*
X37628535Y5615437D01*
X37623958Y5611981D01*
X37473237Y5474582D01*
X37350327Y5311822D01*
X37259422Y5129261D01*
X37259417Y5129248D01*
X37203602Y4933083D01*
X37184785Y4730001D01*
X37184785Y4730000D01*
X37203602Y4526918D01*
X37259417Y4330753D01*
X37259422Y4330740D01*
X37350327Y4148179D01*
X37473237Y3985419D01*
X37623958Y3848020D01*
X37623960Y3848018D01*
X37671634Y3818500D01*
X37797363Y3740652D01*
X37987544Y3666976D01*
X38188024Y3629500D01*
X38188026Y3629500D01*
X38391974Y3629500D01*
X38391976Y3629500D01*
X38592456Y3666976D01*
X38782637Y3740652D01*
X38956041Y3848019D01*
X39106764Y3985421D01*
X39229673Y4148179D01*
X39320582Y4330750D01*
X39376397Y4526917D01*
X39395215Y4730000D01*
X39376397Y4933083D01*
X39320582Y5129250D01*
X39283765Y5203188D01*
X39276272Y5218236D01*
X39229673Y5311821D01*
X39106764Y5474579D01*
X39106762Y5474582D01*
X38956041Y5611981D01*
X38951465Y5615437D01*
X38952768Y5617164D01*
X38912491Y5662093D01*
X38901382Y5731074D01*
X38929330Y5795110D01*
X38987463Y5833871D01*
X39024400Y5839500D01*
X40095600Y5839500D01*
X40162639Y5819815D01*
X40208394Y5767011D01*
X40218338Y5697853D01*
X40189313Y5634297D01*
X40168001Y5616144D01*
X40168535Y5615437D01*
X40163958Y5611981D01*
X40013237Y5474582D01*
X39890327Y5311822D01*
X39799422Y5129261D01*
X39799417Y5129248D01*
X39743602Y4933083D01*
X39724785Y4730001D01*
X39724785Y4730000D01*
X39743602Y4526918D01*
X39799417Y4330753D01*
X39799422Y4330740D01*
X39890327Y4148179D01*
X40013237Y3985419D01*
X40163958Y3848020D01*
X40163960Y3848018D01*
X40211634Y3818500D01*
X40337363Y3740652D01*
X40527544Y3666976D01*
X40728024Y3629500D01*
X40728026Y3629500D01*
X40931974Y3629500D01*
X40931976Y3629500D01*
X41132456Y3666976D01*
X41322637Y3740652D01*
X41496041Y3848019D01*
X41646764Y3985421D01*
X41769673Y4148179D01*
X41860582Y4330750D01*
X41916397Y4526917D01*
X41935215Y4730000D01*
X41916397Y4933083D01*
X41860582Y5129250D01*
X41823765Y5203188D01*
X41816272Y5218236D01*
X41769673Y5311821D01*
X41646764Y5474579D01*
X41646762Y5474582D01*
X41496041Y5611981D01*
X41491465Y5615437D01*
X41492768Y5617164D01*
X41452491Y5662093D01*
X41441382Y5731074D01*
X41469330Y5795110D01*
X41527463Y5833871D01*
X41564400Y5839500D01*
X42635600Y5839500D01*
X42702639Y5819815D01*
X42748394Y5767011D01*
X42758338Y5697853D01*
X42729313Y5634297D01*
X42708001Y5616144D01*
X42708535Y5615437D01*
X42703958Y5611981D01*
X42553237Y5474582D01*
X42430327Y5311822D01*
X42339422Y5129261D01*
X42339417Y5129248D01*
X42283602Y4933083D01*
X42264785Y4730001D01*
X42264785Y4730000D01*
X42283602Y4526918D01*
X42339417Y4330753D01*
X42339422Y4330740D01*
X42430327Y4148179D01*
X42553237Y3985419D01*
X42703958Y3848020D01*
X42703960Y3848018D01*
X42751634Y3818500D01*
X42877363Y3740652D01*
X43067544Y3666976D01*
X43268024Y3629500D01*
X43268026Y3629500D01*
X43471974Y3629500D01*
X43471976Y3629500D01*
X43672456Y3666976D01*
X43862637Y3740652D01*
X44036041Y3848019D01*
X44186764Y3985421D01*
X44309673Y4148179D01*
X44400582Y4330750D01*
X44456397Y4526917D01*
X44475215Y4730000D01*
X44456397Y4933083D01*
X44400582Y5129250D01*
X44363765Y5203188D01*
X44356272Y5218236D01*
X44309673Y5311821D01*
X44186764Y5474579D01*
X44186762Y5474582D01*
X44036041Y5611981D01*
X44031465Y5615437D01*
X44032768Y5617164D01*
X43992491Y5662093D01*
X43981382Y5731074D01*
X44009330Y5795110D01*
X44067463Y5833871D01*
X44104400Y5839500D01*
X45175600Y5839500D01*
X45242639Y5819815D01*
X45288394Y5767011D01*
X45298338Y5697853D01*
X45269313Y5634297D01*
X45248001Y5616144D01*
X45248535Y5615437D01*
X45243958Y5611981D01*
X45093237Y5474582D01*
X44970327Y5311822D01*
X44879422Y5129261D01*
X44879417Y5129248D01*
X44823602Y4933083D01*
X44804785Y4730001D01*
X44804785Y4730000D01*
X44823602Y4526918D01*
X44879417Y4330753D01*
X44879422Y4330740D01*
X44970327Y4148179D01*
X45093237Y3985419D01*
X45243958Y3848020D01*
X45243960Y3848018D01*
X45291634Y3818500D01*
X45417363Y3740652D01*
X45607544Y3666976D01*
X45808024Y3629500D01*
X45808026Y3629500D01*
X46011974Y3629500D01*
X46011976Y3629500D01*
X46212456Y3666976D01*
X46402637Y3740652D01*
X46576041Y3848019D01*
X46726764Y3985421D01*
X46849673Y4148179D01*
X46940582Y4330750D01*
X46996397Y4526917D01*
X47015215Y4730000D01*
X46996397Y4933083D01*
X46940582Y5129250D01*
X46903765Y5203188D01*
X46896272Y5218236D01*
X46849673Y5311821D01*
X46726764Y5474579D01*
X46726762Y5474582D01*
X46576041Y5611981D01*
X46571465Y5615437D01*
X46572768Y5617164D01*
X46532491Y5662093D01*
X46521382Y5731074D01*
X46549330Y5795110D01*
X46607463Y5833871D01*
X46644400Y5839500D01*
X47715600Y5839500D01*
X47782639Y5819815D01*
X47828394Y5767011D01*
X47838338Y5697853D01*
X47809313Y5634297D01*
X47788001Y5616144D01*
X47788535Y5615437D01*
X47783958Y5611981D01*
X47633237Y5474582D01*
X47510327Y5311822D01*
X47419422Y5129261D01*
X47419417Y5129248D01*
X47363602Y4933083D01*
X47344785Y4730001D01*
X47344785Y4730000D01*
X47363602Y4526918D01*
X47419417Y4330753D01*
X47419422Y4330740D01*
X47510327Y4148179D01*
X47633237Y3985419D01*
X47783958Y3848020D01*
X47783960Y3848018D01*
X47831634Y3818500D01*
X47957363Y3740652D01*
X48147544Y3666976D01*
X48348024Y3629500D01*
X48348026Y3629500D01*
X48551974Y3629500D01*
X48551976Y3629500D01*
X48752456Y3666976D01*
X48942637Y3740652D01*
X49116041Y3848019D01*
X49266764Y3985421D01*
X49389673Y4148179D01*
X49480582Y4330750D01*
X49536397Y4526917D01*
X49555215Y4730000D01*
X49536397Y4933083D01*
X49480582Y5129250D01*
X49443765Y5203188D01*
X49436272Y5218236D01*
X49389673Y5311821D01*
X49266764Y5474579D01*
X49266762Y5474582D01*
X49116041Y5611981D01*
X49111465Y5615437D01*
X49112768Y5617164D01*
X49072491Y5662093D01*
X49061382Y5731074D01*
X49089330Y5795110D01*
X49147463Y5833871D01*
X49184400Y5839500D01*
X50255600Y5839500D01*
X50322639Y5819815D01*
X50368394Y5767011D01*
X50378338Y5697853D01*
X50349313Y5634297D01*
X50328001Y5616144D01*
X50328535Y5615437D01*
X50323958Y5611981D01*
X50173237Y5474582D01*
X50050327Y5311822D01*
X49959422Y5129261D01*
X49959417Y5129248D01*
X49903602Y4933083D01*
X49884785Y4730001D01*
X49884785Y4730000D01*
X49903602Y4526918D01*
X49959417Y4330753D01*
X49959422Y4330740D01*
X50050327Y4148179D01*
X50173237Y3985419D01*
X50323958Y3848020D01*
X50323960Y3848018D01*
X50371634Y3818500D01*
X50497363Y3740652D01*
X50687544Y3666976D01*
X50888024Y3629500D01*
X50888026Y3629500D01*
X51091974Y3629500D01*
X51091976Y3629500D01*
X51292456Y3666976D01*
X51482637Y3740652D01*
X51656041Y3848019D01*
X51806764Y3985421D01*
X51929673Y4148179D01*
X52020582Y4330750D01*
X52076397Y4526917D01*
X52095215Y4730000D01*
X52076397Y4933083D01*
X52020582Y5129250D01*
X51983765Y5203188D01*
X51976272Y5218236D01*
X51929673Y5311821D01*
X51806764Y5474579D01*
X51806762Y5474582D01*
X51656041Y5611981D01*
X51651465Y5615437D01*
X51652768Y5617164D01*
X51612491Y5662093D01*
X51601382Y5731074D01*
X51629330Y5795110D01*
X51687463Y5833871D01*
X51724400Y5839500D01*
X52795600Y5839500D01*
X52862639Y5819815D01*
X52908394Y5767011D01*
X52918338Y5697853D01*
X52889313Y5634297D01*
X52868001Y5616144D01*
X52868535Y5615437D01*
X52863958Y5611981D01*
X52713237Y5474582D01*
X52590327Y5311822D01*
X52499422Y5129261D01*
X52499417Y5129248D01*
X52443602Y4933083D01*
X52424785Y4730001D01*
X52424785Y4730000D01*
X52443602Y4526918D01*
X52499417Y4330753D01*
X52499422Y4330740D01*
X52590327Y4148179D01*
X52713237Y3985419D01*
X52863958Y3848020D01*
X52863960Y3848018D01*
X52911634Y3818500D01*
X53037363Y3740652D01*
X53227544Y3666976D01*
X53428024Y3629500D01*
X53428026Y3629500D01*
X53631974Y3629500D01*
X53631976Y3629500D01*
X53832456Y3666976D01*
X54022637Y3740652D01*
X54196041Y3848019D01*
X54346764Y3985421D01*
X54469673Y4148179D01*
X54560582Y4330750D01*
X54616397Y4526917D01*
X54635215Y4730000D01*
X54616397Y4933083D01*
X54560582Y5129250D01*
X54523765Y5203188D01*
X54516272Y5218236D01*
X54469673Y5311821D01*
X54346764Y5474579D01*
X54346762Y5474582D01*
X54196041Y5611981D01*
X54191465Y5615437D01*
X54192768Y5617164D01*
X54152491Y5662093D01*
X54141382Y5731074D01*
X54169330Y5795110D01*
X54227463Y5833871D01*
X54264400Y5839500D01*
X55335600Y5839500D01*
X55402639Y5819815D01*
X55448394Y5767011D01*
X55458338Y5697853D01*
X55429313Y5634297D01*
X55408001Y5616144D01*
X55408535Y5615437D01*
X55403958Y5611981D01*
X55253237Y5474582D01*
X55130327Y5311822D01*
X55039422Y5129261D01*
X55039417Y5129248D01*
X54983602Y4933083D01*
X54964785Y4730001D01*
X54964785Y4730000D01*
X54983602Y4526918D01*
X55039417Y4330753D01*
X55039422Y4330740D01*
X55130327Y4148179D01*
X55253237Y3985419D01*
X55403958Y3848020D01*
X55403960Y3848018D01*
X55451634Y3818500D01*
X55577363Y3740652D01*
X55767544Y3666976D01*
X55968024Y3629500D01*
X55968026Y3629500D01*
X56171974Y3629500D01*
X56171976Y3629500D01*
X56372456Y3666976D01*
X56562637Y3740652D01*
X56736041Y3848019D01*
X56886764Y3985421D01*
X57009673Y4148179D01*
X57100582Y4330750D01*
X57156397Y4526917D01*
X57175215Y4730000D01*
X57156397Y4933083D01*
X57100582Y5129250D01*
X57063765Y5203188D01*
X57056272Y5218236D01*
X57009673Y5311821D01*
X56886764Y5474579D01*
X56886762Y5474582D01*
X56736041Y5611981D01*
X56731465Y5615437D01*
X56732768Y5617164D01*
X56692491Y5662093D01*
X56681382Y5731074D01*
X56709330Y5795110D01*
X56767463Y5833871D01*
X56804400Y5839500D01*
X57875600Y5839500D01*
X57942639Y5819815D01*
X57988394Y5767011D01*
X57998338Y5697853D01*
X57969313Y5634297D01*
X57948001Y5616144D01*
X57948535Y5615437D01*
X57943958Y5611981D01*
X57793237Y5474582D01*
X57670327Y5311822D01*
X57579422Y5129261D01*
X57579417Y5129248D01*
X57523602Y4933083D01*
X57504785Y4730001D01*
X57504785Y4730000D01*
X57523602Y4526918D01*
X57579417Y4330753D01*
X57579422Y4330740D01*
X57670327Y4148179D01*
X57793237Y3985419D01*
X57943958Y3848020D01*
X57943960Y3848018D01*
X57991634Y3818500D01*
X58117363Y3740652D01*
X58307544Y3666976D01*
X58508024Y3629500D01*
X58508026Y3629500D01*
X58711974Y3629500D01*
X58711976Y3629500D01*
X58912456Y3666976D01*
X59102637Y3740652D01*
X59276041Y3848019D01*
X59426764Y3985421D01*
X59549673Y4148179D01*
X59640582Y4330750D01*
X59696397Y4526917D01*
X59715215Y4730000D01*
X59696397Y4933083D01*
X59640582Y5129250D01*
X59603765Y5203188D01*
X59596272Y5218236D01*
X59549673Y5311821D01*
X59426764Y5474579D01*
X59426762Y5474582D01*
X59276041Y5611981D01*
X59271465Y5615437D01*
X59272768Y5617164D01*
X59232491Y5662093D01*
X59221382Y5731074D01*
X59249330Y5795110D01*
X59307463Y5833871D01*
X59344400Y5839500D01*
X60415600Y5839500D01*
X60482639Y5819815D01*
X60528394Y5767011D01*
X60538338Y5697853D01*
X60509313Y5634297D01*
X60488001Y5616144D01*
X60488535Y5615437D01*
X60483958Y5611981D01*
X60333237Y5474582D01*
X60210327Y5311822D01*
X60119422Y5129261D01*
X60119417Y5129248D01*
X60063602Y4933083D01*
X60044785Y4730001D01*
X60044785Y4730000D01*
X60063602Y4526918D01*
X60119417Y4330753D01*
X60119422Y4330740D01*
X60210327Y4148179D01*
X60333237Y3985419D01*
X60483958Y3848020D01*
X60483960Y3848018D01*
X60531634Y3818500D01*
X60657363Y3740652D01*
X60847544Y3666976D01*
X61048024Y3629500D01*
X61048026Y3629500D01*
X61251974Y3629500D01*
X61251976Y3629500D01*
X61452456Y3666976D01*
X61642637Y3740652D01*
X61816041Y3848019D01*
X61966764Y3985421D01*
X62089673Y4148179D01*
X62180582Y4330750D01*
X62236397Y4526917D01*
X62255215Y4730000D01*
X62236397Y4933083D01*
X62180582Y5129250D01*
X62143765Y5203188D01*
X62136272Y5218236D01*
X62089673Y5311821D01*
X61966764Y5474579D01*
X61966762Y5474582D01*
X61816041Y5611981D01*
X61811465Y5615437D01*
X61812768Y5617164D01*
X61772491Y5662093D01*
X61761382Y5731074D01*
X61789330Y5795110D01*
X61847463Y5833871D01*
X61884400Y5839500D01*
X62955600Y5839500D01*
X63022639Y5819815D01*
X63068394Y5767011D01*
X63078338Y5697853D01*
X63049313Y5634297D01*
X63028001Y5616144D01*
X63028535Y5615437D01*
X63023958Y5611981D01*
X62873237Y5474582D01*
X62750327Y5311822D01*
X62659422Y5129261D01*
X62659417Y5129248D01*
X62603602Y4933083D01*
X62584785Y4730001D01*
X62584785Y4730000D01*
X62603602Y4526918D01*
X62659417Y4330753D01*
X62659422Y4330740D01*
X62750327Y4148179D01*
X62873237Y3985419D01*
X63023958Y3848020D01*
X63023960Y3848018D01*
X63071634Y3818500D01*
X63197363Y3740652D01*
X63387544Y3666976D01*
X63588024Y3629500D01*
X63588026Y3629500D01*
X63791974Y3629500D01*
X63791976Y3629500D01*
X63992456Y3666976D01*
X64182637Y3740652D01*
X64356041Y3848019D01*
X64506764Y3985421D01*
X64629673Y4148179D01*
X64720582Y4330750D01*
X64776397Y4526917D01*
X64795215Y4730000D01*
X64776397Y4933083D01*
X64720582Y5129250D01*
X64683765Y5203188D01*
X64676272Y5218236D01*
X64629673Y5311821D01*
X64506764Y5474579D01*
X64506762Y5474582D01*
X64356041Y5611981D01*
X64351465Y5615437D01*
X64352768Y5617164D01*
X64312491Y5662093D01*
X64301382Y5731074D01*
X64329330Y5795110D01*
X64387463Y5833871D01*
X64424400Y5839500D01*
X65495600Y5839500D01*
X65562639Y5819815D01*
X65608394Y5767011D01*
X65618338Y5697853D01*
X65589313Y5634297D01*
X65568001Y5616144D01*
X65568535Y5615437D01*
X65563958Y5611981D01*
X65413237Y5474582D01*
X65290327Y5311822D01*
X65199422Y5129261D01*
X65199417Y5129248D01*
X65143602Y4933083D01*
X65124785Y4730001D01*
X65124785Y4730000D01*
X65143602Y4526918D01*
X65199417Y4330753D01*
X65199422Y4330740D01*
X65290327Y4148179D01*
X65413237Y3985419D01*
X65563958Y3848020D01*
X65563960Y3848018D01*
X65611634Y3818500D01*
X65737363Y3740652D01*
X65927544Y3666976D01*
X66128024Y3629500D01*
X66128026Y3629500D01*
X66331974Y3629500D01*
X66331976Y3629500D01*
X66532456Y3666976D01*
X66722637Y3740652D01*
X66896041Y3848019D01*
X67046764Y3985421D01*
X67169673Y4148179D01*
X67260582Y4330750D01*
X67316397Y4526917D01*
X67335215Y4730000D01*
X67316397Y4933083D01*
X67260582Y5129250D01*
X67223765Y5203188D01*
X67216272Y5218236D01*
X67169673Y5311821D01*
X67046764Y5474579D01*
X67046762Y5474582D01*
X66896041Y5611981D01*
X66891465Y5615437D01*
X66892768Y5617164D01*
X66852491Y5662093D01*
X66841382Y5731074D01*
X66869330Y5795110D01*
X66927463Y5833871D01*
X66964400Y5839500D01*
X68035600Y5839500D01*
X68102639Y5819815D01*
X68148394Y5767011D01*
X68158338Y5697853D01*
X68129313Y5634297D01*
X68108001Y5616144D01*
X68108535Y5615437D01*
X68103958Y5611981D01*
X67953237Y5474582D01*
X67830327Y5311822D01*
X67739422Y5129261D01*
X67739417Y5129248D01*
X67683602Y4933083D01*
X67664785Y4730001D01*
X67664785Y4730000D01*
X67683602Y4526918D01*
X67739417Y4330753D01*
X67739422Y4330740D01*
X67830327Y4148179D01*
X67953237Y3985419D01*
X68103958Y3848020D01*
X68103960Y3848018D01*
X68151634Y3818500D01*
X68277363Y3740652D01*
X68467544Y3666976D01*
X68668024Y3629500D01*
X68668026Y3629500D01*
X68871974Y3629500D01*
X68871976Y3629500D01*
X69072456Y3666976D01*
X69262637Y3740652D01*
X69436041Y3848019D01*
X69586764Y3985421D01*
X69709673Y4148179D01*
X69800582Y4330750D01*
X69856397Y4526917D01*
X69875215Y4730000D01*
X69856397Y4933083D01*
X69800582Y5129250D01*
X69763765Y5203188D01*
X69756272Y5218236D01*
X69709673Y5311821D01*
X69586764Y5474579D01*
X69586762Y5474582D01*
X69436041Y5611981D01*
X69431465Y5615437D01*
X69432768Y5617164D01*
X69392491Y5662093D01*
X69381382Y5731074D01*
X69409330Y5795110D01*
X69467463Y5833871D01*
X69504400Y5839500D01*
X70575600Y5839500D01*
X70642639Y5819815D01*
X70688394Y5767011D01*
X70698338Y5697853D01*
X70669313Y5634297D01*
X70648001Y5616144D01*
X70648535Y5615437D01*
X70643958Y5611981D01*
X70493237Y5474582D01*
X70370327Y5311822D01*
X70279422Y5129261D01*
X70279417Y5129248D01*
X70223602Y4933083D01*
X70204785Y4730001D01*
X70204785Y4730000D01*
X70223602Y4526918D01*
X70279417Y4330753D01*
X70279422Y4330740D01*
X70370327Y4148179D01*
X70493237Y3985419D01*
X70643958Y3848020D01*
X70643960Y3848018D01*
X70691634Y3818500D01*
X70817363Y3740652D01*
X71007544Y3666976D01*
X71208024Y3629500D01*
X71208026Y3629500D01*
X71411974Y3629500D01*
X71411976Y3629500D01*
X71612456Y3666976D01*
X71802637Y3740652D01*
X71976041Y3848019D01*
X72126764Y3985421D01*
X72249673Y4148179D01*
X72340582Y4330750D01*
X72396397Y4526917D01*
X72415215Y4730000D01*
X72396397Y4933083D01*
X72340582Y5129250D01*
X72303765Y5203188D01*
X72296272Y5218236D01*
X72249673Y5311821D01*
X72126764Y5474579D01*
X72126762Y5474582D01*
X71976041Y5611981D01*
X71971465Y5615437D01*
X71972768Y5617164D01*
X71932491Y5662093D01*
X71921382Y5731074D01*
X71949330Y5795110D01*
X72007463Y5833871D01*
X72044400Y5839500D01*
X73115600Y5839500D01*
X73182639Y5819815D01*
X73228394Y5767011D01*
X73238338Y5697853D01*
X73209313Y5634297D01*
X73188001Y5616144D01*
X73188535Y5615437D01*
X73183958Y5611981D01*
X73033237Y5474582D01*
X72910327Y5311822D01*
X72819422Y5129261D01*
X72819417Y5129248D01*
X72763602Y4933083D01*
X72744785Y4730001D01*
X72744785Y4730000D01*
X72763602Y4526918D01*
X72819417Y4330753D01*
X72819422Y4330740D01*
X72910327Y4148179D01*
X73033237Y3985419D01*
X73183958Y3848020D01*
X73183960Y3848018D01*
X73231634Y3818500D01*
X73357363Y3740652D01*
X73547544Y3666976D01*
X73748024Y3629500D01*
X73748026Y3629500D01*
X73951974Y3629500D01*
X73951976Y3629500D01*
X74152456Y3666976D01*
X74342637Y3740652D01*
X74516041Y3848019D01*
X74666764Y3985421D01*
X74789673Y4148179D01*
X74880582Y4330750D01*
X74936397Y4526917D01*
X74955215Y4730000D01*
X74936397Y4933083D01*
X74880582Y5129250D01*
X74843765Y5203188D01*
X74836272Y5218236D01*
X74789673Y5311821D01*
X74666764Y5474579D01*
X74666762Y5474582D01*
X74602896Y5532803D01*
X74566614Y5592514D01*
X74568375Y5662362D01*
X74607618Y5720169D01*
X74671885Y5747584D01*
X74713269Y5745502D01*
X75013993Y5678833D01*
X75024405Y5676044D01*
X75409279Y5554693D01*
X75419414Y5551004D01*
X75792232Y5396577D01*
X75802024Y5392011D01*
X75850519Y5366766D01*
X76159942Y5205691D01*
X76169309Y5200284D01*
X76280812Y5129248D01*
X76509638Y4983470D01*
X76518499Y4977265D01*
X76838627Y4731622D01*
X76846914Y4724668D01*
X77144412Y4452062D01*
X77152061Y4444413D01*
X77424667Y4146915D01*
X77431621Y4138628D01*
X77677264Y3818500D01*
X77683469Y3809639D01*
X77900282Y3469311D01*
X77905690Y3459943D01*
X78092007Y3102031D01*
X78096579Y3092227D01*
X78250997Y2719430D01*
X78254697Y2709264D01*
X78354797Y2391787D01*
X78356183Y2321932D01*
X78319581Y2262416D01*
X78256614Y2232136D01*
X78236536Y2230500D01*
X76555323Y2230500D01*
X76482264Y2215968D01*
X76482260Y2215967D01*
X76399399Y2160601D01*
X76344033Y2077740D01*
X76344032Y2077736D01*
X76329500Y2004679D01*
X76329500Y255322D01*
X76344032Y182265D01*
X76344033Y182261D01*
X76344034Y182260D01*
X76399399Y99399D01*
X76477083Y47493D01*
X76482260Y44034D01*
X76482264Y44033D01*
X76555321Y29501D01*
X76555324Y29500D01*
X76555326Y29500D01*
X78304676Y29500D01*
X78304677Y29501D01*
X78321719Y32891D01*
X78389719Y46416D01*
X78390511Y42432D01*
X78437490Y47493D01*
X78499976Y16231D01*
X78535642Y-43850D01*
X78539500Y-74542D01*
X78539500Y-683100D01*
X78519815Y-750139D01*
X78467011Y-795894D01*
X78397853Y-805838D01*
X78334297Y-776813D01*
X78316546Y-757827D01*
X78289742Y-722333D01*
X78246764Y-665421D01*
X78096041Y-528019D01*
X78096039Y-528017D01*
X77922642Y-420655D01*
X77922635Y-420651D01*
X77827546Y-383814D01*
X77732456Y-346976D01*
X77531976Y-309500D01*
X77328024Y-309500D01*
X77127544Y-346976D01*
X77127541Y-346976D01*
X77127541Y-346977D01*
X76937364Y-420651D01*
X76937357Y-420655D01*
X76763960Y-528017D01*
X76763958Y-528019D01*
X76613237Y-665418D01*
X76490327Y-828178D01*
X76399422Y-1010739D01*
X76399417Y-1010752D01*
X76343602Y-1206917D01*
X76324785Y-1409999D01*
X76324785Y-1410000D01*
X76343602Y-1613082D01*
X76399417Y-1809247D01*
X76399422Y-1809260D01*
X76490327Y-1991821D01*
X76613237Y-2154581D01*
X76763958Y-2291980D01*
X76763960Y-2291982D01*
X76863141Y-2353392D01*
X76937363Y-2399348D01*
X77127544Y-2473024D01*
X77328024Y-2510500D01*
X77328026Y-2510500D01*
X77531974Y-2510500D01*
X77531976Y-2510500D01*
X77732456Y-2473024D01*
X77922637Y-2399348D01*
X78096041Y-2291981D01*
X78246764Y-2154579D01*
X78316546Y-2062173D01*
X78372654Y-2020536D01*
X78442366Y-2015844D01*
X78503548Y-2049587D01*
X78536776Y-2111050D01*
X78539500Y-2136899D01*
X78539500Y-3223100D01*
X78519815Y-3290139D01*
X78467011Y-3335894D01*
X78397853Y-3345838D01*
X78334297Y-3316813D01*
X78316546Y-3297827D01*
X78289742Y-3262333D01*
X78246764Y-3205421D01*
X78147528Y-3114956D01*
X78096041Y-3068019D01*
X78096039Y-3068017D01*
X77922642Y-2960655D01*
X77922635Y-2960651D01*
X77827546Y-2923814D01*
X77732456Y-2886976D01*
X77531976Y-2849500D01*
X77328024Y-2849500D01*
X77127544Y-2886976D01*
X77127541Y-2886976D01*
X77127541Y-2886977D01*
X76937364Y-2960651D01*
X76937357Y-2960655D01*
X76763960Y-3068017D01*
X76763958Y-3068019D01*
X76613237Y-3205418D01*
X76490327Y-3368178D01*
X76399422Y-3550739D01*
X76399417Y-3550752D01*
X76343602Y-3746917D01*
X76324785Y-3949999D01*
X76324785Y-3950000D01*
X76343602Y-4153082D01*
X76399417Y-4349247D01*
X76399422Y-4349260D01*
X76490327Y-4531821D01*
X76613237Y-4694581D01*
X76763958Y-4831980D01*
X76763960Y-4831982D01*
X76856856Y-4889500D01*
X76937363Y-4939348D01*
X77127544Y-5013024D01*
X77328024Y-5050500D01*
X77328026Y-5050500D01*
X77531974Y-5050500D01*
X77531976Y-5050500D01*
X77732456Y-5013024D01*
X77922637Y-4939348D01*
X78096041Y-4831981D01*
X78246764Y-4694579D01*
X78316546Y-4602173D01*
X78372654Y-4560536D01*
X78442366Y-4555844D01*
X78503548Y-4589587D01*
X78536776Y-4651050D01*
X78539500Y-4676899D01*
X78539500Y-5763100D01*
X78519815Y-5830139D01*
X78467011Y-5875894D01*
X78397853Y-5885838D01*
X78334297Y-5856813D01*
X78316546Y-5837827D01*
X78285432Y-5796626D01*
X78246764Y-5745421D01*
X78096041Y-5608019D01*
X78096039Y-5608017D01*
X77922642Y-5500655D01*
X77922635Y-5500651D01*
X77827546Y-5463814D01*
X77732456Y-5426976D01*
X77531976Y-5389500D01*
X77328024Y-5389500D01*
X77127544Y-5426976D01*
X77127541Y-5426976D01*
X77127541Y-5426977D01*
X76937364Y-5500651D01*
X76937357Y-5500655D01*
X76763960Y-5608017D01*
X76763958Y-5608019D01*
X76613237Y-5745418D01*
X76490327Y-5908178D01*
X76399422Y-6090739D01*
X76399417Y-6090752D01*
X76343602Y-6286917D01*
X76324785Y-6489999D01*
X76324785Y-6490000D01*
X76343602Y-6693082D01*
X76399417Y-6889247D01*
X76399422Y-6889260D01*
X76490327Y-7071821D01*
X76613237Y-7234581D01*
X76747198Y-7356701D01*
X76761735Y-7369954D01*
X76763958Y-7371980D01*
X76763960Y-7371982D01*
X76812679Y-7402147D01*
X76937363Y-7479348D01*
X77127544Y-7553024D01*
X77328024Y-7590500D01*
X77328026Y-7590500D01*
X77531974Y-7590500D01*
X77531976Y-7590500D01*
X77732456Y-7553024D01*
X77922637Y-7479348D01*
X78096041Y-7371981D01*
X78246764Y-7234579D01*
X78316546Y-7142173D01*
X78372654Y-7100536D01*
X78442366Y-7095844D01*
X78503548Y-7129587D01*
X78536776Y-7191050D01*
X78539500Y-7216899D01*
X78539500Y-8303100D01*
X78519815Y-8370139D01*
X78467011Y-8415894D01*
X78397853Y-8425838D01*
X78334297Y-8396813D01*
X78316546Y-8377827D01*
X78278100Y-8326917D01*
X78246764Y-8285421D01*
X78096041Y-8148019D01*
X78096039Y-8148017D01*
X77922642Y-8040655D01*
X77922635Y-8040651D01*
X77733811Y-7967501D01*
X77732456Y-7966976D01*
X77531976Y-7929500D01*
X77328024Y-7929500D01*
X77127544Y-7966976D01*
X77127541Y-7966976D01*
X77127541Y-7966977D01*
X76937364Y-8040651D01*
X76937357Y-8040655D01*
X76763960Y-8148017D01*
X76763958Y-8148019D01*
X76613237Y-8285418D01*
X76490327Y-8448178D01*
X76399422Y-8630739D01*
X76399417Y-8630752D01*
X76343602Y-8826917D01*
X76324785Y-9029999D01*
X76324785Y-9030000D01*
X76343602Y-9233082D01*
X76399417Y-9429247D01*
X76399422Y-9429260D01*
X76490327Y-9611821D01*
X76613237Y-9774581D01*
X76763958Y-9911980D01*
X76763960Y-9911982D01*
X76856856Y-9969500D01*
X76937363Y-10019348D01*
X77127544Y-10093024D01*
X77328024Y-10130500D01*
X77328026Y-10130500D01*
X77531974Y-10130500D01*
X77531976Y-10130500D01*
X77732456Y-10093024D01*
X77922637Y-10019348D01*
X78096041Y-9911981D01*
X78246764Y-9774579D01*
X78316546Y-9682173D01*
X78372654Y-9640536D01*
X78442366Y-9635844D01*
X78503548Y-9669587D01*
X78536776Y-9731050D01*
X78539500Y-9756899D01*
X78539500Y-10843100D01*
X78519815Y-10910139D01*
X78467011Y-10955894D01*
X78397853Y-10965838D01*
X78334297Y-10936813D01*
X78316546Y-10917827D01*
X78278100Y-10866917D01*
X78246764Y-10825421D01*
X78096041Y-10688019D01*
X78096039Y-10688017D01*
X77922642Y-10580655D01*
X77922635Y-10580651D01*
X77827546Y-10543814D01*
X77732456Y-10506976D01*
X77531976Y-10469500D01*
X77328024Y-10469500D01*
X77127544Y-10506976D01*
X77127541Y-10506976D01*
X77127541Y-10506977D01*
X76937364Y-10580651D01*
X76937357Y-10580655D01*
X76763960Y-10688017D01*
X76763958Y-10688019D01*
X76613237Y-10825418D01*
X76490327Y-10988178D01*
X76399422Y-11170739D01*
X76399417Y-11170752D01*
X76343602Y-11366917D01*
X76324785Y-11569999D01*
X76324785Y-11570000D01*
X76343602Y-11773082D01*
X76399417Y-11969247D01*
X76399422Y-11969260D01*
X76490327Y-12151821D01*
X76613237Y-12314581D01*
X76763958Y-12451980D01*
X76763960Y-12451982D01*
X76831796Y-12493984D01*
X76937363Y-12559348D01*
X77127544Y-12633024D01*
X77328024Y-12670500D01*
X77328026Y-12670500D01*
X77531974Y-12670500D01*
X77531976Y-12670500D01*
X77732456Y-12633024D01*
X77922637Y-12559348D01*
X78096041Y-12451981D01*
X78246764Y-12314579D01*
X78316546Y-12222173D01*
X78372654Y-12180536D01*
X78442366Y-12175844D01*
X78503548Y-12209587D01*
X78536776Y-12271050D01*
X78539500Y-12296899D01*
X78539500Y-13383100D01*
X78519815Y-13450139D01*
X78467011Y-13495894D01*
X78397853Y-13505838D01*
X78334297Y-13476813D01*
X78316546Y-13457827D01*
X78278100Y-13406917D01*
X78246764Y-13365421D01*
X78177296Y-13302093D01*
X78096041Y-13228019D01*
X78096039Y-13228017D01*
X77922642Y-13120655D01*
X77922635Y-13120651D01*
X77772417Y-13062457D01*
X77732456Y-13046976D01*
X77531976Y-13009500D01*
X77328024Y-13009500D01*
X77127544Y-13046976D01*
X77127541Y-13046976D01*
X77127541Y-13046977D01*
X76937364Y-13120651D01*
X76937357Y-13120655D01*
X76763960Y-13228017D01*
X76763958Y-13228019D01*
X76613237Y-13365418D01*
X76490327Y-13528178D01*
X76399422Y-13710739D01*
X76399417Y-13710752D01*
X76343602Y-13906917D01*
X76324785Y-14109999D01*
X76324785Y-14110000D01*
X76343602Y-14313082D01*
X76399417Y-14509247D01*
X76399422Y-14509260D01*
X76490327Y-14691821D01*
X76613237Y-14854581D01*
X76763958Y-14991980D01*
X76763960Y-14991982D01*
X76863141Y-15053392D01*
X76937363Y-15099348D01*
X77127544Y-15173024D01*
X77328024Y-15210500D01*
X77328026Y-15210500D01*
X77531974Y-15210500D01*
X77531976Y-15210500D01*
X77732456Y-15173024D01*
X77922637Y-15099348D01*
X78096041Y-14991981D01*
X78246764Y-14854579D01*
X78316546Y-14762173D01*
X78372654Y-14720536D01*
X78442366Y-14715844D01*
X78503548Y-14749587D01*
X78536776Y-14811050D01*
X78539500Y-14836899D01*
X78539500Y-15923100D01*
X78519815Y-15990139D01*
X78467011Y-16035894D01*
X78397853Y-16045838D01*
X78334297Y-16016813D01*
X78316546Y-15997827D01*
X78289742Y-15962333D01*
X78246764Y-15905421D01*
X78096041Y-15768019D01*
X78096039Y-15768017D01*
X77922642Y-15660655D01*
X77922635Y-15660651D01*
X77754322Y-15595447D01*
X77732456Y-15586976D01*
X77531976Y-15549500D01*
X77328024Y-15549500D01*
X77127544Y-15586976D01*
X77127541Y-15586976D01*
X77127541Y-15586977D01*
X76937364Y-15660651D01*
X76937357Y-15660655D01*
X76763960Y-15768017D01*
X76763958Y-15768019D01*
X76613237Y-15905418D01*
X76490327Y-16068178D01*
X76399422Y-16250739D01*
X76399417Y-16250752D01*
X76343602Y-16446917D01*
X76324785Y-16649999D01*
X76324785Y-16650000D01*
X76343602Y-16853082D01*
X76399417Y-17049247D01*
X76399422Y-17049260D01*
X76490327Y-17231821D01*
X76613237Y-17394581D01*
X76763958Y-17531980D01*
X76763960Y-17531982D01*
X76766189Y-17533362D01*
X76937363Y-17639348D01*
X77127544Y-17713024D01*
X77328024Y-17750500D01*
X77328026Y-17750500D01*
X77531974Y-17750500D01*
X77531976Y-17750500D01*
X77732456Y-17713024D01*
X77922637Y-17639348D01*
X78096041Y-17531981D01*
X78246764Y-17394579D01*
X78316546Y-17302173D01*
X78372654Y-17260536D01*
X78442366Y-17255844D01*
X78503548Y-17289587D01*
X78536776Y-17351050D01*
X78539500Y-17376899D01*
X78539500Y-18463100D01*
X78519815Y-18530139D01*
X78467011Y-18575894D01*
X78397853Y-18585838D01*
X78334297Y-18556813D01*
X78316546Y-18537827D01*
X78289742Y-18502333D01*
X78246764Y-18445421D01*
X78096041Y-18308019D01*
X78096039Y-18308017D01*
X77922642Y-18200655D01*
X77922635Y-18200651D01*
X77770964Y-18141894D01*
X77732456Y-18126976D01*
X77531976Y-18089500D01*
X77328024Y-18089500D01*
X77127544Y-18126976D01*
X77127541Y-18126976D01*
X77127541Y-18126977D01*
X76937364Y-18200651D01*
X76937357Y-18200655D01*
X76763960Y-18308017D01*
X76763958Y-18308019D01*
X76613237Y-18445418D01*
X76490327Y-18608178D01*
X76399422Y-18790739D01*
X76399417Y-18790752D01*
X76343602Y-18986917D01*
X76324785Y-19189999D01*
X76324785Y-19190000D01*
X76343602Y-19393082D01*
X76399417Y-19589247D01*
X76399422Y-19589260D01*
X76490327Y-19771821D01*
X76613237Y-19934581D01*
X76763958Y-20071980D01*
X76763960Y-20071982D01*
X76797027Y-20092456D01*
X76937363Y-20179348D01*
X77127544Y-20253024D01*
X77328024Y-20290500D01*
X77328026Y-20290500D01*
X77531974Y-20290500D01*
X77531976Y-20290500D01*
X77732456Y-20253024D01*
X77922637Y-20179348D01*
X78096041Y-20071981D01*
X78246764Y-19934579D01*
X78316546Y-19842173D01*
X78372654Y-19800536D01*
X78442366Y-19795844D01*
X78503548Y-19829587D01*
X78536776Y-19891050D01*
X78539500Y-19916899D01*
X78539500Y-21003100D01*
X78519815Y-21070139D01*
X78467011Y-21115894D01*
X78397853Y-21125838D01*
X78334297Y-21096813D01*
X78316546Y-21077827D01*
X78289742Y-21042333D01*
X78246764Y-20985421D01*
X78096041Y-20848019D01*
X78096039Y-20848017D01*
X77922642Y-20740655D01*
X77922635Y-20740651D01*
X77827546Y-20703814D01*
X77732456Y-20666976D01*
X77531976Y-20629500D01*
X77328024Y-20629500D01*
X77127544Y-20666976D01*
X77127541Y-20666976D01*
X77127541Y-20666977D01*
X76937364Y-20740651D01*
X76937357Y-20740655D01*
X76763960Y-20848017D01*
X76763958Y-20848019D01*
X76613237Y-20985418D01*
X76490327Y-21148178D01*
X76399422Y-21330739D01*
X76399417Y-21330752D01*
X76343602Y-21526917D01*
X76324785Y-21729999D01*
X76324785Y-21730000D01*
X76343602Y-21933082D01*
X76399417Y-22129247D01*
X76399422Y-22129260D01*
X76490327Y-22311821D01*
X76613237Y-22474581D01*
X76763958Y-22611980D01*
X76763960Y-22611982D01*
X76863141Y-22673392D01*
X76937363Y-22719348D01*
X77127544Y-22793024D01*
X77328024Y-22830500D01*
X77328026Y-22830500D01*
X77531974Y-22830500D01*
X77531976Y-22830500D01*
X77732456Y-22793024D01*
X77922637Y-22719348D01*
X78096041Y-22611981D01*
X78246764Y-22474579D01*
X78290422Y-22416766D01*
X78316546Y-22382173D01*
X78372654Y-22340536D01*
X78442366Y-22335844D01*
X78503548Y-22369587D01*
X78536776Y-22431050D01*
X78539500Y-22456899D01*
X78539500Y-23543100D01*
X78519815Y-23610139D01*
X78467011Y-23655894D01*
X78397853Y-23665838D01*
X78334297Y-23636813D01*
X78316546Y-23617827D01*
X78270713Y-23557135D01*
X78246764Y-23525421D01*
X78096041Y-23388019D01*
X78096039Y-23388017D01*
X77922642Y-23280655D01*
X77922635Y-23280651D01*
X77827546Y-23243814D01*
X77732456Y-23206976D01*
X77531976Y-23169500D01*
X77328024Y-23169500D01*
X77127544Y-23206976D01*
X77127541Y-23206976D01*
X77127541Y-23206977D01*
X76937364Y-23280651D01*
X76937357Y-23280655D01*
X76763960Y-23388017D01*
X76763958Y-23388019D01*
X76613237Y-23525418D01*
X76490327Y-23688178D01*
X76399422Y-23870739D01*
X76399417Y-23870752D01*
X76343602Y-24066917D01*
X76324785Y-24269999D01*
X76324785Y-24270000D01*
X76343602Y-24473082D01*
X76399417Y-24669247D01*
X76399422Y-24669260D01*
X76490327Y-24851821D01*
X76613237Y-25014581D01*
X76763958Y-25151980D01*
X76763960Y-25151982D01*
X76821500Y-25187609D01*
X76937363Y-25259348D01*
X77127544Y-25333024D01*
X77328024Y-25370500D01*
X77328026Y-25370500D01*
X77531974Y-25370500D01*
X77531976Y-25370500D01*
X77732456Y-25333024D01*
X77922637Y-25259348D01*
X78096041Y-25151981D01*
X78246764Y-25014579D01*
X78316546Y-24922173D01*
X78372654Y-24880536D01*
X78442366Y-24875844D01*
X78503548Y-24909587D01*
X78536776Y-24971050D01*
X78539500Y-24996899D01*
X78539500Y-26083100D01*
X78519815Y-26150139D01*
X78467011Y-26195894D01*
X78397853Y-26205838D01*
X78334297Y-26176813D01*
X78316546Y-26157827D01*
X78289742Y-26122333D01*
X78246764Y-26065421D01*
X78096041Y-25928019D01*
X78096039Y-25928017D01*
X77922642Y-25820655D01*
X77922635Y-25820651D01*
X77826202Y-25783293D01*
X77732456Y-25746976D01*
X77531976Y-25709500D01*
X77328024Y-25709500D01*
X77127544Y-25746976D01*
X77127541Y-25746976D01*
X77127541Y-25746977D01*
X76937364Y-25820651D01*
X76937357Y-25820655D01*
X76763960Y-25928017D01*
X76763958Y-25928019D01*
X76613237Y-26065418D01*
X76490327Y-26228178D01*
X76399422Y-26410739D01*
X76399417Y-26410752D01*
X76343602Y-26606917D01*
X76324785Y-26809999D01*
X76324785Y-26810000D01*
X76343602Y-27013082D01*
X76399417Y-27209247D01*
X76399422Y-27209260D01*
X76490327Y-27391821D01*
X76613237Y-27554581D01*
X76763958Y-27691980D01*
X76763960Y-27691982D01*
X76863141Y-27753392D01*
X76937363Y-27799348D01*
X77127544Y-27873024D01*
X77328024Y-27910500D01*
X77328026Y-27910500D01*
X77531974Y-27910500D01*
X77531976Y-27910500D01*
X77732456Y-27873024D01*
X77922637Y-27799348D01*
X78096041Y-27691981D01*
X78246764Y-27554579D01*
X78316546Y-27462173D01*
X78372654Y-27420536D01*
X78442366Y-27415844D01*
X78503548Y-27449587D01*
X78536776Y-27511050D01*
X78539500Y-27536899D01*
X78539500Y-28623100D01*
X78519815Y-28690139D01*
X78467011Y-28735894D01*
X78397853Y-28745838D01*
X78334297Y-28716813D01*
X78316546Y-28697827D01*
X78289742Y-28662333D01*
X78246764Y-28605421D01*
X78096041Y-28468019D01*
X78096039Y-28468017D01*
X77922642Y-28360655D01*
X77922635Y-28360651D01*
X77827546Y-28323814D01*
X77732456Y-28286976D01*
X77531976Y-28249500D01*
X77328024Y-28249500D01*
X77127544Y-28286976D01*
X77127541Y-28286976D01*
X77127541Y-28286977D01*
X76937364Y-28360651D01*
X76937357Y-28360655D01*
X76763960Y-28468017D01*
X76763958Y-28468019D01*
X76613237Y-28605418D01*
X76490327Y-28768178D01*
X76399422Y-28950739D01*
X76399417Y-28950752D01*
X76343602Y-29146917D01*
X76324785Y-29349999D01*
X76324785Y-29350000D01*
X76343602Y-29553082D01*
X76399417Y-29749247D01*
X76399422Y-29749260D01*
X76490327Y-29931821D01*
X76613237Y-30094581D01*
X76763958Y-30231980D01*
X76763960Y-30231982D01*
X76863141Y-30293392D01*
X76937363Y-30339348D01*
X77127544Y-30413024D01*
X77328024Y-30450500D01*
X77328026Y-30450500D01*
X77531974Y-30450500D01*
X77531976Y-30450500D01*
X77732456Y-30413024D01*
X77922637Y-30339348D01*
X78096041Y-30231981D01*
X78246764Y-30094579D01*
X78316546Y-30002173D01*
X78372654Y-29960536D01*
X78442366Y-29955844D01*
X78503548Y-29989587D01*
X78536776Y-30051050D01*
X78539500Y-30076899D01*
X78539500Y-31163100D01*
X78519815Y-31230139D01*
X78467011Y-31275894D01*
X78397853Y-31285838D01*
X78334297Y-31256813D01*
X78316546Y-31237827D01*
X78281726Y-31191718D01*
X78246764Y-31145421D01*
X78096041Y-31008019D01*
X78096039Y-31008017D01*
X77922642Y-30900655D01*
X77922635Y-30900651D01*
X77827546Y-30863814D01*
X77732456Y-30826976D01*
X77531976Y-30789500D01*
X77328024Y-30789500D01*
X77127544Y-30826976D01*
X77127541Y-30826976D01*
X77127541Y-30826977D01*
X76937364Y-30900651D01*
X76937357Y-30900655D01*
X76763960Y-31008017D01*
X76763958Y-31008019D01*
X76613237Y-31145418D01*
X76490327Y-31308178D01*
X76399422Y-31490739D01*
X76399417Y-31490752D01*
X76343602Y-31686917D01*
X76324785Y-31889999D01*
X76324785Y-31890000D01*
X76343602Y-32093082D01*
X76399417Y-32289247D01*
X76399422Y-32289260D01*
X76490327Y-32471821D01*
X76613237Y-32634581D01*
X76763958Y-32771980D01*
X76763960Y-32771982D01*
X76803628Y-32796543D01*
X76937363Y-32879348D01*
X77127544Y-32953024D01*
X77328024Y-32990500D01*
X77328026Y-32990500D01*
X77531974Y-32990500D01*
X77531976Y-32990500D01*
X77732456Y-32953024D01*
X77922637Y-32879348D01*
X78096041Y-32771981D01*
X78246764Y-32634579D01*
X78310256Y-32550502D01*
X78316546Y-32542173D01*
X78372654Y-32500536D01*
X78442366Y-32495844D01*
X78503548Y-32529587D01*
X78536776Y-32591050D01*
X78539500Y-32616899D01*
X78539500Y-33703100D01*
X78519815Y-33770139D01*
X78467011Y-33815894D01*
X78397853Y-33825838D01*
X78334297Y-33796813D01*
X78316546Y-33777827D01*
X78289742Y-33742333D01*
X78246764Y-33685421D01*
X78096041Y-33548019D01*
X78096039Y-33548017D01*
X77922642Y-33440655D01*
X77922635Y-33440651D01*
X77827546Y-33403814D01*
X77732456Y-33366976D01*
X77531976Y-33329500D01*
X77328024Y-33329500D01*
X77127544Y-33366976D01*
X77127541Y-33366976D01*
X77127541Y-33366977D01*
X76937364Y-33440651D01*
X76937357Y-33440655D01*
X76763960Y-33548017D01*
X76763958Y-33548019D01*
X76613237Y-33685418D01*
X76490327Y-33848178D01*
X76399422Y-34030739D01*
X76399417Y-34030752D01*
X76343602Y-34226917D01*
X76324785Y-34429999D01*
X76324785Y-34430000D01*
X76343602Y-34633082D01*
X76399417Y-34829247D01*
X76399422Y-34829260D01*
X76490327Y-35011821D01*
X76613237Y-35174581D01*
X76763958Y-35311980D01*
X76763960Y-35311982D01*
X76863141Y-35373392D01*
X76937363Y-35419348D01*
X77127544Y-35493024D01*
X77328024Y-35530500D01*
X77328026Y-35530500D01*
X77531974Y-35530500D01*
X77531976Y-35530500D01*
X77732456Y-35493024D01*
X77922637Y-35419348D01*
X78096041Y-35311981D01*
X78246764Y-35174579D01*
X78316546Y-35082173D01*
X78372654Y-35040536D01*
X78442366Y-35035844D01*
X78503548Y-35069587D01*
X78536776Y-35131050D01*
X78539500Y-35156899D01*
X78539500Y-36243100D01*
X78519815Y-36310139D01*
X78467011Y-36355894D01*
X78397853Y-36365838D01*
X78334297Y-36336813D01*
X78316546Y-36317827D01*
X78280051Y-36269500D01*
X78246764Y-36225421D01*
X78096041Y-36088019D01*
X78096039Y-36088017D01*
X77922642Y-35980655D01*
X77922635Y-35980651D01*
X77827546Y-35943814D01*
X77732456Y-35906976D01*
X77531976Y-35869500D01*
X77328024Y-35869500D01*
X77127544Y-35906976D01*
X77127541Y-35906976D01*
X77127541Y-35906977D01*
X76937364Y-35980651D01*
X76937357Y-35980655D01*
X76763960Y-36088017D01*
X76763958Y-36088019D01*
X76613237Y-36225418D01*
X76490327Y-36388178D01*
X76399422Y-36570739D01*
X76399417Y-36570752D01*
X76343602Y-36766917D01*
X76324785Y-36969999D01*
X76324785Y-36970000D01*
X76343602Y-37173082D01*
X76399417Y-37369247D01*
X76399422Y-37369260D01*
X76490327Y-37551821D01*
X76613237Y-37714581D01*
X76763958Y-37851980D01*
X76763960Y-37851982D01*
X76863141Y-37913392D01*
X76937363Y-37959348D01*
X77127544Y-38033024D01*
X77328024Y-38070500D01*
X77328026Y-38070500D01*
X77531974Y-38070500D01*
X77531976Y-38070500D01*
X77732456Y-38033024D01*
X77922637Y-37959348D01*
X78096041Y-37851981D01*
X78246764Y-37714579D01*
X78316546Y-37622173D01*
X78372654Y-37580536D01*
X78442366Y-37575844D01*
X78503548Y-37609587D01*
X78536776Y-37671050D01*
X78539500Y-37696899D01*
X78539500Y-38783100D01*
X78519815Y-38850139D01*
X78467011Y-38895894D01*
X78397853Y-38905838D01*
X78334297Y-38876813D01*
X78316546Y-38857827D01*
X78289742Y-38822333D01*
X78246764Y-38765421D01*
X78096041Y-38628019D01*
X78096039Y-38628017D01*
X77922642Y-38520655D01*
X77922635Y-38520651D01*
X77793176Y-38470499D01*
X77732456Y-38446976D01*
X77531976Y-38409500D01*
X77328024Y-38409500D01*
X77127544Y-38446976D01*
X77127541Y-38446976D01*
X77127541Y-38446977D01*
X76937364Y-38520651D01*
X76937357Y-38520655D01*
X76763960Y-38628017D01*
X76763958Y-38628019D01*
X76613237Y-38765418D01*
X76490327Y-38928178D01*
X76399422Y-39110739D01*
X76399417Y-39110752D01*
X76343602Y-39306917D01*
X76324785Y-39509999D01*
X76324785Y-39510000D01*
X76343602Y-39713082D01*
X76399417Y-39909247D01*
X76399422Y-39909260D01*
X76490327Y-40091821D01*
X76613237Y-40254581D01*
X76763958Y-40391980D01*
X76763960Y-40391982D01*
X76863141Y-40453392D01*
X76937363Y-40499348D01*
X77127544Y-40573024D01*
X77328024Y-40610500D01*
X77328026Y-40610500D01*
X77531974Y-40610500D01*
X77531976Y-40610500D01*
X77732456Y-40573024D01*
X77922637Y-40499348D01*
X78096041Y-40391981D01*
X78246764Y-40254579D01*
X78316546Y-40162173D01*
X78372654Y-40120536D01*
X78442366Y-40115844D01*
X78503548Y-40149587D01*
X78536776Y-40211050D01*
X78539500Y-40236899D01*
X78539500Y-41323100D01*
X78519815Y-41390139D01*
X78467011Y-41435894D01*
X78397853Y-41445838D01*
X78334297Y-41416813D01*
X78316546Y-41397827D01*
X78289742Y-41362333D01*
X78246764Y-41305421D01*
X78096041Y-41168019D01*
X78096039Y-41168017D01*
X77922642Y-41060655D01*
X77922635Y-41060651D01*
X77827546Y-41023814D01*
X77732456Y-40986976D01*
X77531976Y-40949500D01*
X77328024Y-40949500D01*
X77127544Y-40986976D01*
X77127541Y-40986976D01*
X77127541Y-40986977D01*
X76937364Y-41060651D01*
X76937357Y-41060655D01*
X76763960Y-41168017D01*
X76763958Y-41168019D01*
X76613237Y-41305418D01*
X76490327Y-41468178D01*
X76399422Y-41650739D01*
X76399417Y-41650752D01*
X76343602Y-41846917D01*
X76324785Y-42049999D01*
X76324785Y-42050000D01*
X76343602Y-42253082D01*
X76399417Y-42449247D01*
X76399422Y-42449260D01*
X76490327Y-42631821D01*
X76613237Y-42794581D01*
X76763958Y-42931980D01*
X76763960Y-42931982D01*
X76825530Y-42970104D01*
X76937363Y-43039348D01*
X77127544Y-43113024D01*
X77328024Y-43150500D01*
X77328026Y-43150500D01*
X77531974Y-43150500D01*
X77531976Y-43150500D01*
X77732456Y-43113024D01*
X77922637Y-43039348D01*
X78096041Y-42931981D01*
X78236698Y-42803754D01*
X78299502Y-42773138D01*
X78368889Y-42781335D01*
X78422829Y-42825745D01*
X78444197Y-42892267D01*
X78441297Y-42922230D01*
X78378837Y-43203974D01*
X78376037Y-43214424D01*
X78254697Y-43599264D01*
X78250997Y-43609429D01*
X78096579Y-43982226D01*
X78092007Y-43992030D01*
X77905690Y-44349942D01*
X77900282Y-44359310D01*
X77683469Y-44699638D01*
X77677264Y-44708499D01*
X77431621Y-45028627D01*
X77424667Y-45036914D01*
X77152061Y-45334412D01*
X77144412Y-45342061D01*
X76846914Y-45614667D01*
X76838627Y-45621621D01*
X76518499Y-45867264D01*
X76509638Y-45873469D01*
X76169310Y-46090282D01*
X76159942Y-46095690D01*
X75802030Y-46282007D01*
X75792226Y-46286579D01*
X75419429Y-46440997D01*
X75409264Y-46444697D01*
X75024424Y-46566037D01*
X75013974Y-46568837D01*
X74620022Y-46656173D01*
X74609370Y-46658051D01*
X74209316Y-46710720D01*
X74198539Y-46711663D01*
X73792703Y-46729382D01*
X73787294Y-46729500D01*
X72044400Y-46729500D01*
X71977361Y-46709815D01*
X71931606Y-46657011D01*
X71921662Y-46587853D01*
X71950687Y-46524297D01*
X71971998Y-46506143D01*
X71971465Y-46505437D01*
X71976033Y-46501985D01*
X71976041Y-46501981D01*
X72126764Y-46364579D01*
X72249673Y-46201821D01*
X72340582Y-46019250D01*
X72396397Y-45823083D01*
X72415215Y-45620000D01*
X72396397Y-45416917D01*
X72340582Y-45220750D01*
X72249673Y-45038179D01*
X72126764Y-44875421D01*
X72126762Y-44875418D01*
X71976042Y-44738020D01*
X71976041Y-44738019D01*
X71869843Y-44672264D01*
X71802638Y-44630652D01*
X71802636Y-44630651D01*
X71771726Y-44618676D01*
X71747868Y-44605021D01*
X71747409Y-44605736D01*
X71742292Y-44602441D01*
X70523722Y-43977470D01*
X70492629Y-43954816D01*
X62401526Y-35863713D01*
X67419500Y-35863713D01*
X67419500Y-36076286D01*
X67443120Y-36225421D01*
X67452754Y-36286243D01*
X67518315Y-36488019D01*
X67518444Y-36488414D01*
X67614951Y-36677820D01*
X67739890Y-36849786D01*
X67890213Y-37000109D01*
X68062179Y-37125048D01*
X68062181Y-37125049D01*
X68062184Y-37125051D01*
X68251588Y-37221557D01*
X68453757Y-37287246D01*
X68663713Y-37320500D01*
X68663714Y-37320500D01*
X68876286Y-37320500D01*
X68876287Y-37320500D01*
X69086243Y-37287246D01*
X69288412Y-37221557D01*
X69477816Y-37125051D01*
X69499789Y-37109086D01*
X69649786Y-37000109D01*
X69649788Y-37000106D01*
X69649792Y-37000104D01*
X69800104Y-36849792D01*
X69800106Y-36849788D01*
X69800109Y-36849786D01*
X69925048Y-36677820D01*
X69925047Y-36677820D01*
X69925051Y-36677816D01*
X70021557Y-36488412D01*
X70087246Y-36286243D01*
X70120500Y-36076287D01*
X70120500Y-35863713D01*
X70087246Y-35653757D01*
X70021557Y-35451588D01*
X69925051Y-35262184D01*
X69925049Y-35262181D01*
X69925048Y-35262179D01*
X69800109Y-35090213D01*
X69649786Y-34939890D01*
X69477820Y-34814951D01*
X69288414Y-34718444D01*
X69288413Y-34718443D01*
X69288412Y-34718443D01*
X69086243Y-34652754D01*
X69086241Y-34652753D01*
X69086240Y-34652753D01*
X68924957Y-34627208D01*
X68876287Y-34619500D01*
X68663713Y-34619500D01*
X68615042Y-34627208D01*
X68453760Y-34652753D01*
X68251585Y-34718444D01*
X68062179Y-34814951D01*
X67890213Y-34939890D01*
X67739890Y-35090213D01*
X67614951Y-35262179D01*
X67518444Y-35451585D01*
X67452753Y-35653760D01*
X67419500Y-35863713D01*
X62401526Y-35863713D01*
X52346595Y-25808781D01*
X52328889Y-25786443D01*
X52326944Y-25783308D01*
X52326939Y-25783297D01*
X52277286Y-25718408D01*
X51982394Y-25333024D01*
X51913000Y-25242335D01*
X51912992Y-25242325D01*
X51902511Y-25229511D01*
X51901517Y-25228373D01*
X51895745Y-25222180D01*
X51888084Y-25213127D01*
X51882785Y-25206221D01*
X51882783Y-25206219D01*
X51882782Y-25206218D01*
X51757341Y-25109964D01*
X51724930Y-25096539D01*
X51611262Y-25049456D01*
X51611260Y-25049455D01*
X51454502Y-25028818D01*
X51454497Y-25028818D01*
X51415419Y-25033962D01*
X51403701Y-25034576D01*
X51403702Y-25034587D01*
X51397627Y-25035024D01*
X51368004Y-25040108D01*
X51363219Y-25040834D01*
X51297736Y-25049456D01*
X51289885Y-25051560D01*
X51289876Y-25051527D01*
X51272878Y-25056438D01*
X50720164Y-25151321D01*
X50720060Y-25150715D01*
X50697634Y-25153500D01*
X42354500Y-25153500D01*
X42287461Y-25133815D01*
X42241706Y-25081011D01*
X42230500Y-25029500D01*
X42230500Y-24478674D01*
X42250185Y-24411635D01*
X42266814Y-24390998D01*
X53322103Y-13335708D01*
X53322113Y-13335701D01*
X53332312Y-13325500D01*
X53332314Y-13325500D01*
X53349575Y-13308237D01*
X53356070Y-13302192D01*
X53356120Y-13302148D01*
X53356128Y-13302143D01*
X53356188Y-13302072D01*
X53362211Y-13295601D01*
X53425500Y-13232314D01*
X53437277Y-13211912D01*
X53449416Y-13194868D01*
X53450372Y-13193380D01*
X53450373Y-13193377D01*
X53450377Y-13193373D01*
X53456994Y-13178882D01*
X53462381Y-13168433D01*
X53491392Y-13118186D01*
X53498194Y-13092798D01*
X53505171Y-13073390D01*
X53510165Y-13062457D01*
X53513561Y-13038828D01*
X53516521Y-13024399D01*
X53525500Y-12990893D01*
X53525500Y-12964667D01*
X53526762Y-12947020D01*
X53530647Y-12919999D01*
X53526762Y-12892977D01*
X53525500Y-12875331D01*
X53525500Y-12854110D01*
X53525500Y-12854108D01*
X53518073Y-12826390D01*
X53515111Y-12811946D01*
X53510165Y-12777545D01*
X53510165Y-12777543D01*
X53501928Y-12759509D01*
X53494949Y-12740091D01*
X53491392Y-12726814D01*
X53473316Y-12695506D01*
X53467911Y-12685020D01*
X53450380Y-12646633D01*
X53450379Y-12646631D01*
X53450377Y-12646627D01*
X53450372Y-12646621D01*
X53442306Y-12637312D01*
X53428628Y-12618104D01*
X53428010Y-12617035D01*
X53425500Y-12612686D01*
X53394672Y-12581858D01*
X53388659Y-12575401D01*
X53356128Y-12537857D01*
X53356125Y-12537854D01*
X53352066Y-12535246D01*
X53336793Y-12522937D01*
X53332318Y-12519504D01*
X53332314Y-12519500D01*
X53314994Y-12509500D01*
X53288121Y-12493984D01*
X53283085Y-12490915D01*
X53282879Y-12490782D01*
X53235053Y-12460047D01*
X53235051Y-12460046D01*
X53235049Y-12460045D01*
X53234004Y-12459567D01*
X53224375Y-12456171D01*
X53218192Y-12453610D01*
X53218187Y-12453608D01*
X53218186Y-12453608D01*
X53161701Y-12438473D01*
X53158862Y-12437675D01*
X53096963Y-12419500D01*
X53096961Y-12419500D01*
X52953039Y-12419500D01*
X52891145Y-12437673D01*
X52888307Y-12438469D01*
X52831817Y-12453606D01*
X52825609Y-12456177D01*
X52815985Y-12459572D01*
X52814949Y-12460045D01*
X52766915Y-12490914D01*
X52761880Y-12493983D01*
X52717689Y-12519497D01*
X52713266Y-12522892D01*
X52697945Y-12535238D01*
X52693877Y-12537852D01*
X52693867Y-12537861D01*
X52661353Y-12575384D01*
X52655326Y-12581858D01*
X52624499Y-12612687D01*
X52619553Y-12619133D01*
X52619277Y-12618921D01*
X52606126Y-12636059D01*
X41405244Y-23836940D01*
X41405245Y-23836941D01*
X41329500Y-23912686D01*
X41263608Y-24026812D01*
X41229500Y-24154108D01*
X41229500Y-25029500D01*
X41209815Y-25096539D01*
X41157011Y-25142294D01*
X41105500Y-25153500D01*
X37250107Y-25153500D01*
X37168185Y-25175450D01*
X37168185Y-25175451D01*
X37122814Y-25187608D01*
X37122813Y-25187608D01*
X37122811Y-25187609D01*
X37008689Y-25253498D01*
X37008683Y-25253502D01*
X36915498Y-25346688D01*
X31231261Y-31030923D01*
X31207909Y-31049251D01*
X31206779Y-31049936D01*
X30837604Y-31326816D01*
X30780741Y-31350370D01*
X30323905Y-31415634D01*
X30320311Y-31416447D01*
X30292966Y-31419500D01*
X21048676Y-31419500D01*
X20981637Y-31399815D01*
X20960995Y-31383181D01*
X16522095Y-26944281D01*
X16504389Y-26921943D01*
X16502444Y-26918808D01*
X16502439Y-26918797D01*
X16452786Y-26853908D01*
X16363873Y-26737711D01*
X16088500Y-26377835D01*
X16088492Y-26377825D01*
X16078011Y-26365011D01*
X16077017Y-26363873D01*
X16071245Y-26357680D01*
X16063584Y-26348627D01*
X16058282Y-26341718D01*
X16035841Y-26324498D01*
X16024595Y-26314081D01*
X16024523Y-26314161D01*
X16020030Y-26310045D01*
X15473211Y-25899930D01*
X15470085Y-25897957D01*
X15448600Y-25880786D01*
X11846819Y-22279005D01*
X11813334Y-22217682D01*
X11810500Y-22191324D01*
X11810500Y-18318071D01*
X11830185Y-18251032D01*
X11882989Y-18205277D01*
X11901696Y-18198489D01*
X11901804Y-18198459D01*
X11901824Y-18198455D01*
X11928198Y-18191219D01*
X12000258Y-18150185D01*
X12014818Y-18141894D01*
X12014819Y-18141892D01*
X12014828Y-18141888D01*
X12067632Y-18096133D01*
X12099257Y-18063359D01*
X12145465Y-17975024D01*
X12165150Y-17907985D01*
X12175500Y-17836000D01*
X12175500Y-16684500D01*
X12195185Y-16617461D01*
X12247989Y-16571706D01*
X12299500Y-16560500D01*
X18530869Y-16560500D01*
X18567180Y-16565936D01*
X19085094Y-16724550D01*
X19085096Y-16724550D01*
X19085102Y-16724552D01*
X19086760Y-16724761D01*
X19089666Y-16725531D01*
X19090310Y-16725669D01*
X19090303Y-16725699D01*
X19118704Y-16733225D01*
X19147238Y-16745044D01*
X19225619Y-16755363D01*
X19303999Y-16765682D01*
X19304000Y-16765682D01*
X19304001Y-16765682D01*
X19327768Y-16762552D01*
X19460762Y-16745044D01*
X19470671Y-16740939D01*
X19489303Y-16733222D01*
X19517021Y-16726240D01*
X19516924Y-16725756D01*
X19522889Y-16724552D01*
X19522897Y-16724552D01*
X20040820Y-16565935D01*
X20077131Y-16560500D01*
X20860225Y-16560500D01*
X20860227Y-16560500D01*
X20962088Y-16533207D01*
X21053413Y-16480480D01*
X28736510Y-8797380D01*
X28766022Y-8775553D01*
X29228375Y-8530000D01*
X29244404Y-8521487D01*
X29244409Y-8521484D01*
X29244408Y-8521484D01*
X29244415Y-8521481D01*
X29245731Y-8520459D01*
X29248310Y-8518960D01*
X29248882Y-8518591D01*
X29248899Y-8518618D01*
X29274310Y-8503853D01*
X29302841Y-8492036D01*
X29428282Y-8395782D01*
X29524536Y-8270341D01*
X29585044Y-8124262D01*
X29605682Y-7967500D01*
X29603138Y-7948179D01*
X29585044Y-7810739D01*
X29585044Y-7810738D01*
X29524536Y-7664659D01*
X29428282Y-7539218D01*
X29354854Y-7482875D01*
X29313653Y-7426447D01*
X29309498Y-7356701D01*
X29343711Y-7295781D01*
X29405428Y-7263029D01*
X29430342Y-7260500D01*
X31073456Y-7260500D01*
X31140495Y-7280185D01*
X31161137Y-7296819D01*
X41053181Y-17188863D01*
X41086666Y-17250186D01*
X41089500Y-17276544D01*
X41089500Y-19374633D01*
X41083466Y-19412844D01*
X40969278Y-19765360D01*
X40968063Y-19770661D01*
X40967358Y-19770499D01*
X40959642Y-19797014D01*
X40954835Y-19807539D01*
X40954835Y-19807542D01*
X40934353Y-19950000D01*
X40954834Y-20092456D01*
X40994515Y-20179344D01*
X41014623Y-20223373D01*
X41108872Y-20332143D01*
X41229947Y-20409953D01*
X41229950Y-20409954D01*
X41229949Y-20409954D01*
X41368036Y-20450499D01*
X41368038Y-20450500D01*
X41368039Y-20450500D01*
X41511962Y-20450500D01*
X41511962Y-20450499D01*
X41650053Y-20409953D01*
X41771128Y-20332143D01*
X41865377Y-20223373D01*
X41925165Y-20092457D01*
X41945647Y-19950000D01*
X41925165Y-19807543D01*
X41920476Y-19797277D01*
X41913156Y-19771061D01*
X41912019Y-19771310D01*
X41910718Y-19765356D01*
X41910718Y-19765353D01*
X41796534Y-19412844D01*
X41790500Y-19374633D01*
X41790500Y-17033858D01*
X41790500Y-17033856D01*
X41766614Y-16944712D01*
X41766613Y-16944711D01*
X41766613Y-16944709D01*
X41751258Y-16918115D01*
X41751256Y-16918112D01*
X41720470Y-16864788D01*
X31485212Y-6629530D01*
X31485211Y-6629529D01*
X31485208Y-6629527D01*
X31405291Y-6583387D01*
X31405287Y-6583385D01*
X31399926Y-6581949D01*
X31399926Y-6581948D01*
X31331476Y-6563608D01*
X31316144Y-6559500D01*
X31316143Y-6559500D01*
X21025367Y-6559500D01*
X20987156Y-6553466D01*
X20634643Y-6439280D01*
X20622424Y-6437587D01*
X20604512Y-6433738D01*
X20521963Y-6409500D01*
X20521961Y-6409500D01*
X20378039Y-6409500D01*
X20378036Y-6409500D01*
X20239949Y-6450045D01*
X20118873Y-6527856D01*
X20024623Y-6636626D01*
X20024622Y-6636628D01*
X19964834Y-6767543D01*
X19944353Y-6910000D01*
X19964834Y-7052456D01*
X19984649Y-7095844D01*
X20024623Y-7183373D01*
X20118872Y-7292143D01*
X20239947Y-7369953D01*
X20239950Y-7369954D01*
X20239949Y-7369954D01*
X20378036Y-7410499D01*
X20378038Y-7410500D01*
X20378039Y-7410500D01*
X20521961Y-7410500D01*
X20605827Y-7385874D01*
X20626291Y-7381699D01*
X20634646Y-7380718D01*
X20987155Y-7266534D01*
X21025366Y-7260500D01*
X28569658Y-7260500D01*
X28636697Y-7280185D01*
X28682452Y-7332989D01*
X28692396Y-7402147D01*
X28663371Y-7465703D01*
X28645145Y-7482876D01*
X28571716Y-7539219D01*
X28475463Y-7664659D01*
X28463640Y-7693201D01*
X28448979Y-7717738D01*
X28449388Y-7718010D01*
X28446014Y-7723088D01*
X28191944Y-8201475D01*
X28170112Y-8230994D01*
X20677926Y-15723181D01*
X20616603Y-15756666D01*
X20590245Y-15759500D01*
X20077134Y-15759500D01*
X20040823Y-15754064D01*
X19522897Y-15595447D01*
X19522898Y-15595447D01*
X19521587Y-15595282D01*
X19521227Y-15595236D01*
X19518309Y-15594463D01*
X19517687Y-15594330D01*
X19517693Y-15594300D01*
X19489289Y-15586772D01*
X19460765Y-15574957D01*
X19460760Y-15574955D01*
X19304001Y-15554318D01*
X19303999Y-15554318D01*
X19147235Y-15574956D01*
X19118696Y-15586777D01*
X19090981Y-15593760D01*
X19091079Y-15594241D01*
X19085103Y-15595446D01*
X18567176Y-15754064D01*
X18530865Y-15759500D01*
X12299500Y-15759500D01*
X12232461Y-15739815D01*
X12186706Y-15687011D01*
X12175500Y-15635500D01*
X12175500Y-13364000D01*
X12169661Y-13309687D01*
X12158455Y-13258176D01*
X12151219Y-13231802D01*
X12139894Y-13211914D01*
X12101894Y-13145181D01*
X12101890Y-13145176D01*
X12101888Y-13145172D01*
X12066097Y-13103867D01*
X12056136Y-13092371D01*
X12046221Y-13082804D01*
X12023359Y-13060743D01*
X11935024Y-13014535D01*
X11935023Y-13014534D01*
X11935022Y-13014534D01*
X11935022Y-13014533D01*
X11867990Y-12994851D01*
X11867980Y-12994848D01*
X11816853Y-12987498D01*
X11753297Y-12958473D01*
X11715523Y-12899695D01*
X11710500Y-12864760D01*
X11710500Y-10467255D01*
X11730185Y-10400216D01*
X11746819Y-10379574D01*
X17989574Y-4136819D01*
X18050897Y-4103334D01*
X18077255Y-4100500D01*
X40476869Y-4100500D01*
X40513180Y-4105936D01*
X41031094Y-4264550D01*
X41031096Y-4264550D01*
X41031102Y-4264552D01*
X41032760Y-4264761D01*
X41035666Y-4265531D01*
X41036310Y-4265669D01*
X41036303Y-4265699D01*
X41064704Y-4273225D01*
X41093238Y-4285044D01*
X41171619Y-4295363D01*
X41249999Y-4305682D01*
X41250000Y-4305682D01*
X41250001Y-4305682D01*
X41273768Y-4302552D01*
X41406762Y-4285044D01*
X41435293Y-4273226D01*
X41435303Y-4273222D01*
X41463021Y-4266240D01*
X41462924Y-4265756D01*
X41468889Y-4264552D01*
X41468897Y-4264552D01*
X41986820Y-4105935D01*
X42023131Y-4100500D01*
X52972745Y-4100500D01*
X53039784Y-4120185D01*
X53060426Y-4136819D01*
X54878990Y-5955383D01*
X54894501Y-5974308D01*
X54979445Y-6101794D01*
X54979454Y-6101807D01*
X55113618Y-6303161D01*
X55113364Y-6303330D01*
X55125431Y-6323248D01*
X55134619Y-6343367D01*
X55134622Y-6343371D01*
X55134623Y-6343373D01*
X55228872Y-6452143D01*
X55349947Y-6529953D01*
X55349950Y-6529954D01*
X55349949Y-6529954D01*
X55488036Y-6570499D01*
X55488038Y-6570500D01*
X55488039Y-6570500D01*
X55631962Y-6570500D01*
X55631962Y-6570499D01*
X55770053Y-6529953D01*
X55891128Y-6452143D01*
X55985377Y-6343373D01*
X56045165Y-6212457D01*
X56065647Y-6070000D01*
X56045165Y-5927543D01*
X55985377Y-5796627D01*
X55891128Y-5687857D01*
X55844390Y-5657820D01*
X55803148Y-5631315D01*
X55791647Y-5622955D01*
X55789369Y-5621090D01*
X55591807Y-5489454D01*
X55591799Y-5489448D01*
X55464309Y-5404502D01*
X55445384Y-5388991D01*
X54900106Y-4843713D01*
X67419500Y-4843713D01*
X67419500Y-5056287D01*
X67452754Y-5266243D01*
X67497677Y-5404502D01*
X67518444Y-5468414D01*
X67614951Y-5657820D01*
X67739890Y-5829786D01*
X67890213Y-5980109D01*
X68062179Y-6105048D01*
X68062181Y-6105049D01*
X68062184Y-6105051D01*
X68251588Y-6201557D01*
X68453757Y-6267246D01*
X68663713Y-6300500D01*
X68663714Y-6300500D01*
X68876286Y-6300500D01*
X68876287Y-6300500D01*
X69086243Y-6267246D01*
X69288412Y-6201557D01*
X69477816Y-6105051D01*
X69526060Y-6070000D01*
X69649786Y-5980109D01*
X69649788Y-5980106D01*
X69649792Y-5980104D01*
X69800104Y-5829792D01*
X69800106Y-5829788D01*
X69800109Y-5829786D01*
X69925048Y-5657820D01*
X69925047Y-5657820D01*
X69925051Y-5657816D01*
X70021557Y-5468412D01*
X70087246Y-5266243D01*
X70120500Y-5056287D01*
X70120500Y-4843713D01*
X70087246Y-4633757D01*
X70021557Y-4431588D01*
X69925051Y-4242184D01*
X69925049Y-4242181D01*
X69925048Y-4242179D01*
X69800109Y-4070213D01*
X69649786Y-3919890D01*
X69477820Y-3794951D01*
X69288414Y-3698444D01*
X69288413Y-3698443D01*
X69288412Y-3698443D01*
X69086243Y-3632754D01*
X69086241Y-3632753D01*
X69086240Y-3632753D01*
X68924957Y-3607208D01*
X68876287Y-3599500D01*
X68663713Y-3599500D01*
X68615042Y-3607208D01*
X68453760Y-3632753D01*
X68251585Y-3698444D01*
X68062179Y-3794951D01*
X67890213Y-3919890D01*
X67739890Y-4070213D01*
X67614951Y-4242179D01*
X67518444Y-4431585D01*
X67452753Y-4633760D01*
X67443120Y-4694581D01*
X67419500Y-4843713D01*
X54900106Y-4843713D01*
X53435915Y-3379522D01*
X53435913Y-3379520D01*
X53377575Y-3345838D01*
X53344589Y-3326793D01*
X53293657Y-3313146D01*
X53242727Y-3299500D01*
X53242726Y-3299500D01*
X42023134Y-3299500D01*
X41986823Y-3294064D01*
X41468897Y-3135447D01*
X41468898Y-3135447D01*
X41467587Y-3135282D01*
X41467227Y-3135236D01*
X41464309Y-3134463D01*
X41463687Y-3134330D01*
X41463693Y-3134300D01*
X41435289Y-3126772D01*
X41406765Y-3114957D01*
X41406760Y-3114955D01*
X41250001Y-3094318D01*
X41249999Y-3094318D01*
X41093235Y-3114956D01*
X41064696Y-3126777D01*
X41036981Y-3133760D01*
X41037079Y-3134241D01*
X41031103Y-3135446D01*
X40513176Y-3294064D01*
X40476865Y-3299500D01*
X17807273Y-3299500D01*
X17705410Y-3326793D01*
X17614087Y-3379520D01*
X17614084Y-3379522D01*
X10989522Y-10004084D01*
X10989520Y-10004087D01*
X10936791Y-10095414D01*
X10911981Y-10188013D01*
X10911980Y-10188019D01*
X10909500Y-10197273D01*
X10909500Y-12860500D01*
X10889815Y-12927539D01*
X10837011Y-12973294D01*
X10785500Y-12984500D01*
X9433997Y-12984500D01*
X9379687Y-12990338D01*
X9328181Y-13001543D01*
X9328172Y-13001546D01*
X9301807Y-13008779D01*
X9301796Y-13008783D01*
X9215181Y-13058105D01*
X9215173Y-13058111D01*
X9162371Y-13103863D01*
X9130743Y-13136640D01*
X9084534Y-13224977D01*
X9084533Y-13224977D01*
X9064851Y-13292009D01*
X9064848Y-13292021D01*
X9054500Y-13363998D01*
X9054500Y-17466323D01*
X9034815Y-17533362D01*
X9018181Y-17554004D01*
X-4424822Y-30997006D01*
X-4486145Y-31030491D01*
X-4496315Y-31032264D01*
X-4516762Y-31034956D01*
X-4516763Y-31034956D01*
X-4662840Y-31095463D01*
X-4788282Y-31191718D01*
X-4884537Y-31317160D01*
X-4945044Y-31463237D01*
X-4945045Y-31463239D01*
X-4965682Y-31619998D01*
X-4965682Y-31620001D01*
X-4945045Y-31776760D01*
X-4945044Y-31776762D01*
X-4897122Y-31892457D01*
X-4884536Y-31922841D01*
X-4788282Y-32048282D01*
X-4662841Y-32144536D01*
X-4516762Y-32205044D01*
X-4438381Y-32215363D01*
X-4360001Y-32225682D01*
X-4360000Y-32225682D01*
X-4359999Y-32225682D01*
X-4307746Y-32218802D01*
X-4203238Y-32205044D01*
X-4057159Y-32144536D01*
X-3931718Y-32048282D01*
X-3835464Y-31922841D01*
X-3774956Y-31776762D01*
X-3774956Y-31776760D01*
X-3774500Y-31775660D01*
X-3747623Y-31735435D01*
X9728741Y-18259071D01*
X9752106Y-18240737D01*
X9753209Y-18240067D01*
X9753219Y-18240063D01*
X9753227Y-18240056D01*
X9758433Y-18236899D01*
X9759092Y-18237986D01*
X9818340Y-18215824D01*
X9827302Y-18215500D01*
X10685500Y-18215500D01*
X10752539Y-18235185D01*
X10798294Y-18287989D01*
X10809500Y-18339500D01*
X10809500Y-22515891D01*
X10843608Y-22643187D01*
X10876554Y-22700250D01*
X10909500Y-22757314D01*
X10909502Y-22757316D01*
X14740924Y-26588738D01*
X14759252Y-26612090D01*
X14759934Y-26613215D01*
X14759937Y-26613220D01*
X14821721Y-26695599D01*
X14846197Y-26761041D01*
X14831407Y-26829327D01*
X14821722Y-26844397D01*
X14759934Y-26926781D01*
X14757962Y-26929907D01*
X14740787Y-26951397D01*
X13152686Y-28539500D01*
X13059502Y-28632683D01*
X13059500Y-28632686D01*
X12993608Y-28746812D01*
X12959500Y-28874108D01*
X12959500Y-35542467D01*
X12939815Y-35609506D01*
X12936804Y-35613976D01*
X12406944Y-36364610D01*
X12406937Y-36364621D01*
X12394220Y-36390221D01*
X12386275Y-36403938D01*
X12374034Y-36422259D01*
X12374033Y-36422262D01*
X12371829Y-36433341D01*
X12370931Y-36437486D01*
X12370015Y-36441386D01*
X12369654Y-36443710D01*
X12368744Y-36448851D01*
X12360954Y-36488019D01*
X12359500Y-36495327D01*
X12359500Y-36499561D01*
X12358037Y-36518515D01*
X12358162Y-36524468D01*
X12359500Y-36538093D01*
X12359500Y-38244678D01*
X12374032Y-38317735D01*
X12374033Y-38317739D01*
X12374034Y-38317740D01*
X12429399Y-38400601D01*
X12498807Y-38446977D01*
X12512260Y-38455966D01*
X12512264Y-38455967D01*
X12585321Y-38470499D01*
X12585324Y-38470500D01*
X12585326Y-38470500D01*
X14334676Y-38470500D01*
X14334677Y-38470499D01*
X14407740Y-38455966D01*
X14490601Y-38400601D01*
X14545966Y-38317740D01*
X14560500Y-38244674D01*
X14560500Y-36512312D01*
X31218788Y-36512312D01*
X31218909Y-36528841D01*
X31219500Y-36534849D01*
X31219500Y-38244678D01*
X31234032Y-38317735D01*
X31234033Y-38317739D01*
X31234034Y-38317740D01*
X31289399Y-38400601D01*
X31358807Y-38446977D01*
X31372260Y-38455966D01*
X31372264Y-38455967D01*
X31445321Y-38470499D01*
X31445324Y-38470500D01*
X31445326Y-38470500D01*
X33194676Y-38470500D01*
X33194677Y-38470499D01*
X33267740Y-38455966D01*
X33350601Y-38400601D01*
X33405966Y-38317740D01*
X33420500Y-38244674D01*
X33420500Y-36542093D01*
X33420686Y-36535309D01*
X33420857Y-36532177D01*
X33420500Y-36526841D01*
X33420500Y-36495323D01*
X33405966Y-36422261D01*
X33405966Y-36422260D01*
X33366487Y-36363174D01*
X33362405Y-36356630D01*
X33354319Y-36342724D01*
X33354315Y-36342717D01*
X32701520Y-35602883D01*
X32671926Y-35539591D01*
X32670500Y-35520842D01*
X32670500Y-35428455D01*
X32678475Y-35384703D01*
X32757711Y-35174581D01*
X32806054Y-35046384D01*
X32806736Y-35042482D01*
X32816089Y-35012327D01*
X32825165Y-34992457D01*
X32845647Y-34850000D01*
X32825165Y-34707543D01*
X32820476Y-34697277D01*
X32813156Y-34671061D01*
X32812019Y-34671310D01*
X32810718Y-34665356D01*
X32810718Y-34665353D01*
X32696534Y-34312844D01*
X32690500Y-34274633D01*
X32690500Y-32796543D01*
X32710185Y-32729504D01*
X32726814Y-32708867D01*
X37840999Y-27594681D01*
X37872280Y-27571932D01*
X38198264Y-27405465D01*
X38203144Y-27403107D01*
X38210050Y-27399953D01*
X38210053Y-27399953D01*
X38331128Y-27322143D01*
X38425377Y-27213373D01*
X38485165Y-27082457D01*
X38505647Y-26940000D01*
X38485165Y-26797543D01*
X38425377Y-26666627D01*
X38331128Y-26557857D01*
X38210053Y-26480047D01*
X38210051Y-26480046D01*
X38210049Y-26480045D01*
X38210050Y-26480045D01*
X38071963Y-26439500D01*
X38071961Y-26439500D01*
X37928039Y-26439500D01*
X37928036Y-26439500D01*
X37789949Y-26480045D01*
X37668873Y-26557856D01*
X37574621Y-26666628D01*
X37574620Y-26666630D01*
X37556005Y-26707390D01*
X37540529Y-26732723D01*
X37536589Y-26737711D01*
X37536588Y-26737714D01*
X37368065Y-27067718D01*
X37345312Y-27099004D01*
X32059532Y-32384785D01*
X32059530Y-32384788D01*
X32017658Y-32457310D01*
X32017657Y-32457314D01*
X32013386Y-32464712D01*
X31989500Y-32553856D01*
X31989500Y-32553858D01*
X31989500Y-34274633D01*
X31983466Y-34312844D01*
X31869278Y-34665360D01*
X31868063Y-34670661D01*
X31867358Y-34670499D01*
X31859642Y-34697014D01*
X31854835Y-34707539D01*
X31854835Y-34707542D01*
X31834353Y-34850000D01*
X31854835Y-34992457D01*
X31854835Y-34992460D01*
X31856716Y-34996578D01*
X31863395Y-35018136D01*
X31863941Y-35017985D01*
X31865566Y-35023850D01*
X31865567Y-35023854D01*
X31945431Y-35311981D01*
X31964995Y-35382564D01*
X31969500Y-35415686D01*
X31969500Y-35520842D01*
X31949815Y-35587881D01*
X31938480Y-35602883D01*
X31285682Y-36342720D01*
X31285677Y-36342727D01*
X31273401Y-36363095D01*
X31270306Y-36367971D01*
X31234034Y-36422259D01*
X31234032Y-36422264D01*
X31219500Y-36495323D01*
X31219500Y-36504476D01*
X31218788Y-36512312D01*
X14560500Y-36512312D01*
X14560500Y-36495326D01*
X14560500Y-36495323D01*
X14557769Y-36481597D01*
X14556529Y-36470464D01*
X14556277Y-36470496D01*
X14555525Y-36464450D01*
X14553554Y-36455715D01*
X14553529Y-36455605D01*
X14549721Y-36441139D01*
X14545966Y-36422260D01*
X14530099Y-36398513D01*
X14519895Y-36379996D01*
X14513055Y-36364610D01*
X13983196Y-35613976D01*
X13960617Y-35547855D01*
X13960500Y-35542467D01*
X13960500Y-29198675D01*
X13980185Y-29131636D01*
X13996814Y-29110999D01*
X15448740Y-27659072D01*
X15472108Y-27640737D01*
X15473215Y-27640065D01*
X15473217Y-27640063D01*
X15473220Y-27640062D01*
X15560641Y-27574495D01*
X15626079Y-27550020D01*
X15694366Y-27564809D01*
X15708422Y-27573741D01*
X15791305Y-27634594D01*
X15791305Y-27634595D01*
X15792882Y-27635753D01*
X15792885Y-27635754D01*
X15793907Y-27636387D01*
X15795964Y-27638016D01*
X15796845Y-27638663D01*
X15796821Y-27638695D01*
X15816333Y-27654147D01*
X20482686Y-32320500D01*
X20551102Y-32360000D01*
X20594030Y-32384785D01*
X20596814Y-32386392D01*
X20724108Y-32420500D01*
X20855893Y-32420500D01*
X30293159Y-32420500D01*
X30322638Y-32424055D01*
X30323902Y-32424363D01*
X30323912Y-32424367D01*
X31000550Y-32521029D01*
X31018144Y-32522924D01*
X31019766Y-32523042D01*
X31028261Y-32523362D01*
X31039764Y-32524334D01*
X31047207Y-32525314D01*
X31049999Y-32525682D01*
X31050000Y-32525682D01*
X31050001Y-32525682D01*
X31102254Y-32518802D01*
X31206762Y-32505044D01*
X31352841Y-32444536D01*
X31478282Y-32348282D01*
X31482195Y-32343183D01*
X31495495Y-32325848D01*
X31505919Y-32314596D01*
X31505838Y-32314522D01*
X31509950Y-32310031D01*
X31509957Y-32310026D01*
X31920062Y-31763220D01*
X31920066Y-31763211D01*
X31922029Y-31760102D01*
X31939208Y-31738604D01*
X37486994Y-26190819D01*
X37548317Y-26157334D01*
X37574675Y-26154500D01*
X41105500Y-26154500D01*
X41172539Y-26174185D01*
X41218294Y-26226989D01*
X41229500Y-26278500D01*
X41229500Y-32105331D01*
X41228238Y-32122977D01*
X41224353Y-32149999D01*
X41228238Y-32177020D01*
X41229500Y-32194667D01*
X41229500Y-32215894D01*
X41236923Y-32243596D01*
X41239885Y-32258037D01*
X41244835Y-32292456D01*
X41244837Y-32292464D01*
X41253069Y-32310489D01*
X41260050Y-32329907D01*
X41263607Y-32343183D01*
X41263610Y-32343190D01*
X41281681Y-32374491D01*
X41287086Y-32384974D01*
X41304623Y-32423373D01*
X41312694Y-32432687D01*
X41326368Y-32451890D01*
X41329497Y-32457310D01*
X41329501Y-32457315D01*
X41360322Y-32488136D01*
X41366354Y-32494615D01*
X41398870Y-32532141D01*
X41398874Y-32532145D01*
X41402928Y-32534750D01*
X41418211Y-32547066D01*
X41422684Y-32550498D01*
X41422686Y-32550500D01*
X41466887Y-32576019D01*
X41471871Y-32579056D01*
X41519947Y-32609953D01*
X41519950Y-32609954D01*
X41519952Y-32609955D01*
X41520994Y-32610431D01*
X41530621Y-32613827D01*
X41536811Y-32616390D01*
X41536814Y-32616392D01*
X41593246Y-32631512D01*
X41593261Y-32631516D01*
X41596098Y-32632312D01*
X41658039Y-32650500D01*
X41801963Y-32650500D01*
X41801963Y-32650499D01*
X41840226Y-32639263D01*
X41863902Y-32632312D01*
X41866681Y-32631531D01*
X41923186Y-32616392D01*
X41923189Y-32616389D01*
X41929367Y-32613832D01*
X41938996Y-32610434D01*
X41940045Y-32609955D01*
X41940053Y-32609953D01*
X41988087Y-32579082D01*
X41993102Y-32576025D01*
X42037314Y-32550500D01*
X42037321Y-32550492D01*
X42041828Y-32547035D01*
X42057067Y-32534752D01*
X42061128Y-32532143D01*
X42093653Y-32494605D01*
X42099673Y-32488140D01*
X42099677Y-32488136D01*
X42130500Y-32457314D01*
X42133628Y-32451894D01*
X42147306Y-32432687D01*
X42155377Y-32423373D01*
X42172912Y-32384974D01*
X42178311Y-32374502D01*
X42196392Y-32343186D01*
X42199952Y-32329898D01*
X42206934Y-32310479D01*
X42215165Y-32292457D01*
X42220111Y-32258053D01*
X42223074Y-32243606D01*
X42224263Y-32239165D01*
X42230500Y-32215892D01*
X42230500Y-32194667D01*
X42231762Y-32177020D01*
X42235647Y-32149999D01*
X42231762Y-32122977D01*
X42230500Y-32105331D01*
X42230500Y-26278500D01*
X42250185Y-26211461D01*
X42302989Y-26165706D01*
X42354500Y-26154500D01*
X50705921Y-26154500D01*
X50733201Y-26158783D01*
X50733433Y-26157717D01*
X50739380Y-26159004D01*
X50739384Y-26159006D01*
X51197198Y-26211947D01*
X51256340Y-26235173D01*
X51433156Y-26364992D01*
X51615805Y-26499094D01*
X51615805Y-26499095D01*
X51617382Y-26500253D01*
X51617385Y-26500254D01*
X51618407Y-26500887D01*
X51620464Y-26502516D01*
X51621345Y-26503163D01*
X51621321Y-26503195D01*
X51640833Y-26518647D01*
X69770683Y-44648496D01*
X69799586Y-44693939D01*
X69842012Y-44811041D01*
X69846341Y-44880776D01*
X69812280Y-44941781D01*
X69750645Y-44974688D01*
X69681003Y-44969048D01*
X69626474Y-44928005D01*
X69586765Y-44875422D01*
X69586763Y-44875419D01*
X69436041Y-44738019D01*
X69436039Y-44738017D01*
X69262642Y-44630655D01*
X69262635Y-44630651D01*
X69156150Y-44589399D01*
X69072456Y-44556976D01*
X68871976Y-44519500D01*
X68668024Y-44519500D01*
X68467544Y-44556976D01*
X68467541Y-44556976D01*
X68467541Y-44556977D01*
X68277364Y-44630651D01*
X68277357Y-44630655D01*
X68103960Y-44738017D01*
X68103958Y-44738019D01*
X67953237Y-44875418D01*
X67830327Y-45038178D01*
X67739422Y-45220739D01*
X67739417Y-45220752D01*
X67683602Y-45416917D01*
X67664785Y-45619999D01*
X67664785Y-45620000D01*
X67683602Y-45823082D01*
X67739417Y-46019247D01*
X67739422Y-46019260D01*
X67830327Y-46201821D01*
X67953237Y-46364581D01*
X68103958Y-46501980D01*
X68108535Y-46505437D01*
X68107231Y-46507163D01*
X68147509Y-46552093D01*
X68158618Y-46621074D01*
X68130670Y-46685110D01*
X68072537Y-46723871D01*
X68035600Y-46729500D01*
X66964400Y-46729500D01*
X66897361Y-46709815D01*
X66851606Y-46657011D01*
X66841662Y-46587853D01*
X66870687Y-46524297D01*
X66891998Y-46506143D01*
X66891465Y-46505437D01*
X66896033Y-46501985D01*
X66896041Y-46501981D01*
X67046764Y-46364579D01*
X67169673Y-46201821D01*
X67260582Y-46019250D01*
X67316397Y-45823083D01*
X67335215Y-45620000D01*
X67316397Y-45416917D01*
X67260582Y-45220750D01*
X67169673Y-45038179D01*
X67046764Y-44875421D01*
X67046762Y-44875418D01*
X66896041Y-44738019D01*
X66896039Y-44738017D01*
X66722642Y-44630655D01*
X66722635Y-44630651D01*
X66616150Y-44589399D01*
X66532456Y-44556976D01*
X66331976Y-44519500D01*
X66128024Y-44519500D01*
X65927544Y-44556976D01*
X65927541Y-44556976D01*
X65927541Y-44556977D01*
X65737364Y-44630651D01*
X65737357Y-44630655D01*
X65563960Y-44738017D01*
X65563958Y-44738019D01*
X65413237Y-44875418D01*
X65290327Y-45038178D01*
X65199422Y-45220739D01*
X65199417Y-45220752D01*
X65143602Y-45416917D01*
X65124785Y-45619999D01*
X65124785Y-45620000D01*
X65143602Y-45823082D01*
X65199417Y-46019247D01*
X65199422Y-46019260D01*
X65290327Y-46201821D01*
X65413237Y-46364581D01*
X65563958Y-46501980D01*
X65568535Y-46505437D01*
X65567231Y-46507163D01*
X65607509Y-46552093D01*
X65618618Y-46621074D01*
X65590670Y-46685110D01*
X65532537Y-46723871D01*
X65495600Y-46729500D01*
X64424400Y-46729500D01*
X64357361Y-46709815D01*
X64311606Y-46657011D01*
X64301662Y-46587853D01*
X64330687Y-46524297D01*
X64351998Y-46506143D01*
X64351465Y-46505437D01*
X64356033Y-46501985D01*
X64356041Y-46501981D01*
X64506764Y-46364579D01*
X64629673Y-46201821D01*
X64720582Y-46019250D01*
X64776397Y-45823083D01*
X64795215Y-45620000D01*
X64776397Y-45416917D01*
X64720582Y-45220750D01*
X64629673Y-45038179D01*
X64506764Y-44875421D01*
X64506762Y-44875418D01*
X64356041Y-44738019D01*
X64356039Y-44738017D01*
X64182642Y-44630655D01*
X64182635Y-44630651D01*
X64076150Y-44589399D01*
X63992456Y-44556976D01*
X63791976Y-44519500D01*
X63588024Y-44519500D01*
X63387544Y-44556976D01*
X63387541Y-44556976D01*
X63387541Y-44556977D01*
X63197364Y-44630651D01*
X63197357Y-44630655D01*
X63023960Y-44738017D01*
X63023958Y-44738019D01*
X62873237Y-44875418D01*
X62750327Y-45038178D01*
X62659422Y-45220739D01*
X62659417Y-45220752D01*
X62603602Y-45416917D01*
X62584785Y-45619999D01*
X62584785Y-45620000D01*
X62603602Y-45823082D01*
X62659417Y-46019247D01*
X62659422Y-46019260D01*
X62750327Y-46201821D01*
X62873237Y-46364581D01*
X63023958Y-46501980D01*
X63028535Y-46505437D01*
X63027231Y-46507163D01*
X63067509Y-46552093D01*
X63078618Y-46621074D01*
X63050670Y-46685110D01*
X62992537Y-46723871D01*
X62955600Y-46729500D01*
X61884400Y-46729500D01*
X61817361Y-46709815D01*
X61771606Y-46657011D01*
X61761662Y-46587853D01*
X61790687Y-46524297D01*
X61811998Y-46506143D01*
X61811465Y-46505437D01*
X61816033Y-46501985D01*
X61816041Y-46501981D01*
X61966764Y-46364579D01*
X62089673Y-46201821D01*
X62180582Y-46019250D01*
X62236397Y-45823083D01*
X62255215Y-45620000D01*
X62236397Y-45416917D01*
X62180582Y-45220750D01*
X62089673Y-45038179D01*
X61966764Y-44875421D01*
X61966762Y-44875418D01*
X61816041Y-44738019D01*
X61816039Y-44738017D01*
X61642642Y-44630655D01*
X61642635Y-44630651D01*
X61536150Y-44589399D01*
X61452456Y-44556976D01*
X61251976Y-44519500D01*
X61048024Y-44519500D01*
X60847544Y-44556976D01*
X60847541Y-44556976D01*
X60847541Y-44556977D01*
X60657364Y-44630651D01*
X60657357Y-44630655D01*
X60483960Y-44738017D01*
X60483958Y-44738019D01*
X60333237Y-44875418D01*
X60210327Y-45038178D01*
X60119422Y-45220739D01*
X60119417Y-45220752D01*
X60063602Y-45416917D01*
X60044785Y-45619999D01*
X60044785Y-45620000D01*
X60063602Y-45823082D01*
X60119417Y-46019247D01*
X60119422Y-46019260D01*
X60210327Y-46201821D01*
X60333237Y-46364581D01*
X60483958Y-46501980D01*
X60488535Y-46505437D01*
X60487231Y-46507163D01*
X60527509Y-46552093D01*
X60538618Y-46621074D01*
X60510670Y-46685110D01*
X60452537Y-46723871D01*
X60415600Y-46729500D01*
X59344400Y-46729500D01*
X59277361Y-46709815D01*
X59231606Y-46657011D01*
X59221662Y-46587853D01*
X59250687Y-46524297D01*
X59271998Y-46506143D01*
X59271465Y-46505437D01*
X59276033Y-46501985D01*
X59276041Y-46501981D01*
X59426764Y-46364579D01*
X59549673Y-46201821D01*
X59640582Y-46019250D01*
X59696397Y-45823083D01*
X59715215Y-45620000D01*
X59696397Y-45416917D01*
X59640582Y-45220750D01*
X59549673Y-45038179D01*
X59426764Y-44875421D01*
X59426762Y-44875418D01*
X59276041Y-44738019D01*
X59276039Y-44738017D01*
X59102642Y-44630655D01*
X59102635Y-44630651D01*
X58996150Y-44589399D01*
X58912456Y-44556976D01*
X58711976Y-44519500D01*
X58508024Y-44519500D01*
X58307544Y-44556976D01*
X58307541Y-44556976D01*
X58307541Y-44556977D01*
X58117364Y-44630651D01*
X58117357Y-44630655D01*
X57943960Y-44738017D01*
X57943958Y-44738019D01*
X57793237Y-44875418D01*
X57670327Y-45038178D01*
X57579422Y-45220739D01*
X57579417Y-45220752D01*
X57523602Y-45416917D01*
X57504785Y-45619999D01*
X57504785Y-45620000D01*
X57523602Y-45823082D01*
X57579417Y-46019247D01*
X57579422Y-46019260D01*
X57670327Y-46201821D01*
X57793237Y-46364581D01*
X57943958Y-46501980D01*
X57948535Y-46505437D01*
X57947231Y-46507163D01*
X57987509Y-46552093D01*
X57998618Y-46621074D01*
X57970670Y-46685110D01*
X57912537Y-46723871D01*
X57875600Y-46729500D01*
X56804400Y-46729500D01*
X56737361Y-46709815D01*
X56691606Y-46657011D01*
X56681662Y-46587853D01*
X56710687Y-46524297D01*
X56731998Y-46506143D01*
X56731465Y-46505437D01*
X56736033Y-46501985D01*
X56736041Y-46501981D01*
X56886764Y-46364579D01*
X57009673Y-46201821D01*
X57100582Y-46019250D01*
X57156397Y-45823083D01*
X57175215Y-45620000D01*
X57156397Y-45416917D01*
X57100582Y-45220750D01*
X57009673Y-45038179D01*
X56886764Y-44875421D01*
X56886762Y-44875418D01*
X56736041Y-44738019D01*
X56736039Y-44738017D01*
X56562642Y-44630655D01*
X56562635Y-44630651D01*
X56456150Y-44589399D01*
X56372456Y-44556976D01*
X56171976Y-44519500D01*
X55968024Y-44519500D01*
X55767544Y-44556976D01*
X55767541Y-44556976D01*
X55767541Y-44556977D01*
X55577364Y-44630651D01*
X55577357Y-44630655D01*
X55403960Y-44738017D01*
X55403958Y-44738019D01*
X55253237Y-44875418D01*
X55130327Y-45038178D01*
X55039422Y-45220739D01*
X55039417Y-45220752D01*
X54983602Y-45416917D01*
X54964785Y-45619999D01*
X54964785Y-45620000D01*
X54983602Y-45823082D01*
X55039417Y-46019247D01*
X55039422Y-46019260D01*
X55130327Y-46201821D01*
X55253237Y-46364581D01*
X55403958Y-46501980D01*
X55408535Y-46505437D01*
X55407231Y-46507163D01*
X55447509Y-46552093D01*
X55458618Y-46621074D01*
X55430670Y-46685110D01*
X55372537Y-46723871D01*
X55335600Y-46729500D01*
X54264400Y-46729500D01*
X54197361Y-46709815D01*
X54151606Y-46657011D01*
X54141662Y-46587853D01*
X54170687Y-46524297D01*
X54191998Y-46506143D01*
X54191465Y-46505437D01*
X54196033Y-46501985D01*
X54196041Y-46501981D01*
X54346764Y-46364579D01*
X54469673Y-46201821D01*
X54560582Y-46019250D01*
X54616397Y-45823083D01*
X54635215Y-45620000D01*
X54616397Y-45416917D01*
X54560582Y-45220750D01*
X54469673Y-45038179D01*
X54346764Y-44875421D01*
X54346762Y-44875418D01*
X54196041Y-44738019D01*
X54196039Y-44738017D01*
X54022642Y-44630655D01*
X54022635Y-44630651D01*
X53916150Y-44589399D01*
X53832456Y-44556976D01*
X53631976Y-44519500D01*
X53428024Y-44519500D01*
X53227544Y-44556976D01*
X53227541Y-44556976D01*
X53227541Y-44556977D01*
X53037364Y-44630651D01*
X53037357Y-44630655D01*
X52863960Y-44738017D01*
X52863958Y-44738019D01*
X52713237Y-44875418D01*
X52590327Y-45038178D01*
X52499422Y-45220739D01*
X52499417Y-45220752D01*
X52443602Y-45416917D01*
X52424785Y-45619999D01*
X52424785Y-45620000D01*
X52443602Y-45823082D01*
X52499417Y-46019247D01*
X52499422Y-46019260D01*
X52590327Y-46201821D01*
X52713237Y-46364581D01*
X52863958Y-46501980D01*
X52868535Y-46505437D01*
X52867231Y-46507163D01*
X52907509Y-46552093D01*
X52918618Y-46621074D01*
X52890670Y-46685110D01*
X52832537Y-46723871D01*
X52795600Y-46729500D01*
X51724400Y-46729500D01*
X51657361Y-46709815D01*
X51611606Y-46657011D01*
X51601662Y-46587853D01*
X51630687Y-46524297D01*
X51651998Y-46506143D01*
X51651465Y-46505437D01*
X51656033Y-46501985D01*
X51656041Y-46501981D01*
X51806764Y-46364579D01*
X51929673Y-46201821D01*
X52020582Y-46019250D01*
X52076397Y-45823083D01*
X52095215Y-45620000D01*
X52076397Y-45416917D01*
X52020582Y-45220750D01*
X51929673Y-45038179D01*
X51806764Y-44875421D01*
X51806762Y-44875418D01*
X51656041Y-44738019D01*
X51656039Y-44738017D01*
X51482642Y-44630655D01*
X51482635Y-44630651D01*
X51376150Y-44589399D01*
X51292456Y-44556976D01*
X51091976Y-44519500D01*
X50888024Y-44519500D01*
X50687544Y-44556976D01*
X50687541Y-44556976D01*
X50687541Y-44556977D01*
X50497364Y-44630651D01*
X50497357Y-44630655D01*
X50323960Y-44738017D01*
X50323958Y-44738019D01*
X50173237Y-44875418D01*
X50050327Y-45038178D01*
X49959422Y-45220739D01*
X49959417Y-45220752D01*
X49903602Y-45416917D01*
X49884785Y-45619999D01*
X49884785Y-45620000D01*
X49903602Y-45823082D01*
X49959417Y-46019247D01*
X49959422Y-46019260D01*
X50050327Y-46201821D01*
X50173237Y-46364581D01*
X50323958Y-46501980D01*
X50328535Y-46505437D01*
X50327231Y-46507163D01*
X50367509Y-46552093D01*
X50378618Y-46621074D01*
X50350670Y-46685110D01*
X50292537Y-46723871D01*
X50255600Y-46729500D01*
X49184400Y-46729500D01*
X49117361Y-46709815D01*
X49071606Y-46657011D01*
X49061662Y-46587853D01*
X49090687Y-46524297D01*
X49111998Y-46506143D01*
X49111465Y-46505437D01*
X49116033Y-46501985D01*
X49116041Y-46501981D01*
X49266764Y-46364579D01*
X49389673Y-46201821D01*
X49480582Y-46019250D01*
X49536397Y-45823083D01*
X49555215Y-45620000D01*
X49536397Y-45416917D01*
X49480582Y-45220750D01*
X49389673Y-45038179D01*
X49266764Y-44875421D01*
X49266762Y-44875418D01*
X49116041Y-44738019D01*
X49116039Y-44738017D01*
X48942642Y-44630655D01*
X48942635Y-44630651D01*
X48836150Y-44589399D01*
X48752456Y-44556976D01*
X48551976Y-44519500D01*
X48348024Y-44519500D01*
X48147544Y-44556976D01*
X48147541Y-44556976D01*
X48147541Y-44556977D01*
X47957364Y-44630651D01*
X47957357Y-44630655D01*
X47783960Y-44738017D01*
X47783958Y-44738019D01*
X47633237Y-44875418D01*
X47510327Y-45038178D01*
X47419422Y-45220739D01*
X47419417Y-45220752D01*
X47363602Y-45416917D01*
X47344785Y-45619999D01*
X47344785Y-45620000D01*
X47363602Y-45823082D01*
X47419417Y-46019247D01*
X47419422Y-46019260D01*
X47510327Y-46201821D01*
X47633237Y-46364581D01*
X47783958Y-46501980D01*
X47788535Y-46505437D01*
X47787231Y-46507163D01*
X47827509Y-46552093D01*
X47838618Y-46621074D01*
X47810670Y-46685110D01*
X47752537Y-46723871D01*
X47715600Y-46729500D01*
X46644400Y-46729500D01*
X46577361Y-46709815D01*
X46531606Y-46657011D01*
X46521662Y-46587853D01*
X46550687Y-46524297D01*
X46571998Y-46506143D01*
X46571465Y-46505437D01*
X46576033Y-46501985D01*
X46576041Y-46501981D01*
X46726764Y-46364579D01*
X46849673Y-46201821D01*
X46940582Y-46019250D01*
X46996397Y-45823083D01*
X47015215Y-45620000D01*
X46996397Y-45416917D01*
X46940582Y-45220750D01*
X46849673Y-45038179D01*
X46726764Y-44875421D01*
X46726762Y-44875418D01*
X46576041Y-44738019D01*
X46576039Y-44738017D01*
X46402642Y-44630655D01*
X46402635Y-44630651D01*
X46296150Y-44589399D01*
X46212456Y-44556976D01*
X46011976Y-44519500D01*
X45808024Y-44519500D01*
X45607544Y-44556976D01*
X45607541Y-44556976D01*
X45607541Y-44556977D01*
X45417364Y-44630651D01*
X45417357Y-44630655D01*
X45243960Y-44738017D01*
X45243958Y-44738019D01*
X45093237Y-44875418D01*
X44970327Y-45038178D01*
X44879422Y-45220739D01*
X44879417Y-45220752D01*
X44823602Y-45416917D01*
X44804785Y-45619999D01*
X44804785Y-45620000D01*
X44823602Y-45823082D01*
X44879417Y-46019247D01*
X44879422Y-46019260D01*
X44970327Y-46201821D01*
X45093237Y-46364581D01*
X45243958Y-46501980D01*
X45248535Y-46505437D01*
X45247231Y-46507163D01*
X45287509Y-46552093D01*
X45298618Y-46621074D01*
X45270670Y-46685110D01*
X45212537Y-46723871D01*
X45175600Y-46729500D01*
X44104400Y-46729500D01*
X44037361Y-46709815D01*
X43991606Y-46657011D01*
X43981662Y-46587853D01*
X44010687Y-46524297D01*
X44031998Y-46506143D01*
X44031465Y-46505437D01*
X44036033Y-46501985D01*
X44036041Y-46501981D01*
X44186764Y-46364579D01*
X44309673Y-46201821D01*
X44400582Y-46019250D01*
X44456397Y-45823083D01*
X44475215Y-45620000D01*
X44456397Y-45416917D01*
X44400582Y-45220750D01*
X44309673Y-45038179D01*
X44186764Y-44875421D01*
X44186762Y-44875418D01*
X44036041Y-44738019D01*
X44036039Y-44738017D01*
X43862642Y-44630655D01*
X43862635Y-44630651D01*
X43756150Y-44589399D01*
X43672456Y-44556976D01*
X43471976Y-44519500D01*
X43268024Y-44519500D01*
X43067544Y-44556976D01*
X43067541Y-44556976D01*
X43067541Y-44556977D01*
X42877364Y-44630651D01*
X42877357Y-44630655D01*
X42703960Y-44738017D01*
X42703958Y-44738019D01*
X42553237Y-44875418D01*
X42430327Y-45038178D01*
X42339422Y-45220739D01*
X42339417Y-45220752D01*
X42283602Y-45416917D01*
X42264785Y-45619999D01*
X42264785Y-45620000D01*
X42283602Y-45823082D01*
X42339417Y-46019247D01*
X42339422Y-46019260D01*
X42430327Y-46201821D01*
X42553237Y-46364581D01*
X42703958Y-46501980D01*
X42708535Y-46505437D01*
X42707231Y-46507163D01*
X42747509Y-46552093D01*
X42758618Y-46621074D01*
X42730670Y-46685110D01*
X42672537Y-46723871D01*
X42635600Y-46729500D01*
X41564400Y-46729500D01*
X41497361Y-46709815D01*
X41451606Y-46657011D01*
X41441662Y-46587853D01*
X41470687Y-46524297D01*
X41491998Y-46506143D01*
X41491465Y-46505437D01*
X41496033Y-46501985D01*
X41496041Y-46501981D01*
X41646764Y-46364579D01*
X41769673Y-46201821D01*
X41860582Y-46019250D01*
X41916397Y-45823083D01*
X41935215Y-45620000D01*
X41916397Y-45416917D01*
X41860582Y-45220750D01*
X41769673Y-45038179D01*
X41646764Y-44875421D01*
X41646762Y-44875418D01*
X41496041Y-44738019D01*
X41496039Y-44738017D01*
X41322642Y-44630655D01*
X41322635Y-44630651D01*
X41216150Y-44589399D01*
X41132456Y-44556976D01*
X40931976Y-44519500D01*
X40728024Y-44519500D01*
X40527544Y-44556976D01*
X40527541Y-44556976D01*
X40527541Y-44556977D01*
X40337364Y-44630651D01*
X40337357Y-44630655D01*
X40163960Y-44738017D01*
X40163958Y-44738019D01*
X40013237Y-44875418D01*
X39890327Y-45038178D01*
X39799422Y-45220739D01*
X39799417Y-45220752D01*
X39743602Y-45416917D01*
X39724785Y-45619999D01*
X39724785Y-45620000D01*
X39743602Y-45823082D01*
X39799417Y-46019247D01*
X39799422Y-46019260D01*
X39890327Y-46201821D01*
X40013237Y-46364581D01*
X40163958Y-46501980D01*
X40168535Y-46505437D01*
X40167231Y-46507163D01*
X40207509Y-46552093D01*
X40218618Y-46621074D01*
X40190670Y-46685110D01*
X40132537Y-46723871D01*
X40095600Y-46729500D01*
X39024400Y-46729500D01*
X38957361Y-46709815D01*
X38911606Y-46657011D01*
X38901662Y-46587853D01*
X38930687Y-46524297D01*
X38951998Y-46506143D01*
X38951465Y-46505437D01*
X38956033Y-46501985D01*
X38956041Y-46501981D01*
X39106764Y-46364579D01*
X39229673Y-46201821D01*
X39320582Y-46019250D01*
X39376397Y-45823083D01*
X39395215Y-45620000D01*
X39376397Y-45416917D01*
X39320582Y-45220750D01*
X39229673Y-45038179D01*
X39106764Y-44875421D01*
X39106762Y-44875418D01*
X38956041Y-44738019D01*
X38956039Y-44738017D01*
X38782642Y-44630655D01*
X38782635Y-44630651D01*
X38676150Y-44589399D01*
X38592456Y-44556976D01*
X38391976Y-44519500D01*
X38188024Y-44519500D01*
X37987544Y-44556976D01*
X37987541Y-44556976D01*
X37987541Y-44556977D01*
X37797364Y-44630651D01*
X37797357Y-44630655D01*
X37623960Y-44738017D01*
X37623958Y-44738019D01*
X37473237Y-44875418D01*
X37350327Y-45038178D01*
X37259422Y-45220739D01*
X37259417Y-45220752D01*
X37203602Y-45416917D01*
X37184785Y-45619999D01*
X37184785Y-45620000D01*
X37203602Y-45823082D01*
X37259417Y-46019247D01*
X37259422Y-46019260D01*
X37350327Y-46201821D01*
X37473237Y-46364581D01*
X37623958Y-46501980D01*
X37628535Y-46505437D01*
X37627231Y-46507163D01*
X37667509Y-46552093D01*
X37678618Y-46621074D01*
X37650670Y-46685110D01*
X37592537Y-46723871D01*
X37555600Y-46729500D01*
X36484400Y-46729500D01*
X36417361Y-46709815D01*
X36371606Y-46657011D01*
X36361662Y-46587853D01*
X36390687Y-46524297D01*
X36411998Y-46506143D01*
X36411465Y-46505437D01*
X36416033Y-46501985D01*
X36416041Y-46501981D01*
X36566764Y-46364579D01*
X36689673Y-46201821D01*
X36780582Y-46019250D01*
X36836397Y-45823083D01*
X36855215Y-45620000D01*
X36836397Y-45416917D01*
X36780582Y-45220750D01*
X36689673Y-45038179D01*
X36566764Y-44875421D01*
X36566762Y-44875418D01*
X36416041Y-44738019D01*
X36416039Y-44738017D01*
X36242642Y-44630655D01*
X36242635Y-44630651D01*
X36136150Y-44589399D01*
X36052456Y-44556976D01*
X35851976Y-44519500D01*
X35648024Y-44519500D01*
X35447544Y-44556976D01*
X35447541Y-44556976D01*
X35447541Y-44556977D01*
X35257364Y-44630651D01*
X35257357Y-44630655D01*
X35083960Y-44738017D01*
X35083958Y-44738019D01*
X34933237Y-44875418D01*
X34810327Y-45038178D01*
X34719422Y-45220739D01*
X34719417Y-45220752D01*
X34663602Y-45416917D01*
X34644785Y-45619999D01*
X34644785Y-45620000D01*
X34663602Y-45823082D01*
X34719417Y-46019247D01*
X34719422Y-46019260D01*
X34810327Y-46201821D01*
X34933237Y-46364581D01*
X35083958Y-46501980D01*
X35088535Y-46505437D01*
X35087231Y-46507163D01*
X35127509Y-46552093D01*
X35138618Y-46621074D01*
X35110670Y-46685110D01*
X35052537Y-46723871D01*
X35015600Y-46729500D01*
X33944400Y-46729500D01*
X33877361Y-46709815D01*
X33831606Y-46657011D01*
X33821662Y-46587853D01*
X33850687Y-46524297D01*
X33871998Y-46506143D01*
X33871465Y-46505437D01*
X33876033Y-46501985D01*
X33876041Y-46501981D01*
X34026764Y-46364579D01*
X34149673Y-46201821D01*
X34240582Y-46019250D01*
X34296397Y-45823083D01*
X34315215Y-45620000D01*
X34296397Y-45416917D01*
X34240582Y-45220750D01*
X34149673Y-45038179D01*
X34026764Y-44875421D01*
X34026762Y-44875418D01*
X33876041Y-44738019D01*
X33876039Y-44738017D01*
X33702642Y-44630655D01*
X33702635Y-44630651D01*
X33596150Y-44589399D01*
X33512456Y-44556976D01*
X33311976Y-44519500D01*
X33108024Y-44519500D01*
X32907544Y-44556976D01*
X32907541Y-44556976D01*
X32907541Y-44556977D01*
X32717364Y-44630651D01*
X32717357Y-44630655D01*
X32543960Y-44738017D01*
X32543958Y-44738019D01*
X32393237Y-44875418D01*
X32270327Y-45038178D01*
X32179422Y-45220739D01*
X32179417Y-45220752D01*
X32123602Y-45416917D01*
X32104785Y-45619999D01*
X32104785Y-45620000D01*
X32123602Y-45823082D01*
X32179417Y-46019247D01*
X32179422Y-46019260D01*
X32270327Y-46201821D01*
X32393237Y-46364581D01*
X32543958Y-46501980D01*
X32548535Y-46505437D01*
X32547231Y-46507163D01*
X32587509Y-46552093D01*
X32598618Y-46621074D01*
X32570670Y-46685110D01*
X32512537Y-46723871D01*
X32475600Y-46729500D01*
X31404400Y-46729500D01*
X31337361Y-46709815D01*
X31291606Y-46657011D01*
X31281662Y-46587853D01*
X31310687Y-46524297D01*
X31331998Y-46506143D01*
X31331465Y-46505437D01*
X31336033Y-46501985D01*
X31336041Y-46501981D01*
X31486764Y-46364579D01*
X31609673Y-46201821D01*
X31700582Y-46019250D01*
X31756397Y-45823083D01*
X31775215Y-45620000D01*
X31756397Y-45416917D01*
X31700582Y-45220750D01*
X31609673Y-45038179D01*
X31486764Y-44875421D01*
X31486762Y-44875418D01*
X31336041Y-44738019D01*
X31336039Y-44738017D01*
X31162642Y-44630655D01*
X31162635Y-44630651D01*
X31056150Y-44589399D01*
X30972456Y-44556976D01*
X30771976Y-44519500D01*
X30568024Y-44519500D01*
X30367544Y-44556976D01*
X30367541Y-44556976D01*
X30367541Y-44556977D01*
X30177364Y-44630651D01*
X30177357Y-44630655D01*
X30003960Y-44738017D01*
X30003958Y-44738019D01*
X29853237Y-44875418D01*
X29730327Y-45038178D01*
X29639422Y-45220739D01*
X29639417Y-45220752D01*
X29583602Y-45416917D01*
X29564785Y-45619999D01*
X29564785Y-45620000D01*
X29583602Y-45823082D01*
X29639417Y-46019247D01*
X29639422Y-46019260D01*
X29730327Y-46201821D01*
X29853237Y-46364581D01*
X30003958Y-46501980D01*
X30008535Y-46505437D01*
X30007231Y-46507163D01*
X30047509Y-46552093D01*
X30058618Y-46621074D01*
X30030670Y-46685110D01*
X29972537Y-46723871D01*
X29935600Y-46729500D01*
X28864400Y-46729500D01*
X28797361Y-46709815D01*
X28751606Y-46657011D01*
X28741662Y-46587853D01*
X28770687Y-46524297D01*
X28791998Y-46506143D01*
X28791465Y-46505437D01*
X28796033Y-46501985D01*
X28796041Y-46501981D01*
X28946764Y-46364579D01*
X29069673Y-46201821D01*
X29160582Y-46019250D01*
X29216397Y-45823083D01*
X29235215Y-45620000D01*
X29216397Y-45416917D01*
X29160582Y-45220750D01*
X29069673Y-45038179D01*
X28946764Y-44875421D01*
X28946762Y-44875418D01*
X28796041Y-44738019D01*
X28796039Y-44738017D01*
X28622642Y-44630655D01*
X28622635Y-44630651D01*
X28516150Y-44589399D01*
X28432456Y-44556976D01*
X28231976Y-44519500D01*
X28028024Y-44519500D01*
X27827544Y-44556976D01*
X27827541Y-44556976D01*
X27827541Y-44556977D01*
X27637364Y-44630651D01*
X27637357Y-44630655D01*
X27463960Y-44738017D01*
X27463958Y-44738019D01*
X27313237Y-44875418D01*
X27190327Y-45038178D01*
X27099422Y-45220739D01*
X27099417Y-45220752D01*
X27043602Y-45416917D01*
X27024785Y-45619999D01*
X27024785Y-45620000D01*
X27043602Y-45823082D01*
X27099417Y-46019247D01*
X27099422Y-46019260D01*
X27190327Y-46201821D01*
X27313237Y-46364581D01*
X27463958Y-46501980D01*
X27468535Y-46505437D01*
X27467231Y-46507163D01*
X27507509Y-46552093D01*
X27518618Y-46621074D01*
X27490670Y-46685110D01*
X27432537Y-46723871D01*
X27395600Y-46729500D01*
X26324400Y-46729500D01*
X26257361Y-46709815D01*
X26211606Y-46657011D01*
X26201662Y-46587853D01*
X26230687Y-46524297D01*
X26251998Y-46506143D01*
X26251465Y-46505437D01*
X26256033Y-46501985D01*
X26256041Y-46501981D01*
X26406764Y-46364579D01*
X26529673Y-46201821D01*
X26620582Y-46019250D01*
X26676397Y-45823083D01*
X26695215Y-45620000D01*
X26676397Y-45416917D01*
X26620582Y-45220750D01*
X26529673Y-45038179D01*
X26406764Y-44875421D01*
X26406762Y-44875418D01*
X26256041Y-44738019D01*
X26256039Y-44738017D01*
X26082642Y-44630655D01*
X26082635Y-44630651D01*
X25976150Y-44589399D01*
X25892456Y-44556976D01*
X25691976Y-44519500D01*
X25488024Y-44519500D01*
X25287544Y-44556976D01*
X25287541Y-44556976D01*
X25287541Y-44556977D01*
X25097364Y-44630651D01*
X25097357Y-44630655D01*
X24923960Y-44738017D01*
X24923958Y-44738019D01*
X24773237Y-44875418D01*
X24650327Y-45038178D01*
X24559422Y-45220739D01*
X24559417Y-45220752D01*
X24503602Y-45416917D01*
X24484785Y-45619999D01*
X24484785Y-45620000D01*
X24503602Y-45823082D01*
X24559417Y-46019247D01*
X24559422Y-46019260D01*
X24650327Y-46201821D01*
X24773237Y-46364581D01*
X24923958Y-46501980D01*
X24928535Y-46505437D01*
X24927231Y-46507163D01*
X24967509Y-46552093D01*
X24978618Y-46621074D01*
X24950670Y-46685110D01*
X24892537Y-46723871D01*
X24855600Y-46729500D01*
X23784400Y-46729500D01*
X23717361Y-46709815D01*
X23671606Y-46657011D01*
X23661662Y-46587853D01*
X23690687Y-46524297D01*
X23711998Y-46506143D01*
X23711465Y-46505437D01*
X23716033Y-46501985D01*
X23716041Y-46501981D01*
X23866764Y-46364579D01*
X23989673Y-46201821D01*
X24080582Y-46019250D01*
X24136397Y-45823083D01*
X24155215Y-45620000D01*
X24136397Y-45416917D01*
X24080582Y-45220750D01*
X23989673Y-45038179D01*
X23866764Y-44875421D01*
X23866762Y-44875418D01*
X23716041Y-44738019D01*
X23716039Y-44738017D01*
X23542642Y-44630655D01*
X23542635Y-44630651D01*
X23436150Y-44589399D01*
X23352456Y-44556976D01*
X23151976Y-44519500D01*
X22948024Y-44519500D01*
X22747544Y-44556976D01*
X22747541Y-44556976D01*
X22747541Y-44556977D01*
X22557364Y-44630651D01*
X22557357Y-44630655D01*
X22383960Y-44738017D01*
X22383958Y-44738019D01*
X22233237Y-44875418D01*
X22110327Y-45038178D01*
X22019422Y-45220739D01*
X22019417Y-45220752D01*
X21963602Y-45416917D01*
X21944785Y-45619999D01*
X21944785Y-45620000D01*
X21963602Y-45823082D01*
X22019417Y-46019247D01*
X22019422Y-46019260D01*
X22110327Y-46201821D01*
X22233237Y-46364581D01*
X22383958Y-46501980D01*
X22388535Y-46505437D01*
X22387231Y-46507163D01*
X22427509Y-46552093D01*
X22438618Y-46621074D01*
X22410670Y-46685110D01*
X22352537Y-46723871D01*
X22315600Y-46729500D01*
X21244400Y-46729500D01*
X21177361Y-46709815D01*
X21131606Y-46657011D01*
X21121662Y-46587853D01*
X21150687Y-46524297D01*
X21171998Y-46506143D01*
X21171465Y-46505437D01*
X21176033Y-46501985D01*
X21176041Y-46501981D01*
X21326764Y-46364579D01*
X21449673Y-46201821D01*
X21540582Y-46019250D01*
X21596397Y-45823083D01*
X21615215Y-45620000D01*
X21596397Y-45416917D01*
X21540582Y-45220750D01*
X21449673Y-45038179D01*
X21326764Y-44875421D01*
X21326762Y-44875418D01*
X21176041Y-44738019D01*
X21176039Y-44738017D01*
X21002642Y-44630655D01*
X21002635Y-44630651D01*
X20896150Y-44589399D01*
X20812456Y-44556976D01*
X20611976Y-44519500D01*
X20408024Y-44519500D01*
X20207544Y-44556976D01*
X20207541Y-44556976D01*
X20207541Y-44556977D01*
X20017364Y-44630651D01*
X20017357Y-44630655D01*
X19843960Y-44738017D01*
X19843958Y-44738019D01*
X19693237Y-44875418D01*
X19570327Y-45038178D01*
X19479422Y-45220739D01*
X19479417Y-45220752D01*
X19423602Y-45416917D01*
X19404785Y-45619999D01*
X19404785Y-45620000D01*
X19423602Y-45823082D01*
X19479417Y-46019247D01*
X19479422Y-46019260D01*
X19570327Y-46201821D01*
X19693237Y-46364581D01*
X19843958Y-46501980D01*
X19848535Y-46505437D01*
X19847231Y-46507163D01*
X19887509Y-46552093D01*
X19898618Y-46621074D01*
X19870670Y-46685110D01*
X19812537Y-46723871D01*
X19775600Y-46729500D01*
X18704400Y-46729500D01*
X18637361Y-46709815D01*
X18591606Y-46657011D01*
X18581662Y-46587853D01*
X18610687Y-46524297D01*
X18631998Y-46506143D01*
X18631465Y-46505437D01*
X18636033Y-46501985D01*
X18636041Y-46501981D01*
X18786764Y-46364579D01*
X18909673Y-46201821D01*
X19000582Y-46019250D01*
X19056397Y-45823083D01*
X19075215Y-45620000D01*
X19056397Y-45416917D01*
X19000582Y-45220750D01*
X18909673Y-45038179D01*
X18786764Y-44875421D01*
X18786762Y-44875418D01*
X18636041Y-44738019D01*
X18636039Y-44738017D01*
X18462642Y-44630655D01*
X18462635Y-44630651D01*
X18356150Y-44589399D01*
X18272456Y-44556976D01*
X18071976Y-44519500D01*
X17868024Y-44519500D01*
X17667544Y-44556976D01*
X17667541Y-44556976D01*
X17667541Y-44556977D01*
X17477364Y-44630651D01*
X17477357Y-44630655D01*
X17303960Y-44738017D01*
X17303958Y-44738019D01*
X17153237Y-44875418D01*
X17030327Y-45038178D01*
X16939422Y-45220739D01*
X16939417Y-45220752D01*
X16883602Y-45416917D01*
X16864785Y-45619999D01*
X16864785Y-45620000D01*
X16883602Y-45823082D01*
X16939417Y-46019247D01*
X16939422Y-46019260D01*
X17030327Y-46201821D01*
X17153237Y-46364581D01*
X17303958Y-46501980D01*
X17308535Y-46505437D01*
X17307231Y-46507163D01*
X17347509Y-46552093D01*
X17358618Y-46621074D01*
X17330670Y-46685110D01*
X17272537Y-46723871D01*
X17235600Y-46729500D01*
X16164400Y-46729500D01*
X16097361Y-46709815D01*
X16051606Y-46657011D01*
X16041662Y-46587853D01*
X16070687Y-46524297D01*
X16091998Y-46506143D01*
X16091465Y-46505437D01*
X16096033Y-46501985D01*
X16096041Y-46501981D01*
X16246764Y-46364579D01*
X16369673Y-46201821D01*
X16460582Y-46019250D01*
X16516397Y-45823083D01*
X16535215Y-45620000D01*
X16516397Y-45416917D01*
X16460582Y-45220750D01*
X16369673Y-45038179D01*
X16246764Y-44875421D01*
X16246762Y-44875418D01*
X16096041Y-44738019D01*
X16096039Y-44738017D01*
X15922642Y-44630655D01*
X15922635Y-44630651D01*
X15816150Y-44589399D01*
X15732456Y-44556976D01*
X15531976Y-44519500D01*
X15328024Y-44519500D01*
X15127544Y-44556976D01*
X15127541Y-44556976D01*
X15127541Y-44556977D01*
X14937364Y-44630651D01*
X14937357Y-44630655D01*
X14763960Y-44738017D01*
X14763958Y-44738019D01*
X14613237Y-44875418D01*
X14490327Y-45038178D01*
X14399422Y-45220739D01*
X14399417Y-45220752D01*
X14343602Y-45416917D01*
X14324785Y-45619999D01*
X14324785Y-45620000D01*
X14343602Y-45823082D01*
X14399417Y-46019247D01*
X14399422Y-46019260D01*
X14490327Y-46201821D01*
X14613237Y-46364581D01*
X14763958Y-46501980D01*
X14768535Y-46505437D01*
X14767231Y-46507163D01*
X14807509Y-46552093D01*
X14818618Y-46621074D01*
X14790670Y-46685110D01*
X14732537Y-46723871D01*
X14695600Y-46729500D01*
X13624400Y-46729500D01*
X13557361Y-46709815D01*
X13511606Y-46657011D01*
X13501662Y-46587853D01*
X13530687Y-46524297D01*
X13551998Y-46506143D01*
X13551465Y-46505437D01*
X13556033Y-46501985D01*
X13556041Y-46501981D01*
X13706764Y-46364579D01*
X13829673Y-46201821D01*
X13920582Y-46019250D01*
X13976397Y-45823083D01*
X13995215Y-45620000D01*
X13976397Y-45416917D01*
X13920582Y-45220750D01*
X13829673Y-45038179D01*
X13706764Y-44875421D01*
X13706762Y-44875418D01*
X13556041Y-44738019D01*
X13556039Y-44738017D01*
X13382642Y-44630655D01*
X13382635Y-44630651D01*
X13276150Y-44589399D01*
X13192456Y-44556976D01*
X12991976Y-44519500D01*
X12788024Y-44519500D01*
X12587544Y-44556976D01*
X12587541Y-44556976D01*
X12587541Y-44556977D01*
X12397364Y-44630651D01*
X12397357Y-44630655D01*
X12223960Y-44738017D01*
X12223958Y-44738019D01*
X12073237Y-44875418D01*
X11950327Y-45038178D01*
X11859422Y-45220739D01*
X11859417Y-45220752D01*
X11803602Y-45416917D01*
X11784785Y-45619999D01*
X11784785Y-45620000D01*
X11803602Y-45823082D01*
X11859417Y-46019247D01*
X11859422Y-46019260D01*
X11950327Y-46201821D01*
X12073237Y-46364581D01*
X12223958Y-46501980D01*
X12228535Y-46505437D01*
X12227231Y-46507163D01*
X12267509Y-46552093D01*
X12278618Y-46621074D01*
X12250670Y-46685110D01*
X12192537Y-46723871D01*
X12155600Y-46729500D01*
X11084400Y-46729500D01*
X11017361Y-46709815D01*
X10971606Y-46657011D01*
X10961662Y-46587853D01*
X10990687Y-46524297D01*
X11011998Y-46506143D01*
X11011465Y-46505437D01*
X11016033Y-46501985D01*
X11016041Y-46501981D01*
X11166764Y-46364579D01*
X11289673Y-46201821D01*
X11380582Y-46019250D01*
X11436397Y-45823083D01*
X11455215Y-45620000D01*
X11436397Y-45416917D01*
X11380582Y-45220750D01*
X11289673Y-45038179D01*
X11166764Y-44875421D01*
X11166762Y-44875418D01*
X11016041Y-44738019D01*
X11016039Y-44738017D01*
X10842642Y-44630655D01*
X10842635Y-44630651D01*
X10736150Y-44589399D01*
X10652456Y-44556976D01*
X10451976Y-44519500D01*
X10248024Y-44519500D01*
X10047544Y-44556976D01*
X10047541Y-44556976D01*
X10047541Y-44556977D01*
X9857364Y-44630651D01*
X9857357Y-44630655D01*
X9683960Y-44738017D01*
X9683958Y-44738019D01*
X9533237Y-44875418D01*
X9410327Y-45038178D01*
X9319422Y-45220739D01*
X9319417Y-45220752D01*
X9263602Y-45416917D01*
X9244785Y-45619999D01*
X9244785Y-45620000D01*
X9263602Y-45823082D01*
X9319417Y-46019247D01*
X9319422Y-46019260D01*
X9410327Y-46201821D01*
X9533237Y-46364581D01*
X9683958Y-46501980D01*
X9688535Y-46505437D01*
X9687231Y-46507163D01*
X9727509Y-46552093D01*
X9738618Y-46621074D01*
X9710670Y-46685110D01*
X9652537Y-46723871D01*
X9615600Y-46729500D01*
X8544400Y-46729500D01*
X8477361Y-46709815D01*
X8431606Y-46657011D01*
X8421662Y-46587853D01*
X8450687Y-46524297D01*
X8471998Y-46506143D01*
X8471465Y-46505437D01*
X8476033Y-46501985D01*
X8476041Y-46501981D01*
X8626764Y-46364579D01*
X8749673Y-46201821D01*
X8840582Y-46019250D01*
X8896397Y-45823083D01*
X8915215Y-45620000D01*
X8896397Y-45416917D01*
X8840582Y-45220750D01*
X8749673Y-45038179D01*
X8626764Y-44875421D01*
X8626762Y-44875418D01*
X8476041Y-44738019D01*
X8476039Y-44738017D01*
X8302642Y-44630655D01*
X8302635Y-44630651D01*
X8196150Y-44589399D01*
X8112456Y-44556976D01*
X7911976Y-44519500D01*
X7708024Y-44519500D01*
X7507544Y-44556976D01*
X7507541Y-44556976D01*
X7507541Y-44556977D01*
X7317364Y-44630651D01*
X7317357Y-44630655D01*
X7143960Y-44738017D01*
X7143958Y-44738019D01*
X6993237Y-44875418D01*
X6870327Y-45038178D01*
X6779422Y-45220739D01*
X6779417Y-45220752D01*
X6723602Y-45416917D01*
X6704785Y-45619999D01*
X6704785Y-45620000D01*
X6723602Y-45823082D01*
X6779417Y-46019247D01*
X6779422Y-46019260D01*
X6870327Y-46201821D01*
X6993237Y-46364581D01*
X7143958Y-46501980D01*
X7148535Y-46505437D01*
X7147231Y-46507163D01*
X7187509Y-46552093D01*
X7198618Y-46621074D01*
X7170670Y-46685110D01*
X7112537Y-46723871D01*
X7075600Y-46729500D01*
X6004400Y-46729500D01*
X5937361Y-46709815D01*
X5891606Y-46657011D01*
X5881662Y-46587853D01*
X5910687Y-46524297D01*
X5931998Y-46506143D01*
X5931465Y-46505437D01*
X5936033Y-46501985D01*
X5936041Y-46501981D01*
X6086764Y-46364579D01*
X6209673Y-46201821D01*
X6300582Y-46019250D01*
X6356397Y-45823083D01*
X6375215Y-45620000D01*
X6356397Y-45416917D01*
X6300582Y-45220750D01*
X6209673Y-45038179D01*
X6086764Y-44875421D01*
X6086762Y-44875418D01*
X5936041Y-44738019D01*
X5936039Y-44738017D01*
X5762642Y-44630655D01*
X5762635Y-44630651D01*
X5656150Y-44589399D01*
X5572456Y-44556976D01*
X5371976Y-44519500D01*
X5168024Y-44519500D01*
X4967544Y-44556976D01*
X4967541Y-44556976D01*
X4967541Y-44556977D01*
X4777364Y-44630651D01*
X4777357Y-44630655D01*
X4603960Y-44738017D01*
X4603958Y-44738019D01*
X4453237Y-44875418D01*
X4330327Y-45038178D01*
X4239422Y-45220739D01*
X4239417Y-45220752D01*
X4183602Y-45416917D01*
X4164785Y-45619999D01*
X4164785Y-45620000D01*
X4183602Y-45823082D01*
X4239417Y-46019247D01*
X4239422Y-46019260D01*
X4330327Y-46201821D01*
X4453237Y-46364581D01*
X4603958Y-46501980D01*
X4608535Y-46505437D01*
X4607231Y-46507163D01*
X4647509Y-46552093D01*
X4658618Y-46621074D01*
X4630670Y-46685110D01*
X4572537Y-46723871D01*
X4535600Y-46729500D01*
X3464400Y-46729500D01*
X3397361Y-46709815D01*
X3351606Y-46657011D01*
X3341662Y-46587853D01*
X3370687Y-46524297D01*
X3391998Y-46506143D01*
X3391465Y-46505437D01*
X3396033Y-46501985D01*
X3396041Y-46501981D01*
X3546764Y-46364579D01*
X3669673Y-46201821D01*
X3760582Y-46019250D01*
X3816397Y-45823083D01*
X3835215Y-45620000D01*
X3816397Y-45416917D01*
X3760582Y-45220750D01*
X3669673Y-45038179D01*
X3546764Y-44875421D01*
X3546762Y-44875418D01*
X3396041Y-44738019D01*
X3396039Y-44738017D01*
X3222642Y-44630655D01*
X3222635Y-44630651D01*
X3116150Y-44589399D01*
X3032456Y-44556976D01*
X2831976Y-44519500D01*
X2628024Y-44519500D01*
X2427544Y-44556976D01*
X2427541Y-44556976D01*
X2427541Y-44556977D01*
X2237364Y-44630651D01*
X2237357Y-44630655D01*
X2063960Y-44738017D01*
X2063958Y-44738019D01*
X1913237Y-44875418D01*
X1790327Y-45038178D01*
X1699422Y-45220739D01*
X1699417Y-45220752D01*
X1643602Y-45416917D01*
X1624785Y-45619999D01*
X1624785Y-45620000D01*
X1643602Y-45823082D01*
X1699417Y-46019247D01*
X1699422Y-46019260D01*
X1790327Y-46201821D01*
X1913237Y-46364581D01*
X2063958Y-46501980D01*
X2068535Y-46505437D01*
X2067231Y-46507163D01*
X2107509Y-46552093D01*
X2118618Y-46621074D01*
X2090670Y-46685110D01*
X2032537Y-46723871D01*
X1995600Y-46729500D01*
X924400Y-46729500D01*
X857361Y-46709815D01*
X811606Y-46657011D01*
X801662Y-46587853D01*
X830687Y-46524297D01*
X851998Y-46506143D01*
X851465Y-46505437D01*
X856033Y-46501985D01*
X856041Y-46501981D01*
X1006764Y-46364579D01*
X1129673Y-46201821D01*
X1220582Y-46019250D01*
X1276397Y-45823083D01*
X1295215Y-45620000D01*
X1276397Y-45416917D01*
X1220582Y-45220750D01*
X1129673Y-45038179D01*
X1006764Y-44875421D01*
X1006762Y-44875418D01*
X856041Y-44738019D01*
X856039Y-44738017D01*
X682642Y-44630655D01*
X682635Y-44630651D01*
X576150Y-44589399D01*
X492456Y-44556976D01*
X291976Y-44519500D01*
X88024Y-44519500D01*
X-112456Y-44556976D01*
X-112459Y-44556976D01*
X-112459Y-44556977D01*
X-302636Y-44630651D01*
X-302643Y-44630655D01*
X-476040Y-44738017D01*
X-476042Y-44738019D01*
X-626763Y-44875418D01*
X-749673Y-45038178D01*
X-840578Y-45220739D01*
X-840583Y-45220752D01*
X-896398Y-45416917D01*
X-915215Y-45619999D01*
X-915215Y-45620000D01*
X-896398Y-45823082D01*
X-840583Y-46019247D01*
X-840578Y-46019260D01*
X-749673Y-46201821D01*
X-626763Y-46364581D01*
X-476042Y-46501980D01*
X-471465Y-46505437D01*
X-472769Y-46507163D01*
X-432491Y-46552093D01*
X-421382Y-46621074D01*
X-449330Y-46685110D01*
X-507463Y-46723871D01*
X-544400Y-46729500D01*
X-1615600Y-46729500D01*
X-1682639Y-46709815D01*
X-1728394Y-46657011D01*
X-1738338Y-46587853D01*
X-1709313Y-46524297D01*
X-1688002Y-46506143D01*
X-1688535Y-46505437D01*
X-1683967Y-46501985D01*
X-1683959Y-46501981D01*
X-1533236Y-46364579D01*
X-1410327Y-46201821D01*
X-1319418Y-46019250D01*
X-1263603Y-45823083D01*
X-1244785Y-45620000D01*
X-1263603Y-45416917D01*
X-1319418Y-45220750D01*
X-1410327Y-45038179D01*
X-1533236Y-44875421D01*
X-1533238Y-44875418D01*
X-1683959Y-44738019D01*
X-1683961Y-44738017D01*
X-1857358Y-44630655D01*
X-1857365Y-44630651D01*
X-1963850Y-44589399D01*
X-2047544Y-44556976D01*
X-2248024Y-44519500D01*
X-2451976Y-44519500D01*
X-2652456Y-44556976D01*
X-2652459Y-44556976D01*
X-2652459Y-44556977D01*
X-2842636Y-44630651D01*
X-2842643Y-44630655D01*
X-3016040Y-44738017D01*
X-3016042Y-44738019D01*
X-3166763Y-44875418D01*
X-3289673Y-45038178D01*
X-3380578Y-45220739D01*
X-3380583Y-45220752D01*
X-3436398Y-45416917D01*
X-3455215Y-45619999D01*
X-3455215Y-45620000D01*
X-3436398Y-45823082D01*
X-3380583Y-46019247D01*
X-3380578Y-46019260D01*
X-3289673Y-46201821D01*
X-3166763Y-46364581D01*
X-3016042Y-46501980D01*
X-3011465Y-46505437D01*
X-3012769Y-46507163D01*
X-2972491Y-46552093D01*
X-2961382Y-46621074D01*
X-2989330Y-46685110D01*
X-3047463Y-46723871D01*
X-3084400Y-46729500D01*
X-4155600Y-46729500D01*
X-4222639Y-46709815D01*
X-4268394Y-46657011D01*
X-4278338Y-46587853D01*
X-4249313Y-46524297D01*
X-4228002Y-46506143D01*
X-4228535Y-46505437D01*
X-4223967Y-46501985D01*
X-4223959Y-46501981D01*
X-4073236Y-46364579D01*
X-3950327Y-46201821D01*
X-3859418Y-46019250D01*
X-3803603Y-45823083D01*
X-3784785Y-45620000D01*
X-3803603Y-45416917D01*
X-3859418Y-45220750D01*
X-3950327Y-45038179D01*
X-4073236Y-44875421D01*
X-4073238Y-44875418D01*
X-4223959Y-44738019D01*
X-4223961Y-44738017D01*
X-4397358Y-44630655D01*
X-4397365Y-44630651D01*
X-4503850Y-44589399D01*
X-4587544Y-44556976D01*
X-4788024Y-44519500D01*
X-4991976Y-44519500D01*
X-5192456Y-44556976D01*
X-5192459Y-44556976D01*
X-5192459Y-44556977D01*
X-5382636Y-44630651D01*
X-5382643Y-44630655D01*
X-5556040Y-44738017D01*
X-5556042Y-44738019D01*
X-5706763Y-44875418D01*
X-5829673Y-45038178D01*
X-5920578Y-45220739D01*
X-5920583Y-45220752D01*
X-5976398Y-45416917D01*
X-5995215Y-45619999D01*
X-5995215Y-45620000D01*
X-5976398Y-45823082D01*
X-5920583Y-46019247D01*
X-5920578Y-46019260D01*
X-5829673Y-46201821D01*
X-5706763Y-46364581D01*
X-5556042Y-46501980D01*
X-5551465Y-46505437D01*
X-5552769Y-46507163D01*
X-5512491Y-46552093D01*
X-5501382Y-46621074D01*
X-5529330Y-46685110D01*
X-5587463Y-46723871D01*
X-5624400Y-46729500D01*
X-6695600Y-46729500D01*
X-6762639Y-46709815D01*
X-6808394Y-46657011D01*
X-6818338Y-46587853D01*
X-6789313Y-46524297D01*
X-6768002Y-46506143D01*
X-6768535Y-46505437D01*
X-6763967Y-46501985D01*
X-6763959Y-46501981D01*
X-6613236Y-46364579D01*
X-6490327Y-46201821D01*
X-6399418Y-46019250D01*
X-6343603Y-45823083D01*
X-6324785Y-45620000D01*
X-6343603Y-45416917D01*
X-6399418Y-45220750D01*
X-6490327Y-45038179D01*
X-6613236Y-44875421D01*
X-6613238Y-44875418D01*
X-6763959Y-44738019D01*
X-6763961Y-44738017D01*
X-6937358Y-44630655D01*
X-6937365Y-44630651D01*
X-7043850Y-44589399D01*
X-7127544Y-44556976D01*
X-7328024Y-44519500D01*
X-7531976Y-44519500D01*
X-7732456Y-44556976D01*
X-7732459Y-44556976D01*
X-7732459Y-44556977D01*
X-7922636Y-44630651D01*
X-7922643Y-44630655D01*
X-8096040Y-44738017D01*
X-8096042Y-44738019D01*
X-8246763Y-44875418D01*
X-8369673Y-45038178D01*
X-8460578Y-45220739D01*
X-8460583Y-45220752D01*
X-8516398Y-45416917D01*
X-8535215Y-45619999D01*
X-8535215Y-45620000D01*
X-8516398Y-45823082D01*
X-8460583Y-46019247D01*
X-8460578Y-46019260D01*
X-8369673Y-46201821D01*
X-8246763Y-46364581D01*
X-8096042Y-46501980D01*
X-8091465Y-46505437D01*
X-8092769Y-46507163D01*
X-8052491Y-46552093D01*
X-8041382Y-46621074D01*
X-8069330Y-46685110D01*
X-8127463Y-46723871D01*
X-8164400Y-46729500D01*
X-8765458Y-46729500D01*
X-8832497Y-46709815D01*
X-8878252Y-46657011D01*
X-8888196Y-46587853D01*
X-8885988Y-46579804D01*
X-8886416Y-46579719D01*
X-8871641Y-46505437D01*
X-8869500Y-46494674D01*
X-8869500Y-44745326D01*
X-8869500Y-44745323D01*
X-8869501Y-44745321D01*
X-8884033Y-44672264D01*
X-8884034Y-44672260D01*
X-8886878Y-44668003D01*
X-8939399Y-44589399D01*
X-9022260Y-44534034D01*
X-9022261Y-44534033D01*
X-9022265Y-44534032D01*
X-9095323Y-44519500D01*
X-9095326Y-44519500D01*
X-10844674Y-44519500D01*
X-10844677Y-44519500D01*
X-10917736Y-44534032D01*
X-10917740Y-44534033D01*
X-11000601Y-44589399D01*
X-11055967Y-44672260D01*
X-11055968Y-44672264D01*
X-11070500Y-44745321D01*
X-11070500Y-46429689D01*
X-11090185Y-46496728D01*
X-11142989Y-46542483D01*
X-11212147Y-46552427D01*
X-11231787Y-46547950D01*
X-11559264Y-46444697D01*
X-11569430Y-46440997D01*
X-11942227Y-46286579D01*
X-11952031Y-46282007D01*
X-12309943Y-46095690D01*
X-12319311Y-46090282D01*
X-12659639Y-45873469D01*
X-12668500Y-45867264D01*
X-12988628Y-45621621D01*
X-12996915Y-45614667D01*
X-13294413Y-45342061D01*
X-13302062Y-45334412D01*
X-13574668Y-45036914D01*
X-13581622Y-45028627D01*
X-13827265Y-44708499D01*
X-13833470Y-44699638D01*
X-13885049Y-44618676D01*
X-14050284Y-44359309D01*
X-14055691Y-44349942D01*
X-14242008Y-43992030D01*
X-14246580Y-43982226D01*
X-14252230Y-43968585D01*
X-14401004Y-43609414D01*
X-14404693Y-43599279D01*
X-14526044Y-43214405D01*
X-14528833Y-43203993D01*
X-14616177Y-42810010D01*
X-14618050Y-42799386D01*
X-14670723Y-42399293D01*
X-14671663Y-42388558D01*
X-14689382Y-41982701D01*
X-14689500Y-41977293D01*
X-14689500Y-41833713D01*
X-14040500Y-41833713D01*
X-14040500Y-42046286D01*
X-14007747Y-42253083D01*
X-14007246Y-42256243D01*
X-13944531Y-42449260D01*
X-13941556Y-42458414D01*
X-13845049Y-42647820D01*
X-13720110Y-42819786D01*
X-13569787Y-42970109D01*
X-13397821Y-43095048D01*
X-13397819Y-43095049D01*
X-13397816Y-43095051D01*
X-13208412Y-43191557D01*
X-13006243Y-43257246D01*
X-12796287Y-43290500D01*
X-12796286Y-43290500D01*
X-12583714Y-43290500D01*
X-12583713Y-43290500D01*
X-12373757Y-43257246D01*
X-12171588Y-43191557D01*
X-11982184Y-43095051D01*
X-11905509Y-43039344D01*
X-11810214Y-42970109D01*
X-11810212Y-42970106D01*
X-11810208Y-42970104D01*
X-11659896Y-42819792D01*
X-11659894Y-42819788D01*
X-11659891Y-42819786D01*
X-11534952Y-42647820D01*
X-11534953Y-42647820D01*
X-11534949Y-42647816D01*
X-11438443Y-42458412D01*
X-11372754Y-42256243D01*
X-11339500Y-42046287D01*
X-11339500Y-41833713D01*
X-11372754Y-41623757D01*
X-11438443Y-41421588D01*
X-11534949Y-41232184D01*
X-11534951Y-41232181D01*
X-11534952Y-41232179D01*
X-11659891Y-41060213D01*
X-11810214Y-40909890D01*
X-11982180Y-40784951D01*
X-12171586Y-40688444D01*
X-12171587Y-40688443D01*
X-12171588Y-40688443D01*
X-12373757Y-40622754D01*
X-12373759Y-40622753D01*
X-12373760Y-40622753D01*
X-12535043Y-40597208D01*
X-12583713Y-40589500D01*
X-12796287Y-40589500D01*
X-12844958Y-40597208D01*
X-13006240Y-40622753D01*
X-13208415Y-40688444D01*
X-13397821Y-40784951D01*
X-13569787Y-40909890D01*
X-13720110Y-41060213D01*
X-13845049Y-41232179D01*
X-13941556Y-41421585D01*
X-14007247Y-41623760D01*
X-14040500Y-41833713D01*
X-14689500Y-41833713D01*
X-14689500Y-37369999D01*
X4734785Y-37369999D01*
X4734785Y-37370000D01*
X4753602Y-37573082D01*
X4809417Y-37769247D01*
X4809422Y-37769260D01*
X4900327Y-37951821D01*
X5023237Y-38114581D01*
X5173958Y-38251980D01*
X5173960Y-38251982D01*
X5273141Y-38313392D01*
X5347363Y-38359348D01*
X5537544Y-38433024D01*
X5738024Y-38470500D01*
X5738026Y-38470500D01*
X5941974Y-38470500D01*
X5941976Y-38470500D01*
X6142456Y-38433024D01*
X6332637Y-38359348D01*
X6506041Y-38251981D01*
X6656764Y-38114579D01*
X6779673Y-37951821D01*
X6870582Y-37769250D01*
X6926397Y-37573083D01*
X6945215Y-37370000D01*
X6945215Y-37369999D01*
X7274785Y-37369999D01*
X7274785Y-37370000D01*
X7293602Y-37573082D01*
X7349417Y-37769247D01*
X7349422Y-37769260D01*
X7440327Y-37951821D01*
X7563237Y-38114581D01*
X7713958Y-38251980D01*
X7713960Y-38251982D01*
X7813141Y-38313392D01*
X7887363Y-38359348D01*
X8077544Y-38433024D01*
X8278024Y-38470500D01*
X8278026Y-38470500D01*
X8481974Y-38470500D01*
X8481976Y-38470500D01*
X8682456Y-38433024D01*
X8872637Y-38359348D01*
X9046041Y-38251981D01*
X9196764Y-38114579D01*
X9319673Y-37951821D01*
X9410582Y-37769250D01*
X9466397Y-37573083D01*
X9485215Y-37370000D01*
X9485146Y-37369260D01*
X9466397Y-37166917D01*
X9410584Y-36970758D01*
X9410582Y-36970750D01*
X9397787Y-36945055D01*
X9389154Y-36922396D01*
X9388369Y-36919513D01*
X9388349Y-36919473D01*
X8743525Y-35625944D01*
X8730500Y-35570623D01*
X8730500Y-34814429D01*
X8734726Y-34782331D01*
X8736612Y-34775289D01*
X8736614Y-34775288D01*
X8739541Y-34764364D01*
X8760500Y-34686144D01*
X8760500Y-32156035D01*
X8780185Y-32088996D01*
X8790782Y-32074837D01*
X8835377Y-32023373D01*
X8895165Y-31892457D01*
X8915647Y-31750000D01*
X8895165Y-31607543D01*
X8835377Y-31476627D01*
X8741128Y-31367857D01*
X8620053Y-31290047D01*
X8620051Y-31290046D01*
X8620049Y-31290045D01*
X8620050Y-31290045D01*
X8481963Y-31249500D01*
X8481961Y-31249500D01*
X8338039Y-31249500D01*
X8338036Y-31249500D01*
X8199949Y-31290045D01*
X8078873Y-31367856D01*
X7984623Y-31476626D01*
X7984622Y-31476628D01*
X7924834Y-31607543D01*
X7904353Y-31750000D01*
X7924834Y-31892456D01*
X7984622Y-32023371D01*
X7984623Y-32023373D01*
X8029213Y-32074833D01*
X8058238Y-32138388D01*
X8059500Y-32156035D01*
X8059500Y-34495570D01*
X8055275Y-34527663D01*
X8029500Y-34623856D01*
X8029500Y-35570623D01*
X8016475Y-35625944D01*
X7371649Y-36919473D01*
X7367780Y-36927582D01*
X7367473Y-36928256D01*
X7364007Y-36936215D01*
X7362498Y-36941023D01*
X7355195Y-36959144D01*
X7349419Y-36970745D01*
X7349416Y-36970753D01*
X7293603Y-37166915D01*
X7293602Y-37166917D01*
X7274785Y-37369999D01*
X6945215Y-37369999D01*
X6945146Y-37369260D01*
X6926397Y-37166917D01*
X6870584Y-36970758D01*
X6870582Y-36970750D01*
X6870208Y-36969999D01*
X6810349Y-36849786D01*
X6779673Y-36788179D01*
X6656764Y-36625421D01*
X6656762Y-36625418D01*
X6506041Y-36488019D01*
X6506039Y-36488017D01*
X6332642Y-36380655D01*
X6332635Y-36380651D01*
X6219475Y-36336813D01*
X6142456Y-36306976D01*
X5941976Y-36269500D01*
X5738024Y-36269500D01*
X5537544Y-36306976D01*
X5537541Y-36306976D01*
X5537541Y-36306977D01*
X5347364Y-36380651D01*
X5347357Y-36380655D01*
X5173960Y-36488017D01*
X5173958Y-36488019D01*
X5023237Y-36625418D01*
X4900327Y-36788178D01*
X4809422Y-36970739D01*
X4809417Y-36970752D01*
X4753602Y-37166917D01*
X4734785Y-37369999D01*
X-14689500Y-37369999D01*
X-14689500Y-34025321D01*
X-12020500Y-34025321D01*
X-12020500Y-35774678D01*
X-12005968Y-35847735D01*
X-12005967Y-35847739D01*
X-11991427Y-35869500D01*
X-11950601Y-35930601D01*
X-11867740Y-35985966D01*
X-11867736Y-35985967D01*
X-11794679Y-36000499D01*
X-11794676Y-36000500D01*
X-11794674Y-36000500D01*
X-10045324Y-36000500D01*
X-10045323Y-36000499D01*
X-9972260Y-35985966D01*
X-9889399Y-35930601D01*
X-9834034Y-35847740D01*
X-9819500Y-35774674D01*
X-9819500Y-34025326D01*
X-9819500Y-34025323D01*
X-9819501Y-34025321D01*
X-9834033Y-33952264D01*
X-9834034Y-33952260D01*
X-9889399Y-33869399D01*
X-9972260Y-33814034D01*
X-9972261Y-33814033D01*
X-9972265Y-33814032D01*
X-10045323Y-33799500D01*
X-10045326Y-33799500D01*
X-11794674Y-33799500D01*
X-11794677Y-33799500D01*
X-11867736Y-33814032D01*
X-11867740Y-33814033D01*
X-11950601Y-33869399D01*
X-12005967Y-33952260D01*
X-12005968Y-33952264D01*
X-12020500Y-34025321D01*
X-14689500Y-34025321D01*
X-14689500Y-32359999D01*
X-12025215Y-32359999D01*
X-12025215Y-32360000D01*
X-12006398Y-32563082D01*
X-11950583Y-32759247D01*
X-11950578Y-32759260D01*
X-11859673Y-32941821D01*
X-11736763Y-33104581D01*
X-11586042Y-33241980D01*
X-11586040Y-33241982D01*
X-11486859Y-33303392D01*
X-11412637Y-33349348D01*
X-11222456Y-33423024D01*
X-11021976Y-33460500D01*
X-11021974Y-33460500D01*
X-10818026Y-33460500D01*
X-10818024Y-33460500D01*
X-10617544Y-33423024D01*
X-10427363Y-33349348D01*
X-10253959Y-33241981D01*
X-10103236Y-33104579D01*
X-9980327Y-32941821D01*
X-9889418Y-32759250D01*
X-9833603Y-32563083D01*
X-9814785Y-32360000D01*
X-9833603Y-32156917D01*
X-9889418Y-31960750D01*
X-9924648Y-31889999D01*
X-9933728Y-31871764D01*
X-9980327Y-31778179D01*
X-10099778Y-31620000D01*
X-10103238Y-31615418D01*
X-10253959Y-31478019D01*
X-10253961Y-31478017D01*
X-10427358Y-31370655D01*
X-10427365Y-31370651D01*
X-10565443Y-31317160D01*
X-10617544Y-31296976D01*
X-10818024Y-31259500D01*
X-11021976Y-31259500D01*
X-11222456Y-31296976D01*
X-11222459Y-31296976D01*
X-11222459Y-31296977D01*
X-11412636Y-31370651D01*
X-11412643Y-31370655D01*
X-11586040Y-31478017D01*
X-11586042Y-31478019D01*
X-11736763Y-31615418D01*
X-11859673Y-31778178D01*
X-11950578Y-31960739D01*
X-11950583Y-31960752D01*
X-12006398Y-32156917D01*
X-12025215Y-32359999D01*
X-14689500Y-32359999D01*
X-14689500Y-29819999D01*
X-12025215Y-29819999D01*
X-12025215Y-29820000D01*
X-12006398Y-30023082D01*
X-11950583Y-30219247D01*
X-11950578Y-30219260D01*
X-11859673Y-30401821D01*
X-11736763Y-30564581D01*
X-11586042Y-30701980D01*
X-11586040Y-30701982D01*
X-11486859Y-30763392D01*
X-11412637Y-30809348D01*
X-11222456Y-30883024D01*
X-11021976Y-30920500D01*
X-11021974Y-30920500D01*
X-10818026Y-30920500D01*
X-10818024Y-30920500D01*
X-10617544Y-30883024D01*
X-10427363Y-30809348D01*
X-10253959Y-30701981D01*
X-10103236Y-30564579D01*
X-9980327Y-30401821D01*
X-9889418Y-30219250D01*
X-9833603Y-30023083D01*
X-9814785Y-29820000D01*
X-9833603Y-29616917D01*
X-9889418Y-29420750D01*
X-9924648Y-29349999D01*
X-9933728Y-29331764D01*
X-9980327Y-29238179D01*
X-10060784Y-29131636D01*
X-10103238Y-29075418D01*
X-10253959Y-28938019D01*
X-10253961Y-28938017D01*
X-10427358Y-28830655D01*
X-10427365Y-28830651D01*
X-10588626Y-28768179D01*
X-10617544Y-28756976D01*
X-10818024Y-28719500D01*
X-11021976Y-28719500D01*
X-11222456Y-28756976D01*
X-11222459Y-28756976D01*
X-11222459Y-28756977D01*
X-11412636Y-28830651D01*
X-11412643Y-28830655D01*
X-11586040Y-28938017D01*
X-11586042Y-28938019D01*
X-11736763Y-29075418D01*
X-11859673Y-29238178D01*
X-11950578Y-29420739D01*
X-11950583Y-29420752D01*
X-12006398Y-29616917D01*
X-12025215Y-29819999D01*
X-14689500Y-29819999D01*
X-14689500Y-27279999D01*
X-12025215Y-27279999D01*
X-12025215Y-27280000D01*
X-12006398Y-27483082D01*
X-11950583Y-27679247D01*
X-11950578Y-27679260D01*
X-11859673Y-27861821D01*
X-11736763Y-28024581D01*
X-11586042Y-28161980D01*
X-11586040Y-28161982D01*
X-11486859Y-28223392D01*
X-11412637Y-28269348D01*
X-11222456Y-28343024D01*
X-11021976Y-28380500D01*
X-11021974Y-28380500D01*
X-10818026Y-28380500D01*
X-10818024Y-28380500D01*
X-10617544Y-28343024D01*
X-10427363Y-28269348D01*
X-10253959Y-28161981D01*
X-10103236Y-28024579D01*
X-9980327Y-27861821D01*
X-9889418Y-27679250D01*
X-9833603Y-27483083D01*
X-9814785Y-27280000D01*
X-9833603Y-27076917D01*
X-9889418Y-26880750D01*
X-9902784Y-26853908D01*
X-9960643Y-26737711D01*
X-9980327Y-26698179D01*
X-10103236Y-26535421D01*
X-10103238Y-26535418D01*
X-10253959Y-26398019D01*
X-10253961Y-26398017D01*
X-10427358Y-26290655D01*
X-10427365Y-26290651D01*
X-10588626Y-26228179D01*
X-10617544Y-26216976D01*
X-10818024Y-26179500D01*
X-11021976Y-26179500D01*
X-11222456Y-26216976D01*
X-11222459Y-26216976D01*
X-11222459Y-26216977D01*
X-11412636Y-26290651D01*
X-11412643Y-26290655D01*
X-11586040Y-26398017D01*
X-11586042Y-26398019D01*
X-11736763Y-26535418D01*
X-11859673Y-26698178D01*
X-11950578Y-26880739D01*
X-11950583Y-26880752D01*
X-12006398Y-27076917D01*
X-12025215Y-27279999D01*
X-14689500Y-27279999D01*
X-14689500Y-17479234D01*
X-10265500Y-17479234D01*
X-10265500Y-17630766D01*
X-10263200Y-17639348D01*
X-10226281Y-17777136D01*
X-10192296Y-17835998D01*
X-10150515Y-17908365D01*
X-10043365Y-18015515D01*
X-9912135Y-18091281D01*
X-9765766Y-18130500D01*
X-9765764Y-18130500D01*
X-9699500Y-18130500D01*
X-9632461Y-18150185D01*
X-9586706Y-18202989D01*
X-9575500Y-18254500D01*
X-9575500Y-22635500D01*
X-9595185Y-22702539D01*
X-9647989Y-22748294D01*
X-9699500Y-22759500D01*
X-9765766Y-22759500D01*
X-9912137Y-22798719D01*
X-10043365Y-22874485D01*
X-10043368Y-22874487D01*
X-10150513Y-22981632D01*
X-10150515Y-22981635D01*
X-10226281Y-23112863D01*
X-10265500Y-23259234D01*
X-10265500Y-23410765D01*
X-10226281Y-23557136D01*
X-10195679Y-23610139D01*
X-10150515Y-23688365D01*
X-10043365Y-23795515D01*
X-9971613Y-23836941D01*
X-9913052Y-23870752D01*
X-9912135Y-23871281D01*
X-9765766Y-23910500D01*
X-9765764Y-23910500D01*
X-9614236Y-23910500D01*
X-9614234Y-23910500D01*
X-9467865Y-23871281D01*
X-9336635Y-23795515D01*
X-9229485Y-23688365D01*
X-9229485Y-23688364D01*
X-9223738Y-23682618D01*
X-9222592Y-23683764D01*
X-9173822Y-23648149D01*
X-9114221Y-23642097D01*
X-9021000Y-23655500D01*
X-9020997Y-23655500D01*
X-7730861Y-23655500D01*
X-7726403Y-23655500D01*
X-7725853Y-23655501D01*
X-7725853Y-23655502D01*
X-7579466Y-23655575D01*
X-7512440Y-23675292D01*
X-7466711Y-23728119D01*
X-7455531Y-23779606D01*
X-7455627Y-24146210D01*
X-7452820Y-24199532D01*
X-7452819Y-24199533D01*
X-7417465Y-24339004D01*
X-7406399Y-24365842D01*
X-7403219Y-24373555D01*
X-7351992Y-24467897D01*
X-7254273Y-24573502D01*
X-7130759Y-24647299D01*
X-7130757Y-24647301D01*
X-7109924Y-24656004D01*
X-7096156Y-24661757D01*
X-7096152Y-24661758D01*
X-7096146Y-24661761D01*
X-7081806Y-24666869D01*
X-7045180Y-24679916D01*
X-7045181Y-24679916D01*
X-7009592Y-24685144D01*
X-6902828Y-24700830D01*
X-6891504Y-24700864D01*
X-5430830Y-24705347D01*
X-5430829Y-24705347D01*
X-5429657Y-24705348D01*
X-5429150Y-24705349D01*
X-5429088Y-24705349D01*
X-5428998Y-24705349D01*
X-5374960Y-24702452D01*
X-5235550Y-24666869D01*
X-5200902Y-24652517D01*
X-5191349Y-24647301D01*
X-5106059Y-24600729D01*
X-5106060Y-24600729D01*
X-5106057Y-24600728D01*
X-5000751Y-24502686D01*
X-4927332Y-24378947D01*
X-4912980Y-24344299D01*
X-4894976Y-24293265D01*
X-4874500Y-24150849D01*
X-4874500Y-17106098D01*
X-4874144Y-16741733D01*
X-4876983Y-16687743D01*
X-4886573Y-16649999D01*
X-4912411Y-16548308D01*
X-4912414Y-16548299D01*
X-4912415Y-16548294D01*
X-4926726Y-16513639D01*
X-4978384Y-16418781D01*
X-5076301Y-16313359D01*
X-5181533Y-16250752D01*
X-5199951Y-16239794D01*
X-5199956Y-16239791D01*
X-5234567Y-16225406D01*
X-5285592Y-16207337D01*
X-5285602Y-16207335D01*
X-5427994Y-16186690D01*
X-6906406Y-16184944D01*
X-6949601Y-16187235D01*
X-6961058Y-16187843D01*
X-6961066Y-16187844D01*
X-6961066Y-16187845D01*
X-7100461Y-16223428D01*
X-7100465Y-16223429D01*
X-7135116Y-16237783D01*
X-7135118Y-16237784D01*
X-7229945Y-16289566D01*
X-7335248Y-16387606D01*
X-7335252Y-16387610D01*
X-7408664Y-16511338D01*
X-7408667Y-16511345D01*
X-7423019Y-16545992D01*
X-7441025Y-16597032D01*
X-7457369Y-16710706D01*
X-7459688Y-16726846D01*
X-7461500Y-16739446D01*
X-7461500Y-17020500D01*
X-7481185Y-17087539D01*
X-7533989Y-17133294D01*
X-7585500Y-17144500D01*
X-9021002Y-17144500D01*
X-9075041Y-17147396D01*
X-9075044Y-17147397D01*
X-9172873Y-17172367D01*
X-9242698Y-17169873D01*
X-9291220Y-17139900D01*
X-9336633Y-17094487D01*
X-9336635Y-17094485D01*
X-9402250Y-17056602D01*
X-9467864Y-17018719D01*
X-9541050Y-16999109D01*
X-9614234Y-16979500D01*
X-9765766Y-16979500D01*
X-9912137Y-17018719D01*
X-10043365Y-17094485D01*
X-10043368Y-17094487D01*
X-10150513Y-17201632D01*
X-10150515Y-17201635D01*
X-10226281Y-17332863D01*
X-10242818Y-17394581D01*
X-10265500Y-17479234D01*
X-14689500Y-17479234D01*
X-14689500Y-13609999D01*
X-12025215Y-13609999D01*
X-12025215Y-13610000D01*
X-12006398Y-13813082D01*
X-11950583Y-14009247D01*
X-11950578Y-14009260D01*
X-11859673Y-14191821D01*
X-11736763Y-14354581D01*
X-11586042Y-14491980D01*
X-11586040Y-14491982D01*
X-11486859Y-14553392D01*
X-11412637Y-14599348D01*
X-11222456Y-14673024D01*
X-11021976Y-14710500D01*
X-11021974Y-14710500D01*
X-10818026Y-14710500D01*
X-10818024Y-14710500D01*
X-10617544Y-14673024D01*
X-10427363Y-14599348D01*
X-10253959Y-14491981D01*
X-10103236Y-14354579D01*
X-9980327Y-14191821D01*
X-9889418Y-14009250D01*
X-9833603Y-13813083D01*
X-9814785Y-13610000D01*
X-9833603Y-13406917D01*
X-9889418Y-13210750D01*
X-9893948Y-13201653D01*
X-9948148Y-13092803D01*
X-9980327Y-13028179D01*
X-10062021Y-12919999D01*
X-10103238Y-12865418D01*
X-10253959Y-12728019D01*
X-10253961Y-12728017D01*
X-10427358Y-12620655D01*
X-10427365Y-12620651D01*
X-10585608Y-12559348D01*
X-10617544Y-12546976D01*
X-10818024Y-12509500D01*
X-11021976Y-12509500D01*
X-11222456Y-12546976D01*
X-11222459Y-12546976D01*
X-11222459Y-12546977D01*
X-11412636Y-12620651D01*
X-11412643Y-12620655D01*
X-11586040Y-12728017D01*
X-11586042Y-12728019D01*
X-11736763Y-12865418D01*
X-11859673Y-13028178D01*
X-11950578Y-13210739D01*
X-11950583Y-13210752D01*
X-12006398Y-13406917D01*
X-12025215Y-13609999D01*
X-14689500Y-13609999D01*
X-14689500Y-11069999D01*
X-12025215Y-11069999D01*
X-12025215Y-11070000D01*
X-12006398Y-11273082D01*
X-11950583Y-11469247D01*
X-11950578Y-11469260D01*
X-11859673Y-11651821D01*
X-11736763Y-11814581D01*
X-11586042Y-11951980D01*
X-11586040Y-11951982D01*
X-11486859Y-12013392D01*
X-11412637Y-12059348D01*
X-11222456Y-12133024D01*
X-11021976Y-12170500D01*
X-11021974Y-12170500D01*
X-10818026Y-12170500D01*
X-10818024Y-12170500D01*
X-10617544Y-12133024D01*
X-10427363Y-12059348D01*
X-10253959Y-11951981D01*
X-10103236Y-11814579D01*
X-9980327Y-11651821D01*
X-9889418Y-11469250D01*
X-9833603Y-11273083D01*
X-9814785Y-11070000D01*
X-9833603Y-10866917D01*
X-9889418Y-10670750D01*
X-9980327Y-10488179D01*
X-10039296Y-10410091D01*
X-10103238Y-10325418D01*
X-10253959Y-10188019D01*
X-10253961Y-10188017D01*
X-10427358Y-10080655D01*
X-10427365Y-10080651D01*
X-10585608Y-10019348D01*
X-10617544Y-10006976D01*
X-10818024Y-9969500D01*
X-11021976Y-9969500D01*
X-11222456Y-10006976D01*
X-11222459Y-10006976D01*
X-11222459Y-10006977D01*
X-11412636Y-10080651D01*
X-11412643Y-10080655D01*
X-11586040Y-10188017D01*
X-11586042Y-10188019D01*
X-11736763Y-10325418D01*
X-11859673Y-10488178D01*
X-11950578Y-10670739D01*
X-11950583Y-10670752D01*
X-12006398Y-10866917D01*
X-12025215Y-11069999D01*
X-14689500Y-11069999D01*
X-14689500Y-8529999D01*
X-12025215Y-8529999D01*
X-12025215Y-8530000D01*
X-12006398Y-8733082D01*
X-11950583Y-8929247D01*
X-11950578Y-8929260D01*
X-11859673Y-9111821D01*
X-11736763Y-9274581D01*
X-11586042Y-9411980D01*
X-11586040Y-9411982D01*
X-11486859Y-9473392D01*
X-11412637Y-9519348D01*
X-11222456Y-9593024D01*
X-11021976Y-9630500D01*
X-11021974Y-9630500D01*
X-10818026Y-9630500D01*
X-10818024Y-9630500D01*
X-10617544Y-9593024D01*
X-10427363Y-9519348D01*
X-10253959Y-9411981D01*
X-10103236Y-9274579D01*
X-9980327Y-9111821D01*
X-9889418Y-8929250D01*
X-9833603Y-8733083D01*
X-9814785Y-8530000D01*
X-9816617Y-8510234D01*
X-9833603Y-8326917D01*
X-9845411Y-8285418D01*
X-9889418Y-8130750D01*
X-9892649Y-8124262D01*
X-9970706Y-7967501D01*
X-9980327Y-7948179D01*
X-10084117Y-7810739D01*
X-10103238Y-7785418D01*
X-10253959Y-7648019D01*
X-10253961Y-7648017D01*
X-10427358Y-7540655D01*
X-10427365Y-7540651D01*
X-10585608Y-7479348D01*
X-10617544Y-7466976D01*
X-10818024Y-7429500D01*
X-11021976Y-7429500D01*
X-11222456Y-7466976D01*
X-11222459Y-7466976D01*
X-11222459Y-7466977D01*
X-11412636Y-7540651D01*
X-11412643Y-7540655D01*
X-11586040Y-7648017D01*
X-11586042Y-7648019D01*
X-11736763Y-7785418D01*
X-11859673Y-7948178D01*
X-11950578Y-8130739D01*
X-11950583Y-8130752D01*
X-12006398Y-8326917D01*
X-12025215Y-8529999D01*
X-14689500Y-8529999D01*
X-14689500Y-5115321D01*
X-12020500Y-5115321D01*
X-12020500Y-6864678D01*
X-12005968Y-6937735D01*
X-12005967Y-6937739D01*
X-12005966Y-6937740D01*
X-11950601Y-7020601D01*
X-11867740Y-7075966D01*
X-11867736Y-7075967D01*
X-11794679Y-7090499D01*
X-11794676Y-7090500D01*
X-11794674Y-7090500D01*
X-10045324Y-7090500D01*
X-10045323Y-7090499D01*
X-9972260Y-7075966D01*
X-9889399Y-7020601D01*
X-9834034Y-6937740D01*
X-9819500Y-6864674D01*
X-9819500Y-5115326D01*
X-9819500Y-5115323D01*
X-9819501Y-5115321D01*
X-9834033Y-5042264D01*
X-9834034Y-5042260D01*
X-9853570Y-5013022D01*
X-9889399Y-4959399D01*
X-9972260Y-4904034D01*
X-9972261Y-4904033D01*
X-9972265Y-4904032D01*
X-10045323Y-4889500D01*
X-10045326Y-4889500D01*
X-11794674Y-4889500D01*
X-11794677Y-4889500D01*
X-11867736Y-4904032D01*
X-11867740Y-4904033D01*
X-11950601Y-4959399D01*
X-12005967Y-5042260D01*
X-12005968Y-5042264D01*
X-12020500Y-5115321D01*
X-14689500Y-5115321D01*
X-14689500Y1087294D01*
X-14689382Y1092702D01*
X-14688830Y1105364D01*
X-14686607Y1156287D01*
X-14040500Y1156287D01*
X-14040500Y943714D01*
X-14007247Y733761D01*
X-13941556Y531586D01*
X-13845049Y342180D01*
X-13720110Y170214D01*
X-13569787Y19891D01*
X-13397821Y-105048D01*
X-13397819Y-105049D01*
X-13397816Y-105051D01*
X-13208412Y-201557D01*
X-13006243Y-267246D01*
X-12796287Y-300500D01*
X-12796286Y-300500D01*
X-12583714Y-300500D01*
X-12583713Y-300500D01*
X-12373757Y-267246D01*
X-12171588Y-201557D01*
X-11982184Y-105051D01*
X-11815252Y16231D01*
X-11810214Y19891D01*
X-11810212Y19894D01*
X-11810208Y19896D01*
X-11659896Y170208D01*
X-11659894Y170212D01*
X-11659891Y170214D01*
X-11534952Y342180D01*
X-11534953Y342180D01*
X-11534949Y342184D01*
X-11438443Y531588D01*
X-11372754Y733757D01*
X-11339500Y943713D01*
X-11339500Y1156287D01*
X-11372754Y1366243D01*
X-11438443Y1568412D01*
X-11534949Y1757816D01*
X-11534951Y1757819D01*
X-11534952Y1757821D01*
X-11659891Y1929787D01*
X-11810214Y2080110D01*
X-11982180Y2205049D01*
X-12171586Y2301556D01*
X-12171587Y2301557D01*
X-12171588Y2301557D01*
X-12373757Y2367246D01*
X-12373759Y2367247D01*
X-12373760Y2367247D01*
X-12535043Y2392792D01*
X-12583713Y2400500D01*
X-12796287Y2400500D01*
X-12844958Y2392792D01*
X-13006240Y2367247D01*
X-13006243Y2367246D01*
X-13170193Y2313975D01*
X-13208415Y2301556D01*
X-13397821Y2205049D01*
X-13569787Y2080110D01*
X-13720110Y1929787D01*
X-13845049Y1757821D01*
X-13941556Y1568415D01*
X-14007247Y1366240D01*
X-14040500Y1156287D01*
X-14686607Y1156287D01*
X-14671663Y1498561D01*
X-14670724Y1509292D01*
X-14618049Y1909391D01*
X-14616177Y1920007D01*
X-14528832Y2314000D01*
X-14526045Y2324400D01*
X-14404691Y2709287D01*
X-14401007Y2719408D01*
X-14246574Y3092242D01*
X-14242016Y3102016D01*
X-14055685Y3459955D01*
X-14050290Y3469300D01*
X-13833463Y3809650D01*
X-13827273Y3818489D01*
X-13581615Y4138637D01*
X-13574677Y4146906D01*
X-13302051Y4444425D01*
X-13294425Y4452051D01*
X-12996906Y4724677D01*
X-12988637Y4731615D01*
X-12668489Y4977273D01*
X-12659650Y4983463D01*
X-12319300Y5200290D01*
X-12309955Y5205685D01*
X-11952016Y5392016D01*
X-11942242Y5396574D01*
X-11569408Y5551007D01*
X-11559280Y5554693D01*
X-11231786Y5657952D01*
X-11161932Y5659337D01*
X-11102416Y5622735D01*
X-11072136Y5559768D01*
X-11070500Y5539690D01*
X-11070500Y3855322D01*
X-11055968Y3782265D01*
X-11055967Y3782261D01*
X-11055966Y3782260D01*
X-11000601Y3699399D01*
X-10917740Y3644034D01*
X-10917736Y3644033D01*
X-10844679Y3629501D01*
X-10844676Y3629500D01*
X-10844674Y3629500D01*
X-9095324Y3629500D01*
X-9095323Y3629501D01*
X-9022260Y3644034D01*
X-8939399Y3699399D01*
X-8884034Y3782260D01*
X-8869500Y3855326D01*
X-8869500Y5604674D01*
X-8869500Y5604677D01*
X-8869501Y5604679D01*
X-8886416Y5689719D01*
X-8882432Y5690512D01*
X-8887493Y5737490D01*
X-8856231Y5799976D01*
X-8796150Y5835642D01*
X-8765458Y5839500D01*
X-8164400Y5839500D01*
X-8097361Y5819815D01*
G37*
%TD.AperFunction*%
%TD*%
%TA.AperFunction,Conductor*%
%TO.N,VCC_5V*%
G36*
X-5428586Y-16692191D02*
G01*
X-5393955Y-16706584D01*
X-5379644Y-16741239D01*
X-5380000Y-17105604D01*
X-5380000Y-24150849D01*
X-5394352Y-24185497D01*
X-5429000Y-24199849D01*
X-5429150Y-24199849D01*
X-6901277Y-24195332D01*
X-6935881Y-24180874D01*
X-6950127Y-24146321D01*
X-6949864Y-23150393D01*
X-6949866Y-23150392D01*
X-6949865Y-23150392D01*
X-6949864Y-23150392D01*
X-7725599Y-23150002D01*
X-7730661Y-23150000D01*
X-7730674Y-23150000D01*
X-9021000Y-23150000D01*
X-9055648Y-23135648D01*
X-9070000Y-23101000D01*
X-9070000Y-17699000D01*
X-9055648Y-17664352D01*
X-9021000Y-17650000D01*
X-6956000Y-17650000D01*
X-6956000Y-16739445D01*
X-6941648Y-16704797D01*
X-6907003Y-16690445D01*
X-5428586Y-16692191D01*
G37*
%TD.AperFunction*%
%TD*%
%TA.AperFunction,Conductor*%
%TO.N,VCC_3.3V*%
G36*
X9910707Y-17369293D02*
G01*
X10157487Y-17617487D01*
X9700804Y-17960000D01*
X9599920Y-18035662D01*
X9591245Y-18037884D01*
X9584627Y-18034575D01*
X9510053Y-17960000D01*
X9510052Y-17960000D01*
X9310000Y-17759948D01*
X9310000Y-17759947D01*
X9309999Y-17759946D01*
X9245424Y-17695372D01*
X9241997Y-17687099D01*
X9244336Y-17680080D01*
X9662513Y-17122513D01*
X9910707Y-17369293D01*
G37*
%TD.AperFunction*%
%TD*%
%TA.AperFunction,Conductor*%
%TO.N,/PA14{slash}JTCK_SWCLK*%
G36*
X8481032Y-35673427D02*
G01*
X8483230Y-35676480D01*
X9159706Y-37033502D01*
X9160330Y-37042435D01*
X9154455Y-37049193D01*
X9153724Y-37049527D01*
X8384489Y-37369134D01*
X8375534Y-37369143D01*
X8375511Y-37369134D01*
X7606275Y-37049527D01*
X7599950Y-37043188D01*
X7599959Y-37034233D01*
X7600285Y-37033518D01*
X8276770Y-35676480D01*
X8283528Y-35670605D01*
X8287241Y-35670000D01*
X8472759Y-35670000D01*
X8481032Y-35673427D01*
G37*
%TD.AperFunction*%
%TD*%
%TA.AperFunction,Conductor*%
%TO.N,VCC_3.3V*%
G36*
X31045358Y-31574124D02*
G01*
X31049920Y-31581829D01*
X31050038Y-31583451D01*
X31051000Y-31920000D01*
X31051000Y-31920066D01*
X31050038Y-32256548D01*
X31046587Y-32264812D01*
X31038305Y-32268215D01*
X31036683Y-32268097D01*
X30360045Y-32171435D01*
X30352340Y-32166873D01*
X30350000Y-32159853D01*
X30350000Y-31680147D01*
X30353427Y-31671874D01*
X30360045Y-31668565D01*
X31036684Y-31571902D01*
X31045358Y-31574124D01*
G37*
%TD.AperFunction*%
%TD*%
%TA.AperFunction,Conductor*%
%TO.N,VCC_3.3V*%
G36*
X11660000Y-17370000D02*
G01*
X11575714Y-17960000D01*
X11575713Y-17960000D01*
X11561435Y-18059955D01*
X11556873Y-18067660D01*
X11549853Y-18070000D01*
X11070147Y-18070000D01*
X11061874Y-18066573D01*
X11058565Y-18059955D01*
X11044286Y-17960000D01*
X10960000Y-17370000D01*
X11310000Y-17369000D01*
X11660000Y-17370000D01*
G37*
%TD.AperFunction*%
%TD*%
%TA.AperFunction,Conductor*%
%TO.N,VCC_3.3V*%
G36*
X15319920Y-26104337D02*
G01*
X15866726Y-26514442D01*
X15871288Y-26522147D01*
X15869066Y-26530822D01*
X15868003Y-26532051D01*
X15630755Y-26770659D01*
X15630707Y-26770707D01*
X15392051Y-27008003D01*
X15383769Y-27011406D01*
X15375505Y-27007955D01*
X15374442Y-27006726D01*
X14964337Y-26459920D01*
X14962115Y-26451245D01*
X14965423Y-26444629D01*
X15304628Y-26105423D01*
X15312900Y-26101997D01*
X15319920Y-26104337D01*
G37*
%TD.AperFunction*%
%TD*%
%TA.AperFunction,Conductor*%
%TO.N,VCC_3.3V*%
G36*
X13712210Y-35673427D02*
G01*
X13713496Y-35674953D01*
X14304320Y-36511953D01*
X14306291Y-36520688D01*
X14303039Y-36526968D01*
X13468278Y-37362712D01*
X13460007Y-37366144D01*
X13451732Y-37362722D01*
X13451722Y-37362712D01*
X12616960Y-36526968D01*
X12613538Y-36518693D01*
X12615677Y-36511956D01*
X13206504Y-35674953D01*
X13214075Y-35670170D01*
X13216063Y-35670000D01*
X13703937Y-35670000D01*
X13712210Y-35673427D01*
G37*
%TD.AperFunction*%
%TD*%
%TA.AperFunction,Conductor*%
%TO.N,VCC_3.3V*%
G36*
X15884587Y-26531953D02*
G01*
X15885581Y-26533091D01*
X16249876Y-27009175D01*
X16299529Y-27074064D01*
X16301835Y-27082717D01*
X16298510Y-27089447D01*
X15959303Y-27428654D01*
X15951030Y-27432081D01*
X15944106Y-27429812D01*
X15942529Y-27428654D01*
X15393466Y-27025529D01*
X15388826Y-27017872D01*
X15390960Y-27009175D01*
X15392087Y-27007857D01*
X15629293Y-26769293D01*
X15868041Y-26531904D01*
X15876323Y-26528502D01*
X15884587Y-26531953D01*
G37*
%TD.AperFunction*%
%TD*%
%TA.AperFunction,Conductor*%
%TO.N,VCC_3.3V*%
G36*
X15390822Y-26530933D02*
G01*
X15392045Y-26531991D01*
X15630707Y-26769293D01*
X15868003Y-27007949D01*
X15871406Y-27016230D01*
X15867955Y-27024494D01*
X15866726Y-27025557D01*
X15319920Y-27435662D01*
X15311245Y-27437884D01*
X15304627Y-27434575D01*
X14965424Y-27095372D01*
X14961997Y-27087099D01*
X14964336Y-27080080D01*
X15374443Y-26533271D01*
X15382147Y-26528711D01*
X15390822Y-26530933D01*
G37*
%TD.AperFunction*%
%TD*%
%TA.AperFunction,Conductor*%
%TO.N,/PB11{slash}MD*%
G36*
X32439764Y-34353427D02*
G01*
X32442622Y-34358095D01*
X32567652Y-34744087D01*
X32566941Y-34753013D01*
X32561038Y-34758485D01*
X32344517Y-34849109D01*
X32335563Y-34849142D01*
X32335483Y-34849109D01*
X32118961Y-34758485D01*
X32112652Y-34752129D01*
X32112347Y-34744088D01*
X32237378Y-34358095D01*
X32243188Y-34351280D01*
X32248509Y-34350000D01*
X32431491Y-34350000D01*
X32439764Y-34353427D01*
G37*
%TD.AperFunction*%
%TD*%
%TA.AperFunction,Conductor*%
%TO.N,/PB11{slash}MD*%
G36*
X32422993Y-35673427D02*
G01*
X32423493Y-35673959D01*
X33162732Y-36511763D01*
X33165636Y-36520234D01*
X33162237Y-36527772D01*
X32328278Y-37362712D01*
X32320007Y-37366144D01*
X32311732Y-37362722D01*
X32311722Y-37362712D01*
X32118868Y-37169632D01*
X31477761Y-36527770D01*
X31474340Y-36519497D01*
X31477266Y-36511764D01*
X32216507Y-35673959D01*
X32224550Y-35670023D01*
X32225280Y-35670000D01*
X32414720Y-35670000D01*
X32422993Y-35673427D01*
G37*
%TD.AperFunction*%
%TD*%
%TA.AperFunction,Conductor*%
%TO.N,/PB11{slash}MD*%
G36*
X32560556Y-34941312D02*
G01*
X32566865Y-34947668D01*
X32566987Y-34956233D01*
X32422854Y-35338451D01*
X32416730Y-35344982D01*
X32411908Y-35346022D01*
X32228898Y-35346022D01*
X32220625Y-35342595D01*
X32217623Y-35337447D01*
X32111784Y-34955607D01*
X32112877Y-34946719D01*
X32118540Y-34941690D01*
X32335484Y-34850889D01*
X32344437Y-34850857D01*
X32560556Y-34941312D01*
G37*
%TD.AperFunction*%
%TD*%
%TA.AperFunction,Conductor*%
%TO.N,/PB11{slash}MD*%
G36*
X37778988Y-26848410D02*
G01*
X37996177Y-26937436D01*
X38002531Y-26943744D01*
X38002564Y-26943823D01*
X38091588Y-27161008D01*
X38091555Y-27169963D01*
X38086083Y-27175866D01*
X37724734Y-27360394D01*
X37715808Y-27361105D01*
X37711140Y-27358247D01*
X37581752Y-27228859D01*
X37578325Y-27220586D01*
X37579604Y-27215268D01*
X37764135Y-26853914D01*
X37770948Y-26848106D01*
X37778988Y-26848410D01*
G37*
%TD.AperFunction*%
%TD*%
%TA.AperFunction,Conductor*%
%TO.N,/NRST*%
G36*
X41539764Y-19453427D02*
G01*
X41542622Y-19458095D01*
X41667652Y-19844087D01*
X41666941Y-19853013D01*
X41661038Y-19858485D01*
X41444517Y-19949109D01*
X41435563Y-19949142D01*
X41435483Y-19949109D01*
X41218961Y-19858485D01*
X41212652Y-19852129D01*
X41212347Y-19844088D01*
X41337378Y-19458095D01*
X41343188Y-19451280D01*
X41348509Y-19450000D01*
X41531491Y-19450000D01*
X41539764Y-19453427D01*
G37*
%TD.AperFunction*%
%TD*%
%TA.AperFunction,Conductor*%
%TO.N,/NRST*%
G36*
X20941906Y-6807378D02*
G01*
X20948720Y-6813187D01*
X20950000Y-6818508D01*
X20950000Y-7001491D01*
X20946573Y-7009764D01*
X20941905Y-7012622D01*
X20555912Y-7137652D01*
X20546986Y-7136941D01*
X20541514Y-7131038D01*
X20450889Y-6914515D01*
X20450857Y-6905563D01*
X20541514Y-6688960D01*
X20547870Y-6682652D01*
X20555911Y-6682347D01*
X20941906Y-6807378D01*
G37*
%TD.AperFunction*%
%TD*%
%TA.AperFunction,Conductor*%
%TO.N,VCC_3.3V*%
G36*
X70376200Y-44188954D02*
G01*
X71625693Y-44829785D01*
X71631491Y-44836609D01*
X71631168Y-44844661D01*
X71312562Y-45616214D01*
X71306237Y-45622553D01*
X71306214Y-45622562D01*
X70536003Y-45940614D01*
X70527048Y-45940605D01*
X70520723Y-45934266D01*
X70520537Y-45933785D01*
X70405480Y-45616214D01*
X70017600Y-44545613D01*
X70018003Y-44536670D01*
X70020324Y-44533360D01*
X70362592Y-44191092D01*
X70370864Y-44187666D01*
X70376200Y-44188954D01*
G37*
%TD.AperFunction*%
%TD*%
%TA.AperFunction,Conductor*%
%TO.N,VCC_3.3V*%
G36*
X51709087Y-25396453D02*
G01*
X51710081Y-25397591D01*
X52074376Y-25873675D01*
X52124029Y-25938564D01*
X52126335Y-25947217D01*
X52123010Y-25953947D01*
X51783803Y-26293154D01*
X51775530Y-26296581D01*
X51768606Y-26294312D01*
X51767029Y-26293154D01*
X51217966Y-25890029D01*
X51213326Y-25882372D01*
X51215460Y-25873675D01*
X51216587Y-25872357D01*
X51453793Y-25633793D01*
X51692541Y-25396404D01*
X51700823Y-25393002D01*
X51709087Y-25396453D01*
G37*
%TD.AperFunction*%
%TD*%
%TA.AperFunction,Conductor*%
%TO.N,VCC_3.3V*%
G36*
X51449593Y-25288818D02*
G01*
X51454370Y-25296392D01*
X51454539Y-25298339D01*
X51455500Y-25634500D01*
X51455500Y-25634566D01*
X51454537Y-25971405D01*
X51451086Y-25979669D01*
X51442804Y-25983072D01*
X51441493Y-25982995D01*
X50768735Y-25905197D01*
X50760910Y-25900842D01*
X50758379Y-25893574D01*
X50758379Y-25413862D01*
X50761806Y-25405589D01*
X50768097Y-25402331D01*
X51440860Y-25286841D01*
X51449593Y-25288818D01*
G37*
%TD.AperFunction*%
%TD*%
%TA.AperFunction,Conductor*%
%TO.N,VCC_3.3V*%
G36*
X28686449Y-7837592D02*
G01*
X28996191Y-7964936D01*
X29002540Y-7971251D01*
X29002563Y-7971308D01*
X29129906Y-8281049D01*
X29129883Y-8290004D01*
X29124573Y-8295831D01*
X28618734Y-8564481D01*
X28609820Y-8565335D01*
X28604973Y-8562421D01*
X28405078Y-8362526D01*
X28401651Y-8354253D01*
X28403016Y-8348769D01*
X28671668Y-7842925D01*
X28678575Y-7837227D01*
X28686449Y-7837592D01*
G37*
%TD.AperFunction*%
%TD*%
%TA.AperFunction,Conductor*%
%TO.N,VCC_3.3V*%
G36*
X55320492Y-5615698D02*
G01*
X55445023Y-5698673D01*
X55647701Y-5833719D01*
X55652684Y-5841158D01*
X55652038Y-5847892D01*
X55562564Y-6066175D01*
X55556255Y-6072531D01*
X55556175Y-6072564D01*
X55337892Y-6162038D01*
X55328938Y-6162005D01*
X55323719Y-6157701D01*
X55188673Y-5955023D01*
X55105698Y-5830492D01*
X55103963Y-5821707D01*
X55107160Y-5815733D01*
X55305732Y-5617161D01*
X55314004Y-5613735D01*
X55320492Y-5615698D01*
G37*
%TD.AperFunction*%
%TD*%
%TA.AperFunction,Conductor*%
%TO.N,VCC_3.3V*%
G36*
X31375372Y-31255424D02*
G01*
X31714575Y-31594627D01*
X31718002Y-31602900D01*
X31715662Y-31609920D01*
X31305557Y-32156726D01*
X31297852Y-32161288D01*
X31289177Y-32159066D01*
X31287953Y-32158007D01*
X31049293Y-31920707D01*
X30811995Y-31682049D01*
X30808593Y-31673769D01*
X30812044Y-31665505D01*
X30813264Y-31664449D01*
X31360080Y-31254336D01*
X31368754Y-31252115D01*
X31375372Y-31255424D01*
G37*
%TD.AperFunction*%
%TD*%
%TA.AperFunction,Conductor*%
%TO.N,VCC_3.3V*%
G36*
X11633358Y-14816061D02*
G01*
X11310000Y-14951000D01*
X10986642Y-14816061D01*
X11160000Y-14250000D01*
X11460000Y-14250000D01*
X11633358Y-14816061D01*
G37*
%TD.AperFunction*%
%TD*%
%TA.AperFunction,Conductor*%
%TO.N,VCC_3.3V*%
G36*
X41941726Y-3547466D02*
G01*
X41948633Y-3553165D01*
X41950000Y-3558653D01*
X41950000Y-3841346D01*
X41946573Y-3849619D01*
X41941726Y-3852533D01*
X41394079Y-4020252D01*
X41385165Y-4019398D01*
X41379855Y-4013571D01*
X41250880Y-3704506D01*
X41250857Y-3695551D01*
X41250880Y-3695494D01*
X41311596Y-3550000D01*
X41379855Y-3386427D01*
X41386204Y-3380113D01*
X41394077Y-3379747D01*
X41941726Y-3547466D01*
G37*
%TD.AperFunction*%
%TD*%
%TA.AperFunction,Conductor*%
%TO.N,VCC_3.3V*%
G36*
X19995726Y-16007466D02*
G01*
X20002633Y-16013165D01*
X20004000Y-16018653D01*
X20004000Y-16301346D01*
X20000573Y-16309619D01*
X19995726Y-16312533D01*
X19448079Y-16480252D01*
X19439165Y-16479398D01*
X19433855Y-16473571D01*
X19304880Y-16164506D01*
X19304857Y-16155551D01*
X19304880Y-16155494D01*
X19365596Y-16010000D01*
X19433855Y-15846427D01*
X19440204Y-15840113D01*
X19448077Y-15839747D01*
X19995726Y-16007466D01*
G37*
%TD.AperFunction*%
%TD*%
%TA.AperFunction,Conductor*%
%TO.N,VCC_3.3V*%
G36*
X19168834Y-15840601D02*
G01*
X19174144Y-15846428D01*
X19303119Y-16155494D01*
X19303142Y-16164449D01*
X19303119Y-16164506D01*
X19174144Y-16473571D01*
X19167795Y-16479886D01*
X19159920Y-16480252D01*
X18612274Y-16312533D01*
X18605367Y-16306834D01*
X18604000Y-16301346D01*
X18604000Y-16018653D01*
X18607427Y-16010380D01*
X18612274Y-16007466D01*
X19159921Y-15839747D01*
X19168834Y-15840601D01*
G37*
%TD.AperFunction*%
%TD*%
%TA.AperFunction,Conductor*%
%TO.N,VCC_3.3V*%
G36*
X11919999Y-15982437D02*
G01*
X12001726Y-16007466D01*
X12008633Y-16013165D01*
X12010000Y-16018653D01*
X12010000Y-16301346D01*
X12006573Y-16309619D01*
X12001726Y-16312533D01*
X11920000Y-16337561D01*
X11920000Y-16337562D01*
X11443939Y-16483358D01*
X11309000Y-16160000D01*
X11443939Y-15836642D01*
X11919999Y-15982437D01*
G37*
%TD.AperFunction*%
%TD*%
%TA.AperFunction,Conductor*%
%TO.N,VCC_3.3V*%
G36*
X41114834Y-3380601D02*
G01*
X41120144Y-3386428D01*
X41249119Y-3695494D01*
X41249142Y-3704449D01*
X41249119Y-3704506D01*
X41120144Y-4013571D01*
X41113795Y-4019886D01*
X41105920Y-4020252D01*
X40558274Y-3852533D01*
X40551367Y-3846834D01*
X40550000Y-3841346D01*
X40550000Y-3558653D01*
X40553427Y-3550380D01*
X40558274Y-3547466D01*
X41105921Y-3379747D01*
X41114834Y-3380601D01*
G37*
%TD.AperFunction*%
%TD*%
M02*
