%TF.GenerationSoftware,KiCad,Pcbnew,8.0.4*%
%TF.CreationDate,2024-08-12T16:22:58+08:00*%
%TF.ProjectId,UINIO-MCU-HC32F460KETA,55494e49-4f2d-44d4-9355-2d4843333246,Version 1.0.0*%
%TF.SameCoordinates,PX71f45d0PY4ce7800*%
%TF.FileFunction,Soldermask,Top*%
%TF.FilePolarity,Negative*%
%FSLAX46Y46*%
G04 Gerber Fmt 4.6, Leading zero omitted, Abs format (unit mm)*
G04 Created by KiCad (PCBNEW 8.0.4) date 2024-08-12 16:22:58*
%MOMM*%
%LPD*%
G01*
G04 APERTURE LIST*
G04 Aperture macros list*
%AMRoundRect*
0 Rectangle with rounded corners*
0 $1 Rounding radius*
0 $2 $3 $4 $5 $6 $7 $8 $9 X,Y pos of 4 corners*
0 Add a 4 corners polygon primitive as box body*
4,1,4,$2,$3,$4,$5,$6,$7,$8,$9,$2,$3,0*
0 Add four circle primitives for the rounded corners*
1,1,$1+$1,$2,$3*
1,1,$1+$1,$4,$5*
1,1,$1+$1,$6,$7*
1,1,$1+$1,$8,$9*
0 Add four rect primitives between the rounded corners*
20,1,$1+$1,$2,$3,$4,$5,0*
20,1,$1+$1,$4,$5,$6,$7,0*
20,1,$1+$1,$6,$7,$8,$9,0*
20,1,$1+$1,$8,$9,$2,$3,0*%
G04 Aperture macros list end*
%ADD10RoundRect,0.218750X0.218750X0.256250X-0.218750X0.256250X-0.218750X-0.256250X0.218750X-0.256250X0*%
%ADD11RoundRect,0.200000X0.200000X0.275000X-0.200000X0.275000X-0.200000X-0.275000X0.200000X-0.275000X0*%
%ADD12RoundRect,0.225000X0.250000X-0.225000X0.250000X0.225000X-0.250000X0.225000X-0.250000X-0.225000X0*%
%ADD13R,1.157000X0.490000*%
%ADD14R,1.175000X0.490000*%
%ADD15C,2.200000*%
%ADD16RoundRect,0.218750X-0.256250X0.218750X-0.256250X-0.218750X0.256250X-0.218750X0.256250X0.218750X0*%
%ADD17RoundRect,0.225000X-0.225000X-0.250000X0.225000X-0.250000X0.225000X0.250000X-0.225000X0.250000X0*%
%ADD18R,1.800000X1.000000*%
%ADD19R,1.700000X1.700000*%
%ADD20O,1.700000X1.700000*%
%ADD21RoundRect,0.225000X-0.250000X0.225000X-0.250000X-0.225000X0.250000X-0.225000X0.250000X0.225000X0*%
%ADD22C,0.650000*%
%ADD23O,2.100000X1.000000*%
%ADD24O,1.900000X1.000000*%
%ADD25R,1.150000X0.600000*%
%ADD26R,1.150000X0.300000*%
%ADD27RoundRect,0.200000X-0.200000X-0.275000X0.200000X-0.275000X0.200000X0.275000X-0.200000X0.275000X0*%
%ADD28RoundRect,0.225000X0.225000X0.250000X-0.225000X0.250000X-0.225000X-0.250000X0.225000X-0.250000X0*%
%ADD29R,1.200000X0.650000*%
%ADD30O,2.000000X0.300000*%
%ADD31O,0.300000X2.000000*%
%ADD32R,1.200000X1.400000*%
G04 APERTURE END LIST*
D10*
%TO.C,L3*%
X50465000Y-15630000D03*
X48890000Y-15630000D03*
%TD*%
D11*
%TO.C,R4*%
X20600000Y-28670000D03*
X18950000Y-28670000D03*
%TD*%
D12*
%TO.C,C2*%
X40060000Y-10445000D03*
X40060000Y-8895000D03*
%TD*%
D13*
%TO.C,U1*%
X10091500Y-26110000D03*
X10091500Y-27060000D03*
X10091500Y-28010000D03*
D14*
X12399500Y-28010000D03*
X12399500Y-26110000D03*
%TD*%
D12*
%TO.C,C1*%
X38330000Y-10445000D03*
X38330000Y-8895000D03*
%TD*%
%TO.C,C17*%
X25920000Y-30550000D03*
X25920000Y-29000000D03*
%TD*%
D10*
%TO.C,L4*%
X50465000Y-13900000D03*
X48890000Y-13900000D03*
%TD*%
D15*
%TO.C,HOLE\u002A\u002A*%
X-880000Y-40710000D03*
%TD*%
D12*
%TO.C,C4*%
X8610000Y-27830000D03*
X8610000Y-26280000D03*
%TD*%
D15*
%TO.C,HOLE\u002A\u002A*%
X-880000Y-2210000D03*
%TD*%
D16*
%TO.C,L2*%
X36600000Y-8882500D03*
X36600000Y-10457500D03*
%TD*%
D11*
%TO.C,R5*%
X20580000Y-14330000D03*
X18930000Y-14330000D03*
%TD*%
D17*
%TO.C,C9*%
X19000000Y-30480000D03*
X20550000Y-30480000D03*
%TD*%
D18*
%TO.C,Y1*%
X50007500Y-29080002D03*
X50007500Y-31580000D03*
%TD*%
D19*
%TO.C,J4*%
X22080000Y-33010000D03*
D20*
X19540000Y-33010000D03*
%TD*%
D21*
%TO.C,C8*%
X27940000Y-8880000D03*
X27940000Y-10430000D03*
%TD*%
D19*
%TO.C,J5*%
X-3650000Y-12560000D03*
D20*
X-3650000Y-10020000D03*
X-3650000Y-7480000D03*
X-3650000Y-4940000D03*
%TD*%
D22*
%TO.C,USB1*%
X289000Y-18570000D03*
X289000Y-24350000D03*
D23*
X789000Y-17135000D03*
X789000Y-25785000D03*
D24*
X-3411000Y-17135000D03*
X-3411000Y-25785000D03*
D25*
X1551000Y-18260000D03*
X1551000Y-19060000D03*
D26*
X1551000Y-20210000D03*
X1551000Y-21210000D03*
X1551000Y-21710000D03*
X1551000Y-22710000D03*
D25*
X1551000Y-24660000D03*
X1551000Y-23860000D03*
D26*
X1551000Y-23210000D03*
X1551000Y-22210000D03*
X1551000Y-20710000D03*
X1551000Y-19710000D03*
%TD*%
D27*
%TO.C,R7*%
X3815000Y-32880000D03*
X5465000Y-32880000D03*
%TD*%
D12*
%TO.C,C7*%
X13890000Y-27830000D03*
X13890000Y-26280000D03*
%TD*%
D28*
%TO.C,C19*%
X37000000Y-33210000D03*
X35450000Y-33210000D03*
%TD*%
D11*
%TO.C,R6*%
X5465000Y-35420000D03*
X3815000Y-35420000D03*
%TD*%
D19*
%TO.C,J3*%
X2490000Y-1360000D03*
D20*
X5030000Y-1360000D03*
X7570000Y-1360000D03*
X10110000Y-1360000D03*
X12650000Y-1360000D03*
X15190000Y-1360000D03*
X17730000Y-1360000D03*
X20270000Y-1360000D03*
X22810000Y-1360000D03*
X25350000Y-1360000D03*
X27890000Y-1360000D03*
X30430000Y-1360000D03*
X32970000Y-1360000D03*
X35510000Y-1360000D03*
X38050000Y-1360000D03*
X40590000Y-1360000D03*
X43130000Y-1360000D03*
X45670000Y-1360000D03*
X48210000Y-1360000D03*
X50750000Y-1360000D03*
X53290000Y-1360000D03*
X55830000Y-1360000D03*
X58370000Y-1360000D03*
X60910000Y-1360000D03*
%TD*%
D19*
%TO.C,J1*%
X67030000Y-37960000D03*
D20*
X67030000Y-35420000D03*
X67030000Y-32880000D03*
X67030000Y-30340000D03*
X67030000Y-27800000D03*
X67030000Y-25260000D03*
X67030000Y-22720000D03*
X67030000Y-20180000D03*
X67030000Y-17640000D03*
X67030000Y-15100000D03*
X67030000Y-12560000D03*
X67030000Y-10020000D03*
X67030000Y-7480000D03*
X67030000Y-4940000D03*
%TD*%
D21*
%TO.C,C12*%
X29920000Y-8880000D03*
X29920000Y-10430000D03*
%TD*%
D29*
%TO.C,SW1*%
X22880000Y-12670000D03*
X18580000Y-12670000D03*
X22880000Y-10520000D03*
X18580000Y-10520000D03*
%TD*%
D28*
%TO.C,C11*%
X5415000Y-10020000D03*
X3865000Y-10020000D03*
%TD*%
%TO.C,C6*%
X36990000Y-31600000D03*
X35440000Y-31600000D03*
%TD*%
D10*
%TO.C,D1*%
X12062500Y-17250000D03*
X10487500Y-17250000D03*
%TD*%
D15*
%TO.C,HOLE\u002A\u002A*%
X64280000Y-2210000D03*
%TD*%
D27*
%TO.C,R1*%
X10470000Y-20200000D03*
X12120000Y-20200000D03*
%TD*%
D28*
%TO.C,C18*%
X50450000Y-26050000D03*
X48900000Y-26050000D03*
%TD*%
D16*
%TO.C,L1*%
X41790000Y-8882500D03*
X41790000Y-10457500D03*
%TD*%
D17*
%TO.C,C14*%
X48900000Y-20390000D03*
X50450000Y-20390000D03*
%TD*%
%TO.C,C13*%
X18980000Y-8860000D03*
X20530000Y-8860000D03*
%TD*%
D27*
%TO.C,R3*%
X10470000Y-15260000D03*
X12120000Y-15260000D03*
%TD*%
D17*
%TO.C,C3*%
X48902500Y-10440000D03*
X50452500Y-10440000D03*
%TD*%
D27*
%TO.C,R2*%
X10470000Y-23210000D03*
X12120000Y-23210000D03*
%TD*%
D28*
%TO.C,C10*%
X5415000Y-7480000D03*
X3865000Y-7480000D03*
%TD*%
D19*
%TO.C,J6*%
X-3650000Y-37960000D03*
D20*
X-3650000Y-35420000D03*
X-3650000Y-32880000D03*
X-3650000Y-30340000D03*
%TD*%
D17*
%TO.C,C5*%
X48902500Y-12170000D03*
X50452500Y-12170000D03*
%TD*%
%TO.C,C16*%
X46600000Y-29060000D03*
X48150000Y-29060000D03*
%TD*%
D30*
%TO.C,U2*%
X37440000Y-25210000D03*
X37440000Y-24710000D03*
X37440000Y-24210000D03*
X37440000Y-23710000D03*
X37440000Y-23210000D03*
X37440000Y-22710000D03*
X37440000Y-22210000D03*
X37440000Y-21710000D03*
X37440000Y-21210000D03*
X37440000Y-20710000D03*
X37440000Y-20210000D03*
X37440000Y-19710000D03*
X37440000Y-19210000D03*
X37440000Y-18710000D03*
X37440000Y-18210000D03*
X37440000Y-17710000D03*
D31*
X35440000Y-15710000D03*
X34940000Y-15710000D03*
X34440000Y-15710000D03*
X33940000Y-15710000D03*
X33440000Y-15710000D03*
X32940000Y-15710000D03*
X32440000Y-15710000D03*
X31940000Y-15710000D03*
X31440000Y-15710000D03*
X30940000Y-15710000D03*
X30440000Y-15710000D03*
X29940000Y-15710000D03*
X29440000Y-15710000D03*
X28940000Y-15710000D03*
X28440000Y-15710000D03*
X27940000Y-15710000D03*
D30*
X25940000Y-17710000D03*
X25940000Y-18210000D03*
X25940000Y-18710000D03*
X25940000Y-19210000D03*
X25940000Y-19710000D03*
X25940000Y-20210000D03*
X25940000Y-20710000D03*
X25940000Y-21210000D03*
X25940000Y-21710000D03*
X25940000Y-22210000D03*
X25940000Y-22710000D03*
X25940000Y-23210000D03*
X25940000Y-23710000D03*
X25940000Y-24210000D03*
X25940000Y-24710000D03*
X25940000Y-25210000D03*
D31*
X27940000Y-27210000D03*
X28440000Y-27210000D03*
X28940000Y-27210000D03*
X29440000Y-27210000D03*
X29940000Y-27210000D03*
X30440000Y-27210000D03*
X30940000Y-27210000D03*
X31440000Y-27210000D03*
X31940000Y-27210000D03*
X32440000Y-27210000D03*
X32940000Y-27210000D03*
X33440000Y-27210000D03*
X33940000Y-27210000D03*
X34440000Y-27210000D03*
X34940000Y-27210000D03*
X35440000Y-27210000D03*
%TD*%
D17*
%TO.C,C15*%
X46600000Y-31600002D03*
X48150000Y-31600002D03*
%TD*%
D19*
%TO.C,J2*%
X2490000Y-41560000D03*
D20*
X5030000Y-41560000D03*
X7570000Y-41560000D03*
X10110000Y-41560000D03*
X12650000Y-41560000D03*
X15190000Y-41560000D03*
X17730000Y-41560000D03*
X20270000Y-41560000D03*
X22810000Y-41560000D03*
X25350000Y-41560000D03*
X27890000Y-41560000D03*
X30430000Y-41560000D03*
X32970000Y-41560000D03*
X35510000Y-41560000D03*
X38050000Y-41560000D03*
X40590000Y-41560000D03*
X43130000Y-41560000D03*
X45670000Y-41560000D03*
X48210000Y-41560000D03*
X50750000Y-41560000D03*
X53290000Y-41560000D03*
X55830000Y-41560000D03*
X58370000Y-41560000D03*
X60910000Y-41560000D03*
%TD*%
D32*
%TO.C,Y2*%
X48605000Y-22120000D03*
X48605000Y-24320000D03*
X50305000Y-24320000D03*
X50305000Y-22120000D03*
%TD*%
D15*
%TO.C,HOLE\u002A\u002A*%
X64280000Y-40710000D03*
%TD*%
M02*
