M48
; DRILL file {KiCad 8.0.4} date 2024-08-23T17:26:45+0800
; FORMAT={-:-/ absolute / metric / decimal}
; #@! TF.CreationDate,2024-08-23T17:26:45+08:00
; #@! TF.GenerationSoftware,Kicad,Pcbnew,8.0.4
; #@! TF.FileFunction,MixedPlating,1,2
FMAT,2
METRIC
; #@! TA.AperFunction,Plated,PTH,ViaDrill
T1C0.300
; #@! TA.AperFunction,Plated,PTH,ComponentDrill
T2C0.600
; #@! TA.AperFunction,Plated,PTH,ComponentDrill
T3C1.000
; #@! TA.AperFunction,NonPlated,NPTH,ComponentDrill
T4C0.650
; #@! TA.AperFunction,NonPlated,NPTH,ComponentDrill
T5C2.200
%
G90
G05
T1
X-8.8Y-4.5
X-7.7Y-4.5
X-7.48Y-18.05
X-7.48Y-22.85
X-6.605Y-17.07
X-6.605Y-18.05
X-6.605Y-22.85
X-6.605Y-23.73
X-5.98Y-43.04
X-5.73Y-17.05
X-5.73Y-18.05
X-5.73Y-22.85
X-5.73Y-23.73
X-5.41Y-4.5
X-4.36Y-31.62
X-3.47Y-43.04
X-3.37Y-4.5
X-0.9Y-43.04
X-0.17Y-4.5
X0.985Y-4.5
X1.75Y-43.04
X4.02Y-43.04
X6.39Y-43.04
X8.41Y-31.75
X9.91Y-14.95
X9.91Y-16.16
X9.91Y-17.37
X11.31Y-14.95
X11.31Y-16.16
X11.31Y-17.37
X11.58Y-43.03
X15.63Y-26.77
X15.95Y-11.79
X15.95Y-12.74
X19.177Y-4.826
X19.177Y-5.461
X19.177Y-6.096
X19.177Y-6.731
X19.304Y-16.16
X19.75Y-26.75
X20.45Y-6.91
X20.75Y-26.75
X21.75Y-26.75
X21.75Y-43.1
X22.75Y-26.75
X23.44Y-43.99
X23.75Y-26.75
X25.23Y-43.99
X26.87Y2.12
X26.94Y-43.09
X29.0Y-7.967
X31.03Y-16.39
X31.03Y-17.39
X31.03Y-18.39
X31.03Y-19.39
X31.03Y-20.39
X31.03Y-21.39
X31.03Y-22.39
X31.03Y-23.39
X31.03Y-24.39
X31.05Y-31.92
X31.76Y2.12
X32.03Y-16.39
X32.03Y-17.39
X32.03Y-18.39
X32.03Y-19.39
X32.03Y-20.39
X32.03Y-21.39
X32.03Y-22.39
X32.03Y-23.39
X32.03Y-24.39
X32.34Y-34.85
X33.03Y-16.39
X33.03Y-17.39
X33.03Y-18.39
X33.03Y-19.39
X33.03Y-20.39
X33.03Y-21.39
X33.03Y-22.39
X33.03Y-23.39
X33.03Y-24.39
X34.03Y-16.39
X34.03Y-17.39
X34.03Y-18.39
X34.03Y-19.39
X34.03Y-20.39
X34.03Y-21.39
X34.03Y-22.39
X34.03Y-23.39
X34.03Y-24.39
X34.69Y2.57
X35.03Y-16.39
X35.03Y-17.39
X35.03Y-18.39
X35.03Y-19.39
X35.03Y-20.39
X35.03Y-21.39
X35.03Y-22.39
X35.03Y-23.39
X35.03Y-24.39
X36.03Y-16.39
X36.03Y-17.39
X36.03Y-18.39
X36.03Y-19.39
X36.03Y-20.39
X36.03Y-21.39
X36.03Y-22.39
X36.03Y-23.39
X36.03Y-24.39
X36.98Y-43.46
X37.03Y-16.39
X37.03Y-17.39
X37.03Y-18.39
X37.03Y-19.39
X37.03Y-20.39
X37.03Y-21.39
X37.03Y-22.39
X37.03Y-23.39
X37.03Y-24.39
X37.52Y2.57
X38.0Y-26.94
X38.03Y-16.39
X38.03Y-17.39
X38.03Y-18.39
X38.03Y-19.39
X38.03Y-20.39
X38.03Y-21.39
X38.03Y-22.39
X38.03Y-23.39
X38.03Y-24.39
X39.03Y-16.39
X39.03Y-17.39
X39.03Y-18.39
X39.03Y-19.39
X39.03Y-20.39
X39.03Y-21.39
X39.03Y-22.39
X39.03Y-23.39
X39.03Y-24.39
X39.46Y-43.46
X39.97Y2.57
X40.251Y-7.874
X41.013Y-7.874
X41.25Y-3.7
X41.44Y-19.95
X41.73Y-32.15
X41.775Y-7.874
X42.03Y-43.46
X43.47Y-1.41
X43.47Y-2.16
X43.47Y-2.91
X43.475Y-30.3
X43.75Y-35.0
X43.91Y-7.73
X44.22Y-1.41
X44.22Y-2.16
X44.22Y-2.91
X44.5Y-35.75
X44.825Y-11.1
X44.825Y-13.675
X44.97Y-1.41
X44.97Y-2.16
X44.97Y-2.91
X45.25Y-36.5
X45.72Y-1.41
X45.72Y-2.16
X45.72Y-2.91
X46.0Y-37.25
X46.75Y-38.0
X47.5Y-38.75
X49.276Y-22.0
X49.53Y-32.766
X50.276Y-22.0
X50.276Y-23.0
X50.292Y-19.812
X50.292Y-32.004
X50.292Y-33.528
X51.054Y-34.29
X51.308Y-18.796
X51.308Y-19.812
X51.308Y-22.0
X51.308Y-23.0
X51.308Y-24.0
X51.454Y-25.634
X51.816Y-35.052
X51.99Y-6.91
X51.99Y-7.94
X52.0Y-18.0
X52.197Y-24.638
X52.324Y-30.226
X52.578Y-35.814
X53.0Y-17.0
X53.0Y-25.0
X53.025Y-12.92
X53.03Y-6.92
X53.086Y-29.464
X53.34Y-36.576
X53.848Y-30.226
X54.0Y-17.0
X54.0Y-25.0
X54.61Y-30.988
X55.0Y-17.0
X55.0Y-25.0
X55.372Y-31.75
X55.372Y-36.576
X55.56Y-6.07
X55.9Y-11.25
X55.9Y-13.3
X55.97Y-7.31
X55.97Y-8.06
X55.97Y-8.81
X55.97Y-9.56
X56.0Y-17.0
X56.0Y-18.0
X56.0Y-19.0
X56.0Y-20.0
X56.0Y-21.0
X56.0Y-22.0
X56.0Y-23.0
X56.0Y-24.0
X56.0Y-25.0
X56.134Y-32.512
X56.134Y-35.814
X56.72Y-7.31
X56.72Y-8.06
X56.72Y-8.81
X56.72Y-9.56
X56.896Y-17.018
X56.896Y-18.018
X56.896Y-19.018
X56.896Y-20.018
X56.896Y-21.018
X56.896Y-22.018
X56.896Y-23.018
X56.896Y-24.018
X56.896Y-25.018
X56.896Y-33.528
X56.896Y-35.052
X56.9Y-11.25
X56.9Y-13.3
X57.47Y-7.31
X57.47Y-8.06
X57.47Y-8.81
X57.47Y-9.56
X57.658Y-34.29
X57.9Y-11.25
X57.9Y-13.3
X58.9Y-11.25
X58.9Y-13.3
X59.9Y-11.25
X59.9Y-13.3
X62.31Y-2.36
X64.96Y0.07
X65.415Y2.377
X70.33Y2.377
X71.92Y-35.76
X71.92Y-40.24
X74.83Y-15.55
X74.83Y-17.88
X74.83Y-20.31
X74.98Y-0.33
X74.98Y-4.52
T3
X-13.58Y-5.99
X-13.58Y-8.53
X-13.58Y-11.07
X-13.58Y-13.61
X-13.58Y-27.28
X-13.58Y-29.82
X-13.58Y-32.36
X-13.58Y-34.9
X-10.92Y-5.99
X-10.92Y-8.53
X-10.92Y-11.07
X-10.92Y-13.61
X-10.92Y-27.28
X-10.92Y-29.82
X-10.92Y-32.36
X-10.92Y-34.9
X-9.97Y4.73
X-9.97Y-45.62
X-7.43Y4.73
X-7.43Y-45.62
X-4.89Y4.73
X-4.89Y-45.62
X-2.35Y4.73
X-2.35Y-45.62
X0.19Y4.73
X0.19Y-45.62
X2.73Y4.73
X2.73Y-45.62
X5.27Y4.73
X5.27Y-45.62
X5.84Y-37.37
X7.81Y4.73
X7.81Y-45.62
X8.38Y-37.37
X10.35Y4.73
X10.35Y-45.62
X10.92Y-37.37
X12.89Y4.73
X12.89Y-45.62
X13.46Y-37.37
X15.43Y4.73
X15.43Y-45.62
X17.97Y4.73
X17.97Y-45.62
X20.51Y4.73
X20.51Y-45.62
X23.05Y4.73
X23.05Y-45.62
X25.59Y4.73
X25.59Y-45.62
X27.24Y-37.37
X28.13Y4.73
X28.13Y-45.62
X29.78Y-37.37
X30.67Y4.73
X30.67Y-45.62
X32.32Y-37.37
X33.21Y4.73
X33.21Y-45.62
X35.75Y4.73
X35.75Y-45.62
X38.29Y4.73
X38.29Y-45.62
X40.83Y4.73
X40.83Y-45.62
X43.37Y4.73
X43.37Y-45.62
X45.91Y4.73
X45.91Y-45.62
X48.45Y4.73
X48.45Y-45.62
X50.99Y4.73
X50.99Y-45.62
X53.53Y4.73
X53.53Y-45.62
X56.07Y4.73
X56.07Y-45.62
X58.61Y4.73
X58.61Y-45.62
X61.15Y4.73
X61.15Y-45.62
X63.69Y4.73
X63.69Y-45.62
X66.23Y4.73
X66.23Y-45.62
X68.77Y4.73
X68.77Y-45.62
X71.31Y4.73
X71.31Y-45.62
X73.85Y4.73
X73.85Y-45.62
X77.43Y1.13
X77.43Y-1.41
X77.43Y-3.95
X77.43Y-6.49
X77.43Y-9.03
X77.43Y-11.57
X77.43Y-14.11
X77.43Y-16.65
X77.43Y-19.19
X77.43Y-21.73
X77.43Y-24.27
X77.43Y-26.81
X77.43Y-29.35
X77.43Y-31.89
X77.43Y-34.43
X77.43Y-36.97
X77.43Y-39.51
X77.43Y-42.05
T4
X-9.69Y-17.555
X-9.69Y-23.335
T5
X-12.69Y1.05
X-12.69Y-41.94
X68.77Y-4.95
X68.77Y-35.97
T2
G00X-12.94Y-16.12
M15
G01X-13.84Y-16.12
M16
G05
G00X-12.94Y-24.77
M15
G01X-13.84Y-24.77
M16
G05
G00X-8.59Y-16.12
M15
G01X-9.79Y-16.12
M16
G05
G00X-8.59Y-24.77
M15
G01X-9.79Y-24.77
M16
G05
M30
