%TF.GenerationSoftware,KiCad,Pcbnew,8.0.4*%
%TF.CreationDate,2024-08-23T17:26:40+08:00*%
%TF.ProjectId,UINIO-MCU-HC32F460PETB,55494e49-4f2d-44d4-9355-2d4843333246,Version 1.0.0*%
%TF.SameCoordinates,PX71f45d0PY4ce7800*%
%TF.FileFunction,Legend,Bot*%
%TF.FilePolarity,Positive*%
%FSLAX46Y46*%
G04 Gerber Fmt 4.6, Leading zero omitted, Abs format (unit mm)*
G04 Created by KiCad (PCBNEW 8.0.4) date 2024-08-23 17:26:40*
%MOMM*%
%LPD*%
G01*
G04 APERTURE LIST*
%ADD10C,0.312500*%
%ADD11C,1.400000*%
%ADD12C,0.100000*%
%ADD13O,1.700000X1.700000*%
%ADD14R,1.700000X1.700000*%
%ADD15C,2.200000*%
%ADD16C,0.650000*%
%ADD17O,2.100000X1.000000*%
%ADD18O,1.900000X1.000000*%
G04 APERTURE END LIST*
D10*
G36*
X23951563Y-9451067D02*
G01*
X24429790Y-10829574D01*
X24978360Y-10829574D01*
X24232931Y-8860000D01*
X23670195Y-8860000D01*
X22924277Y-10829574D01*
X23473335Y-10829574D01*
X23951563Y-9451067D01*
G37*
G36*
X25445806Y-8831889D02*
G01*
X25559471Y-8833659D01*
X25676280Y-8837201D01*
X25796234Y-8842513D01*
X25919332Y-8849596D01*
X26045575Y-8858450D01*
X26174963Y-8869075D01*
X26274067Y-8878205D01*
X26374940Y-8888332D01*
X26374940Y-9240041D01*
X26244652Y-9230081D01*
X26122454Y-9221448D01*
X26008347Y-9214144D01*
X25902330Y-9208168D01*
X25781187Y-9202565D01*
X25672685Y-9199037D01*
X25559169Y-9197543D01*
X25488827Y-9225387D01*
X25460495Y-9296217D01*
X25460495Y-9408569D01*
X26431605Y-9408569D01*
X26431605Y-9929295D01*
X26430553Y-9968055D01*
X26414775Y-10074650D01*
X26375038Y-10176049D01*
X26311926Y-10259511D01*
X26272296Y-10293989D01*
X26179655Y-10345413D01*
X26081025Y-10371710D01*
X25981221Y-10379190D01*
X25418485Y-10379190D01*
X25367156Y-10377320D01*
X25262103Y-10359438D01*
X25171500Y-10322623D01*
X25087780Y-10259511D01*
X25053303Y-10220022D01*
X25001878Y-10127591D01*
X24975581Y-10029068D01*
X24968101Y-9929295D01*
X24968101Y-9915129D01*
X25460495Y-9915129D01*
X25482093Y-9991932D01*
X25573335Y-10027480D01*
X25826371Y-10027480D01*
X25899430Y-10008938D01*
X25939211Y-9915129D01*
X25939211Y-9760279D01*
X25460495Y-9760279D01*
X25460495Y-9915129D01*
X24968101Y-9915129D01*
X24968101Y-9253719D01*
X24969115Y-9218568D01*
X24984313Y-9121049D01*
X25022591Y-9026653D01*
X25083384Y-8946950D01*
X25105752Y-8926348D01*
X25189863Y-8872309D01*
X25288667Y-8840786D01*
X25390153Y-8831667D01*
X25445806Y-8831889D01*
G37*
G36*
X27533140Y-9943461D02*
G01*
X27432508Y-9936776D01*
X27330100Y-9916722D01*
X27225913Y-9883298D01*
X27167264Y-9858953D01*
X27167264Y-8860000D01*
X26674870Y-8860000D01*
X26674870Y-10351346D01*
X27111088Y-10351346D01*
X27138932Y-10168164D01*
X27230563Y-10239880D01*
X27323740Y-10296758D01*
X27418462Y-10338798D01*
X27514730Y-10366001D01*
X27612544Y-10378366D01*
X27645492Y-10379190D01*
X27772009Y-10379190D01*
X27772009Y-9943461D01*
X27533140Y-9943461D01*
G37*
G36*
X27906343Y-9253719D02*
G01*
X28011288Y-9246211D01*
X28111982Y-9239442D01*
X28239629Y-9231565D01*
X28359721Y-9225001D01*
X28472256Y-9219750D01*
X28577234Y-9215812D01*
X28697831Y-9212735D01*
X28806622Y-9211709D01*
X28876964Y-9239553D01*
X28905296Y-9310383D01*
X28905296Y-9408569D01*
X28300062Y-9408569D01*
X28198577Y-9417688D01*
X28099773Y-9449211D01*
X28015662Y-9503249D01*
X27993293Y-9523852D01*
X27932500Y-9603555D01*
X27894222Y-9697951D01*
X27879024Y-9795470D01*
X27878011Y-9830621D01*
X27878011Y-9929295D01*
X27887130Y-10030742D01*
X27918652Y-10129412D01*
X27972691Y-10213294D01*
X27993293Y-10235575D01*
X28072997Y-10296626D01*
X28167393Y-10335066D01*
X28264911Y-10350329D01*
X28300062Y-10351346D01*
X29257006Y-10351346D01*
X29257006Y-9985471D01*
X28469078Y-9985471D01*
X28398248Y-9957138D01*
X28370404Y-9886796D01*
X28398248Y-9816454D01*
X28469078Y-9788611D01*
X28975638Y-9788611D01*
X29077085Y-9779453D01*
X29175756Y-9747797D01*
X29259638Y-9693529D01*
X29281919Y-9672840D01*
X29342970Y-9593394D01*
X29381409Y-9499160D01*
X29396672Y-9401706D01*
X29397690Y-9366559D01*
X29397690Y-9253719D01*
X29388532Y-9152233D01*
X29356876Y-9053429D01*
X29302608Y-8969318D01*
X29281919Y-8946950D01*
X29202473Y-8886156D01*
X29108239Y-8847879D01*
X29010785Y-8832681D01*
X28975638Y-8831667D01*
X28849937Y-8832553D01*
X28721961Y-8835209D01*
X28591711Y-8839636D01*
X28492531Y-8844118D01*
X28392071Y-8849596D01*
X28290332Y-8856071D01*
X28187314Y-8863541D01*
X28083016Y-8872007D01*
X27977439Y-8881470D01*
X27906343Y-8888332D01*
X27906343Y-9253719D01*
G37*
G36*
X30177801Y-10295170D02*
G01*
X30177801Y-8860000D01*
X29685408Y-8860000D01*
X29685408Y-9915129D01*
X29474382Y-9915129D01*
X29474382Y-10295170D01*
X30177801Y-10295170D01*
G37*
G36*
X29685408Y-10857906D02*
G01*
X30177801Y-10857906D01*
X30177801Y-10463698D01*
X29685408Y-10463698D01*
X29685408Y-10857906D01*
G37*
G36*
X31561851Y-8832719D02*
G01*
X31668446Y-8848497D01*
X31769845Y-8888234D01*
X31853307Y-8951346D01*
X31887785Y-8990976D01*
X31939210Y-9083617D01*
X31965506Y-9182247D01*
X31972986Y-9282051D01*
X31972986Y-9929295D01*
X31971934Y-9968055D01*
X31956156Y-10074650D01*
X31916419Y-10176049D01*
X31853307Y-10259511D01*
X31813818Y-10293989D01*
X31721388Y-10345413D01*
X31622864Y-10371710D01*
X31523091Y-10379190D01*
X30875847Y-10379190D01*
X30824518Y-10377320D01*
X30719465Y-10359438D01*
X30628863Y-10322623D01*
X30545143Y-10259511D01*
X30510665Y-10220022D01*
X30459240Y-10127591D01*
X30432944Y-10029068D01*
X30425464Y-9929295D01*
X30425464Y-9324061D01*
X30917857Y-9324061D01*
X30917857Y-9886796D01*
X30939456Y-9963933D01*
X31030697Y-9999637D01*
X31368241Y-9999637D01*
X31445044Y-9978038D01*
X31480593Y-9886796D01*
X31480593Y-9324061D01*
X31462050Y-9251318D01*
X31368241Y-9211709D01*
X31030697Y-9211709D01*
X30957638Y-9230252D01*
X30917857Y-9324061D01*
X30425464Y-9324061D01*
X30425464Y-9282051D01*
X30427334Y-9230722D01*
X30445215Y-9125668D01*
X30482031Y-9035066D01*
X30545143Y-8951346D01*
X30584772Y-8916868D01*
X30677413Y-8865444D01*
X30776044Y-8839147D01*
X30875847Y-8831667D01*
X31523091Y-8831667D01*
X31561851Y-8832719D01*
G37*
G36*
X33046189Y-9971304D02*
G01*
X32939085Y-9964666D01*
X32833602Y-9947112D01*
X32732061Y-9921931D01*
X32708646Y-9915129D01*
X32708646Y-8860000D01*
X32216252Y-8860000D01*
X32216252Y-10351346D01*
X32652470Y-10351346D01*
X32680314Y-10210662D01*
X32772133Y-10264957D01*
X32865568Y-10308285D01*
X32951912Y-10338157D01*
X33050212Y-10363162D01*
X33149441Y-10377747D01*
X33186873Y-10379190D01*
X33313391Y-10379190D01*
X33415074Y-10370071D01*
X33513916Y-10338548D01*
X33597875Y-10284510D01*
X33620160Y-10263907D01*
X33680954Y-10184414D01*
X33719231Y-10090037D01*
X33734429Y-9992372D01*
X33735443Y-9957138D01*
X33735443Y-8860000D01*
X33243049Y-8860000D01*
X33243049Y-9873119D01*
X33214717Y-9942972D01*
X33144864Y-9971304D01*
X33046189Y-9971304D01*
G37*
G36*
X35142282Y-8860000D02*
G01*
X35142282Y-10393356D01*
X34818904Y-10281004D01*
X34678220Y-10604382D01*
X35198946Y-10829574D01*
X35648841Y-10829574D01*
X35648841Y-8860000D01*
X35142282Y-8860000D01*
G37*
G36*
X35896015Y-9282051D02*
G01*
X36402575Y-9282051D01*
X36402575Y-8860000D01*
X35896015Y-8860000D01*
X35896015Y-9282051D01*
G37*
G36*
X37729951Y-8832190D02*
G01*
X37831273Y-8840033D01*
X37935071Y-8861077D01*
X38034691Y-8900812D01*
X38122533Y-8965512D01*
X38146452Y-8992025D01*
X38198736Y-9076579D01*
X38234288Y-9181283D01*
X38251672Y-9289428D01*
X38256378Y-9394403D01*
X38256378Y-10295170D01*
X38255855Y-10331421D01*
X38248013Y-10432618D01*
X38226968Y-10536356D01*
X38187233Y-10636022D01*
X38122533Y-10724061D01*
X38096103Y-10747980D01*
X38011687Y-10800264D01*
X37906998Y-10835816D01*
X37798766Y-10853200D01*
X37693642Y-10857906D01*
X37158750Y-10857906D01*
X37122499Y-10857383D01*
X37021303Y-10849541D01*
X36917565Y-10828497D01*
X36817899Y-10788761D01*
X36729860Y-10724061D01*
X36705940Y-10697548D01*
X36653657Y-10612994D01*
X36618105Y-10508290D01*
X36600720Y-10400145D01*
X36596015Y-10295170D01*
X36596015Y-9394403D01*
X37102575Y-9394403D01*
X37102575Y-10295170D01*
X37110662Y-10360837D01*
X37175364Y-10443784D01*
X37271591Y-10463698D01*
X37580802Y-10463698D01*
X37646659Y-10455634D01*
X37729847Y-10391119D01*
X37749818Y-10295170D01*
X37749818Y-9394403D01*
X37741730Y-9328736D01*
X37677029Y-9245789D01*
X37580802Y-9225875D01*
X37271591Y-9225875D01*
X37205734Y-9233940D01*
X37122546Y-9298454D01*
X37102575Y-9394403D01*
X36596015Y-9394403D01*
X36596538Y-9358152D01*
X36604380Y-9256955D01*
X36625424Y-9153218D01*
X36665160Y-9053551D01*
X36729860Y-8965512D01*
X36756373Y-8941593D01*
X36840927Y-8889310D01*
X36945630Y-8853757D01*
X37053776Y-8836373D01*
X37158750Y-8831667D01*
X37693642Y-8831667D01*
X37729951Y-8832190D01*
G37*
G36*
X38443956Y-9282051D02*
G01*
X38950516Y-9282051D01*
X38950516Y-8860000D01*
X38443956Y-8860000D01*
X38443956Y-9282051D01*
G37*
G36*
X40277892Y-8832190D02*
G01*
X40379215Y-8840033D01*
X40483012Y-8861077D01*
X40582633Y-8900812D01*
X40670474Y-8965512D01*
X40694394Y-8992025D01*
X40746677Y-9076579D01*
X40782230Y-9181283D01*
X40799614Y-9289428D01*
X40804319Y-9394403D01*
X40804319Y-10295170D01*
X40803796Y-10331421D01*
X40795954Y-10432618D01*
X40774910Y-10536356D01*
X40735175Y-10636022D01*
X40670474Y-10724061D01*
X40644044Y-10747980D01*
X40559628Y-10800264D01*
X40454939Y-10835816D01*
X40346707Y-10853200D01*
X40241584Y-10857906D01*
X39706692Y-10857906D01*
X39670441Y-10857383D01*
X39569244Y-10849541D01*
X39465507Y-10828497D01*
X39365840Y-10788761D01*
X39277801Y-10724061D01*
X39253882Y-10697548D01*
X39201599Y-10612994D01*
X39166046Y-10508290D01*
X39148662Y-10400145D01*
X39143956Y-10295170D01*
X39143956Y-9394403D01*
X39650516Y-9394403D01*
X39650516Y-10295170D01*
X39658604Y-10360837D01*
X39723305Y-10443784D01*
X39819532Y-10463698D01*
X40128743Y-10463698D01*
X40194600Y-10455634D01*
X40277788Y-10391119D01*
X40297760Y-10295170D01*
X40297760Y-9394403D01*
X40289672Y-9328736D01*
X40224970Y-9245789D01*
X40128743Y-9225875D01*
X39819532Y-9225875D01*
X39753675Y-9233940D01*
X39670488Y-9298454D01*
X39650516Y-9394403D01*
X39143956Y-9394403D01*
X39144479Y-9358152D01*
X39152322Y-9256955D01*
X39173366Y-9153218D01*
X39213101Y-9053551D01*
X39277801Y-8965512D01*
X39304314Y-8941593D01*
X39388868Y-8889310D01*
X39493572Y-8853757D01*
X39601717Y-8836373D01*
X39706692Y-8831667D01*
X40241584Y-8831667D01*
X40277892Y-8832190D01*
G37*
D11*
G36*
X32100586Y-21499490D02*
G01*
X32307295Y-21866799D01*
X32316882Y-22010139D01*
X32316882Y-25613210D01*
X32215624Y-26009186D01*
X31880095Y-26209862D01*
X31703344Y-26224794D01*
X29790434Y-26224794D01*
X29393192Y-26123858D01*
X29186482Y-25756550D01*
X29176896Y-25613210D01*
X29176896Y-22010139D01*
X29278153Y-21614162D01*
X29613682Y-21413486D01*
X29790434Y-21398555D01*
X31703344Y-21398555D01*
X32100586Y-21499490D01*
G37*
G36*
X48231089Y-21524752D02*
G01*
X48268871Y-21728771D01*
X48268871Y-23979713D01*
X48086009Y-24330576D01*
X47881990Y-24368548D01*
X46531815Y-24368548D01*
X46180953Y-24184763D01*
X46142981Y-23979713D01*
X46142981Y-21728771D01*
X46326766Y-21379672D01*
X46531815Y-21341891D01*
X47881990Y-21341891D01*
X48231089Y-21524752D01*
G37*
G36*
X61623914Y-28815567D02*
G01*
X2642508Y-28815567D01*
X2642508Y-27926678D01*
X12318277Y-27926678D01*
X14412904Y-27926678D01*
X14412904Y-26224794D01*
X12318277Y-26224794D01*
X12318277Y-27926678D01*
X2642508Y-27926678D01*
X2642508Y-22010139D01*
X3531397Y-22010139D01*
X3531397Y-27813349D01*
X5680734Y-27813349D01*
X5680734Y-22010139D01*
X5781991Y-21614162D01*
X6117520Y-21413486D01*
X6294272Y-21398555D01*
X7982478Y-21398555D01*
X8379720Y-21499490D01*
X8586430Y-21866799D01*
X8596016Y-22010139D01*
X8596016Y-27813349D01*
X10745353Y-27813349D01*
X10745353Y-25900439D01*
X15391829Y-25900439D01*
X17250029Y-25900439D01*
X17353588Y-25378736D01*
X17712808Y-25585457D01*
X18101704Y-25754260D01*
X18377454Y-25845729D01*
X18777982Y-25946937D01*
X19183448Y-26005975D01*
X19336840Y-26011814D01*
X19842911Y-26011814D01*
X20263314Y-25973792D01*
X20672421Y-25842359D01*
X21020467Y-25617045D01*
X21112974Y-25531144D01*
X21366452Y-25201416D01*
X21526050Y-24810628D01*
X21589419Y-24406711D01*
X21593644Y-24261081D01*
X21593644Y-21509930D01*
X22216951Y-21509930D01*
X23229094Y-21509930D01*
X23229094Y-26113419D01*
X22216951Y-26113419D01*
X22216951Y-27813349D01*
X26392527Y-27813349D01*
X26392527Y-26113419D01*
X25380385Y-26113419D01*
X25380385Y-22010139D01*
X27025605Y-22010139D01*
X27025605Y-25613210D01*
X27045045Y-26042359D01*
X27116866Y-26485038D01*
X27241607Y-26865259D01*
X27448969Y-27223319D01*
X27578570Y-27371758D01*
X27896697Y-27614535D01*
X28296156Y-27787948D01*
X28712401Y-27882783D01*
X29118745Y-27921801D01*
X29339073Y-27926678D01*
X32152751Y-27926678D01*
X32582564Y-27907169D01*
X33025844Y-27835094D01*
X33406480Y-27709912D01*
X33764784Y-27501817D01*
X33913253Y-27371758D01*
X34155175Y-27054487D01*
X34327977Y-26655638D01*
X34422478Y-26239727D01*
X34461359Y-25833520D01*
X34466219Y-25613210D01*
X34466219Y-22010139D01*
X34448697Y-21623258D01*
X35089526Y-21623258D01*
X37240817Y-21623258D01*
X37240817Y-21447404D01*
X37889526Y-21447404D01*
X37889526Y-24036378D01*
X37920545Y-24447805D01*
X38029596Y-24854898D01*
X38217163Y-25202950D01*
X38385828Y-25402184D01*
X38695463Y-25643040D01*
X39063831Y-25805070D01*
X39490931Y-25888275D01*
X39753588Y-25900439D01*
X43417231Y-25900439D01*
X43417231Y-24255219D01*
X40372988Y-24255219D01*
X40022125Y-24072358D01*
X39984153Y-23868339D01*
X39984153Y-21674061D01*
X40028741Y-21560732D01*
X44048354Y-21560732D01*
X44048354Y-21728771D01*
X44048354Y-24149706D01*
X44079373Y-24561133D01*
X44188424Y-24968227D01*
X44375991Y-25316279D01*
X44544656Y-25515512D01*
X44854291Y-25755424D01*
X45222658Y-25916819D01*
X45649759Y-25999697D01*
X45912416Y-26011814D01*
X48501390Y-26011814D01*
X48912817Y-25980795D01*
X49212790Y-25900439D01*
X51211508Y-25900439D01*
X53069708Y-25900439D01*
X53173267Y-25378736D01*
X53532487Y-25585457D01*
X53921383Y-25754260D01*
X54197133Y-25845729D01*
X54597661Y-25946937D01*
X55003127Y-26005975D01*
X55156519Y-26011814D01*
X55269848Y-26011814D01*
X55659819Y-25980679D01*
X56051463Y-25868846D01*
X56423162Y-25645816D01*
X56692318Y-25361151D01*
X57035792Y-25562987D01*
X57410667Y-25727882D01*
X57778710Y-25845729D01*
X58183705Y-25940287D01*
X58590232Y-25998676D01*
X58870964Y-26011814D01*
X58984293Y-26011814D01*
X59403906Y-25973792D01*
X59812860Y-25842359D01*
X60161517Y-25617045D01*
X60254356Y-25531144D01*
X60507834Y-25201416D01*
X60667431Y-24810628D01*
X60730801Y-24406711D01*
X60735025Y-24261081D01*
X60735025Y-19810000D01*
X58640399Y-19810000D01*
X58640399Y-23925003D01*
X58544656Y-24161430D01*
X58308229Y-24255219D01*
X58251564Y-24255219D01*
X57844900Y-24225819D01*
X57455638Y-24156400D01*
X57066147Y-24059010D01*
X57020580Y-24046147D01*
X57020580Y-19810000D01*
X54925954Y-19810000D01*
X54925954Y-23925003D01*
X54832164Y-24161430D01*
X54593783Y-24255219D01*
X54537119Y-24255219D01*
X54130455Y-24225819D01*
X53741193Y-24156400D01*
X53351702Y-24059010D01*
X53306135Y-24046147D01*
X53306135Y-19810000D01*
X51211508Y-19810000D01*
X51211508Y-25900439D01*
X49212790Y-25900439D01*
X49319910Y-25871744D01*
X49667962Y-25684177D01*
X49867196Y-25515512D01*
X50107107Y-25206822D01*
X50268502Y-24839089D01*
X50351380Y-24412315D01*
X50363497Y-24149706D01*
X50363497Y-21560732D01*
X50332478Y-21149183D01*
X50223428Y-20741660D01*
X50035861Y-20392870D01*
X49867196Y-20192972D01*
X49558505Y-19953061D01*
X49190773Y-19791666D01*
X48763998Y-19708788D01*
X48501390Y-19696671D01*
X45912416Y-19696671D01*
X45500866Y-19727690D01*
X45093343Y-19836740D01*
X44744553Y-20024307D01*
X44544656Y-20192972D01*
X44304744Y-20502607D01*
X44143349Y-20870975D01*
X44060471Y-21298076D01*
X44048354Y-21560732D01*
X40028741Y-21560732D01*
X40077942Y-21435680D01*
X40316323Y-21341891D01*
X40733131Y-21348004D01*
X41138508Y-21362439D01*
X41596644Y-21385366D01*
X42001141Y-21409821D01*
X42439404Y-21439710D01*
X42911434Y-21475034D01*
X43417231Y-21515792D01*
X43417231Y-19929190D01*
X43016491Y-19887636D01*
X42625403Y-19850170D01*
X42118965Y-19806572D01*
X41629686Y-19770241D01*
X41157564Y-19741176D01*
X40702601Y-19719378D01*
X40264796Y-19704845D01*
X39844149Y-19697579D01*
X39640259Y-19696671D01*
X39220646Y-19734693D01*
X38811692Y-19866126D01*
X38463035Y-20091440D01*
X38370196Y-20177341D01*
X38116718Y-20507908D01*
X37957121Y-20898773D01*
X37893751Y-21302106D01*
X37889526Y-21447404D01*
X37240817Y-21447404D01*
X37240817Y-19810000D01*
X35089526Y-19810000D01*
X35089526Y-21623258D01*
X34448697Y-21623258D01*
X34446779Y-21580920D01*
X34374958Y-21137988D01*
X34250216Y-20757326D01*
X34042854Y-20398533D01*
X33913253Y-20249637D01*
X33595859Y-20007714D01*
X33196644Y-19834912D01*
X32780212Y-19740411D01*
X32373411Y-19701531D01*
X32152751Y-19696671D01*
X29339073Y-19696671D01*
X28909854Y-19716111D01*
X28466922Y-19787932D01*
X28086260Y-19912673D01*
X27727467Y-20120035D01*
X27578570Y-20249637D01*
X27336648Y-20567763D01*
X27163846Y-20967222D01*
X27069345Y-21383467D01*
X27030465Y-21789811D01*
X27025605Y-22010139D01*
X25380385Y-22010139D01*
X25380385Y-21509930D01*
X26392527Y-21509930D01*
X26392527Y-19810000D01*
X22216951Y-19810000D01*
X22216951Y-21509930D01*
X21593644Y-21509930D01*
X21593644Y-19810000D01*
X19499017Y-19810000D01*
X19499017Y-23925003D01*
X19405228Y-24161430D01*
X19168801Y-24255219D01*
X18774104Y-24255219D01*
X18357481Y-24230515D01*
X17955091Y-24165180D01*
X17573689Y-24071465D01*
X17486456Y-24046147D01*
X17486456Y-19810000D01*
X15391829Y-19810000D01*
X15391829Y-25900439D01*
X10745353Y-25900439D01*
X10745353Y-24030516D01*
X11474174Y-24030516D01*
X11474174Y-25675736D01*
X14412904Y-25675736D01*
X14412904Y-19810000D01*
X12318277Y-19810000D01*
X12318277Y-24030516D01*
X11474174Y-24030516D01*
X10745353Y-24030516D01*
X10745353Y-22010139D01*
X10725913Y-21580920D01*
X10654092Y-21137988D01*
X10529351Y-20757326D01*
X10321989Y-20398533D01*
X10192388Y-20249637D01*
X9874994Y-20007714D01*
X9475779Y-19834912D01*
X9059347Y-19740411D01*
X8652545Y-19701531D01*
X8431885Y-19696671D01*
X5844865Y-19696671D01*
X5415051Y-19716111D01*
X4971771Y-19787932D01*
X4591136Y-19912673D01*
X4232832Y-20120035D01*
X4084363Y-20249637D01*
X3842440Y-20567763D01*
X3669638Y-20967222D01*
X3575137Y-21383467D01*
X3536257Y-21789811D01*
X3531397Y-22010139D01*
X2642508Y-22010139D01*
X2642508Y-18807782D01*
X61623914Y-18807782D01*
X61623914Y-28815567D01*
G37*
D10*
G36*
X4571383Y-16360361D02*
G01*
X5330490Y-16360361D01*
X5330490Y-14207605D01*
X5323431Y-14050142D01*
X5297355Y-13887925D01*
X5244026Y-13730869D01*
X5165601Y-13604038D01*
X5129722Y-13564269D01*
X4997960Y-13467218D01*
X4848529Y-13407615D01*
X4692833Y-13376049D01*
X4540849Y-13364285D01*
X4486386Y-13363501D01*
X3516254Y-13363501D01*
X3358543Y-13370559D01*
X3196099Y-13396636D01*
X3038872Y-13449965D01*
X2911961Y-13528389D01*
X2872185Y-13564269D01*
X2775489Y-13696327D01*
X2716104Y-13845827D01*
X2684653Y-14001433D01*
X2672932Y-14153228D01*
X2672151Y-14207605D01*
X2672151Y-16360361D01*
X3431257Y-16360361D01*
X3431257Y-14207605D01*
X3461215Y-14063681D01*
X3585996Y-13966910D01*
X3684781Y-13954813D01*
X4317859Y-13954813D01*
X4462199Y-13984684D01*
X4559251Y-14109105D01*
X4571383Y-14207605D01*
X4571383Y-16360361D01*
G37*
G36*
X7212137Y-13406000D02*
G01*
X5693190Y-13406000D01*
X5693190Y-13996579D01*
X6072744Y-13996579D01*
X6072744Y-15769782D01*
X5693190Y-15769782D01*
X5693190Y-16360361D01*
X7212137Y-16360361D01*
X7212137Y-15769782D01*
X6832583Y-15769782D01*
X6832583Y-13996579D01*
X7212137Y-13996579D01*
X7212137Y-13406000D01*
G37*
G36*
X10155507Y-13406000D02*
G01*
X9353902Y-13406000D01*
X8340539Y-15178470D01*
X8340539Y-13406000D01*
X7581432Y-13406000D01*
X7581432Y-16360361D01*
X8383037Y-16360361D01*
X9395668Y-14587891D01*
X9395668Y-16360361D01*
X10155507Y-16360361D01*
X10155507Y-13406000D01*
G37*
G36*
X12039352Y-13406000D02*
G01*
X10520406Y-13406000D01*
X10520406Y-13996579D01*
X10899959Y-13996579D01*
X10899959Y-15769782D01*
X10520406Y-15769782D01*
X10520406Y-16360361D01*
X12039352Y-16360361D01*
X12039352Y-15769782D01*
X11659799Y-15769782D01*
X11659799Y-13996579D01*
X12039352Y-13996579D01*
X12039352Y-13406000D01*
G37*
G36*
X14277346Y-13364285D02*
G01*
X14429330Y-13376049D01*
X14585026Y-13407615D01*
X14734457Y-13467218D01*
X14866219Y-13564269D01*
X14902098Y-13604038D01*
X14980523Y-13730869D01*
X15033852Y-13887925D01*
X15059928Y-14050142D01*
X15066987Y-14207605D01*
X15066987Y-15558756D01*
X15066202Y-15613132D01*
X15054439Y-15764927D01*
X15022873Y-15920534D01*
X14963270Y-16070033D01*
X14866219Y-16202092D01*
X14826574Y-16237971D01*
X14699950Y-16316396D01*
X14542917Y-16369725D01*
X14380569Y-16395801D01*
X14222883Y-16402859D01*
X13167754Y-16402859D01*
X13113378Y-16402075D01*
X12961583Y-16390311D01*
X12805977Y-16358745D01*
X12656477Y-16299142D01*
X12524419Y-16202092D01*
X12488539Y-16162322D01*
X12410114Y-16035492D01*
X12356785Y-15878436D01*
X12330709Y-15716218D01*
X12323651Y-15558756D01*
X12323651Y-14207605D01*
X13083490Y-14207605D01*
X13083490Y-15558756D01*
X13095622Y-15657256D01*
X13192674Y-15781676D01*
X13337014Y-15811547D01*
X14054356Y-15811547D01*
X14153141Y-15799451D01*
X14277922Y-15702679D01*
X14307880Y-15558756D01*
X14307880Y-14207605D01*
X14295748Y-14109105D01*
X14198696Y-13984684D01*
X14054356Y-13954813D01*
X13337014Y-13954813D01*
X13238229Y-13966910D01*
X13113448Y-14063681D01*
X13083490Y-14207605D01*
X12323651Y-14207605D01*
X12324435Y-14153228D01*
X12336199Y-14001433D01*
X12367765Y-13845827D01*
X12427368Y-13696327D01*
X12524419Y-13564269D01*
X12564188Y-13528389D01*
X12691018Y-13449965D01*
X12848074Y-13396636D01*
X13010292Y-13370559D01*
X13167754Y-13363501D01*
X14222883Y-13363501D01*
X14277346Y-13364285D01*
G37*
G36*
X15347622Y-14587891D02*
G01*
X15347622Y-15178470D01*
X17077594Y-15178470D01*
X17077594Y-14587891D01*
X15347622Y-14587891D01*
G37*
G36*
X19979199Y-15051708D02*
G01*
X19387887Y-13996579D01*
X18797308Y-13996579D01*
X18205996Y-15051708D01*
X18205996Y-13406000D01*
X17446889Y-13406000D01*
X17446889Y-16360361D01*
X18248494Y-16360361D01*
X19092597Y-14798916D01*
X19936700Y-16360361D01*
X20738305Y-16360361D01*
X20738305Y-13406000D01*
X19979199Y-13406000D01*
X19979199Y-15051708D01*
G37*
G36*
X23503623Y-13448498D02*
G01*
X23330033Y-13433308D01*
X23162071Y-13419612D01*
X22999738Y-13407411D01*
X22843034Y-13396703D01*
X22691958Y-13387490D01*
X22499279Y-13377529D01*
X22316606Y-13370225D01*
X22143940Y-13365576D01*
X21981280Y-13363584D01*
X21942178Y-13363501D01*
X21794660Y-13370328D01*
X21642089Y-13395547D01*
X21493482Y-13447125D01*
X21359144Y-13534161D01*
X21334014Y-13557674D01*
X21240151Y-13684285D01*
X21182506Y-13826022D01*
X21151977Y-13972582D01*
X21140030Y-14140179D01*
X21139841Y-14165839D01*
X21139841Y-15516258D01*
X21146899Y-15673943D01*
X21172975Y-15836291D01*
X21226304Y-15993324D01*
X21304729Y-16119949D01*
X21340608Y-16159593D01*
X21472667Y-16256644D01*
X21622166Y-16316247D01*
X21777773Y-16347813D01*
X21929568Y-16359577D01*
X21983944Y-16360361D01*
X23503623Y-16360361D01*
X23503623Y-15769782D01*
X22153204Y-15769782D01*
X22008864Y-15739824D01*
X21911812Y-15615043D01*
X21899680Y-15516258D01*
X21899680Y-14165839D01*
X21946619Y-14022304D01*
X21956833Y-14011233D01*
X22097136Y-13954868D01*
X22102646Y-13954813D01*
X22251464Y-13956155D01*
X22296819Y-13957011D01*
X22445709Y-13960727D01*
X22515905Y-13962873D01*
X22666562Y-13968643D01*
X22745982Y-13971666D01*
X22897785Y-13979162D01*
X23045668Y-13988519D01*
X23196278Y-13998479D01*
X23356604Y-14008696D01*
X23503623Y-14017828D01*
X23503623Y-13448498D01*
G37*
G36*
X25726721Y-16360361D02*
G01*
X26485828Y-16360361D01*
X26485828Y-14207605D01*
X26478770Y-14050142D01*
X26452694Y-13887925D01*
X26399365Y-13730869D01*
X26320940Y-13604038D01*
X26285061Y-13564269D01*
X26153298Y-13467218D01*
X26003867Y-13407615D01*
X25848171Y-13376049D01*
X25696187Y-13364285D01*
X25641725Y-13363501D01*
X24671592Y-13363501D01*
X24513881Y-13370559D01*
X24351438Y-13396636D01*
X24194210Y-13449965D01*
X24067299Y-13528389D01*
X24027524Y-13564269D01*
X23930827Y-13696327D01*
X23871442Y-13845827D01*
X23839991Y-14001433D01*
X23828270Y-14153228D01*
X23827489Y-14207605D01*
X23827489Y-16360361D01*
X24586596Y-16360361D01*
X24586596Y-14207605D01*
X24616553Y-14063681D01*
X24741335Y-13966910D01*
X24840120Y-13954813D01*
X25473197Y-13954813D01*
X25617538Y-13984684D01*
X25714590Y-14109105D01*
X25726721Y-14207605D01*
X25726721Y-16360361D01*
G37*
G36*
X26848529Y-14587891D02*
G01*
X26848529Y-15178470D01*
X28578501Y-15178470D01*
X28578501Y-14587891D01*
X26848529Y-14587891D01*
G37*
G36*
X31521871Y-13406000D02*
G01*
X30762032Y-13406000D01*
X30762032Y-14609140D01*
X29706903Y-14609140D01*
X29706903Y-13406000D01*
X28947796Y-13406000D01*
X28947796Y-16360361D01*
X29706903Y-16360361D01*
X29706903Y-15199719D01*
X30762032Y-15199719D01*
X30762032Y-16360361D01*
X31521871Y-16360361D01*
X31521871Y-13406000D01*
G37*
G36*
X34292318Y-13448498D02*
G01*
X34118728Y-13433308D01*
X33950766Y-13419612D01*
X33788433Y-13407411D01*
X33631729Y-13396703D01*
X33480653Y-13387490D01*
X33287974Y-13377529D01*
X33105301Y-13370225D01*
X32932635Y-13365576D01*
X32769975Y-13363584D01*
X32730874Y-13363501D01*
X32583355Y-13370328D01*
X32430784Y-13395547D01*
X32282177Y-13447125D01*
X32147839Y-13534161D01*
X32122709Y-13557674D01*
X32028846Y-13684285D01*
X31971201Y-13826022D01*
X31940672Y-13972582D01*
X31928725Y-14140179D01*
X31928536Y-14165839D01*
X31928536Y-15516258D01*
X31935594Y-15673943D01*
X31961670Y-15836291D01*
X32014999Y-15993324D01*
X32093424Y-16119949D01*
X32129303Y-16159593D01*
X32261362Y-16256644D01*
X32410861Y-16316247D01*
X32566468Y-16347813D01*
X32718263Y-16359577D01*
X32772639Y-16360361D01*
X34292318Y-16360361D01*
X34292318Y-15769782D01*
X32941899Y-15769782D01*
X32797559Y-15739824D01*
X32700507Y-15615043D01*
X32688375Y-15516258D01*
X32688375Y-14165839D01*
X32735314Y-14022304D01*
X32745528Y-14011233D01*
X32885831Y-13954868D01*
X32891341Y-13954813D01*
X33040159Y-13956155D01*
X33085514Y-13957011D01*
X33234404Y-13960727D01*
X33304600Y-13962873D01*
X33455257Y-13968643D01*
X33534677Y-13971666D01*
X33686480Y-13979162D01*
X33834363Y-13988519D01*
X33984973Y-13998479D01*
X34145299Y-14008696D01*
X34292318Y-14017828D01*
X34292318Y-13448498D01*
G37*
G36*
X36008368Y-13363501D02*
G01*
X35829777Y-13364829D01*
X35646446Y-13368814D01*
X35458375Y-13375454D01*
X35265565Y-13384750D01*
X35117846Y-13393466D01*
X34967462Y-13403675D01*
X34814411Y-13415379D01*
X34658694Y-13428577D01*
X34500311Y-13443268D01*
X34446924Y-13448498D01*
X34446924Y-14017828D01*
X34617663Y-14006566D01*
X34780095Y-13996413D01*
X34934219Y-13987367D01*
X35126795Y-13977028D01*
X35304602Y-13968659D01*
X35467640Y-13962259D01*
X35615908Y-13957829D01*
X35780475Y-13955059D01*
X35839841Y-13954813D01*
X35982650Y-14001150D01*
X35993714Y-14011233D01*
X36050364Y-14147921D01*
X36050867Y-14165839D01*
X36050867Y-14334367D01*
X36020909Y-14478707D01*
X35896128Y-14575759D01*
X35797342Y-14587891D01*
X34911474Y-14587891D01*
X34911474Y-15178470D01*
X35713079Y-15178470D01*
X35857419Y-15208427D01*
X35954471Y-15333209D01*
X35966603Y-15431994D01*
X35966603Y-15516258D01*
X35936645Y-15660598D01*
X35811864Y-15757650D01*
X35713079Y-15769782D01*
X34489422Y-15769782D01*
X34489422Y-16360361D01*
X35924105Y-16360361D01*
X36071623Y-16353741D01*
X36224194Y-16329282D01*
X36372801Y-16279262D01*
X36507139Y-16194853D01*
X36532269Y-16172050D01*
X36626132Y-16051004D01*
X36689276Y-15898891D01*
X36719616Y-15737599D01*
X36726442Y-15600521D01*
X36715065Y-15451758D01*
X36676268Y-15309440D01*
X36609938Y-15189461D01*
X36503661Y-15076467D01*
X36372955Y-14994672D01*
X36304391Y-14967444D01*
X36443292Y-14913829D01*
X36576362Y-14820956D01*
X36682047Y-14694377D01*
X36752056Y-14555971D01*
X36768208Y-14511687D01*
X36801368Y-14360909D01*
X36810706Y-14207605D01*
X36810706Y-14165839D01*
X36803880Y-14018320D01*
X36778660Y-13865749D01*
X36727083Y-13717143D01*
X36640046Y-13582805D01*
X36616533Y-13557674D01*
X36489923Y-13463811D01*
X36348185Y-13406166D01*
X36201625Y-13375637D01*
X36034028Y-13363691D01*
X36008368Y-13363501D01*
G37*
G36*
X39288061Y-15431994D02*
G01*
X39273510Y-15279579D01*
X39229858Y-15136490D01*
X39157104Y-15002727D01*
X39055248Y-14878292D01*
X38983979Y-14811373D01*
X38867533Y-14716272D01*
X38781013Y-14650905D01*
X37873895Y-13996579D01*
X39288061Y-13996579D01*
X39288061Y-13406000D01*
X37008543Y-13406000D01*
X37008543Y-14207605D01*
X38528222Y-15305232D01*
X38528222Y-15516258D01*
X38498264Y-15660598D01*
X38373483Y-15757650D01*
X38274698Y-15769782D01*
X37092807Y-15769782D01*
X37092807Y-16360361D01*
X38443958Y-16360361D01*
X38601420Y-16353303D01*
X38763638Y-16327226D01*
X38920694Y-16273898D01*
X39047525Y-16195473D01*
X39087294Y-16159593D01*
X39184344Y-16027831D01*
X39243947Y-15878400D01*
X39275513Y-15722704D01*
X39287277Y-15570720D01*
X39288061Y-15516258D01*
X39288061Y-15431994D01*
G37*
G36*
X40413532Y-13406000D02*
G01*
X39654426Y-13406000D01*
X39654426Y-16360361D01*
X41996226Y-16360361D01*
X41996226Y-15769782D01*
X40413532Y-15769782D01*
X40413532Y-15072957D01*
X41659171Y-15072957D01*
X41659171Y-14482378D01*
X40413532Y-14482378D01*
X40413532Y-13406000D01*
G37*
G36*
X43669778Y-13996579D02*
G01*
X42108333Y-13996579D01*
X42108333Y-14587891D01*
X43121697Y-16360361D01*
X43965800Y-16360361D01*
X42952437Y-14587891D01*
X43669778Y-14587891D01*
X43669778Y-15220968D01*
X44429617Y-15220968D01*
X44429617Y-14587891D01*
X44724907Y-14587891D01*
X44724907Y-13996579D01*
X44429617Y-13996579D01*
X44429617Y-13406000D01*
X43669778Y-13406000D01*
X43669778Y-13996579D01*
G37*
G36*
X46550881Y-13363684D02*
G01*
X46718478Y-13375225D01*
X46865038Y-13404717D01*
X47006775Y-13460405D01*
X47133386Y-13551080D01*
X47218336Y-13657463D01*
X47284894Y-13806375D01*
X47318267Y-13964724D01*
X47327559Y-14123341D01*
X47327559Y-14672154D01*
X47326033Y-14725005D01*
X47303138Y-14871502D01*
X47245479Y-15013068D01*
X47153902Y-15132308D01*
X47120481Y-15163211D01*
X46994657Y-15244269D01*
X46846652Y-15291553D01*
X46694481Y-15305232D01*
X46398459Y-15305232D01*
X46299802Y-15303175D01*
X46153327Y-15293382D01*
X45997105Y-15275526D01*
X45831135Y-15249605D01*
X45681118Y-15220968D01*
X45681118Y-15600521D01*
X45690185Y-15672237D01*
X45792195Y-15786612D01*
X45939038Y-15811547D01*
X45947994Y-15811539D01*
X46098295Y-15809273D01*
X46251181Y-15803487D01*
X46308233Y-15798715D01*
X46455612Y-15788100D01*
X46573764Y-15780956D01*
X46721592Y-15771247D01*
X46818598Y-15765303D01*
X46965069Y-15756837D01*
X47116533Y-15748533D01*
X47116533Y-16317863D01*
X47065839Y-16323092D01*
X46916532Y-16337784D01*
X46723928Y-16355049D01*
X46538719Y-16369657D01*
X46360907Y-16381610D01*
X46190490Y-16390907D01*
X46027469Y-16397547D01*
X45871845Y-16401531D01*
X45723616Y-16402859D01*
X45697956Y-16402670D01*
X45530359Y-16390723D01*
X45383799Y-16360194D01*
X45242062Y-16302549D01*
X45115451Y-16208686D01*
X45091938Y-16183556D01*
X45004902Y-16049218D01*
X44953324Y-15900611D01*
X44928105Y-15748040D01*
X44921278Y-15600521D01*
X44921278Y-14207605D01*
X45681118Y-14207605D01*
X45681118Y-14672154D01*
X45748884Y-14679882D01*
X45894342Y-14697800D01*
X46034293Y-14710439D01*
X46187433Y-14714653D01*
X46419708Y-14714653D01*
X46525221Y-14672154D01*
X46567719Y-14566642D01*
X46567719Y-14207605D01*
X46555588Y-14109105D01*
X46458536Y-13984684D01*
X46314195Y-13954813D01*
X45934642Y-13954813D01*
X45835857Y-13966910D01*
X45711075Y-14063681D01*
X45681118Y-14207605D01*
X44921278Y-14207605D01*
X44921278Y-14123341D01*
X44928105Y-13986238D01*
X44958444Y-13824831D01*
X45021588Y-13672480D01*
X45115451Y-13551080D01*
X45140582Y-13528365D01*
X45274920Y-13444285D01*
X45423526Y-13394459D01*
X45576097Y-13370096D01*
X45723616Y-13363501D01*
X46525221Y-13363501D01*
X46550881Y-13363684D01*
G37*
G36*
X49265866Y-13364285D02*
G01*
X49417850Y-13376049D01*
X49573546Y-13407615D01*
X49722977Y-13467218D01*
X49854740Y-13564269D01*
X49890619Y-13604038D01*
X49969044Y-13730869D01*
X50022373Y-13887925D01*
X50048449Y-14050142D01*
X50055507Y-14207605D01*
X50055507Y-15558756D01*
X50054723Y-15613132D01*
X50042959Y-15764927D01*
X50011393Y-15920534D01*
X49951790Y-16070033D01*
X49854740Y-16202092D01*
X49815095Y-16237971D01*
X49688470Y-16316396D01*
X49531437Y-16369725D01*
X49369089Y-16395801D01*
X49211404Y-16402859D01*
X48409066Y-16402859D01*
X48354690Y-16402075D01*
X48202895Y-16390311D01*
X48047289Y-16358745D01*
X47897789Y-16299142D01*
X47765730Y-16202092D01*
X47729851Y-16162322D01*
X47651426Y-16035492D01*
X47598097Y-15878436D01*
X47572021Y-15716218D01*
X47564963Y-15558756D01*
X47564963Y-14207605D01*
X48324802Y-14207605D01*
X48324802Y-15558756D01*
X48336934Y-15657256D01*
X48433986Y-15781676D01*
X48578326Y-15811547D01*
X49042144Y-15811547D01*
X49140929Y-15799451D01*
X49265710Y-15702679D01*
X49295668Y-15558756D01*
X49295668Y-14207605D01*
X49283536Y-14109105D01*
X49186484Y-13984684D01*
X49042144Y-13954813D01*
X48578326Y-13954813D01*
X48479541Y-13966910D01*
X48354760Y-14063681D01*
X48324802Y-14207605D01*
X47564963Y-14207605D01*
X47565747Y-14153228D01*
X47577511Y-14001433D01*
X47609077Y-13845827D01*
X47668680Y-13696327D01*
X47765730Y-13564269D01*
X47805500Y-13528389D01*
X47932330Y-13449965D01*
X48089386Y-13396636D01*
X48251604Y-13370559D01*
X48409066Y-13363501D01*
X49211404Y-13363501D01*
X49265866Y-13364285D01*
G37*
G36*
X51222744Y-14250103D02*
G01*
X52236107Y-14250103D01*
X52290570Y-14250884D01*
X52442554Y-14262605D01*
X52598250Y-14294056D01*
X52747681Y-14353441D01*
X52879443Y-14450138D01*
X52915322Y-14489913D01*
X52993747Y-14616824D01*
X53047076Y-14774052D01*
X53073152Y-14936495D01*
X53080211Y-15094206D01*
X53080211Y-15516258D01*
X53079426Y-15570720D01*
X53067663Y-15722704D01*
X53036097Y-15878400D01*
X52976494Y-16027831D01*
X52879443Y-16159593D01*
X52839798Y-16195473D01*
X52713174Y-16273898D01*
X52556141Y-16327226D01*
X52393793Y-16353303D01*
X52236107Y-16360361D01*
X50463637Y-16360361D01*
X50463637Y-15769782D01*
X51222744Y-15769782D01*
X52066847Y-15769782D01*
X52165632Y-15757650D01*
X52290414Y-15660598D01*
X52320371Y-15516258D01*
X52320371Y-15094206D01*
X52308240Y-14995421D01*
X52211187Y-14870639D01*
X52066847Y-14840682D01*
X51222744Y-14840682D01*
X51222744Y-15769782D01*
X50463637Y-15769782D01*
X50463637Y-13406000D01*
X51222744Y-13406000D01*
X51222744Y-14250103D01*
G37*
G36*
X55786177Y-13406000D02*
G01*
X53444377Y-13406000D01*
X53444377Y-16360361D01*
X55786177Y-16360361D01*
X55786177Y-15769782D01*
X54203483Y-15769782D01*
X54203483Y-15199719D01*
X55449122Y-15199719D01*
X55449122Y-14609140D01*
X54203483Y-14609140D01*
X54203483Y-13996579D01*
X55786177Y-13996579D01*
X55786177Y-13406000D01*
G37*
G36*
X57546191Y-13406000D02*
G01*
X56786352Y-13406000D01*
X56786352Y-15769782D01*
X55900483Y-15769782D01*
X55900483Y-16360361D01*
X58432793Y-16360361D01*
X58432793Y-15769782D01*
X57546191Y-15769782D01*
X57546191Y-13406000D01*
G37*
G36*
X60554056Y-13406189D02*
G01*
X60721653Y-13418135D01*
X60868213Y-13448664D01*
X61009951Y-13506310D01*
X61136561Y-13600173D01*
X61160074Y-13625300D01*
X61247111Y-13759555D01*
X61298688Y-13907989D01*
X61323908Y-14060335D01*
X61330734Y-14207605D01*
X61321396Y-14360909D01*
X61288236Y-14511687D01*
X61272084Y-14555971D01*
X61202075Y-14694377D01*
X61096390Y-14820956D01*
X60963320Y-14913829D01*
X60824419Y-14967444D01*
X60873119Y-14989673D01*
X60996538Y-15076467D01*
X61094063Y-15189461D01*
X61156638Y-15309440D01*
X61193239Y-15451758D01*
X61203972Y-15600521D01*
X61197146Y-15737599D01*
X61166806Y-15898891D01*
X61103662Y-16051004D01*
X61009799Y-16172050D01*
X60984671Y-16194853D01*
X60850417Y-16279262D01*
X60701982Y-16329282D01*
X60549637Y-16353741D01*
X60402367Y-16360361D01*
X58714160Y-16360361D01*
X58714160Y-15769782D01*
X59473267Y-15769782D01*
X60191341Y-15769782D01*
X60289841Y-15757650D01*
X60414262Y-15660598D01*
X60444132Y-15516258D01*
X60444132Y-15431994D01*
X60432036Y-15333209D01*
X60335264Y-15208427D01*
X60191341Y-15178470D01*
X59473267Y-15178470D01*
X59473267Y-15769782D01*
X58714160Y-15769782D01*
X58714160Y-14587891D01*
X59473267Y-14587891D01*
X60317370Y-14587891D01*
X60416156Y-14575759D01*
X60540937Y-14478707D01*
X60570894Y-14334367D01*
X60570894Y-14250103D01*
X60558763Y-14151318D01*
X60461711Y-14026536D01*
X60317370Y-13996579D01*
X59473267Y-13996579D01*
X59473267Y-14587891D01*
X58714160Y-14587891D01*
X58714160Y-13406000D01*
X60528396Y-13406000D01*
X60554056Y-13406189D01*
G37*
D12*
%TO.C,HOLE\u002A\u002A*%
X-10890000Y1050000D02*
G75*
G02*
X-14490000Y1050000I-1800000J0D01*
G01*
X-14490000Y1050000D02*
G75*
G02*
X-10890000Y1050000I1800000J0D01*
G01*
X-10890000Y-41940000D02*
G75*
G02*
X-14490000Y-41940000I-1800000J0D01*
G01*
X-14490000Y-41940000D02*
G75*
G02*
X-10890000Y-41940000I1800000J0D01*
G01*
X70570000Y-4950000D02*
G75*
G02*
X66970000Y-4950000I-1800000J0D01*
G01*
X66970000Y-4950000D02*
G75*
G02*
X70570000Y-4950000I1800000J0D01*
G01*
X70570000Y-35970000D02*
G75*
G02*
X66970000Y-35970000I-1800000J0D01*
G01*
X66970000Y-35970000D02*
G75*
G02*
X70570000Y-35970000I1800000J0D01*
G01*
%TD*%
%LPC*%
D13*
%TO.C,J7*%
X5840000Y-37370000D03*
X8380000Y-37370000D03*
X10920000Y-37370000D03*
D14*
X13460000Y-37370000D03*
%TD*%
D15*
%TO.C,HOLE\u002A\u002A*%
X-12690000Y1050000D03*
%TD*%
D14*
%TO.C,J4*%
X32320000Y-37370000D03*
D13*
X29780000Y-37370000D03*
X27240000Y-37370000D03*
%TD*%
D15*
%TO.C,HOLE\u002A\u002A*%
X-12690000Y-41940000D03*
%TD*%
D14*
%TO.C,J8*%
X-10920000Y-34900000D03*
D13*
X-10920000Y-32360000D03*
X-10920000Y-29820000D03*
X-10920000Y-27280000D03*
%TD*%
D14*
%TO.C,J5*%
X-10920000Y-5990000D03*
D13*
X-10920000Y-8530000D03*
X-10920000Y-11070000D03*
X-10920000Y-13610000D03*
%TD*%
D16*
%TO.C,USB1*%
X-9690000Y-17555000D03*
X-9690000Y-23335000D03*
D17*
X-9190000Y-16120000D03*
X-9190000Y-24770000D03*
D18*
X-13390000Y-16120000D03*
X-13390000Y-24770000D03*
%TD*%
D14*
%TO.C,J9*%
X-13580000Y-34900000D03*
D13*
X-13580000Y-32360000D03*
X-13580000Y-29820000D03*
X-13580000Y-27280000D03*
%TD*%
D14*
%TO.C,J3*%
X-9970000Y4730000D03*
D13*
X-7430000Y4730000D03*
X-4890000Y4730000D03*
X-2350000Y4730000D03*
X190000Y4730000D03*
X2730000Y4730000D03*
X5270000Y4730000D03*
X7810000Y4730000D03*
X10350000Y4730000D03*
X12890000Y4730000D03*
X15430000Y4730000D03*
X17970000Y4730000D03*
X20510000Y4730000D03*
X23050000Y4730000D03*
X25590000Y4730000D03*
X28130000Y4730000D03*
X30670000Y4730000D03*
X33210000Y4730000D03*
X35750000Y4730000D03*
X38290000Y4730000D03*
X40830000Y4730000D03*
X43370000Y4730000D03*
X45910000Y4730000D03*
X48450000Y4730000D03*
X50990000Y4730000D03*
X53530000Y4730000D03*
X56070000Y4730000D03*
X58610000Y4730000D03*
X61150000Y4730000D03*
X63690000Y4730000D03*
X66230000Y4730000D03*
X68770000Y4730000D03*
X71310000Y4730000D03*
X73850000Y4730000D03*
%TD*%
D14*
%TO.C,J1*%
X77430000Y1130000D03*
D13*
X77430000Y-1410000D03*
X77430000Y-3950000D03*
X77430000Y-6490000D03*
X77430000Y-9030000D03*
X77430000Y-11570000D03*
X77430000Y-14110000D03*
X77430000Y-16650000D03*
X77430000Y-19190000D03*
X77430000Y-21730000D03*
X77430000Y-24270000D03*
X77430000Y-26810000D03*
X77430000Y-29350000D03*
X77430000Y-31890000D03*
X77430000Y-34430000D03*
X77430000Y-36970000D03*
X77430000Y-39510000D03*
X77430000Y-42050000D03*
%TD*%
D15*
%TO.C,HOLE\u002A\u002A*%
X68770000Y-4950000D03*
%TD*%
D14*
%TO.C,J6*%
X-13580000Y-5990000D03*
D13*
X-13580000Y-8530000D03*
X-13580000Y-11070000D03*
X-13580000Y-13610000D03*
%TD*%
D14*
%TO.C,J2*%
X-9970000Y-45620000D03*
D13*
X-7430000Y-45620000D03*
X-4890000Y-45620000D03*
X-2350000Y-45620000D03*
X190000Y-45620000D03*
X2730000Y-45620000D03*
X5270000Y-45620000D03*
X7810000Y-45620000D03*
X10350000Y-45620000D03*
X12890000Y-45620000D03*
X15430000Y-45620000D03*
X17970000Y-45620000D03*
X20510000Y-45620000D03*
X23050000Y-45620000D03*
X25590000Y-45620000D03*
X28130000Y-45620000D03*
X30670000Y-45620000D03*
X33210000Y-45620000D03*
X35750000Y-45620000D03*
X38290000Y-45620000D03*
X40830000Y-45620000D03*
X43370000Y-45620000D03*
X45910000Y-45620000D03*
X48450000Y-45620000D03*
X50990000Y-45620000D03*
X53530000Y-45620000D03*
X56070000Y-45620000D03*
X58610000Y-45620000D03*
X61150000Y-45620000D03*
X63690000Y-45620000D03*
X66230000Y-45620000D03*
X68770000Y-45620000D03*
X71310000Y-45620000D03*
X73850000Y-45620000D03*
%TD*%
D15*
%TO.C,HOLE\u002A\u002A*%
X68770000Y-35970000D03*
%TD*%
%LPD*%
M02*
