M48
; DRILL file {KiCad 8.0.4} date 2024-08-12T16:23:07+0800
; FORMAT={-:-/ absolute / metric / decimal}
; #@! TF.CreationDate,2024-08-12T16:23:07+08:00
; #@! TF.GenerationSoftware,Kicad,Pcbnew,8.0.4
; #@! TF.FileFunction,MixedPlating,1,2
FMAT,2
METRIC
; #@! TA.AperFunction,Plated,PTH,ViaDrill
T1C0.300
; #@! TA.AperFunction,Plated,PTH,ViaDrill
T2C0.400
; #@! TA.AperFunction,Plated,PTH,ComponentDrill
T3C0.600
; #@! TA.AperFunction,Plated,PTH,ComponentDrill
T4C1.000
; #@! TA.AperFunction,NonPlated,NPTH,ComponentDrill
T5C0.650
; #@! TA.AperFunction,NonPlated,NPTH,ComponentDrill
T6C2.200
%
G90
G05
T1
X0.0Y-8.78
X2.95Y-32.88
X2.95Y-34.18
X6.92Y-32.88
X6.92Y-35.42
X7.33Y-24.75
X7.81Y-29.56
X8.36Y-34.24
X8.692Y-24.75
X9.21Y-29.56
X9.25Y-33.5
X9.25Y-36.5
X10.055Y-24.75
X10.61Y-29.56
X11.417Y-24.75
X12.78Y-24.75
X14.0Y-36.5
X18.23Y-7.46
X19.23Y-7.46
X20.23Y-7.46
X20.58Y-11.61
X21.23Y-7.46
X22.23Y-7.46
X22.89Y-14.12
X22.9Y-15.89
X23.0Y-25.23
X25.94Y-26.28
X27.94Y-14.11
X29.23Y-19.46
X29.23Y-20.46
X29.23Y-21.46
X29.23Y-22.46
X29.23Y-23.46
X30.23Y-19.46
X30.23Y-20.46
X30.23Y-21.46
X30.23Y-22.46
X30.23Y-23.46
X31.23Y-19.46
X31.23Y-20.46
X31.23Y-21.46
X31.23Y-22.46
X31.23Y-23.46
X31.69Y-39.7
X32.23Y-19.46
X32.23Y-20.46
X32.23Y-21.46
X32.23Y-22.46
X32.23Y-23.46
X33.23Y-19.46
X33.23Y-20.46
X33.23Y-21.46
X33.23Y-22.46
X33.23Y-23.46
X34.23Y-19.46
X34.23Y-20.46
X34.23Y-21.46
X34.23Y-22.46
X34.23Y-23.46
X35.45Y-35.79
X35.96Y-6.62
X36.5Y-13.25
X36.75Y-5.83
X37.75Y-12.75
X37.75Y-13.75
X37.75Y-14.75
X38.91Y-6.25
X39.0Y-12.75
X39.0Y-13.75
X39.0Y-14.75
X39.91Y-6.25
X40.05Y-7.6
X40.25Y-12.75
X40.25Y-13.75
X40.91Y-6.25
X41.25Y-12.25
X41.91Y-6.25
X42.175Y-20.425
X42.23Y-21.46
X42.23Y-24.46
X42.25Y-11.5
X42.91Y-6.25
X43.0Y-10.75
X43.23Y-20.46
X43.23Y-21.46
X43.23Y-24.46
X43.23Y-25.46
X43.75Y-10.0
X43.91Y-6.25
X44.0Y-16.5
X44.23Y-20.46
X44.23Y-21.46
X44.23Y-24.46
X44.23Y-25.46
X44.23Y-26.46
X44.5Y-9.25
X44.91Y-6.25
X45.0Y-13.5
X45.0Y-16.5
X45.23Y-20.46
X45.23Y-21.46
X45.23Y-24.46
X45.23Y-25.46
X45.23Y-26.46
X45.23Y-27.46
X45.25Y-8.5
X45.75Y-12.75
X46.0Y-13.5
X46.0Y-16.5
X46.23Y-20.46
X46.23Y-21.46
X46.23Y-24.46
X46.23Y-25.46
X46.23Y-26.46
X46.23Y-27.46
X46.5Y-12.0
X47.0Y-6.75
X47.0Y-13.5
X47.0Y-16.5
X47.23Y-20.46
X47.23Y-21.46
X47.23Y-24.46
X47.23Y-25.46
X47.23Y-26.46
X47.23Y-27.46
X47.25Y-11.25
X48.0Y-10.5
X48.0Y-16.5
X48.23Y-27.46
X48.23Y-33.46
X49.23Y-27.46
X49.23Y-33.46
X50.23Y-27.46
X50.23Y-33.46
X50.453Y-9.17
X51.23Y-27.46
X51.23Y-33.46
X51.59Y-15.63
X52.23Y-20.46
X52.23Y-21.46
X52.23Y-22.46
X52.23Y-23.46
X52.23Y-24.46
X52.23Y-25.46
X52.23Y-26.46
X52.23Y-27.46
X52.23Y-28.46
X52.23Y-29.46
X52.23Y-30.46
X52.23Y-31.46
X52.23Y-32.46
X52.23Y-33.46
X52.25Y-8.75
X52.25Y-9.75
X52.25Y-10.75
X52.25Y-11.75
X52.25Y-12.75
X52.25Y-13.75
X53.206Y-21.425
X53.218Y-27.515
X53.23Y-20.46
X53.23Y-22.46
X53.23Y-23.46
X53.23Y-24.46
X53.23Y-25.46
X53.23Y-26.46
X53.23Y-28.46
X53.23Y-29.46
X53.23Y-30.46
X53.23Y-31.46
X53.23Y-32.46
X53.23Y-33.46
X53.25Y-8.75
X53.25Y-9.75
X53.25Y-10.75
X53.25Y-11.75
X53.25Y-12.75
X53.25Y-13.75
X53.442Y-15.63
X55.295Y-15.63
X57.148Y-15.63
X59.0Y-15.63
X60.0Y-6.04
X61.0Y-6.04
X62.0Y-6.04
X63.02Y-6.04
X64.0Y-6.04
T2
X2.66Y-19.06
X5.08Y-26.28
X13.89Y-17.03
X15.38Y-26.28
X26.62Y-10.4
T4
X-3.65Y-4.94
X-3.65Y-7.48
X-3.65Y-10.02
X-3.65Y-12.56
X-3.65Y-30.34
X-3.65Y-32.88
X-3.65Y-35.42
X-3.65Y-37.96
X2.49Y-1.36
X2.49Y-41.56
X5.03Y-1.36
X5.03Y-41.56
X7.57Y-1.36
X7.57Y-41.56
X10.11Y-1.36
X10.11Y-41.56
X12.65Y-1.36
X12.65Y-41.56
X15.19Y-1.36
X15.19Y-41.56
X17.73Y-1.36
X17.73Y-41.56
X19.54Y-33.01
X20.27Y-1.36
X20.27Y-41.56
X22.08Y-33.01
X22.81Y-1.36
X22.81Y-41.56
X25.35Y-1.36
X25.35Y-41.56
X27.89Y-1.36
X27.89Y-41.56
X30.43Y-1.36
X30.43Y-41.56
X32.97Y-1.36
X32.97Y-41.56
X35.51Y-1.36
X35.51Y-41.56
X38.05Y-1.36
X38.05Y-41.56
X40.59Y-1.36
X40.59Y-41.56
X43.13Y-1.36
X43.13Y-41.56
X45.67Y-1.36
X45.67Y-41.56
X48.21Y-1.36
X48.21Y-41.56
X50.75Y-1.36
X50.75Y-41.56
X53.29Y-1.36
X53.29Y-41.56
X55.83Y-1.36
X55.83Y-41.56
X58.37Y-1.36
X58.37Y-41.56
X60.91Y-1.36
X60.91Y-41.56
X67.03Y-4.94
X67.03Y-7.48
X67.03Y-10.02
X67.03Y-12.56
X67.03Y-15.1
X67.03Y-17.64
X67.03Y-20.18
X67.03Y-22.72
X67.03Y-25.26
X67.03Y-27.8
X67.03Y-30.34
X67.03Y-32.88
X67.03Y-35.42
X67.03Y-37.96
T5
X0.289Y-18.57
X0.289Y-24.35
T6
X-0.88Y-2.21
X-0.88Y-40.71
X64.28Y-2.21
X64.28Y-40.71
T3
G00X-2.961Y-17.135
M15
G01X-3.861Y-17.135
M16
G05
G00X-2.961Y-25.785
M15
G01X-3.861Y-25.785
M16
G05
G00X1.389Y-17.135
M15
G01X0.189Y-17.135
M16
G05
G00X1.389Y-25.785
M15
G01X0.189Y-25.785
M16
G05
M30
