%TF.GenerationSoftware,KiCad,Pcbnew,8.0.4*%
%TF.CreationDate,2024-08-23T17:26:40+08:00*%
%TF.ProjectId,UINIO-MCU-HC32F460PETB,55494e49-4f2d-44d4-9355-2d4843333246,Version 1.0.0*%
%TF.SameCoordinates,PX71f45d0PY4ce7800*%
%TF.FileFunction,Soldermask,Bot*%
%TF.FilePolarity,Negative*%
%FSLAX46Y46*%
G04 Gerber Fmt 4.6, Leading zero omitted, Abs format (unit mm)*
G04 Created by KiCad (PCBNEW 8.0.4) date 2024-08-23 17:26:40*
%MOMM*%
%LPD*%
G01*
G04 APERTURE LIST*
%ADD10O,1.700000X1.700000*%
%ADD11R,1.700000X1.700000*%
%ADD12C,2.200000*%
%ADD13C,0.650000*%
%ADD14O,2.100000X1.000000*%
%ADD15O,1.900000X1.000000*%
G04 APERTURE END LIST*
D10*
%TO.C,J7*%
X5840000Y-37370000D03*
X8380000Y-37370000D03*
X10920000Y-37370000D03*
D11*
X13460000Y-37370000D03*
%TD*%
D12*
%TO.C,HOLE\u002A\u002A*%
X-12690000Y1050000D03*
%TD*%
D11*
%TO.C,J4*%
X32320000Y-37370000D03*
D10*
X29780000Y-37370000D03*
X27240000Y-37370000D03*
%TD*%
D12*
%TO.C,HOLE\u002A\u002A*%
X-12690000Y-41940000D03*
%TD*%
D11*
%TO.C,J8*%
X-10920000Y-34900000D03*
D10*
X-10920000Y-32360000D03*
X-10920000Y-29820000D03*
X-10920000Y-27280000D03*
%TD*%
D11*
%TO.C,J5*%
X-10920000Y-5990000D03*
D10*
X-10920000Y-8530000D03*
X-10920000Y-11070000D03*
X-10920000Y-13610000D03*
%TD*%
D13*
%TO.C,USB1*%
X-9690000Y-17555000D03*
X-9690000Y-23335000D03*
D14*
X-9190000Y-16120000D03*
X-9190000Y-24770000D03*
D15*
X-13390000Y-16120000D03*
X-13390000Y-24770000D03*
%TD*%
D11*
%TO.C,J9*%
X-13580000Y-34900000D03*
D10*
X-13580000Y-32360000D03*
X-13580000Y-29820000D03*
X-13580000Y-27280000D03*
%TD*%
D11*
%TO.C,J3*%
X-9970000Y4730000D03*
D10*
X-7430000Y4730000D03*
X-4890000Y4730000D03*
X-2350000Y4730000D03*
X190000Y4730000D03*
X2730000Y4730000D03*
X5270000Y4730000D03*
X7810000Y4730000D03*
X10350000Y4730000D03*
X12890000Y4730000D03*
X15430000Y4730000D03*
X17970000Y4730000D03*
X20510000Y4730000D03*
X23050000Y4730000D03*
X25590000Y4730000D03*
X28130000Y4730000D03*
X30670000Y4730000D03*
X33210000Y4730000D03*
X35750000Y4730000D03*
X38290000Y4730000D03*
X40830000Y4730000D03*
X43370000Y4730000D03*
X45910000Y4730000D03*
X48450000Y4730000D03*
X50990000Y4730000D03*
X53530000Y4730000D03*
X56070000Y4730000D03*
X58610000Y4730000D03*
X61150000Y4730000D03*
X63690000Y4730000D03*
X66230000Y4730000D03*
X68770000Y4730000D03*
X71310000Y4730000D03*
X73850000Y4730000D03*
%TD*%
D11*
%TO.C,J1*%
X77430000Y1130000D03*
D10*
X77430000Y-1410000D03*
X77430000Y-3950000D03*
X77430000Y-6490000D03*
X77430000Y-9030000D03*
X77430000Y-11570000D03*
X77430000Y-14110000D03*
X77430000Y-16650000D03*
X77430000Y-19190000D03*
X77430000Y-21730000D03*
X77430000Y-24270000D03*
X77430000Y-26810000D03*
X77430000Y-29350000D03*
X77430000Y-31890000D03*
X77430000Y-34430000D03*
X77430000Y-36970000D03*
X77430000Y-39510000D03*
X77430000Y-42050000D03*
%TD*%
D12*
%TO.C,HOLE\u002A\u002A*%
X68770000Y-4950000D03*
%TD*%
D11*
%TO.C,J6*%
X-13580000Y-5990000D03*
D10*
X-13580000Y-8530000D03*
X-13580000Y-11070000D03*
X-13580000Y-13610000D03*
%TD*%
D11*
%TO.C,J2*%
X-9970000Y-45620000D03*
D10*
X-7430000Y-45620000D03*
X-4890000Y-45620000D03*
X-2350000Y-45620000D03*
X190000Y-45620000D03*
X2730000Y-45620000D03*
X5270000Y-45620000D03*
X7810000Y-45620000D03*
X10350000Y-45620000D03*
X12890000Y-45620000D03*
X15430000Y-45620000D03*
X17970000Y-45620000D03*
X20510000Y-45620000D03*
X23050000Y-45620000D03*
X25590000Y-45620000D03*
X28130000Y-45620000D03*
X30670000Y-45620000D03*
X33210000Y-45620000D03*
X35750000Y-45620000D03*
X38290000Y-45620000D03*
X40830000Y-45620000D03*
X43370000Y-45620000D03*
X45910000Y-45620000D03*
X48450000Y-45620000D03*
X50990000Y-45620000D03*
X53530000Y-45620000D03*
X56070000Y-45620000D03*
X58610000Y-45620000D03*
X61150000Y-45620000D03*
X63690000Y-45620000D03*
X66230000Y-45620000D03*
X68770000Y-45620000D03*
X71310000Y-45620000D03*
X73850000Y-45620000D03*
%TD*%
D12*
%TO.C,HOLE\u002A\u002A*%
X68770000Y-35970000D03*
%TD*%
M02*
